<?xml version="1.0" encoding="utf-8" standalone="no"?>
<!DOCTYPE svg PUBLIC "-//W3C//DTD SVG 1.1//EN"
  "http://www.w3.org/Graphics/SVG/1.1/DTD/svg11.dtd">
<!-- Created with matplotlib (https://matplotlib.org/) -->
<svg height="374.41625pt" version="1.1" viewBox="0 0 1073.263438 374.41625" width="1073.263438pt" xmlns="http://www.w3.org/2000/svg" xmlns:xlink="http://www.w3.org/1999/xlink">
 <defs>
  <style type="text/css">
*{stroke-linecap:butt;stroke-linejoin:round;}
  </style>
 </defs>
 <g id="figure_1">
  <g id="patch_1">
   <path d="M 0 374.41625 
L 1073.263438 374.41625 
L 1073.263438 0 
L 0 0 
z
" style="fill:#ffffff;"/>
  </g>
  <g id="axes_1">
   <g id="patch_2">
    <path d="M 61.663438 333.36 
L 1066.063438 333.36 
L 1066.063438 7.2 
L 61.663438 7.2 
z
" style="fill:#ffffff;"/>
   </g>
   <g id="PolyCollection_1">
    <defs>
     <path d="M 96.766525 -41.05625 
L 96.766525 -43.305629 
L 96.766525 -41.05625 
L 96.766525 -41.05625 
z
" id="mb48ef570bc" style="stroke:#4d4d4d;"/>
    </defs>
    <g clip-path="url(#p9f0f3995e9)">
     <use style="fill:#4d4d4d;stroke:#4d4d4d;" x="0" xlink:href="#mb48ef570bc" y="374.41625"/>
    </g>
   </g>
   <g id="PolyCollection_2">
    <defs>
     <path d="M 137.905986 -41.05625 
L 137.905986 -50.053767 
L 137.905986 -41.05625 
L 137.905986 -41.05625 
z
" id="mde3fc2467d" style="stroke:#4d4d4d;"/>
    </defs>
    <g clip-path="url(#p9f0f3995e9)">
     <use style="fill:#4d4d4d;stroke:#4d4d4d;" x="0" xlink:href="#mde3fc2467d" y="374.41625"/>
    </g>
   </g>
   <g id="PolyCollection_3">
    <defs>
     <path d="M 138.576036 -41.05625 
L 138.576036 -50.053767 
L 138.576036 -41.05625 
L 138.576036 -41.05625 
z
" id="mcf40415827" style="stroke:#4d4d4d;"/>
    </defs>
    <g clip-path="url(#p9f0f3995e9)">
     <use style="fill:#4d4d4d;stroke:#4d4d4d;" x="0" xlink:href="#mcf40415827" y="374.41625"/>
    </g>
   </g>
   <g id="PolyCollection_4">
    <defs>
     <path d="M 144.132469 -41.05625 
L 144.132469 -43.305629 
L 144.132469 -41.05625 
L 144.132469 -41.05625 
z
" id="m7586593050" style="stroke:#4d4d4d;"/>
    </defs>
    <g clip-path="url(#p9f0f3995e9)">
     <use style="fill:#4d4d4d;stroke:#4d4d4d;" x="0" xlink:href="#m7586593050" y="374.41625"/>
    </g>
   </g>
   <g id="PolyCollection_5">
    <defs>
     <path d="M 145.779819 -41.05625 
L 145.779819 -54.552526 
L 145.779819 -41.05625 
L 145.779819 -41.05625 
z
" id="m307a7920f0" style="stroke:#4d4d4d;"/>
    </defs>
    <g clip-path="url(#p9f0f3995e9)">
     <use style="fill:#4d4d4d;stroke:#4d4d4d;" x="0" xlink:href="#m307a7920f0" y="374.41625"/>
    </g>
   </g>
   <g id="PolyCollection_6">
    <defs>
     <path d="M 159.50208 -41.05625 
L 159.50208 -47.804388 
L 159.50208 -41.05625 
L 159.50208 -41.05625 
z
" id="m0d22cc2dac" style="stroke:#4d4d4d;"/>
    </defs>
    <g clip-path="url(#p9f0f3995e9)">
     <use style="fill:#4d4d4d;stroke:#4d4d4d;" x="0" xlink:href="#m0d22cc2dac" y="374.41625"/>
    </g>
   </g>
   <g id="PolyCollection_7">
    <defs>
     <path d="M 191.415198 -41.05625 
L 191.415198 -47.804388 
L 191.415198 -41.05625 
L 191.415198 -41.05625 
z
" id="m59490b36a9" style="stroke:#4d4d4d;"/>
    </defs>
    <g clip-path="url(#p9f0f3995e9)">
     <use style="fill:#4d4d4d;stroke:#4d4d4d;" x="0" xlink:href="#m59490b36a9" y="374.41625"/>
    </g>
   </g>
   <g id="PolyCollection_8">
    <defs>
     <path d="M 193.873644 -41.05625 
L 193.873644 -56.801905 
L 193.873644 -41.05625 
L 193.873644 -41.05625 
z
" id="m0a42af457e" style="stroke:#4d4d4d;"/>
    </defs>
    <g clip-path="url(#p9f0f3995e9)">
     <use style="fill:#4d4d4d;stroke:#4d4d4d;" x="0" xlink:href="#m0a42af457e" y="374.41625"/>
    </g>
   </g>
   <g id="PolyCollection_9">
    <defs>
     <path d="M 251.373106 -41.05625 
L 251.373106 -59.051284 
L 251.373106 -41.05625 
L 251.373106 -41.05625 
z
" id="m7cc08c1b4c" style="stroke:#4d4d4d;"/>
    </defs>
    <g clip-path="url(#p9f0f3995e9)">
     <use style="fill:#4d4d4d;stroke:#4d4d4d;" x="0" xlink:href="#m7cc08c1b4c" y="374.41625"/>
    </g>
   </g>
   <g id="PolyCollection_10">
    <defs>
     <path d="M 252.200025 -41.05625 
L 252.200025 -52.303147 
L 252.200025 -41.05625 
L 252.200025 -41.05625 
z
" id="m4ff304fb57" style="stroke:#4d4d4d;"/>
    </defs>
    <g clip-path="url(#p9f0f3995e9)">
     <use style="fill:#4d4d4d;stroke:#4d4d4d;" x="0" xlink:href="#m4ff304fb57" y="374.41625"/>
    </g>
   </g>
   <g id="PolyCollection_11">
    <defs>
     <path d="M 252.832282 -41.05625 
L 252.832282 -54.552526 
L 252.832282 -41.05625 
L 252.832282 -41.05625 
z
" id="mb076e1f210" style="stroke:#4d4d4d;"/>
    </defs>
    <g clip-path="url(#p9f0f3995e9)">
     <use style="fill:#4d4d4d;stroke:#4d4d4d;" x="0" xlink:href="#mb076e1f210" y="374.41625"/>
    </g>
   </g>
   <g id="PolyCollection_12">
    <defs>
     <path d="M 281.353255 -41.05625 
L 281.353255 -43.305629 
L 281.353255 -41.05625 
L 281.353255 -41.05625 
z
" id="m3e7703ea66" style="stroke:#4d4d4d;"/>
    </defs>
    <g clip-path="url(#p9f0f3995e9)">
     <use style="fill:#4d4d4d;stroke:#4d4d4d;" x="0" xlink:href="#m3e7703ea66" y="374.41625"/>
    </g>
   </g>
   <g id="PolyCollection_13">
    <defs>
     <path d="M 310.230542 -41.05625 
L 310.230542 -43.305629 
L 310.230542 -41.05625 
L 310.230542 -41.05625 
z
" id="m6a804891ab" style="stroke:#4d4d4d;"/>
    </defs>
    <g clip-path="url(#p9f0f3995e9)">
     <use style="fill:#4d4d4d;stroke:#4d4d4d;" x="0" xlink:href="#m6a804891ab" y="374.41625"/>
    </g>
   </g>
   <g id="PolyCollection_14">
    <defs>
     <path d="M 332.466292 -41.05625 
L 332.466292 -47.804388 
L 332.466292 -41.05625 
L 332.466292 -41.05625 
z
" id="m01939a4ac4" style="stroke:#4d4d4d;"/>
    </defs>
    <g clip-path="url(#p9f0f3995e9)">
     <use style="fill:#4d4d4d;stroke:#4d4d4d;" x="0" xlink:href="#m01939a4ac4" y="374.41625"/>
    </g>
   </g>
   <g id="PolyCollection_15">
    <defs>
     <path d="M 337.768638 -41.05625 
L 337.768638 -54.552526 
L 337.768638 -41.05625 
L 337.768638 -41.05625 
z
" id="m62086455eb" style="stroke:#4d4d4d;"/>
    </defs>
    <g clip-path="url(#p9f0f3995e9)">
     <use style="fill:#4d4d4d;stroke:#4d4d4d;" x="0" xlink:href="#m62086455eb" y="374.41625"/>
    </g>
   </g>
   <g id="PolyCollection_16">
    <defs>
     <path d="M 428.824129 -41.05625 
L 428.824129 -45.555009 
L 428.824129 -41.05625 
L 428.824129 -41.05625 
z
" id="m3deca52654" style="stroke:#4d4d4d;"/>
    </defs>
    <g clip-path="url(#p9f0f3995e9)">
     <use style="fill:#4d4d4d;stroke:#4d4d4d;" x="0" xlink:href="#m3deca52654" y="374.41625"/>
    </g>
   </g>
   <g id="PolyCollection_17">
    <defs>
     <path d="M 430.258602 -41.05625 
L 430.258602 -50.053767 
L 430.258602 -41.05625 
L 430.258602 -41.05625 
z
" id="m3d73121548" style="stroke:#4d4d4d;"/>
    </defs>
    <g clip-path="url(#p9f0f3995e9)">
     <use style="fill:#4d4d4d;stroke:#4d4d4d;" x="0" xlink:href="#m3d73121548" y="374.41625"/>
    </g>
   </g>
   <g id="PolyCollection_18">
    <defs>
     <path d="M 434.395475 -41.05625 
L 434.395475 -173.769629 
L 434.395475 -41.05625 
L 434.395475 -41.05625 
z
" id="m1a69467787" style="stroke:#4d4d4d;"/>
    </defs>
    <g clip-path="url(#p9f0f3995e9)">
     <use style="fill:#4d4d4d;stroke:#4d4d4d;" x="0" xlink:href="#m1a69467787" y="374.41625"/>
    </g>
   </g>
   <g id="PolyCollection_19">
    <defs>
     <path d="M 435.914757 -41.05625 
L 435.914757 -43.305629 
L 435.914757 -41.05625 
L 435.914757 -41.05625 
z
" id="m3b192c45a3" style="stroke:#4d4d4d;"/>
    </defs>
    <g clip-path="url(#p9f0f3995e9)">
     <use style="fill:#4d4d4d;stroke:#4d4d4d;" x="0" xlink:href="#m3b192c45a3" y="374.41625"/>
    </g>
   </g>
   <g id="PolyCollection_20">
    <defs>
     <path d="M 466.817108 -41.05625 
L 466.817108 -56.801905 
L 466.817108 -41.05625 
L 466.817108 -41.05625 
z
" id="m4a27f8c13f" style="stroke:#4d4d4d;"/>
    </defs>
    <g clip-path="url(#p9f0f3995e9)">
     <use style="fill:#4d4d4d;stroke:#4d4d4d;" x="0" xlink:href="#m4a27f8c13f" y="374.41625"/>
    </g>
   </g>
   <g id="PolyCollection_21">
    <defs>
     <path d="M 466.887232 -41.05625 
L 466.887232 -50.053767 
L 466.887232 -41.05625 
L 466.887232 -41.05625 
z
" id="mf878af9580" style="stroke:#4d4d4d;"/>
    </defs>
    <g clip-path="url(#p9f0f3995e9)">
     <use style="fill:#4d4d4d;stroke:#4d4d4d;" x="0" xlink:href="#mf878af9580" y="374.41625"/>
    </g>
   </g>
   <g id="PolyCollection_22">
    <defs>
     <path d="M 467.45665 -41.05625 
L 467.45665 -54.552526 
L 467.45665 -41.05625 
L 467.45665 -41.05625 
z
" id="mbd79469e5d" style="stroke:#4d4d4d;"/>
    </defs>
    <g clip-path="url(#p9f0f3995e9)">
     <use style="fill:#4d4d4d;stroke:#4d4d4d;" x="0" xlink:href="#mbd79469e5d" y="374.41625"/>
    </g>
   </g>
   <g id="PolyCollection_23">
    <defs>
     <path d="M 467.860888 -41.05625 
L 467.860888 -43.305629 
L 467.860888 -41.05625 
L 467.860888 -41.05625 
z
" id="m53d87fa24b" style="stroke:#4d4d4d;"/>
    </defs>
    <g clip-path="url(#p9f0f3995e9)">
     <use style="fill:#4d4d4d;stroke:#4d4d4d;" x="0" xlink:href="#m53d87fa24b" y="374.41625"/>
    </g>
   </g>
   <g id="PolyCollection_24">
    <defs>
     <path d="M 467.928167 -41.05625 
L 467.928167 -43.305629 
L 467.928167 -41.05625 
L 467.928167 -41.05625 
z
" id="m90b03cde7f" style="stroke:#4d4d4d;"/>
    </defs>
    <g clip-path="url(#p9f0f3995e9)">
     <use style="fill:#4d4d4d;stroke:#4d4d4d;" x="0" xlink:href="#m90b03cde7f" y="374.41625"/>
    </g>
   </g>
   <g id="PolyCollection_25">
    <defs>
     <path d="M 468.484265 -41.05625 
L 468.484265 -52.303147 
L 468.484265 -41.05625 
L 468.484265 -41.05625 
z
" id="m1ccb4dc57b" style="stroke:#4d4d4d;"/>
    </defs>
    <g clip-path="url(#p9f0f3995e9)">
     <use style="fill:#4d4d4d;stroke:#4d4d4d;" x="0" xlink:href="#m1ccb4dc57b" y="374.41625"/>
    </g>
   </g>
   <g id="PolyCollection_26">
    <defs>
     <path d="M 468.898863 -41.05625 
L 468.898863 -43.305629 
L 468.898863 -41.05625 
L 468.898863 -41.05625 
z
" id="mcef84ff028" style="stroke:#4d4d4d;"/>
    </defs>
    <g clip-path="url(#p9f0f3995e9)">
     <use style="fill:#4d4d4d;stroke:#4d4d4d;" x="0" xlink:href="#mcef84ff028" y="374.41625"/>
    </g>
   </g>
   <g id="PolyCollection_27">
    <defs>
     <path d="M 486.020555 -41.05625 
L 486.020555 -43.305629 
L 486.020555 -41.05625 
L 486.020555 -41.05625 
z
" id="m958c004756" style="stroke:#4d4d4d;"/>
    </defs>
    <g clip-path="url(#p9f0f3995e9)">
     <use style="fill:#4d4d4d;stroke:#4d4d4d;" x="0" xlink:href="#m958c004756" y="374.41625"/>
    </g>
   </g>
   <g id="PolyCollection_28">
    <defs>
     <path d="M 513.189133 -41.05625 
L 513.189133 -95.041353 
L 513.189133 -41.05625 
L 513.189133 -41.05625 
z
" id="m970f57072e" style="stroke:#4d4d4d;"/>
    </defs>
    <g clip-path="url(#p9f0f3995e9)">
     <use style="fill:#4d4d4d;stroke:#4d4d4d;" x="0" xlink:href="#m970f57072e" y="374.41625"/>
    </g>
   </g>
   <g id="PolyCollection_29">
    <defs>
     <path d="M 515.012931 -41.05625 
L 515.012931 -43.305629 
L 515.012931 -41.05625 
L 515.012931 -41.05625 
z
" id="ma4515d42e2" style="stroke:#4d4d4d;"/>
    </defs>
    <g clip-path="url(#p9f0f3995e9)">
     <use style="fill:#4d4d4d;stroke:#4d4d4d;" x="0" xlink:href="#ma4515d42e2" y="374.41625"/>
    </g>
   </g>
   <g id="PolyCollection_30">
    <defs>
     <path d="M 534.008852 -41.05625 
L 534.008852 -70.298181 
L 534.008852 -41.05625 
L 534.008852 -41.05625 
z
" id="mdeee6d42f2" style="stroke:#4d4d4d;"/>
    </defs>
    <g clip-path="url(#p9f0f3995e9)">
     <use style="fill:#4d4d4d;stroke:#4d4d4d;" x="0" xlink:href="#mdeee6d42f2" y="374.41625"/>
    </g>
   </g>
   <g id="PolyCollection_31">
    <defs>
     <path d="M 554.609546 -41.05625 
L 554.609546 -119.784526 
L 554.609546 -41.05625 
L 554.609546 -41.05625 
z
" id="m0ec85176a9" style="stroke:#4d4d4d;"/>
    </defs>
    <g clip-path="url(#p9f0f3995e9)">
     <use style="fill:#4d4d4d;stroke:#4d4d4d;" x="0" xlink:href="#m0ec85176a9" y="374.41625"/>
    </g>
   </g>
   <g id="PolyCollection_32">
    <defs>
     <path d="M 555.522299 -41.05625 
L 555.522299 -47.804388 
L 555.522299 -41.05625 
L 555.522299 -41.05625 
z
" id="m1539a034a3" style="stroke:#4d4d4d;"/>
    </defs>
    <g clip-path="url(#p9f0f3995e9)">
     <use style="fill:#4d4d4d;stroke:#4d4d4d;" x="0" xlink:href="#m1539a034a3" y="374.41625"/>
    </g>
   </g>
   <g id="PolyCollection_33">
    <defs>
     <path d="M 601.650939 -41.05625 
L 601.650939 -45.555009 
L 601.650939 -41.05625 
L 601.650939 -41.05625 
z
" id="m17d50ba6c6" style="stroke:#4d4d4d;"/>
    </defs>
    <g clip-path="url(#p9f0f3995e9)">
     <use style="fill:#4d4d4d;stroke:#4d4d4d;" x="0" xlink:href="#m17d50ba6c6" y="374.41625"/>
    </g>
   </g>
   <g id="PolyCollection_34">
    <defs>
     <path d="M 638.155144 -41.05625 
L 638.155144 -63.550043 
L 638.155144 -41.05625 
L 638.155144 -41.05625 
z
" id="me1be7ae11a" style="stroke:#4d4d4d;"/>
    </defs>
    <g clip-path="url(#p9f0f3995e9)">
     <use style="fill:#4d4d4d;stroke:#4d4d4d;" x="0" xlink:href="#me1be7ae11a" y="374.41625"/>
    </g>
   </g>
   <g id="PolyCollection_35">
    <defs>
     <path d="M 662.41186 -41.05625 
L 662.41186 -45.555009 
L 662.41186 -41.05625 
L 662.41186 -41.05625 
z
" id="ma0d8b83a9d" style="stroke:#4d4d4d;"/>
    </defs>
    <g clip-path="url(#p9f0f3995e9)">
     <use style="fill:#4d4d4d;stroke:#4d4d4d;" x="0" xlink:href="#ma0d8b83a9d" y="374.41625"/>
    </g>
   </g>
   <g id="PolyCollection_36">
    <defs>
     <path d="M 677.281835 -41.05625 
L 677.281835 -43.305629 
L 677.281835 -41.05625 
L 677.281835 -41.05625 
z
" id="m4c050cb3f0" style="stroke:#4d4d4d;"/>
    </defs>
    <g clip-path="url(#p9f0f3995e9)">
     <use style="fill:#4d4d4d;stroke:#4d4d4d;" x="0" xlink:href="#m4c050cb3f0" y="374.41625"/>
    </g>
   </g>
   <g id="PolyCollection_37">
    <defs>
     <path d="M 696.446463 -41.05625 
L 696.446463 -45.555009 
L 696.446463 -41.05625 
L 696.446463 -41.05625 
z
" id="m68e6bc281e" style="stroke:#4d4d4d;"/>
    </defs>
    <g clip-path="url(#p9f0f3995e9)">
     <use style="fill:#4d4d4d;stroke:#4d4d4d;" x="0" xlink:href="#m68e6bc281e" y="374.41625"/>
    </g>
   </g>
   <g id="PolyCollection_38">
    <defs>
     <path d="M 700.008796 -41.05625 
L 700.008796 -45.555009 
L 700.008796 -41.05625 
L 700.008796 -41.05625 
z
" id="m8a32a25ab9" style="stroke:#4d4d4d;"/>
    </defs>
    <g clip-path="url(#p9f0f3995e9)">
     <use style="fill:#4d4d4d;stroke:#4d4d4d;" x="0" xlink:href="#m8a32a25ab9" y="374.41625"/>
    </g>
   </g>
   <g id="PolyCollection_39">
    <defs>
     <path d="M 714.514034 -41.05625 
L 714.514034 -72.54756 
L 714.514034 -41.05625 
L 714.514034 -41.05625 
z
" id="mc763e03840" style="stroke:#4d4d4d;"/>
    </defs>
    <g clip-path="url(#p9f0f3995e9)">
     <use style="fill:#4d4d4d;stroke:#4d4d4d;" x="0" xlink:href="#mc763e03840" y="374.41625"/>
    </g>
   </g>
   <g id="PolyCollection_40">
    <defs>
     <path d="M 746.319007 -41.05625 
L 746.319007 -43.305629 
L 746.319007 -41.05625 
L 746.319007 -41.05625 
z
" id="m9fda75c4ce" style="stroke:#4d4d4d;"/>
    </defs>
    <g clip-path="url(#p9f0f3995e9)">
     <use style="fill:#4d4d4d;stroke:#4d4d4d;" x="0" xlink:href="#m9fda75c4ce" y="374.41625"/>
    </g>
   </g>
   <g id="PolyCollection_41">
    <defs>
     <path d="M 772.633117 -41.05625 
L 772.633117 -43.305629 
L 772.633117 -41.05625 
L 772.633117 -41.05625 
z
" id="m19efd2b3fe" style="stroke:#4d4d4d;"/>
    </defs>
    <g clip-path="url(#p9f0f3995e9)">
     <use style="fill:#4d4d4d;stroke:#4d4d4d;" x="0" xlink:href="#m19efd2b3fe" y="374.41625"/>
    </g>
   </g>
   <g id="PolyCollection_42">
    <defs>
     <path d="M 774.416389 -41.05625 
L 774.416389 -43.305629 
L 774.416389 -41.05625 
L 774.416389 -41.05625 
z
" id="ma6859a42da" style="stroke:#4d4d4d;"/>
    </defs>
    <g clip-path="url(#p9f0f3995e9)">
     <use style="fill:#4d4d4d;stroke:#4d4d4d;" x="0" xlink:href="#ma6859a42da" y="374.41625"/>
    </g>
   </g>
   <g id="PolyCollection_43">
    <defs>
     <path d="M 797.66894 -41.05625 
L 797.66894 -77.046319 
L 797.66894 -41.05625 
L 797.66894 -41.05625 
z
" id="m6d4e22a15d" style="stroke:#4d4d4d;"/>
    </defs>
    <g clip-path="url(#p9f0f3995e9)">
     <use style="fill:#4d4d4d;stroke:#4d4d4d;" x="0" xlink:href="#m6d4e22a15d" y="374.41625"/>
    </g>
   </g>
   <g id="PolyCollection_44">
    <defs>
     <path d="M 821.338593 -41.05625 
L 821.338593 -47.804388 
L 821.338593 -41.05625 
L 821.338593 -41.05625 
z
" id="m14846cc780" style="stroke:#4d4d4d;"/>
    </defs>
    <g clip-path="url(#p9f0f3995e9)">
     <use style="fill:#4d4d4d;stroke:#4d4d4d;" x="0" xlink:href="#m14846cc780" y="374.41625"/>
    </g>
   </g>
   <g id="PolyCollection_45">
    <defs>
     <path d="M 831.188654 -41.05625 
L 831.188654 -72.54756 
L 831.188654 -41.05625 
L 831.188654 -41.05625 
z
" id="m54dc61cee3" style="stroke:#4d4d4d;"/>
    </defs>
    <g clip-path="url(#p9f0f3995e9)">
     <use style="fill:#4d4d4d;stroke:#4d4d4d;" x="0" xlink:href="#m54dc61cee3" y="374.41625"/>
    </g>
   </g>
   <g id="PolyCollection_46">
    <defs>
     <path d="M 870.86063 -41.05625 
L 870.86063 -43.305629 
L 870.86063 -41.05625 
L 870.86063 -41.05625 
z
" id="md3cd0d1f32" style="stroke:#4d4d4d;"/>
    </defs>
    <g clip-path="url(#p9f0f3995e9)">
     <use style="fill:#4d4d4d;stroke:#4d4d4d;" x="0" xlink:href="#md3cd0d1f32" y="374.41625"/>
    </g>
   </g>
   <g id="PolyCollection_47">
    <defs>
     <path d="M 895.85809 -41.05625 
L 895.85809 -43.305629 
L 895.85809 -41.05625 
L 895.85809 -41.05625 
z
" id="m5d99688559" style="stroke:#4d4d4d;"/>
    </defs>
    <g clip-path="url(#p9f0f3995e9)">
     <use style="fill:#4d4d4d;stroke:#4d4d4d;" x="0" xlink:href="#m5d99688559" y="374.41625"/>
    </g>
   </g>
   <g id="PolyCollection_48">
    <defs>
     <path d="M 902.024467 -41.05625 
L 902.024467 -45.555009 
L 902.024467 -41.05625 
L 902.024467 -41.05625 
z
" id="m8ecfaa92f2" style="stroke:#4d4d4d;"/>
    </defs>
    <g clip-path="url(#p9f0f3995e9)">
     <use style="fill:#4d4d4d;stroke:#4d4d4d;" x="0" xlink:href="#m8ecfaa92f2" y="374.41625"/>
    </g>
   </g>
   <g id="PolyCollection_49">
    <defs>
     <path d="M 911.611903 -41.05625 
L 911.611903 -47.804388 
L 911.611903 -41.05625 
L 911.611903 -41.05625 
z
" id="md71c2aa73e" style="stroke:#4d4d4d;"/>
    </defs>
    <g clip-path="url(#p9f0f3995e9)">
     <use style="fill:#4d4d4d;stroke:#4d4d4d;" x="0" xlink:href="#md71c2aa73e" y="374.41625"/>
    </g>
   </g>
   <g id="PolyCollection_50">
    <defs>
     <path d="M 913.277695 -41.05625 
L 913.277695 -45.555009 
L 913.277695 -41.05625 
L 913.277695 -41.05625 
z
" id="m5ee482cfff" style="stroke:#4d4d4d;"/>
    </defs>
    <g clip-path="url(#p9f0f3995e9)">
     <use style="fill:#4d4d4d;stroke:#4d4d4d;" x="0" xlink:href="#m5ee482cfff" y="374.41625"/>
    </g>
   </g>
   <g id="PolyCollection_51">
    <defs>
     <path d="M 915.094891 -41.05625 
L 915.094891 -59.051284 
L 915.094891 -41.05625 
L 915.094891 -41.05625 
z
" id="m1ae4d1649a" style="stroke:#4d4d4d;"/>
    </defs>
    <g clip-path="url(#p9f0f3995e9)">
     <use style="fill:#4d4d4d;stroke:#4d4d4d;" x="0" xlink:href="#m1ae4d1649a" y="374.41625"/>
    </g>
   </g>
   <g id="PolyCollection_52">
    <defs>
     <path d="M 927.458381 -41.05625 
L 927.458381 -43.305629 
L 927.458381 -41.05625 
L 927.458381 -41.05625 
z
" id="m90a7df590e" style="stroke:#4d4d4d;"/>
    </defs>
    <g clip-path="url(#p9f0f3995e9)">
     <use style="fill:#4d4d4d;stroke:#4d4d4d;" x="0" xlink:href="#m90a7df590e" y="374.41625"/>
    </g>
   </g>
   <g id="PolyCollection_53">
    <defs>
     <path d="M 931.505778 -41.05625 
L 931.505778 -43.305629 
L 931.505778 -41.05625 
L 931.505778 -41.05625 
z
" id="m159b3362a1" style="stroke:#4d4d4d;"/>
    </defs>
    <g clip-path="url(#p9f0f3995e9)">
     <use style="fill:#4d4d4d;stroke:#4d4d4d;" x="0" xlink:href="#m159b3362a1" y="374.41625"/>
    </g>
   </g>
   <g id="PolyCollection_54">
    <defs>
     <path d="M 937.434461 -41.05625 
L 937.434461 -360.468112 
L 937.434461 -41.05625 
L 937.434461 -41.05625 
z
" id="ma21eee071d" style="stroke:#4d4d4d;"/>
    </defs>
    <g clip-path="url(#p9f0f3995e9)">
     <use style="fill:#4d4d4d;stroke:#4d4d4d;" x="0" xlink:href="#ma21eee071d" y="374.41625"/>
    </g>
   </g>
   <g id="PolyCollection_55">
    <defs>
     <path d="M 956.120742 -41.05625 
L 956.120742 -52.303147 
L 956.120742 -41.05625 
L 956.120742 -41.05625 
z
" id="m9e0ab0cb16" style="stroke:#4d4d4d;"/>
    </defs>
    <g clip-path="url(#p9f0f3995e9)">
     <use style="fill:#4d4d4d;stroke:#4d4d4d;" x="0" xlink:href="#m9e0ab0cb16" y="374.41625"/>
    </g>
   </g>
   <g id="PolyCollection_56">
    <defs>
     <path d="M 957.3083 -41.05625 
L 957.3083 -77.046319 
L 957.3083 -41.05625 
L 957.3083 -41.05625 
z
" id="m5c6a7e4f44" style="stroke:#4d4d4d;"/>
    </defs>
    <g clip-path="url(#p9f0f3995e9)">
     <use style="fill:#4d4d4d;stroke:#4d4d4d;" x="0" xlink:href="#m5c6a7e4f44" y="374.41625"/>
    </g>
   </g>
   <g id="PolyCollection_57">
    <defs>
     <path d="M 958.863668 -41.05625 
L 958.863668 -68.048802 
L 958.863668 -41.05625 
L 958.863668 -41.05625 
z
" id="m0b5f0aabfb" style="stroke:#4d4d4d;"/>
    </defs>
    <g clip-path="url(#p9f0f3995e9)">
     <use style="fill:#4d4d4d;stroke:#4d4d4d;" x="0" xlink:href="#m0b5f0aabfb" y="374.41625"/>
    </g>
   </g>
   <g id="PolyCollection_58">
    <defs>
     <path d="M 959.468034 -41.05625 
L 959.468034 -77.046319 
L 959.468034 -41.05625 
L 959.468034 -41.05625 
z
" id="m0bc4c49673" style="stroke:#4d4d4d;"/>
    </defs>
    <g clip-path="url(#p9f0f3995e9)">
     <use style="fill:#4d4d4d;stroke:#4d4d4d;" x="0" xlink:href="#m0bc4c49673" y="374.41625"/>
    </g>
   </g>
   <g id="PolyCollection_59">
    <defs>
     <path d="M 960.534697 -41.05625 
L 960.534697 -72.54756 
L 960.534697 -41.05625 
L 960.534697 -41.05625 
z
" id="me3f0b19c09" style="stroke:#4d4d4d;"/>
    </defs>
    <g clip-path="url(#p9f0f3995e9)">
     <use style="fill:#4d4d4d;stroke:#4d4d4d;" x="0" xlink:href="#me3f0b19c09" y="374.41625"/>
    </g>
   </g>
   <g id="PolyCollection_60">
    <defs>
     <path d="M 972.096198 -41.05625 
L 972.096198 -45.555009 
L 972.096198 -41.05625 
L 972.096198 -41.05625 
z
" id="m0e2991c1a9" style="stroke:#4d4d4d;"/>
    </defs>
    <g clip-path="url(#p9f0f3995e9)">
     <use style="fill:#4d4d4d;stroke:#4d4d4d;" x="0" xlink:href="#m0e2991c1a9" y="374.41625"/>
    </g>
   </g>
   <g id="PolyCollection_61">
    <defs>
     <path d="M 984.497141 -41.05625 
L 984.497141 -56.801905 
L 984.497141 -41.05625 
L 984.497141 -41.05625 
z
" id="m6a654116bd" style="stroke:#4d4d4d;"/>
    </defs>
    <g clip-path="url(#p9f0f3995e9)">
     <use style="fill:#4d4d4d;stroke:#4d4d4d;" x="0" xlink:href="#m6a654116bd" y="374.41625"/>
    </g>
   </g>
   <g id="PolyCollection_62">
    <defs>
     <path d="M 992.273871 -41.05625 
L 992.273871 -45.555009 
L 992.273871 -41.05625 
L 992.273871 -41.05625 
z
" id="m19598094a1" style="stroke:#4d4d4d;"/>
    </defs>
    <g clip-path="url(#p9f0f3995e9)">
     <use style="fill:#4d4d4d;stroke:#4d4d4d;" x="0" xlink:href="#m19598094a1" y="374.41625"/>
    </g>
   </g>
   <g id="PolyCollection_63">
    <defs>
     <path d="M 999.933575 -41.05625 
L 999.933575 -59.051284 
L 999.933575 -41.05625 
L 999.933575 -41.05625 
z
" id="ma76f2113e4" style="stroke:#4d4d4d;"/>
    </defs>
    <g clip-path="url(#p9f0f3995e9)">
     <use style="fill:#4d4d4d;stroke:#4d4d4d;" x="0" xlink:href="#ma76f2113e4" y="374.41625"/>
    </g>
   </g>
   <g id="PolyCollection_64">
    <defs>
     <path d="M 1025.155523 -41.05625 
L 1025.155523 -61.300664 
L 1025.155523 -41.05625 
L 1025.155523 -41.05625 
z
" id="mc4d67153d4" style="stroke:#4d4d4d;"/>
    </defs>
    <g clip-path="url(#p9f0f3995e9)">
     <use style="fill:#4d4d4d;stroke:#4d4d4d;" x="0" xlink:href="#mc4d67153d4" y="374.41625"/>
    </g>
   </g>
   <g id="PathCollection_1">
    <defs>
     <path d="M 0 3.535534 
C 0.937635 3.535534 1.836992 3.163008 2.5 2.5 
C 3.163008 1.836992 3.535534 0.937635 3.535534 0 
C 3.535534 -0.937635 3.163008 -1.836992 2.5 -2.5 
C 1.836992 -3.163008 0.937635 -3.535534 0 -3.535534 
C -0.937635 -3.535534 -1.836992 -3.163008 -2.5 -2.5 
C -3.163008 -1.836992 -3.535534 -0.937635 -3.535534 0 
C -3.535534 0.937635 -3.163008 1.836992 -2.5 2.5 
C -1.836992 3.163008 -0.937635 3.535534 0 3.535534 
z
" id="C0_0_14d9eb3fd5"/>
    </defs>
    <g clip-path="url(#p9f0f3995e9)">
     <use style="fill:#1f77b4;stroke:#ffffff;stroke-width:0.565685;" x="96.766525" xlink:href="#C0_0_14d9eb3fd5" y="331.110621"/>
    </g>
    <g clip-path="url(#p9f0f3995e9)">
     <use style="fill:#ff7f0e;stroke:#ffffff;stroke-width:0.565685;" x="137.905986" xlink:href="#C0_0_14d9eb3fd5" y="324.362483"/>
    </g>
    <g clip-path="url(#p9f0f3995e9)">
     <use style="fill:#ff7f0e;stroke:#ffffff;stroke-width:0.565685;" x="138.576036" xlink:href="#C0_0_14d9eb3fd5" y="324.362483"/>
    </g>
    <g clip-path="url(#p9f0f3995e9)">
     <use style="fill:#ff7f0e;stroke:#ffffff;stroke-width:0.565685;" x="144.132469" xlink:href="#C0_0_14d9eb3fd5" y="331.110621"/>
    </g>
    <g clip-path="url(#p9f0f3995e9)">
     <use style="fill:#ff7f0e;stroke:#ffffff;stroke-width:0.565685;" x="145.779819" xlink:href="#C0_0_14d9eb3fd5" y="319.863724"/>
    </g>
    <g clip-path="url(#p9f0f3995e9)">
     <use style="fill:#ff7f0e;stroke:#ffffff;stroke-width:0.565685;" x="159.50208" xlink:href="#C0_0_14d9eb3fd5" y="326.611862"/>
    </g>
    <g clip-path="url(#p9f0f3995e9)">
     <use style="fill:#1f77b4;stroke:#ffffff;stroke-width:0.565685;" x="191.415198" xlink:href="#C0_0_14d9eb3fd5" y="326.611862"/>
    </g>
    <g clip-path="url(#p9f0f3995e9)">
     <use style="fill:#1f77b4;stroke:#ffffff;stroke-width:0.565685;" x="193.873644" xlink:href="#C0_0_14d9eb3fd5" y="317.614345"/>
    </g>
    <g clip-path="url(#p9f0f3995e9)">
     <use style="fill:#ff7f0e;stroke:#ffffff;stroke-width:0.565685;" x="251.373106" xlink:href="#C0_0_14d9eb3fd5" y="315.364966"/>
    </g>
    <g clip-path="url(#p9f0f3995e9)">
     <use style="fill:#ff7f0e;stroke:#ffffff;stroke-width:0.565685;" x="252.200025" xlink:href="#C0_0_14d9eb3fd5" y="322.113103"/>
    </g>
    <g clip-path="url(#p9f0f3995e9)">
     <use style="fill:#ff7f0e;stroke:#ffffff;stroke-width:0.565685;" x="252.832282" xlink:href="#C0_0_14d9eb3fd5" y="319.863724"/>
    </g>
    <g clip-path="url(#p9f0f3995e9)">
     <use style="fill:#2ca02c;stroke:#ffffff;stroke-width:0.565685;" x="281.353255" xlink:href="#C0_0_14d9eb3fd5" y="331.110621"/>
    </g>
    <g clip-path="url(#p9f0f3995e9)">
     <use style="fill:#ff7f0e;stroke:#ffffff;stroke-width:0.565685;" x="310.230542" xlink:href="#C0_0_14d9eb3fd5" y="331.110621"/>
    </g>
    <g clip-path="url(#p9f0f3995e9)">
     <use style="fill:#ff7f0e;stroke:#ffffff;stroke-width:0.565685;" x="332.466292" xlink:href="#C0_0_14d9eb3fd5" y="326.611862"/>
    </g>
    <g clip-path="url(#p9f0f3995e9)">
     <use style="fill:#ff7f0e;stroke:#ffffff;stroke-width:0.565685;" x="337.768638" xlink:href="#C0_0_14d9eb3fd5" y="319.863724"/>
    </g>
    <g clip-path="url(#p9f0f3995e9)">
     <use style="fill:#d62728;stroke:#ffffff;stroke-width:0.565685;" x="428.824129" xlink:href="#C0_0_14d9eb3fd5" y="328.861241"/>
    </g>
    <g clip-path="url(#p9f0f3995e9)">
     <use style="fill:#ff7f0e;stroke:#ffffff;stroke-width:0.565685;" x="430.258602" xlink:href="#C0_0_14d9eb3fd5" y="324.362483"/>
    </g>
    <g clip-path="url(#p9f0f3995e9)">
     <use style="fill:#ff7f0e;stroke:#ffffff;stroke-width:0.565685;" x="434.395475" xlink:href="#C0_0_14d9eb3fd5" y="200.646621"/>
    </g>
    <g clip-path="url(#p9f0f3995e9)">
     <use style="fill:#2ca02c;stroke:#ffffff;stroke-width:0.565685;" x="435.914757" xlink:href="#C0_0_14d9eb3fd5" y="331.110621"/>
    </g>
    <g clip-path="url(#p9f0f3995e9)">
     <use style="fill:#9467bd;stroke:#ffffff;stroke-width:0.565685;" x="466.817108" xlink:href="#C0_0_14d9eb3fd5" y="317.614345"/>
    </g>
    <g clip-path="url(#p9f0f3995e9)">
     <use style="fill:#1f77b4;stroke:#ffffff;stroke-width:0.565685;" x="466.887232" xlink:href="#C0_0_14d9eb3fd5" y="324.362483"/>
    </g>
    <g clip-path="url(#p9f0f3995e9)">
     <use style="fill:#9467bd;stroke:#ffffff;stroke-width:0.565685;" x="467.45665" xlink:href="#C0_0_14d9eb3fd5" y="319.863724"/>
    </g>
    <g clip-path="url(#p9f0f3995e9)">
     <use style="fill:#9467bd;stroke:#ffffff;stroke-width:0.565685;" x="467.860888" xlink:href="#C0_0_14d9eb3fd5" y="331.110621"/>
    </g>
    <g clip-path="url(#p9f0f3995e9)">
     <use style="fill:#1f77b4;stroke:#ffffff;stroke-width:0.565685;" x="467.928167" xlink:href="#C0_0_14d9eb3fd5" y="331.110621"/>
    </g>
    <g clip-path="url(#p9f0f3995e9)">
     <use style="fill:#9467bd;stroke:#ffffff;stroke-width:0.565685;" x="468.484265" xlink:href="#C0_0_14d9eb3fd5" y="322.113103"/>
    </g>
    <g clip-path="url(#p9f0f3995e9)">
     <use style="fill:#9467bd;stroke:#ffffff;stroke-width:0.565685;" x="468.898863" xlink:href="#C0_0_14d9eb3fd5" y="331.110621"/>
    </g>
    <g clip-path="url(#p9f0f3995e9)">
     <use style="fill:#ff7f0e;stroke:#ffffff;stroke-width:0.565685;" x="486.020555" xlink:href="#C0_0_14d9eb3fd5" y="331.110621"/>
    </g>
    <g clip-path="url(#p9f0f3995e9)">
     <use style="fill:#ff7f0e;stroke:#ffffff;stroke-width:0.565685;" x="513.189133" xlink:href="#C0_0_14d9eb3fd5" y="279.374897"/>
    </g>
    <g clip-path="url(#p9f0f3995e9)">
     <use style="fill:#ff7f0e;stroke:#ffffff;stroke-width:0.565685;" x="515.012931" xlink:href="#C0_0_14d9eb3fd5" y="331.110621"/>
    </g>
    <g clip-path="url(#p9f0f3995e9)">
     <use style="fill:#1f77b4;stroke:#ffffff;stroke-width:0.565685;" x="534.008852" xlink:href="#C0_0_14d9eb3fd5" y="304.118069"/>
    </g>
    <g clip-path="url(#p9f0f3995e9)">
     <use style="fill:#ff7f0e;stroke:#ffffff;stroke-width:0.565685;" x="554.609546" xlink:href="#C0_0_14d9eb3fd5" y="254.631724"/>
    </g>
    <g clip-path="url(#p9f0f3995e9)">
     <use style="fill:#ff7f0e;stroke:#ffffff;stroke-width:0.565685;" x="555.522299" xlink:href="#C0_0_14d9eb3fd5" y="326.611862"/>
    </g>
    <g clip-path="url(#p9f0f3995e9)">
     <use style="fill:#2ca02c;stroke:#ffffff;stroke-width:0.565685;" x="601.650939" xlink:href="#C0_0_14d9eb3fd5" y="328.861241"/>
    </g>
    <g clip-path="url(#p9f0f3995e9)">
     <use style="fill:#1f77b4;stroke:#ffffff;stroke-width:0.565685;" x="638.155144" xlink:href="#C0_0_14d9eb3fd5" y="310.866207"/>
    </g>
    <g clip-path="url(#p9f0f3995e9)">
     <use style="fill:#ff7f0e;stroke:#ffffff;stroke-width:0.565685;" x="662.41186" xlink:href="#C0_0_14d9eb3fd5" y="328.861241"/>
    </g>
    <g clip-path="url(#p9f0f3995e9)">
     <use style="fill:#1f77b4;stroke:#ffffff;stroke-width:0.565685;" x="677.281835" xlink:href="#C0_0_14d9eb3fd5" y="331.110621"/>
    </g>
    <g clip-path="url(#p9f0f3995e9)">
     <use style="fill:#d62728;stroke:#ffffff;stroke-width:0.565685;" x="696.446463" xlink:href="#C0_0_14d9eb3fd5" y="328.861241"/>
    </g>
    <g clip-path="url(#p9f0f3995e9)">
     <use style="fill:#ff7f0e;stroke:#ffffff;stroke-width:0.565685;" x="700.008796" xlink:href="#C0_0_14d9eb3fd5" y="328.861241"/>
    </g>
    <g clip-path="url(#p9f0f3995e9)">
     <use style="fill:#2ca02c;stroke:#ffffff;stroke-width:0.565685;" x="714.514034" xlink:href="#C0_0_14d9eb3fd5" y="301.86869"/>
    </g>
    <g clip-path="url(#p9f0f3995e9)">
     <use style="fill:#1f77b4;stroke:#ffffff;stroke-width:0.565685;" x="746.319007" xlink:href="#C0_0_14d9eb3fd5" y="331.110621"/>
    </g>
    <g clip-path="url(#p9f0f3995e9)">
     <use style="fill:#1f77b4;stroke:#ffffff;stroke-width:0.565685;" x="772.633117" xlink:href="#C0_0_14d9eb3fd5" y="331.110621"/>
    </g>
    <g clip-path="url(#p9f0f3995e9)">
     <use style="fill:#d62728;stroke:#ffffff;stroke-width:0.565685;" x="774.416389" xlink:href="#C0_0_14d9eb3fd5" y="331.110621"/>
    </g>
    <g clip-path="url(#p9f0f3995e9)">
     <use style="fill:#1f77b4;stroke:#ffffff;stroke-width:0.565685;" x="797.66894" xlink:href="#C0_0_14d9eb3fd5" y="297.369931"/>
    </g>
    <g clip-path="url(#p9f0f3995e9)">
     <use style="fill:#1f77b4;stroke:#ffffff;stroke-width:0.565685;" x="821.338593" xlink:href="#C0_0_14d9eb3fd5" y="326.611862"/>
    </g>
    <g clip-path="url(#p9f0f3995e9)">
     <use style="fill:#ff7f0e;stroke:#ffffff;stroke-width:0.565685;" x="831.188654" xlink:href="#C0_0_14d9eb3fd5" y="301.86869"/>
    </g>
    <g clip-path="url(#p9f0f3995e9)">
     <use style="fill:#1f77b4;stroke:#ffffff;stroke-width:0.565685;" x="870.86063" xlink:href="#C0_0_14d9eb3fd5" y="331.110621"/>
    </g>
    <g clip-path="url(#p9f0f3995e9)">
     <use style="fill:#2ca02c;stroke:#ffffff;stroke-width:0.565685;" x="895.85809" xlink:href="#C0_0_14d9eb3fd5" y="331.110621"/>
    </g>
    <g clip-path="url(#p9f0f3995e9)">
     <use style="fill:#1f77b4;stroke:#ffffff;stroke-width:0.565685;" x="902.024467" xlink:href="#C0_0_14d9eb3fd5" y="328.861241"/>
    </g>
    <g clip-path="url(#p9f0f3995e9)">
     <use style="fill:#ff7f0e;stroke:#ffffff;stroke-width:0.565685;" x="911.611903" xlink:href="#C0_0_14d9eb3fd5" y="326.611862"/>
    </g>
    <g clip-path="url(#p9f0f3995e9)">
     <use style="fill:#ff7f0e;stroke:#ffffff;stroke-width:0.565685;" x="913.277695" xlink:href="#C0_0_14d9eb3fd5" y="328.861241"/>
    </g>
    <g clip-path="url(#p9f0f3995e9)">
     <use style="fill:#ff7f0e;stroke:#ffffff;stroke-width:0.565685;" x="915.094891" xlink:href="#C0_0_14d9eb3fd5" y="315.364966"/>
    </g>
    <g clip-path="url(#p9f0f3995e9)">
     <use style="fill:#ff7f0e;stroke:#ffffff;stroke-width:0.565685;" x="927.458381" xlink:href="#C0_0_14d9eb3fd5" y="331.110621"/>
    </g>
    <g clip-path="url(#p9f0f3995e9)">
     <use style="fill:#1f77b4;stroke:#ffffff;stroke-width:0.565685;" x="931.505778" xlink:href="#C0_0_14d9eb3fd5" y="331.110621"/>
    </g>
    <g clip-path="url(#p9f0f3995e9)">
     <use style="fill:#1f77b4;stroke:#ffffff;stroke-width:0.565685;" x="937.434461" xlink:href="#C0_0_14d9eb3fd5" y="13.948138"/>
    </g>
    <g clip-path="url(#p9f0f3995e9)">
     <use style="fill:#ff7f0e;stroke:#ffffff;stroke-width:0.565685;" x="956.120742" xlink:href="#C0_0_14d9eb3fd5" y="322.113103"/>
    </g>
    <g clip-path="url(#p9f0f3995e9)">
     <use style="fill:#ff7f0e;stroke:#ffffff;stroke-width:0.565685;" x="957.3083" xlink:href="#C0_0_14d9eb3fd5" y="297.369931"/>
    </g>
    <g clip-path="url(#p9f0f3995e9)">
     <use style="fill:#ff7f0e;stroke:#ffffff;stroke-width:0.565685;" x="958.863668" xlink:href="#C0_0_14d9eb3fd5" y="306.367448"/>
    </g>
    <g clip-path="url(#p9f0f3995e9)">
     <use style="fill:#ff7f0e;stroke:#ffffff;stroke-width:0.565685;" x="959.468034" xlink:href="#C0_0_14d9eb3fd5" y="297.369931"/>
    </g>
    <g clip-path="url(#p9f0f3995e9)">
     <use style="fill:#ff7f0e;stroke:#ffffff;stroke-width:0.565685;" x="960.534697" xlink:href="#C0_0_14d9eb3fd5" y="301.86869"/>
    </g>
    <g clip-path="url(#p9f0f3995e9)">
     <use style="fill:#ff7f0e;stroke:#ffffff;stroke-width:0.565685;" x="972.096198" xlink:href="#C0_0_14d9eb3fd5" y="328.861241"/>
    </g>
    <g clip-path="url(#p9f0f3995e9)">
     <use style="fill:#2ca02c;stroke:#ffffff;stroke-width:0.565685;" x="984.497141" xlink:href="#C0_0_14d9eb3fd5" y="317.614345"/>
    </g>
    <g clip-path="url(#p9f0f3995e9)">
     <use style="fill:#1f77b4;stroke:#ffffff;stroke-width:0.565685;" x="992.273871" xlink:href="#C0_0_14d9eb3fd5" y="328.861241"/>
    </g>
    <g clip-path="url(#p9f0f3995e9)">
     <use style="fill:#1f77b4;stroke:#ffffff;stroke-width:0.565685;" x="999.933575" xlink:href="#C0_0_14d9eb3fd5" y="315.364966"/>
    </g>
    <g clip-path="url(#p9f0f3995e9)">
     <use style="fill:#d62728;stroke:#ffffff;stroke-width:0.565685;" x="1025.155523" xlink:href="#C0_0_14d9eb3fd5" y="313.115586"/>
    </g>
   </g>
   <g id="PathCollection_2"/>
   <g id="PathCollection_3"/>
   <g id="PathCollection_4"/>
   <g id="PathCollection_5"/>
   <g id="PathCollection_6"/>
   <g id="matplotlib.axis_1">
    <g id="xtick_1">
     <g id="line2d_1">
      <defs>
       <path d="M 0 0 
L 0 7 
" id="m360947b126" style="stroke:#000000;stroke-width:1.5;"/>
      </defs>
      <g>
       <use style="stroke:#000000;stroke-width:1.5;" x="61.663438" xlink:href="#m360947b126" y="333.36"/>
      </g>
     </g>
     <g id="text_1">
      <!-- 0 -->
      <defs>
       <path d="M 31.78125 66.40625 
Q 24.171875 66.40625 20.328125 58.90625 
Q 16.5 51.421875 16.5 36.375 
Q 16.5 21.390625 20.328125 13.890625 
Q 24.171875 6.390625 31.78125 6.390625 
Q 39.453125 6.390625 43.28125 13.890625 
Q 47.125 21.390625 47.125 36.375 
Q 47.125 51.421875 43.28125 58.90625 
Q 39.453125 66.40625 31.78125 66.40625 
z
M 31.78125 74.21875 
Q 44.046875 74.21875 50.515625 64.515625 
Q 56.984375 54.828125 56.984375 36.375 
Q 56.984375 17.96875 50.515625 8.265625 
Q 44.046875 -1.421875 31.78125 -1.421875 
Q 19.53125 -1.421875 13.0625 8.265625 
Q 6.59375 17.96875 6.59375 36.375 
Q 6.59375 54.828125 13.0625 64.515625 
Q 19.53125 74.21875 31.78125 74.21875 
z
" id="DejaVuSans-48"/>
      </defs>
      <g transform="translate(58.482188 351.458438)scale(0.1 -0.1)">
       <use xlink:href="#DejaVuSans-48"/>
      </g>
     </g>
    </g>
    <g id="xtick_2">
     <g id="line2d_2">
      <g>
       <use style="stroke:#000000;stroke-width:1.5;" x="175.501442" xlink:href="#m360947b126" y="333.36"/>
      </g>
     </g>
     <g id="text_2">
      <!-- 500000 -->
      <defs>
       <path d="M 10.796875 72.90625 
L 49.515625 72.90625 
L 49.515625 64.59375 
L 19.828125 64.59375 
L 19.828125 46.734375 
Q 21.96875 47.46875 24.109375 47.828125 
Q 26.265625 48.1875 28.421875 48.1875 
Q 40.625 48.1875 47.75 41.5 
Q 54.890625 34.8125 54.890625 23.390625 
Q 54.890625 11.625 47.5625 5.09375 
Q 40.234375 -1.421875 26.90625 -1.421875 
Q 22.3125 -1.421875 17.546875 -0.640625 
Q 12.796875 0.140625 7.71875 1.703125 
L 7.71875 11.625 
Q 12.109375 9.234375 16.796875 8.0625 
Q 21.484375 6.890625 26.703125 6.890625 
Q 35.15625 6.890625 40.078125 11.328125 
Q 45.015625 15.765625 45.015625 23.390625 
Q 45.015625 31 40.078125 35.4375 
Q 35.15625 39.890625 26.703125 39.890625 
Q 22.75 39.890625 18.8125 39.015625 
Q 14.890625 38.140625 10.796875 36.28125 
z
" id="DejaVuSans-53"/>
      </defs>
      <g transform="translate(156.413942 351.458438)scale(0.1 -0.1)">
       <use xlink:href="#DejaVuSans-53"/>
       <use x="63.623047" xlink:href="#DejaVuSans-48"/>
       <use x="127.246094" xlink:href="#DejaVuSans-48"/>
       <use x="190.869141" xlink:href="#DejaVuSans-48"/>
       <use x="254.492188" xlink:href="#DejaVuSans-48"/>
       <use x="318.115234" xlink:href="#DejaVuSans-48"/>
      </g>
     </g>
    </g>
    <g id="xtick_3">
     <g id="line2d_3">
      <g>
       <use style="stroke:#000000;stroke-width:1.5;" x="289.339447" xlink:href="#m360947b126" y="333.36"/>
      </g>
     </g>
     <g id="text_3">
      <!-- 1000000 -->
      <defs>
       <path d="M 12.40625 8.296875 
L 28.515625 8.296875 
L 28.515625 63.921875 
L 10.984375 60.40625 
L 10.984375 69.390625 
L 28.421875 72.90625 
L 38.28125 72.90625 
L 38.28125 8.296875 
L 54.390625 8.296875 
L 54.390625 0 
L 12.40625 0 
z
" id="DejaVuSans-49"/>
      </defs>
      <g transform="translate(267.070697 351.458438)scale(0.1 -0.1)">
       <use xlink:href="#DejaVuSans-49"/>
       <use x="63.623047" xlink:href="#DejaVuSans-48"/>
       <use x="127.246094" xlink:href="#DejaVuSans-48"/>
       <use x="190.869141" xlink:href="#DejaVuSans-48"/>
       <use x="254.492188" xlink:href="#DejaVuSans-48"/>
       <use x="318.115234" xlink:href="#DejaVuSans-48"/>
       <use x="381.738281" xlink:href="#DejaVuSans-48"/>
      </g>
     </g>
    </g>
    <g id="xtick_4">
     <g id="line2d_4">
      <g>
       <use style="stroke:#000000;stroke-width:1.5;" x="403.177451" xlink:href="#m360947b126" y="333.36"/>
      </g>
     </g>
     <g id="text_4">
      <!-- 1500000 -->
      <g transform="translate(380.908701 351.458438)scale(0.1 -0.1)">
       <use xlink:href="#DejaVuSans-49"/>
       <use x="63.623047" xlink:href="#DejaVuSans-53"/>
       <use x="127.246094" xlink:href="#DejaVuSans-48"/>
       <use x="190.869141" xlink:href="#DejaVuSans-48"/>
       <use x="254.492188" xlink:href="#DejaVuSans-48"/>
       <use x="318.115234" xlink:href="#DejaVuSans-48"/>
       <use x="381.738281" xlink:href="#DejaVuSans-48"/>
      </g>
     </g>
    </g>
    <g id="xtick_5">
     <g id="line2d_5">
      <g>
       <use style="stroke:#000000;stroke-width:1.5;" x="517.015456" xlink:href="#m360947b126" y="333.36"/>
      </g>
     </g>
     <g id="text_5">
      <!-- 2000000 -->
      <defs>
       <path d="M 19.1875 8.296875 
L 53.609375 8.296875 
L 53.609375 0 
L 7.328125 0 
L 7.328125 8.296875 
Q 12.9375 14.109375 22.625 23.890625 
Q 32.328125 33.6875 34.8125 36.53125 
Q 39.546875 41.84375 41.421875 45.53125 
Q 43.3125 49.21875 43.3125 52.78125 
Q 43.3125 58.59375 39.234375 62.25 
Q 35.15625 65.921875 28.609375 65.921875 
Q 23.96875 65.921875 18.8125 64.3125 
Q 13.671875 62.703125 7.8125 59.421875 
L 7.8125 69.390625 
Q 13.765625 71.78125 18.9375 73 
Q 24.125 74.21875 28.421875 74.21875 
Q 39.75 74.21875 46.484375 68.546875 
Q 53.21875 62.890625 53.21875 53.421875 
Q 53.21875 48.921875 51.53125 44.890625 
Q 49.859375 40.875 45.40625 35.40625 
Q 44.1875 33.984375 37.640625 27.21875 
Q 31.109375 20.453125 19.1875 8.296875 
z
" id="DejaVuSans-50"/>
      </defs>
      <g transform="translate(494.746706 351.458438)scale(0.1 -0.1)">
       <use xlink:href="#DejaVuSans-50"/>
       <use x="63.623047" xlink:href="#DejaVuSans-48"/>
       <use x="127.246094" xlink:href="#DejaVuSans-48"/>
       <use x="190.869141" xlink:href="#DejaVuSans-48"/>
       <use x="254.492188" xlink:href="#DejaVuSans-48"/>
       <use x="318.115234" xlink:href="#DejaVuSans-48"/>
       <use x="381.738281" xlink:href="#DejaVuSans-48"/>
      </g>
     </g>
    </g>
    <g id="xtick_6">
     <g id="line2d_6">
      <g>
       <use style="stroke:#000000;stroke-width:1.5;" x="630.85346" xlink:href="#m360947b126" y="333.36"/>
      </g>
     </g>
     <g id="text_6">
      <!-- 2500000 -->
      <g transform="translate(608.58471 351.458438)scale(0.1 -0.1)">
       <use xlink:href="#DejaVuSans-50"/>
       <use x="63.623047" xlink:href="#DejaVuSans-53"/>
       <use x="127.246094" xlink:href="#DejaVuSans-48"/>
       <use x="190.869141" xlink:href="#DejaVuSans-48"/>
       <use x="254.492188" xlink:href="#DejaVuSans-48"/>
       <use x="318.115234" xlink:href="#DejaVuSans-48"/>
       <use x="381.738281" xlink:href="#DejaVuSans-48"/>
      </g>
     </g>
    </g>
    <g id="xtick_7">
     <g id="line2d_7">
      <g>
       <use style="stroke:#000000;stroke-width:1.5;" x="744.691465" xlink:href="#m360947b126" y="333.36"/>
      </g>
     </g>
     <g id="text_7">
      <!-- 3000000 -->
      <defs>
       <path d="M 40.578125 39.3125 
Q 47.65625 37.796875 51.625 33 
Q 55.609375 28.21875 55.609375 21.1875 
Q 55.609375 10.40625 48.1875 4.484375 
Q 40.765625 -1.421875 27.09375 -1.421875 
Q 22.515625 -1.421875 17.65625 -0.515625 
Q 12.796875 0.390625 7.625 2.203125 
L 7.625 11.71875 
Q 11.71875 9.328125 16.59375 8.109375 
Q 21.484375 6.890625 26.8125 6.890625 
Q 36.078125 6.890625 40.9375 10.546875 
Q 45.796875 14.203125 45.796875 21.1875 
Q 45.796875 27.640625 41.28125 31.265625 
Q 36.765625 34.90625 28.71875 34.90625 
L 20.21875 34.90625 
L 20.21875 43.015625 
L 29.109375 43.015625 
Q 36.375 43.015625 40.234375 45.921875 
Q 44.09375 48.828125 44.09375 54.296875 
Q 44.09375 59.90625 40.109375 62.90625 
Q 36.140625 65.921875 28.71875 65.921875 
Q 24.65625 65.921875 20.015625 65.03125 
Q 15.375 64.15625 9.8125 62.3125 
L 9.8125 71.09375 
Q 15.4375 72.65625 20.34375 73.4375 
Q 25.25 74.21875 29.59375 74.21875 
Q 40.828125 74.21875 47.359375 69.109375 
Q 53.90625 64.015625 53.90625 55.328125 
Q 53.90625 49.265625 50.4375 45.09375 
Q 46.96875 40.921875 40.578125 39.3125 
z
" id="DejaVuSans-51"/>
      </defs>
      <g transform="translate(722.422715 351.458438)scale(0.1 -0.1)">
       <use xlink:href="#DejaVuSans-51"/>
       <use x="63.623047" xlink:href="#DejaVuSans-48"/>
       <use x="127.246094" xlink:href="#DejaVuSans-48"/>
       <use x="190.869141" xlink:href="#DejaVuSans-48"/>
       <use x="254.492188" xlink:href="#DejaVuSans-48"/>
       <use x="318.115234" xlink:href="#DejaVuSans-48"/>
       <use x="381.738281" xlink:href="#DejaVuSans-48"/>
      </g>
     </g>
    </g>
    <g id="xtick_8">
     <g id="line2d_8">
      <g>
       <use style="stroke:#000000;stroke-width:1.5;" x="858.52947" xlink:href="#m360947b126" y="333.36"/>
      </g>
     </g>
     <g id="text_8">
      <!-- 3500000 -->
      <g transform="translate(836.26072 351.458438)scale(0.1 -0.1)">
       <use xlink:href="#DejaVuSans-51"/>
       <use x="63.623047" xlink:href="#DejaVuSans-53"/>
       <use x="127.246094" xlink:href="#DejaVuSans-48"/>
       <use x="190.869141" xlink:href="#DejaVuSans-48"/>
       <use x="254.492188" xlink:href="#DejaVuSans-48"/>
       <use x="318.115234" xlink:href="#DejaVuSans-48"/>
       <use x="381.738281" xlink:href="#DejaVuSans-48"/>
      </g>
     </g>
    </g>
    <g id="xtick_9">
     <g id="line2d_9">
      <g>
       <use style="stroke:#000000;stroke-width:1.5;" x="972.367474" xlink:href="#m360947b126" y="333.36"/>
      </g>
     </g>
     <g id="text_9">
      <!-- 4000000 -->
      <defs>
       <path d="M 37.796875 64.3125 
L 12.890625 25.390625 
L 37.796875 25.390625 
z
M 35.203125 72.90625 
L 47.609375 72.90625 
L 47.609375 25.390625 
L 58.015625 25.390625 
L 58.015625 17.1875 
L 47.609375 17.1875 
L 47.609375 0 
L 37.796875 0 
L 37.796875 17.1875 
L 4.890625 17.1875 
L 4.890625 26.703125 
z
" id="DejaVuSans-52"/>
      </defs>
      <g transform="translate(950.098724 351.458438)scale(0.1 -0.1)">
       <use xlink:href="#DejaVuSans-52"/>
       <use x="63.623047" xlink:href="#DejaVuSans-48"/>
       <use x="127.246094" xlink:href="#DejaVuSans-48"/>
       <use x="190.869141" xlink:href="#DejaVuSans-48"/>
       <use x="254.492188" xlink:href="#DejaVuSans-48"/>
       <use x="318.115234" xlink:href="#DejaVuSans-48"/>
       <use x="381.738281" xlink:href="#DejaVuSans-48"/>
      </g>
     </g>
    </g>
    <g id="text_10">
     <!-- H37Rv Reference Position -->
     <defs>
      <path d="M 9.8125 72.90625 
L 19.671875 72.90625 
L 19.671875 43.015625 
L 55.515625 43.015625 
L 55.515625 72.90625 
L 65.375 72.90625 
L 65.375 0 
L 55.515625 0 
L 55.515625 34.71875 
L 19.671875 34.71875 
L 19.671875 0 
L 9.8125 0 
z
" id="DejaVuSans-72"/>
      <path d="M 8.203125 72.90625 
L 55.078125 72.90625 
L 55.078125 68.703125 
L 28.609375 0 
L 18.3125 0 
L 43.21875 64.59375 
L 8.203125 64.59375 
z
" id="DejaVuSans-55"/>
      <path d="M 44.390625 34.1875 
Q 47.5625 33.109375 50.5625 29.59375 
Q 53.5625 26.078125 56.59375 19.921875 
L 66.609375 0 
L 56 0 
L 46.6875 18.703125 
Q 43.0625 26.03125 39.671875 28.421875 
Q 36.28125 30.8125 30.421875 30.8125 
L 19.671875 30.8125 
L 19.671875 0 
L 9.8125 0 
L 9.8125 72.90625 
L 32.078125 72.90625 
Q 44.578125 72.90625 50.734375 67.671875 
Q 56.890625 62.453125 56.890625 51.90625 
Q 56.890625 45.015625 53.6875 40.46875 
Q 50.484375 35.9375 44.390625 34.1875 
z
M 19.671875 64.796875 
L 19.671875 38.921875 
L 32.078125 38.921875 
Q 39.203125 38.921875 42.84375 42.21875 
Q 46.484375 45.515625 46.484375 51.90625 
Q 46.484375 58.296875 42.84375 61.546875 
Q 39.203125 64.796875 32.078125 64.796875 
z
" id="DejaVuSans-82"/>
      <path d="M 2.984375 54.6875 
L 12.5 54.6875 
L 29.59375 8.796875 
L 46.6875 54.6875 
L 56.203125 54.6875 
L 35.6875 0 
L 23.484375 0 
z
" id="DejaVuSans-118"/>
      <path id="DejaVuSans-32"/>
      <path d="M 56.203125 29.59375 
L 56.203125 25.203125 
L 14.890625 25.203125 
Q 15.484375 15.921875 20.484375 11.0625 
Q 25.484375 6.203125 34.421875 6.203125 
Q 39.59375 6.203125 44.453125 7.46875 
Q 49.3125 8.734375 54.109375 11.28125 
L 54.109375 2.78125 
Q 49.265625 0.734375 44.1875 -0.34375 
Q 39.109375 -1.421875 33.890625 -1.421875 
Q 20.796875 -1.421875 13.15625 6.1875 
Q 5.515625 13.8125 5.515625 26.8125 
Q 5.515625 40.234375 12.765625 48.109375 
Q 20.015625 56 32.328125 56 
Q 43.359375 56 49.78125 48.890625 
Q 56.203125 41.796875 56.203125 29.59375 
z
M 47.21875 32.234375 
Q 47.125 39.59375 43.09375 43.984375 
Q 39.0625 48.390625 32.421875 48.390625 
Q 24.90625 48.390625 20.390625 44.140625 
Q 15.875 39.890625 15.1875 32.171875 
z
" id="DejaVuSans-101"/>
      <path d="M 37.109375 75.984375 
L 37.109375 68.5 
L 28.515625 68.5 
Q 23.6875 68.5 21.796875 66.546875 
Q 19.921875 64.59375 19.921875 59.515625 
L 19.921875 54.6875 
L 34.71875 54.6875 
L 34.71875 47.703125 
L 19.921875 47.703125 
L 19.921875 0 
L 10.890625 0 
L 10.890625 47.703125 
L 2.296875 47.703125 
L 2.296875 54.6875 
L 10.890625 54.6875 
L 10.890625 58.5 
Q 10.890625 67.625 15.140625 71.796875 
Q 19.390625 75.984375 28.609375 75.984375 
z
" id="DejaVuSans-102"/>
      <path d="M 41.109375 46.296875 
Q 39.59375 47.171875 37.8125 47.578125 
Q 36.03125 48 33.890625 48 
Q 26.265625 48 22.1875 43.046875 
Q 18.109375 38.09375 18.109375 28.8125 
L 18.109375 0 
L 9.078125 0 
L 9.078125 54.6875 
L 18.109375 54.6875 
L 18.109375 46.1875 
Q 20.953125 51.171875 25.484375 53.578125 
Q 30.03125 56 36.53125 56 
Q 37.453125 56 38.578125 55.875 
Q 39.703125 55.765625 41.0625 55.515625 
z
" id="DejaVuSans-114"/>
      <path d="M 54.890625 33.015625 
L 54.890625 0 
L 45.90625 0 
L 45.90625 32.71875 
Q 45.90625 40.484375 42.875 44.328125 
Q 39.84375 48.1875 33.796875 48.1875 
Q 26.515625 48.1875 22.3125 43.546875 
Q 18.109375 38.921875 18.109375 30.90625 
L 18.109375 0 
L 9.078125 0 
L 9.078125 54.6875 
L 18.109375 54.6875 
L 18.109375 46.1875 
Q 21.34375 51.125 25.703125 53.5625 
Q 30.078125 56 35.796875 56 
Q 45.21875 56 50.046875 50.171875 
Q 54.890625 44.34375 54.890625 33.015625 
z
" id="DejaVuSans-110"/>
      <path d="M 48.78125 52.59375 
L 48.78125 44.1875 
Q 44.96875 46.296875 41.140625 47.34375 
Q 37.3125 48.390625 33.40625 48.390625 
Q 24.65625 48.390625 19.8125 42.84375 
Q 14.984375 37.3125 14.984375 27.296875 
Q 14.984375 17.28125 19.8125 11.734375 
Q 24.65625 6.203125 33.40625 6.203125 
Q 37.3125 6.203125 41.140625 7.25 
Q 44.96875 8.296875 48.78125 10.40625 
L 48.78125 2.09375 
Q 45.015625 0.34375 40.984375 -0.53125 
Q 36.96875 -1.421875 32.421875 -1.421875 
Q 20.0625 -1.421875 12.78125 6.34375 
Q 5.515625 14.109375 5.515625 27.296875 
Q 5.515625 40.671875 12.859375 48.328125 
Q 20.21875 56 33.015625 56 
Q 37.15625 56 41.109375 55.140625 
Q 45.0625 54.296875 48.78125 52.59375 
z
" id="DejaVuSans-99"/>
      <path d="M 19.671875 64.796875 
L 19.671875 37.40625 
L 32.078125 37.40625 
Q 38.96875 37.40625 42.71875 40.96875 
Q 46.484375 44.53125 46.484375 51.125 
Q 46.484375 57.671875 42.71875 61.234375 
Q 38.96875 64.796875 32.078125 64.796875 
z
M 9.8125 72.90625 
L 32.078125 72.90625 
Q 44.34375 72.90625 50.609375 67.359375 
Q 56.890625 61.8125 56.890625 51.125 
Q 56.890625 40.328125 50.609375 34.8125 
Q 44.34375 29.296875 32.078125 29.296875 
L 19.671875 29.296875 
L 19.671875 0 
L 9.8125 0 
z
" id="DejaVuSans-80"/>
      <path d="M 30.609375 48.390625 
Q 23.390625 48.390625 19.1875 42.75 
Q 14.984375 37.109375 14.984375 27.296875 
Q 14.984375 17.484375 19.15625 11.84375 
Q 23.34375 6.203125 30.609375 6.203125 
Q 37.796875 6.203125 41.984375 11.859375 
Q 46.1875 17.53125 46.1875 27.296875 
Q 46.1875 37.015625 41.984375 42.703125 
Q 37.796875 48.390625 30.609375 48.390625 
z
M 30.609375 56 
Q 42.328125 56 49.015625 48.375 
Q 55.71875 40.765625 55.71875 27.296875 
Q 55.71875 13.875 49.015625 6.21875 
Q 42.328125 -1.421875 30.609375 -1.421875 
Q 18.84375 -1.421875 12.171875 6.21875 
Q 5.515625 13.875 5.515625 27.296875 
Q 5.515625 40.765625 12.171875 48.375 
Q 18.84375 56 30.609375 56 
z
" id="DejaVuSans-111"/>
      <path d="M 44.28125 53.078125 
L 44.28125 44.578125 
Q 40.484375 46.53125 36.375 47.5 
Q 32.28125 48.484375 27.875 48.484375 
Q 21.1875 48.484375 17.84375 46.4375 
Q 14.5 44.390625 14.5 40.28125 
Q 14.5 37.15625 16.890625 35.375 
Q 19.28125 33.59375 26.515625 31.984375 
L 29.59375 31.296875 
Q 39.15625 29.25 43.1875 25.515625 
Q 47.21875 21.78125 47.21875 15.09375 
Q 47.21875 7.46875 41.1875 3.015625 
Q 35.15625 -1.421875 24.609375 -1.421875 
Q 20.21875 -1.421875 15.453125 -0.5625 
Q 10.6875 0.296875 5.421875 2 
L 5.421875 11.28125 
Q 10.40625 8.6875 15.234375 7.390625 
Q 20.0625 6.109375 24.8125 6.109375 
Q 31.15625 6.109375 34.5625 8.28125 
Q 37.984375 10.453125 37.984375 14.40625 
Q 37.984375 18.0625 35.515625 20.015625 
Q 33.0625 21.96875 24.703125 23.78125 
L 21.578125 24.515625 
Q 13.234375 26.265625 9.515625 29.90625 
Q 5.8125 33.546875 5.8125 39.890625 
Q 5.8125 47.609375 11.28125 51.796875 
Q 16.75 56 26.8125 56 
Q 31.78125 56 36.171875 55.265625 
Q 40.578125 54.546875 44.28125 53.078125 
z
" id="DejaVuSans-115"/>
      <path d="M 9.421875 54.6875 
L 18.40625 54.6875 
L 18.40625 0 
L 9.421875 0 
z
M 9.421875 75.984375 
L 18.40625 75.984375 
L 18.40625 64.59375 
L 9.421875 64.59375 
z
" id="DejaVuSans-105"/>
      <path d="M 18.3125 70.21875 
L 18.3125 54.6875 
L 36.8125 54.6875 
L 36.8125 47.703125 
L 18.3125 47.703125 
L 18.3125 18.015625 
Q 18.3125 11.328125 20.140625 9.421875 
Q 21.96875 7.515625 27.59375 7.515625 
L 36.8125 7.515625 
L 36.8125 0 
L 27.59375 0 
Q 17.1875 0 13.234375 3.875 
Q 9.28125 7.765625 9.28125 18.015625 
L 9.28125 47.703125 
L 2.6875 47.703125 
L 2.6875 54.6875 
L 9.28125 54.6875 
L 9.28125 70.21875 
z
" id="DejaVuSans-116"/>
     </defs>
     <g transform="translate(498.976719 365.136562)scale(0.1 -0.1)">
      <use xlink:href="#DejaVuSans-72"/>
      <use x="75.195312" xlink:href="#DejaVuSans-51"/>
      <use x="138.818359" xlink:href="#DejaVuSans-55"/>
      <use x="202.441406" xlink:href="#DejaVuSans-82"/>
      <use x="271.923828" xlink:href="#DejaVuSans-118"/>
      <use x="331.103516" xlink:href="#DejaVuSans-32"/>
      <use x="362.890625" xlink:href="#DejaVuSans-82"/>
      <use x="432.310547" xlink:href="#DejaVuSans-101"/>
      <use x="493.833984" xlink:href="#DejaVuSans-102"/>
      <use x="529.039062" xlink:href="#DejaVuSans-101"/>
      <use x="590.5625" xlink:href="#DejaVuSans-114"/>
      <use x="631.644531" xlink:href="#DejaVuSans-101"/>
      <use x="693.167969" xlink:href="#DejaVuSans-110"/>
      <use x="756.546875" xlink:href="#DejaVuSans-99"/>
      <use x="811.527344" xlink:href="#DejaVuSans-101"/>
      <use x="873.050781" xlink:href="#DejaVuSans-32"/>
      <use x="904.837891" xlink:href="#DejaVuSans-80"/>
      <use x="965.09375" xlink:href="#DejaVuSans-111"/>
      <use x="1026.275391" xlink:href="#DejaVuSans-115"/>
      <use x="1078.375" xlink:href="#DejaVuSans-105"/>
      <use x="1106.158203" xlink:href="#DejaVuSans-116"/>
      <use x="1145.367188" xlink:href="#DejaVuSans-105"/>
      <use x="1173.150391" xlink:href="#DejaVuSans-111"/>
      <use x="1234.332031" xlink:href="#DejaVuSans-110"/>
     </g>
    </g>
   </g>
   <g id="matplotlib.axis_2">
    <g id="ytick_1">
     <g id="line2d_10">
      <defs>
       <path d="M 0 0 
L -7 0 
" id="m1674f28420" style="stroke:#000000;stroke-width:1.5;"/>
      </defs>
      <g>
       <use style="stroke:#000000;stroke-width:1.5;" x="61.663438" xlink:href="#m1674f28420" y="333.36"/>
      </g>
     </g>
     <g id="text_11">
      <!-- 0 -->
      <g transform="translate(44.800938 337.159219)scale(0.1 -0.1)">
       <use xlink:href="#DejaVuSans-48"/>
      </g>
     </g>
    </g>
    <g id="ytick_2">
     <g id="line2d_11">
      <g>
       <use style="stroke:#000000;stroke-width:1.5;" x="61.663438" xlink:href="#m1674f28420" y="288.372414"/>
      </g>
     </g>
     <g id="text_12">
      <!-- 20 -->
      <g transform="translate(38.438438 292.171633)scale(0.1 -0.1)">
       <use xlink:href="#DejaVuSans-50"/>
       <use x="63.623047" xlink:href="#DejaVuSans-48"/>
      </g>
     </g>
    </g>
    <g id="ytick_3">
     <g id="line2d_12">
      <g>
       <use style="stroke:#000000;stroke-width:1.5;" x="61.663438" xlink:href="#m1674f28420" y="243.384828"/>
      </g>
     </g>
     <g id="text_13">
      <!-- 40 -->
      <g transform="translate(38.438438 247.184046)scale(0.1 -0.1)">
       <use xlink:href="#DejaVuSans-52"/>
       <use x="63.623047" xlink:href="#DejaVuSans-48"/>
      </g>
     </g>
    </g>
    <g id="ytick_4">
     <g id="line2d_13">
      <g>
       <use style="stroke:#000000;stroke-width:1.5;" x="61.663438" xlink:href="#m1674f28420" y="198.397241"/>
      </g>
     </g>
     <g id="text_14">
      <!-- 60 -->
      <defs>
       <path d="M 33.015625 40.375 
Q 26.375 40.375 22.484375 35.828125 
Q 18.609375 31.296875 18.609375 23.390625 
Q 18.609375 15.53125 22.484375 10.953125 
Q 26.375 6.390625 33.015625 6.390625 
Q 39.65625 6.390625 43.53125 10.953125 
Q 47.40625 15.53125 47.40625 23.390625 
Q 47.40625 31.296875 43.53125 35.828125 
Q 39.65625 40.375 33.015625 40.375 
z
M 52.59375 71.296875 
L 52.59375 62.3125 
Q 48.875 64.0625 45.09375 64.984375 
Q 41.3125 65.921875 37.59375 65.921875 
Q 27.828125 65.921875 22.671875 59.328125 
Q 17.53125 52.734375 16.796875 39.40625 
Q 19.671875 43.65625 24.015625 45.921875 
Q 28.375 48.1875 33.59375 48.1875 
Q 44.578125 48.1875 50.953125 41.515625 
Q 57.328125 34.859375 57.328125 23.390625 
Q 57.328125 12.15625 50.6875 5.359375 
Q 44.046875 -1.421875 33.015625 -1.421875 
Q 20.359375 -1.421875 13.671875 8.265625 
Q 6.984375 17.96875 6.984375 36.375 
Q 6.984375 53.65625 15.1875 63.9375 
Q 23.390625 74.21875 37.203125 74.21875 
Q 40.921875 74.21875 44.703125 73.484375 
Q 48.484375 72.75 52.59375 71.296875 
z
" id="DejaVuSans-54"/>
      </defs>
      <g transform="translate(38.438438 202.19646)scale(0.1 -0.1)">
       <use xlink:href="#DejaVuSans-54"/>
       <use x="63.623047" xlink:href="#DejaVuSans-48"/>
      </g>
     </g>
    </g>
    <g id="ytick_5">
     <g id="line2d_14">
      <g>
       <use style="stroke:#000000;stroke-width:1.5;" x="61.663438" xlink:href="#m1674f28420" y="153.409655"/>
      </g>
     </g>
     <g id="text_15">
      <!-- 80 -->
      <defs>
       <path d="M 31.78125 34.625 
Q 24.75 34.625 20.71875 30.859375 
Q 16.703125 27.09375 16.703125 20.515625 
Q 16.703125 13.921875 20.71875 10.15625 
Q 24.75 6.390625 31.78125 6.390625 
Q 38.8125 6.390625 42.859375 10.171875 
Q 46.921875 13.96875 46.921875 20.515625 
Q 46.921875 27.09375 42.890625 30.859375 
Q 38.875 34.625 31.78125 34.625 
z
M 21.921875 38.8125 
Q 15.578125 40.375 12.03125 44.71875 
Q 8.5 49.078125 8.5 55.328125 
Q 8.5 64.0625 14.71875 69.140625 
Q 20.953125 74.21875 31.78125 74.21875 
Q 42.671875 74.21875 48.875 69.140625 
Q 55.078125 64.0625 55.078125 55.328125 
Q 55.078125 49.078125 51.53125 44.71875 
Q 48 40.375 41.703125 38.8125 
Q 48.828125 37.15625 52.796875 32.3125 
Q 56.78125 27.484375 56.78125 20.515625 
Q 56.78125 9.90625 50.3125 4.234375 
Q 43.84375 -1.421875 31.78125 -1.421875 
Q 19.734375 -1.421875 13.25 4.234375 
Q 6.78125 9.90625 6.78125 20.515625 
Q 6.78125 27.484375 10.78125 32.3125 
Q 14.796875 37.15625 21.921875 38.8125 
z
M 18.3125 54.390625 
Q 18.3125 48.734375 21.84375 45.5625 
Q 25.390625 42.390625 31.78125 42.390625 
Q 38.140625 42.390625 41.71875 45.5625 
Q 45.3125 48.734375 45.3125 54.390625 
Q 45.3125 60.0625 41.71875 63.234375 
Q 38.140625 66.40625 31.78125 66.40625 
Q 25.390625 66.40625 21.84375 63.234375 
Q 18.3125 60.0625 18.3125 54.390625 
z
" id="DejaVuSans-56"/>
      </defs>
      <g transform="translate(38.438438 157.208874)scale(0.1 -0.1)">
       <use xlink:href="#DejaVuSans-56"/>
       <use x="63.623047" xlink:href="#DejaVuSans-48"/>
      </g>
     </g>
    </g>
    <g id="ytick_6">
     <g id="line2d_15">
      <g>
       <use style="stroke:#000000;stroke-width:1.5;" x="61.663438" xlink:href="#m1674f28420" y="108.422069"/>
      </g>
     </g>
     <g id="text_16">
      <!-- 100 -->
      <g transform="translate(32.075938 112.221288)scale(0.1 -0.1)">
       <use xlink:href="#DejaVuSans-49"/>
       <use x="63.623047" xlink:href="#DejaVuSans-48"/>
       <use x="127.246094" xlink:href="#DejaVuSans-48"/>
      </g>
     </g>
    </g>
    <g id="ytick_7">
     <g id="line2d_16">
      <g>
       <use style="stroke:#000000;stroke-width:1.5;" x="61.663438" xlink:href="#m1674f28420" y="63.434483"/>
      </g>
     </g>
     <g id="text_17">
      <!-- 120 -->
      <g transform="translate(32.075938 67.233702)scale(0.1 -0.1)">
       <use xlink:href="#DejaVuSans-49"/>
       <use x="63.623047" xlink:href="#DejaVuSans-50"/>
       <use x="127.246094" xlink:href="#DejaVuSans-48"/>
      </g>
     </g>
    </g>
    <g id="ytick_8">
     <g id="line2d_17">
      <g>
       <use style="stroke:#000000;stroke-width:1.5;" x="61.663438" xlink:href="#m1674f28420" y="18.446897"/>
      </g>
     </g>
     <g id="text_18">
      <!-- 140 -->
      <g transform="translate(32.075938 22.246115)scale(0.1 -0.1)">
       <use xlink:href="#DejaVuSans-49"/>
       <use x="63.623047" xlink:href="#DejaVuSans-52"/>
       <use x="127.246094" xlink:href="#DejaVuSans-48"/>
      </g>
     </g>
    </g>
    <g id="text_19">
     <!-- # False Positive SNS Calls  -->
     <defs>
      <path d="M 51.125 44 
L 36.921875 44 
L 32.8125 27.6875 
L 47.125 27.6875 
z
M 43.796875 71.78125 
L 38.71875 51.515625 
L 52.984375 51.515625 
L 58.109375 71.78125 
L 65.921875 71.78125 
L 60.890625 51.515625 
L 76.125 51.515625 
L 76.125 44 
L 58.984375 44 
L 54.984375 27.6875 
L 70.515625 27.6875 
L 70.515625 20.21875 
L 53.078125 20.21875 
L 48 0 
L 40.1875 0 
L 45.21875 20.21875 
L 30.90625 20.21875 
L 25.875 0 
L 18.015625 0 
L 23.09375 20.21875 
L 7.71875 20.21875 
L 7.71875 27.6875 
L 24.90625 27.6875 
L 29 44 
L 13.28125 44 
L 13.28125 51.515625 
L 30.90625 51.515625 
L 35.890625 71.78125 
z
" id="DejaVuSans-35"/>
      <path d="M 9.8125 72.90625 
L 51.703125 72.90625 
L 51.703125 64.59375 
L 19.671875 64.59375 
L 19.671875 43.109375 
L 48.578125 43.109375 
L 48.578125 34.8125 
L 19.671875 34.8125 
L 19.671875 0 
L 9.8125 0 
z
" id="DejaVuSans-70"/>
      <path d="M 34.28125 27.484375 
Q 23.390625 27.484375 19.1875 25 
Q 14.984375 22.515625 14.984375 16.5 
Q 14.984375 11.71875 18.140625 8.90625 
Q 21.296875 6.109375 26.703125 6.109375 
Q 34.1875 6.109375 38.703125 11.40625 
Q 43.21875 16.703125 43.21875 25.484375 
L 43.21875 27.484375 
z
M 52.203125 31.203125 
L 52.203125 0 
L 43.21875 0 
L 43.21875 8.296875 
Q 40.140625 3.328125 35.546875 0.953125 
Q 30.953125 -1.421875 24.3125 -1.421875 
Q 15.921875 -1.421875 10.953125 3.296875 
Q 6 8.015625 6 15.921875 
Q 6 25.140625 12.171875 29.828125 
Q 18.359375 34.515625 30.609375 34.515625 
L 43.21875 34.515625 
L 43.21875 35.40625 
Q 43.21875 41.609375 39.140625 45 
Q 35.0625 48.390625 27.6875 48.390625 
Q 23 48.390625 18.546875 47.265625 
Q 14.109375 46.140625 10.015625 43.890625 
L 10.015625 52.203125 
Q 14.9375 54.109375 19.578125 55.046875 
Q 24.21875 56 28.609375 56 
Q 40.484375 56 46.34375 49.84375 
Q 52.203125 43.703125 52.203125 31.203125 
z
" id="DejaVuSans-97"/>
      <path d="M 9.421875 75.984375 
L 18.40625 75.984375 
L 18.40625 0 
L 9.421875 0 
z
" id="DejaVuSans-108"/>
      <path d="M 53.515625 70.515625 
L 53.515625 60.890625 
Q 47.90625 63.578125 42.921875 64.890625 
Q 37.9375 66.21875 33.296875 66.21875 
Q 25.25 66.21875 20.875 63.09375 
Q 16.5 59.96875 16.5 54.203125 
Q 16.5 49.359375 19.40625 46.890625 
Q 22.3125 44.4375 30.421875 42.921875 
L 36.375 41.703125 
Q 47.40625 39.59375 52.65625 34.296875 
Q 57.90625 29 57.90625 20.125 
Q 57.90625 9.515625 50.796875 4.046875 
Q 43.703125 -1.421875 29.984375 -1.421875 
Q 24.8125 -1.421875 18.96875 -0.25 
Q 13.140625 0.921875 6.890625 3.21875 
L 6.890625 13.375 
Q 12.890625 10.015625 18.65625 8.296875 
Q 24.421875 6.59375 29.984375 6.59375 
Q 38.421875 6.59375 43.015625 9.90625 
Q 47.609375 13.234375 47.609375 19.390625 
Q 47.609375 24.75 44.3125 27.78125 
Q 41.015625 30.8125 33.5 32.328125 
L 27.484375 33.5 
Q 16.453125 35.6875 11.515625 40.375 
Q 6.59375 45.0625 6.59375 53.421875 
Q 6.59375 63.09375 13.40625 68.65625 
Q 20.21875 74.21875 32.171875 74.21875 
Q 37.3125 74.21875 42.625 73.28125 
Q 47.953125 72.359375 53.515625 70.515625 
z
" id="DejaVuSans-83"/>
      <path d="M 9.8125 72.90625 
L 23.09375 72.90625 
L 55.421875 11.921875 
L 55.421875 72.90625 
L 64.984375 72.90625 
L 64.984375 0 
L 51.703125 0 
L 19.390625 60.984375 
L 19.390625 0 
L 9.8125 0 
z
" id="DejaVuSans-78"/>
      <path d="M 64.40625 67.28125 
L 64.40625 56.890625 
Q 59.421875 61.53125 53.78125 63.8125 
Q 48.140625 66.109375 41.796875 66.109375 
Q 29.296875 66.109375 22.65625 58.46875 
Q 16.015625 50.828125 16.015625 36.375 
Q 16.015625 21.96875 22.65625 14.328125 
Q 29.296875 6.6875 41.796875 6.6875 
Q 48.140625 6.6875 53.78125 8.984375 
Q 59.421875 11.28125 64.40625 15.921875 
L 64.40625 5.609375 
Q 59.234375 2.09375 53.4375 0.328125 
Q 47.65625 -1.421875 41.21875 -1.421875 
Q 24.65625 -1.421875 15.125 8.703125 
Q 5.609375 18.84375 5.609375 36.375 
Q 5.609375 53.953125 15.125 64.078125 
Q 24.65625 74.21875 41.21875 74.21875 
Q 47.75 74.21875 53.53125 72.484375 
Q 59.328125 70.75 64.40625 67.28125 
z
" id="DejaVuSans-67"/>
     </defs>
     <g transform="translate(14.798438 236.896406)rotate(-90)scale(0.1 -0.1)">
      <use xlink:href="#DejaVuSans-35"/>
      <use x="83.789062" xlink:href="#DejaVuSans-32"/>
      <use x="115.576172" xlink:href="#DejaVuSans-70"/>
      <use x="172.955078" xlink:href="#DejaVuSans-97"/>
      <use x="234.234375" xlink:href="#DejaVuSans-108"/>
      <use x="262.017578" xlink:href="#DejaVuSans-115"/>
      <use x="314.117188" xlink:href="#DejaVuSans-101"/>
      <use x="375.640625" xlink:href="#DejaVuSans-32"/>
      <use x="407.427734" xlink:href="#DejaVuSans-80"/>
      <use x="467.683594" xlink:href="#DejaVuSans-111"/>
      <use x="528.865234" xlink:href="#DejaVuSans-115"/>
      <use x="580.964844" xlink:href="#DejaVuSans-105"/>
      <use x="608.748047" xlink:href="#DejaVuSans-116"/>
      <use x="647.957031" xlink:href="#DejaVuSans-105"/>
      <use x="675.740234" xlink:href="#DejaVuSans-118"/>
      <use x="734.919922" xlink:href="#DejaVuSans-101"/>
      <use x="796.443359" xlink:href="#DejaVuSans-32"/>
      <use x="828.230469" xlink:href="#DejaVuSans-83"/>
      <use x="891.707031" xlink:href="#DejaVuSans-78"/>
      <use x="966.511719" xlink:href="#DejaVuSans-83"/>
      <use x="1029.988281" xlink:href="#DejaVuSans-32"/>
      <use x="1061.775391" xlink:href="#DejaVuSans-67"/>
      <use x="1131.599609" xlink:href="#DejaVuSans-97"/>
      <use x="1192.878906" xlink:href="#DejaVuSans-108"/>
      <use x="1220.662109" xlink:href="#DejaVuSans-108"/>
      <use x="1248.445312" xlink:href="#DejaVuSans-115"/>
      <use x="1300.544922" xlink:href="#DejaVuSans-32"/>
     </g>
     <!--  (MQ &gt;= 30, across 36 Mtb isolates) -->
     <defs>
      <path d="M 31 75.875 
Q 24.46875 64.65625 21.28125 53.65625 
Q 18.109375 42.671875 18.109375 31.390625 
Q 18.109375 20.125 21.3125 9.0625 
Q 24.515625 -2 31 -13.1875 
L 23.1875 -13.1875 
Q 15.875 -1.703125 12.234375 9.375 
Q 8.59375 20.453125 8.59375 31.390625 
Q 8.59375 42.28125 12.203125 53.3125 
Q 15.828125 64.359375 23.1875 75.875 
z
" id="DejaVuSans-40"/>
      <path d="M 9.8125 72.90625 
L 24.515625 72.90625 
L 43.109375 23.296875 
L 61.8125 72.90625 
L 76.515625 72.90625 
L 76.515625 0 
L 66.890625 0 
L 66.890625 64.015625 
L 48.09375 14.015625 
L 38.1875 14.015625 
L 19.390625 64.015625 
L 19.390625 0 
L 9.8125 0 
z
" id="DejaVuSans-77"/>
      <path d="M 39.40625 66.21875 
Q 28.65625 66.21875 22.328125 58.203125 
Q 16.015625 50.203125 16.015625 36.375 
Q 16.015625 22.609375 22.328125 14.59375 
Q 28.65625 6.59375 39.40625 6.59375 
Q 50.140625 6.59375 56.421875 14.59375 
Q 62.703125 22.609375 62.703125 36.375 
Q 62.703125 50.203125 56.421875 58.203125 
Q 50.140625 66.21875 39.40625 66.21875 
z
M 53.21875 1.3125 
L 66.21875 -12.890625 
L 54.296875 -12.890625 
L 43.5 -1.21875 
Q 41.890625 -1.3125 41.03125 -1.359375 
Q 40.1875 -1.421875 39.40625 -1.421875 
Q 24.03125 -1.421875 14.8125 8.859375 
Q 5.609375 19.140625 5.609375 36.375 
Q 5.609375 53.65625 14.8125 63.9375 
Q 24.03125 74.21875 39.40625 74.21875 
Q 54.734375 74.21875 63.90625 63.9375 
Q 73.09375 53.65625 73.09375 36.375 
Q 73.09375 23.6875 67.984375 14.640625 
Q 62.890625 5.609375 53.21875 1.3125 
z
" id="DejaVuSans-81"/>
      <path d="M 10.59375 49.21875 
L 10.59375 58.109375 
L 73.1875 35.40625 
L 73.1875 27.296875 
L 10.59375 4.59375 
L 10.59375 13.484375 
L 60.890625 31.296875 
z
" id="DejaVuSans-62"/>
      <path d="M 10.59375 45.40625 
L 73.1875 45.40625 
L 73.1875 37.203125 
L 10.59375 37.203125 
z
M 10.59375 25.484375 
L 73.1875 25.484375 
L 73.1875 17.1875 
L 10.59375 17.1875 
z
" id="DejaVuSans-61"/>
      <path d="M 11.71875 12.40625 
L 22.015625 12.40625 
L 22.015625 4 
L 14.015625 -11.625 
L 7.71875 -11.625 
L 11.71875 4 
z
" id="DejaVuSans-44"/>
      <path d="M 48.6875 27.296875 
Q 48.6875 37.203125 44.609375 42.84375 
Q 40.53125 48.484375 33.40625 48.484375 
Q 26.265625 48.484375 22.1875 42.84375 
Q 18.109375 37.203125 18.109375 27.296875 
Q 18.109375 17.390625 22.1875 11.75 
Q 26.265625 6.109375 33.40625 6.109375 
Q 40.53125 6.109375 44.609375 11.75 
Q 48.6875 17.390625 48.6875 27.296875 
z
M 18.109375 46.390625 
Q 20.953125 51.265625 25.265625 53.625 
Q 29.59375 56 35.59375 56 
Q 45.5625 56 51.78125 48.09375 
Q 58.015625 40.1875 58.015625 27.296875 
Q 58.015625 14.40625 51.78125 6.484375 
Q 45.5625 -1.421875 35.59375 -1.421875 
Q 29.59375 -1.421875 25.265625 0.953125 
Q 20.953125 3.328125 18.109375 8.203125 
L 18.109375 0 
L 9.078125 0 
L 9.078125 75.984375 
L 18.109375 75.984375 
z
" id="DejaVuSans-98"/>
      <path d="M 8.015625 75.875 
L 15.828125 75.875 
Q 23.140625 64.359375 26.78125 53.3125 
Q 30.421875 42.28125 30.421875 31.390625 
Q 30.421875 20.453125 26.78125 9.375 
Q 23.140625 -1.703125 15.828125 -13.1875 
L 8.015625 -13.1875 
Q 14.5 -2 17.703125 9.0625 
Q 20.90625 20.125 20.90625 31.390625 
Q 20.90625 42.671875 17.703125 53.65625 
Q 14.5 64.65625 8.015625 75.875 
z
" id="DejaVuSans-41"/>
     </defs>
     <g transform="translate(25.99625 260.980781)rotate(-90)scale(0.1 -0.1)">
      <use xlink:href="#DejaVuSans-32"/>
      <use x="31.787109" xlink:href="#DejaVuSans-40"/>
      <use x="70.800781" xlink:href="#DejaVuSans-77"/>
      <use x="157.080078" xlink:href="#DejaVuSans-81"/>
      <use x="235.791016" xlink:href="#DejaVuSans-32"/>
      <use x="267.578125" xlink:href="#DejaVuSans-62"/>
      <use x="351.367188" xlink:href="#DejaVuSans-61"/>
      <use x="435.15625" xlink:href="#DejaVuSans-32"/>
      <use x="466.943359" xlink:href="#DejaVuSans-51"/>
      <use x="530.566406" xlink:href="#DejaVuSans-48"/>
      <use x="594.189453" xlink:href="#DejaVuSans-44"/>
      <use x="625.976562" xlink:href="#DejaVuSans-32"/>
      <use x="657.763672" xlink:href="#DejaVuSans-97"/>
      <use x="719.042969" xlink:href="#DejaVuSans-99"/>
      <use x="774.023438" xlink:href="#DejaVuSans-114"/>
      <use x="815.105469" xlink:href="#DejaVuSans-111"/>
      <use x="876.287109" xlink:href="#DejaVuSans-115"/>
      <use x="928.386719" xlink:href="#DejaVuSans-115"/>
      <use x="980.486328" xlink:href="#DejaVuSans-32"/>
      <use x="1012.273438" xlink:href="#DejaVuSans-51"/>
      <use x="1075.896484" xlink:href="#DejaVuSans-54"/>
      <use x="1139.519531" xlink:href="#DejaVuSans-32"/>
      <use x="1171.306641" xlink:href="#DejaVuSans-77"/>
      <use x="1257.585938" xlink:href="#DejaVuSans-116"/>
      <use x="1296.794922" xlink:href="#DejaVuSans-98"/>
      <use x="1360.271484" xlink:href="#DejaVuSans-32"/>
      <use x="1392.058594" xlink:href="#DejaVuSans-105"/>
      <use x="1419.841797" xlink:href="#DejaVuSans-115"/>
      <use x="1471.941406" xlink:href="#DejaVuSans-111"/>
      <use x="1533.123047" xlink:href="#DejaVuSans-108"/>
      <use x="1560.90625" xlink:href="#DejaVuSans-97"/>
      <use x="1622.185547" xlink:href="#DejaVuSans-116"/>
      <use x="1661.394531" xlink:href="#DejaVuSans-101"/>
      <use x="1722.917969" xlink:href="#DejaVuSans-115"/>
      <use x="1775.017578" xlink:href="#DejaVuSans-41"/>
     </g>
    </g>
   </g>
   <g id="patch_3">
    <path d="M 61.663438 333.36 
L 61.663438 7.2 
" style="fill:none;stroke:#000000;stroke-linecap:square;stroke-linejoin:miter;stroke-width:1.5;"/>
   </g>
   <g id="patch_4">
    <path d="M 61.663438 333.36 
L 1066.063438 333.36 
" style="fill:none;stroke:#000000;stroke-linecap:square;stroke-linejoin:miter;stroke-width:1.5;"/>
   </g>
   <g id="legend_1">
    <g id="patch_5">
     <path d="M 68.663438 103.26875 
L 349.800938 103.26875 
Q 351.800938 103.26875 351.800938 101.26875 
L 351.800938 14.2 
Q 351.800938 12.2 349.800938 12.2 
L 68.663438 12.2 
Q 66.663438 12.2 66.663438 14.2 
L 66.663438 101.26875 
Q 66.663438 103.26875 68.663438 103.26875 
z
" style="fill:#ffffff;opacity:0.8;stroke:#cccccc;stroke-linejoin:miter;"/>
    </g>
    <g id="text_20">
     <!-- Region Category -->
     <defs>
      <path d="M 45.40625 27.984375 
Q 45.40625 37.75 41.375 43.109375 
Q 37.359375 48.484375 30.078125 48.484375 
Q 22.859375 48.484375 18.828125 43.109375 
Q 14.796875 37.75 14.796875 27.984375 
Q 14.796875 18.265625 18.828125 12.890625 
Q 22.859375 7.515625 30.078125 7.515625 
Q 37.359375 7.515625 41.375 12.890625 
Q 45.40625 18.265625 45.40625 27.984375 
z
M 54.390625 6.78125 
Q 54.390625 -7.171875 48.1875 -13.984375 
Q 42 -20.796875 29.203125 -20.796875 
Q 24.46875 -20.796875 20.265625 -20.09375 
Q 16.0625 -19.390625 12.109375 -17.921875 
L 12.109375 -9.1875 
Q 16.0625 -11.328125 19.921875 -12.34375 
Q 23.78125 -13.375 27.78125 -13.375 
Q 36.625 -13.375 41.015625 -8.765625 
Q 45.40625 -4.15625 45.40625 5.171875 
L 45.40625 9.625 
Q 42.625 4.78125 38.28125 2.390625 
Q 33.9375 0 27.875 0 
Q 17.828125 0 11.671875 7.65625 
Q 5.515625 15.328125 5.515625 27.984375 
Q 5.515625 40.671875 11.671875 48.328125 
Q 17.828125 56 27.875 56 
Q 33.9375 56 38.28125 53.609375 
Q 42.625 51.21875 45.40625 46.390625 
L 45.40625 54.6875 
L 54.390625 54.6875 
z
" id="DejaVuSans-103"/>
      <path d="M 32.171875 -5.078125 
Q 28.375 -14.84375 24.75 -17.8125 
Q 21.140625 -20.796875 15.09375 -20.796875 
L 7.90625 -20.796875 
L 7.90625 -13.28125 
L 13.1875 -13.28125 
Q 16.890625 -13.28125 18.9375 -11.515625 
Q 21 -9.765625 23.484375 -3.21875 
L 25.09375 0.875 
L 2.984375 54.6875 
L 12.5 54.6875 
L 29.59375 11.921875 
L 46.6875 54.6875 
L 56.203125 54.6875 
z
" id="DejaVuSans-121"/>
     </defs>
     <g transform="translate(167.463438 23.798437)scale(0.1 -0.1)">
      <use xlink:href="#DejaVuSans-82"/>
      <use x="69.419922" xlink:href="#DejaVuSans-101"/>
      <use x="130.943359" xlink:href="#DejaVuSans-103"/>
      <use x="194.419922" xlink:href="#DejaVuSans-105"/>
      <use x="222.203125" xlink:href="#DejaVuSans-111"/>
      <use x="283.384766" xlink:href="#DejaVuSans-110"/>
      <use x="346.763672" xlink:href="#DejaVuSans-32"/>
      <use x="378.550781" xlink:href="#DejaVuSans-67"/>
      <use x="448.375" xlink:href="#DejaVuSans-97"/>
      <use x="509.654297" xlink:href="#DejaVuSans-116"/>
      <use x="548.863281" xlink:href="#DejaVuSans-101"/>
      <use x="610.386719" xlink:href="#DejaVuSans-103"/>
      <use x="673.863281" xlink:href="#DejaVuSans-111"/>
      <use x="735.044922" xlink:href="#DejaVuSans-114"/>
      <use x="776.158203" xlink:href="#DejaVuSans-121"/>
     </g>
    </g>
    <g id="patch_6">
     <path d="M 70.663438 38.476562 
L 90.663438 38.476562 
L 90.663438 31.476562 
L 70.663438 31.476562 
z
" style="fill:#4fc1e8;stroke:#4fc1e8;stroke-linejoin:miter;"/>
    </g>
    <g id="text_21">
     <!-- Integenic Region -->
     <defs>
      <path d="M 9.8125 72.90625 
L 19.671875 72.90625 
L 19.671875 0 
L 9.8125 0 
z
" id="DejaVuSans-73"/>
     </defs>
     <g transform="translate(98.663438 38.476562)scale(0.1 -0.1)">
      <use xlink:href="#DejaVuSans-73"/>
      <use x="29.492188" xlink:href="#DejaVuSans-110"/>
      <use x="92.871094" xlink:href="#DejaVuSans-116"/>
      <use x="132.080078" xlink:href="#DejaVuSans-101"/>
      <use x="193.603516" xlink:href="#DejaVuSans-103"/>
      <use x="257.080078" xlink:href="#DejaVuSans-101"/>
      <use x="318.603516" xlink:href="#DejaVuSans-110"/>
      <use x="381.982422" xlink:href="#DejaVuSans-105"/>
      <use x="409.765625" xlink:href="#DejaVuSans-99"/>
      <use x="464.746094" xlink:href="#DejaVuSans-32"/>
      <use x="496.533203" xlink:href="#DejaVuSans-82"/>
      <use x="565.953125" xlink:href="#DejaVuSans-101"/>
      <use x="627.476562" xlink:href="#DejaVuSans-103"/>
      <use x="690.953125" xlink:href="#DejaVuSans-105"/>
      <use x="718.736328" xlink:href="#DejaVuSans-111"/>
      <use x="779.917969" xlink:href="#DejaVuSans-110"/>
     </g>
    </g>
    <g id="patch_7">
     <path d="M 70.663438 53.154687 
L 90.663438 53.154687 
L 90.663438 46.154687 
L 70.663438 46.154687 
z
" style="fill:#ffce54;stroke:#ffce54;stroke-linejoin:miter;"/>
    </g>
    <g id="text_22">
     <!-- PE/PPEs -->
     <defs>
      <path d="M 9.8125 72.90625 
L 55.90625 72.90625 
L 55.90625 64.59375 
L 19.671875 64.59375 
L 19.671875 43.015625 
L 54.390625 43.015625 
L 54.390625 34.71875 
L 19.671875 34.71875 
L 19.671875 8.296875 
L 56.78125 8.296875 
L 56.78125 0 
L 9.8125 0 
z
" id="DejaVuSans-69"/>
      <path d="M 25.390625 72.90625 
L 33.6875 72.90625 
L 8.296875 -9.28125 
L 0 -9.28125 
z
" id="DejaVuSans-47"/>
     </defs>
     <g transform="translate(98.663438 53.154687)scale(0.1 -0.1)">
      <use xlink:href="#DejaVuSans-80"/>
      <use x="60.302734" xlink:href="#DejaVuSans-69"/>
      <use x="123.486328" xlink:href="#DejaVuSans-47"/>
      <use x="157.177734" xlink:href="#DejaVuSans-80"/>
      <use x="217.480469" xlink:href="#DejaVuSans-80"/>
      <use x="277.783203" xlink:href="#DejaVuSans-69"/>
      <use x="340.966797" xlink:href="#DejaVuSans-115"/>
     </g>
    </g>
    <g id="patch_8">
     <path d="M 70.663438 67.832812 
L 90.663438 67.832812 
L 90.663438 60.832812 
L 70.663438 60.832812 
z
" style="fill:#a0d568;stroke:#a0d568;stroke-linejoin:miter;"/>
    </g>
    <g id="text_23">
     <!-- Repetative genes identified in Coscolla et al 2015 -->
     <defs>
      <path d="M 18.109375 8.203125 
L 18.109375 -20.796875 
L 9.078125 -20.796875 
L 9.078125 54.6875 
L 18.109375 54.6875 
L 18.109375 46.390625 
Q 20.953125 51.265625 25.265625 53.625 
Q 29.59375 56 35.59375 56 
Q 45.5625 56 51.78125 48.09375 
Q 58.015625 40.1875 58.015625 27.296875 
Q 58.015625 14.40625 51.78125 6.484375 
Q 45.5625 -1.421875 35.59375 -1.421875 
Q 29.59375 -1.421875 25.265625 0.953125 
Q 20.953125 3.328125 18.109375 8.203125 
z
M 48.6875 27.296875 
Q 48.6875 37.203125 44.609375 42.84375 
Q 40.53125 48.484375 33.40625 48.484375 
Q 26.265625 48.484375 22.1875 42.84375 
Q 18.109375 37.203125 18.109375 27.296875 
Q 18.109375 17.390625 22.1875 11.75 
Q 26.265625 6.109375 33.40625 6.109375 
Q 40.53125 6.109375 44.609375 11.75 
Q 48.6875 17.390625 48.6875 27.296875 
z
" id="DejaVuSans-112"/>
      <path d="M 45.40625 46.390625 
L 45.40625 75.984375 
L 54.390625 75.984375 
L 54.390625 0 
L 45.40625 0 
L 45.40625 8.203125 
Q 42.578125 3.328125 38.25 0.953125 
Q 33.9375 -1.421875 27.875 -1.421875 
Q 17.96875 -1.421875 11.734375 6.484375 
Q 5.515625 14.40625 5.515625 27.296875 
Q 5.515625 40.1875 11.734375 48.09375 
Q 17.96875 56 27.875 56 
Q 33.9375 56 38.25 53.625 
Q 42.578125 51.265625 45.40625 46.390625 
z
M 14.796875 27.296875 
Q 14.796875 17.390625 18.875 11.75 
Q 22.953125 6.109375 30.078125 6.109375 
Q 37.203125 6.109375 41.296875 11.75 
Q 45.40625 17.390625 45.40625 27.296875 
Q 45.40625 37.203125 41.296875 42.84375 
Q 37.203125 48.484375 30.078125 48.484375 
Q 22.953125 48.484375 18.875 42.84375 
Q 14.796875 37.203125 14.796875 27.296875 
z
" id="DejaVuSans-100"/>
     </defs>
     <g transform="translate(98.663438 67.832812)scale(0.1 -0.1)">
      <use xlink:href="#DejaVuSans-82"/>
      <use x="69.419922" xlink:href="#DejaVuSans-101"/>
      <use x="130.943359" xlink:href="#DejaVuSans-112"/>
      <use x="194.419922" xlink:href="#DejaVuSans-101"/>
      <use x="255.943359" xlink:href="#DejaVuSans-116"/>
      <use x="295.152344" xlink:href="#DejaVuSans-97"/>
      <use x="356.431641" xlink:href="#DejaVuSans-116"/>
      <use x="395.640625" xlink:href="#DejaVuSans-105"/>
      <use x="423.423828" xlink:href="#DejaVuSans-118"/>
      <use x="482.603516" xlink:href="#DejaVuSans-101"/>
      <use x="544.126953" xlink:href="#DejaVuSans-32"/>
      <use x="575.914062" xlink:href="#DejaVuSans-103"/>
      <use x="639.390625" xlink:href="#DejaVuSans-101"/>
      <use x="700.914062" xlink:href="#DejaVuSans-110"/>
      <use x="764.292969" xlink:href="#DejaVuSans-101"/>
      <use x="825.816406" xlink:href="#DejaVuSans-115"/>
      <use x="877.916016" xlink:href="#DejaVuSans-32"/>
      <use x="909.703125" xlink:href="#DejaVuSans-105"/>
      <use x="937.486328" xlink:href="#DejaVuSans-100"/>
      <use x="1000.962891" xlink:href="#DejaVuSans-101"/>
      <use x="1062.486328" xlink:href="#DejaVuSans-110"/>
      <use x="1125.865234" xlink:href="#DejaVuSans-116"/>
      <use x="1165.074219" xlink:href="#DejaVuSans-105"/>
      <use x="1192.857422" xlink:href="#DejaVuSans-102"/>
      <use x="1228.0625" xlink:href="#DejaVuSans-105"/>
      <use x="1255.845703" xlink:href="#DejaVuSans-101"/>
      <use x="1317.369141" xlink:href="#DejaVuSans-100"/>
      <use x="1380.845703" xlink:href="#DejaVuSans-32"/>
      <use x="1412.632812" xlink:href="#DejaVuSans-105"/>
      <use x="1440.416016" xlink:href="#DejaVuSans-110"/>
      <use x="1503.794922" xlink:href="#DejaVuSans-32"/>
      <use x="1535.582031" xlink:href="#DejaVuSans-67"/>
      <use x="1605.40625" xlink:href="#DejaVuSans-111"/>
      <use x="1666.587891" xlink:href="#DejaVuSans-115"/>
      <use x="1718.6875" xlink:href="#DejaVuSans-99"/>
      <use x="1773.667969" xlink:href="#DejaVuSans-111"/>
      <use x="1834.849609" xlink:href="#DejaVuSans-108"/>
      <use x="1862.632812" xlink:href="#DejaVuSans-108"/>
      <use x="1890.416016" xlink:href="#DejaVuSans-97"/>
      <use x="1951.695312" xlink:href="#DejaVuSans-32"/>
      <use x="1983.482422" xlink:href="#DejaVuSans-101"/>
      <use x="2045.005859" xlink:href="#DejaVuSans-116"/>
      <use x="2084.214844" xlink:href="#DejaVuSans-32"/>
      <use x="2116.001953" xlink:href="#DejaVuSans-97"/>
      <use x="2177.28125" xlink:href="#DejaVuSans-108"/>
      <use x="2205.064453" xlink:href="#DejaVuSans-32"/>
      <use x="2236.851562" xlink:href="#DejaVuSans-50"/>
      <use x="2300.474609" xlink:href="#DejaVuSans-48"/>
      <use x="2364.097656" xlink:href="#DejaVuSans-49"/>
      <use x="2427.720703" xlink:href="#DejaVuSans-53"/>
     </g>
    </g>
    <g id="patch_9">
     <path d="M 70.663438 82.510937 
L 90.663438 82.510937 
L 90.663438 75.510937 
L 70.663438 75.510937 
z
" style="fill:#ed5564;stroke:#ed5564;stroke-linejoin:miter;"/>
    </g>
    <g id="text_24">
     <!-- Non-PLC gene -->
     <defs>
      <path d="M 4.890625 31.390625 
L 31.203125 31.390625 
L 31.203125 23.390625 
L 4.890625 23.390625 
z
" id="DejaVuSans-45"/>
      <path d="M 9.8125 72.90625 
L 19.671875 72.90625 
L 19.671875 8.296875 
L 55.171875 8.296875 
L 55.171875 0 
L 9.8125 0 
z
" id="DejaVuSans-76"/>
     </defs>
     <g transform="translate(98.663438 82.510937)scale(0.1 -0.1)">
      <use xlink:href="#DejaVuSans-78"/>
      <use x="74.804688" xlink:href="#DejaVuSans-111"/>
      <use x="135.986328" xlink:href="#DejaVuSans-110"/>
      <use x="199.365234" xlink:href="#DejaVuSans-45"/>
      <use x="235.449219" xlink:href="#DejaVuSans-80"/>
      <use x="295.751953" xlink:href="#DejaVuSans-76"/>
      <use x="351.464844" xlink:href="#DejaVuSans-67"/>
      <use x="421.289062" xlink:href="#DejaVuSans-32"/>
      <use x="453.076172" xlink:href="#DejaVuSans-103"/>
      <use x="516.552734" xlink:href="#DejaVuSans-101"/>
      <use x="578.076172" xlink:href="#DejaVuSans-110"/>
      <use x="641.455078" xlink:href="#DejaVuSans-101"/>
     </g>
    </g>
    <g id="patch_10">
     <path d="M 70.663438 97.189062 
L 90.663438 97.189062 
L 90.663438 90.189062 
L 70.663438 90.189062 
z
" style="fill:#ac92eb;stroke:#ac92eb;stroke-linejoin:miter;"/>
    </g>
    <g id="text_25">
     <!-- Mobile Genetic Element -->
     <defs>
      <path d="M 59.515625 10.40625 
L 59.515625 29.984375 
L 43.40625 29.984375 
L 43.40625 38.09375 
L 69.28125 38.09375 
L 69.28125 6.78125 
Q 63.578125 2.734375 56.6875 0.65625 
Q 49.8125 -1.421875 42 -1.421875 
Q 24.90625 -1.421875 15.25 8.5625 
Q 5.609375 18.5625 5.609375 36.375 
Q 5.609375 54.25 15.25 64.234375 
Q 24.90625 74.21875 42 74.21875 
Q 49.125 74.21875 55.546875 72.453125 
Q 61.96875 70.703125 67.390625 67.28125 
L 67.390625 56.78125 
Q 61.921875 61.421875 55.765625 63.765625 
Q 49.609375 66.109375 42.828125 66.109375 
Q 29.4375 66.109375 22.71875 58.640625 
Q 16.015625 51.171875 16.015625 36.375 
Q 16.015625 21.625 22.71875 14.15625 
Q 29.4375 6.6875 42.828125 6.6875 
Q 48.046875 6.6875 52.140625 7.59375 
Q 56.25 8.5 59.515625 10.40625 
z
" id="DejaVuSans-71"/>
      <path d="M 52 44.1875 
Q 55.375 50.25 60.0625 53.125 
Q 64.75 56 71.09375 56 
Q 79.640625 56 84.28125 50.015625 
Q 88.921875 44.046875 88.921875 33.015625 
L 88.921875 0 
L 79.890625 0 
L 79.890625 32.71875 
Q 79.890625 40.578125 77.09375 44.375 
Q 74.3125 48.1875 68.609375 48.1875 
Q 61.625 48.1875 57.5625 43.546875 
Q 53.515625 38.921875 53.515625 30.90625 
L 53.515625 0 
L 44.484375 0 
L 44.484375 32.71875 
Q 44.484375 40.625 41.703125 44.40625 
Q 38.921875 48.1875 33.109375 48.1875 
Q 26.21875 48.1875 22.15625 43.53125 
Q 18.109375 38.875 18.109375 30.90625 
L 18.109375 0 
L 9.078125 0 
L 9.078125 54.6875 
L 18.109375 54.6875 
L 18.109375 46.1875 
Q 21.1875 51.21875 25.484375 53.609375 
Q 29.78125 56 35.6875 56 
Q 41.65625 56 45.828125 52.96875 
Q 50 49.953125 52 44.1875 
z
" id="DejaVuSans-109"/>
     </defs>
     <g transform="translate(98.663438 97.189062)scale(0.1 -0.1)">
      <use xlink:href="#DejaVuSans-77"/>
      <use x="86.279297" xlink:href="#DejaVuSans-111"/>
      <use x="147.460938" xlink:href="#DejaVuSans-98"/>
      <use x="210.9375" xlink:href="#DejaVuSans-105"/>
      <use x="238.720703" xlink:href="#DejaVuSans-108"/>
      <use x="266.503906" xlink:href="#DejaVuSans-101"/>
      <use x="328.027344" xlink:href="#DejaVuSans-32"/>
      <use x="359.814453" xlink:href="#DejaVuSans-71"/>
      <use x="437.304688" xlink:href="#DejaVuSans-101"/>
      <use x="498.828125" xlink:href="#DejaVuSans-110"/>
      <use x="562.207031" xlink:href="#DejaVuSans-101"/>
      <use x="623.730469" xlink:href="#DejaVuSans-116"/>
      <use x="662.939453" xlink:href="#DejaVuSans-105"/>
      <use x="690.722656" xlink:href="#DejaVuSans-99"/>
      <use x="745.703125" xlink:href="#DejaVuSans-32"/>
      <use x="777.490234" xlink:href="#DejaVuSans-69"/>
      <use x="840.673828" xlink:href="#DejaVuSans-108"/>
      <use x="868.457031" xlink:href="#DejaVuSans-101"/>
      <use x="929.980469" xlink:href="#DejaVuSans-109"/>
      <use x="1027.392578" xlink:href="#DejaVuSans-101"/>
      <use x="1088.916016" xlink:href="#DejaVuSans-110"/>
      <use x="1152.294922" xlink:href="#DejaVuSans-116"/>
     </g>
    </g>
   </g>
  </g>
 </g>
 <defs>
  <clipPath id="p9f0f3995e9">
   <rect height="326.16" width="1004.4" x="61.663438" y="7.2"/>
  </clipPath>
 </defs>
</svg>
