<?xml version="1.0" encoding="utf-8" standalone="no"?>
<!DOCTYPE svg PUBLIC "-//W3C//DTD SVG 1.1//EN"
  "http://www.w3.org/Graphics/SVG/1.1/DTD/svg11.dtd">
<!-- Created with matplotlib (https://matplotlib.org/) -->
<svg height="375.755312pt" version="1.1" viewBox="0 0 1063.404687 375.755312" width="1063.404687pt" xmlns="http://www.w3.org/2000/svg" xmlns:xlink="http://www.w3.org/1999/xlink">
 <defs>
  <style type="text/css">
*{stroke-linecap:butt;stroke-linejoin:round;}
  </style>
 </defs>
 <g id="figure_1">
  <g id="patch_1">
   <path d="M -0 375.755312 
L 1063.404687 375.755312 
L 1063.404687 0 
L -0 0 
z
" style="fill:#ffffff;"/>
  </g>
  <g id="axes_1">
   <g id="patch_2">
    <path d="M 51.804688 333.36 
L 1056.204688 333.36 
L 1056.204688 7.2 
L 51.804688 7.2 
z
" style="fill:#ffffff;"/>
   </g>
   <g id="PolyCollection_1">
    <defs>
     <path d="M 100.42795 -58.120801 
L 100.42795 -60.181703 
L 100.42795 -58.120801 
L 100.42795 -58.120801 
z
" id="m32b59534ce" style="stroke:#000000;stroke-opacity:0.4;"/>
    </defs>
    <g clip-path="url(#p7c20f09a20)">
     <use style="fill-opacity:0.4;stroke:#000000;stroke-opacity:0.4;" x="0" xlink:href="#m32b59534ce" y="375.755312"/>
    </g>
   </g>
   <g id="PolyCollection_2">
    <defs>
     <path d="M 140.317068 -58.120801 
L 140.317068 -66.36441 
L 140.317068 -58.120801 
L 140.317068 -58.120801 
z
" id="m0a8c648a7a" style="stroke:#000000;stroke-opacity:0.4;"/>
    </defs>
    <g clip-path="url(#p7c20f09a20)">
     <use style="fill-opacity:0.4;stroke:#000000;stroke-opacity:0.4;" x="0" xlink:href="#m0a8c648a7a" y="375.755312"/>
    </g>
   </g>
   <g id="PolyCollection_3">
    <defs>
     <path d="M 141.011819 -58.120801 
L 141.011819 -66.36441 
L 141.011819 -58.120801 
L 141.011819 -58.120801 
z
" id="madae842149" style="stroke:#000000;stroke-opacity:0.4;"/>
    </defs>
    <g clip-path="url(#p7c20f09a20)">
     <use style="fill-opacity:0.4;stroke:#000000;stroke-opacity:0.4;" x="0" xlink:href="#madae842149" y="375.755312"/>
    </g>
   </g>
   <g id="PolyCollection_4">
    <defs>
     <path d="M 146.52311 -58.120801 
L 146.52311 -60.181703 
L 146.52311 -58.120801 
L 146.52311 -58.120801 
z
" id="m9adde9bee8" style="stroke:#000000;stroke-opacity:0.4;"/>
    </defs>
    <g clip-path="url(#p7c20f09a20)">
     <use style="fill-opacity:0.4;stroke:#000000;stroke-opacity:0.4;" x="0" xlink:href="#m9adde9bee8" y="375.755312"/>
    </g>
   </g>
   <g id="PolyCollection_5">
    <defs>
     <path d="M 147.59449 -58.120801 
L 147.59449 -70.486214 
L 147.59449 -58.120801 
L 147.59449 -58.120801 
z
" id="m8450f5526a" style="stroke:#000000;stroke-opacity:0.4;"/>
    </defs>
    <g clip-path="url(#p7c20f09a20)">
     <use style="fill-opacity:0.4;stroke:#000000;stroke-opacity:0.4;" x="0" xlink:href="#m8450f5526a" y="375.755312"/>
    </g>
   </g>
   <g id="PolyCollection_6">
    <defs>
     <path d="M 160.63681 -58.120801 
L 160.63681 -64.303507 
L 160.63681 -58.120801 
L 160.63681 -58.120801 
z
" id="m928e631b0b" style="stroke:#000000;stroke-opacity:0.4;"/>
    </defs>
    <g clip-path="url(#p7c20f09a20)">
     <use style="fill-opacity:0.4;stroke:#000000;stroke-opacity:0.4;" x="0" xlink:href="#m928e631b0b" y="375.755312"/>
    </g>
   </g>
   <g id="PolyCollection_7">
    <defs>
     <path d="M 192.900575 -58.120801 
L 192.900575 -64.303507 
L 192.900575 -58.120801 
L 192.900575 -58.120801 
z
" id="m14c3c5ee19" style="stroke:#000000;stroke-opacity:0.4;"/>
    </defs>
    <g clip-path="url(#p7c20f09a20)">
     <use style="fill-opacity:0.4;stroke:#000000;stroke-opacity:0.4;" x="0" xlink:href="#m14c3c5ee19" y="375.755312"/>
    </g>
   </g>
   <g id="PolyCollection_8">
    <defs>
     <path d="M 195.29761 -58.120801 
L 195.29761 -72.547116 
L 195.29761 -58.120801 
L 195.29761 -58.120801 
z
" id="mc1d635646d" style="stroke:#000000;stroke-opacity:0.4;"/>
    </defs>
    <g clip-path="url(#p7c20f09a20)">
     <use style="fill-opacity:0.4;stroke:#000000;stroke-opacity:0.4;" x="0" xlink:href="#mc1d635646d" y="375.755312"/>
    </g>
   </g>
   <g id="PolyCollection_9">
    <defs>
     <path d="M 251.446971 -58.120801 
L 251.446971 -74.608019 
L 251.446971 -58.120801 
L 251.446971 -58.120801 
z
" id="m52505d1380" style="stroke:#000000;stroke-opacity:0.4;"/>
    </defs>
    <g clip-path="url(#p7c20f09a20)">
     <use style="fill-opacity:0.4;stroke:#000000;stroke-opacity:0.4;" x="0" xlink:href="#m52505d1380" y="375.755312"/>
    </g>
   </g>
   <g id="PolyCollection_10">
    <defs>
     <path d="M 252.05207 -58.120801 
L 252.05207 -68.425312 
L 252.05207 -58.120801 
L 252.05207 -58.120801 
z
" id="m4777015aa8" style="stroke:#000000;stroke-opacity:0.4;"/>
    </defs>
    <g clip-path="url(#p7c20f09a20)">
     <use style="fill-opacity:0.4;stroke:#000000;stroke-opacity:0.4;" x="0" xlink:href="#m4777015aa8" y="375.755312"/>
    </g>
   </g>
   <g id="PolyCollection_11">
    <defs>
     <path d="M 252.663842 -58.120801 
L 252.663842 -70.486214 
L 252.663842 -58.120801 
L 252.663842 -58.120801 
z
" id="m05bc41859b" style="stroke:#000000;stroke-opacity:0.4;"/>
    </defs>
    <g clip-path="url(#p7c20f09a20)">
     <use style="fill-opacity:0.4;stroke:#000000;stroke-opacity:0.4;" x="0" xlink:href="#m05bc41859b" y="375.755312"/>
    </g>
   </g>
   <g id="PolyCollection_12">
    <defs>
     <path d="M 280.663219 -58.120801 
L 280.663219 -60.181703 
L 280.663219 -58.120801 
L 280.663219 -58.120801 
z
" id="me20cc85110" style="stroke:#000000;stroke-opacity:0.4;"/>
    </defs>
    <g clip-path="url(#p7c20f09a20)">
     <use style="fill-opacity:0.4;stroke:#000000;stroke-opacity:0.4;" x="0" xlink:href="#me20cc85110" y="375.755312"/>
    </g>
   </g>
   <g id="PolyCollection_13">
    <defs>
     <path d="M 308.707089 -58.120801 
L 308.707089 -60.181703 
L 308.707089 -58.120801 
L 308.707089 -58.120801 
z
" id="m5335d4faba" style="stroke:#000000;stroke-opacity:0.4;"/>
    </defs>
    <g clip-path="url(#p7c20f09a20)">
     <use style="fill-opacity:0.4;stroke:#000000;stroke-opacity:0.4;" x="0" xlink:href="#m5335d4faba" y="375.755312"/>
    </g>
   </g>
   <g id="PolyCollection_14">
    <defs>
     <path d="M 330.519111 -58.120801 
L 330.519111 -64.303507 
L 330.519111 -58.120801 
L 330.519111 -58.120801 
z
" id="m5e1683d85f" style="stroke:#000000;stroke-opacity:0.4;"/>
    </defs>
    <g clip-path="url(#p7c20f09a20)">
     <use style="fill-opacity:0.4;stroke:#000000;stroke-opacity:0.4;" x="0" xlink:href="#m5e1683d85f" y="375.755312"/>
    </g>
   </g>
   <g id="PolyCollection_15">
    <defs>
     <path d="M 335.666675 -58.120801 
L 335.666675 -70.486214 
L 335.666675 -58.120801 
L 335.666675 -58.120801 
z
" id="mbf8f8c91b1" style="stroke:#000000;stroke-opacity:0.4;"/>
    </defs>
    <g clip-path="url(#p7c20f09a20)">
     <use style="fill-opacity:0.4;stroke:#000000;stroke-opacity:0.4;" x="0" xlink:href="#mbf8f8c91b1" y="375.755312"/>
    </g>
   </g>
   <g id="PolyCollection_16">
    <defs>
     <path d="M 424.825718 -58.120801 
L 424.825718 -62.242605 
L 424.825718 -58.120801 
L 424.825718 -58.120801 
z
" id="m22650a593a" style="stroke:#000000;stroke-opacity:0.4;"/>
    </defs>
    <g clip-path="url(#p7c20f09a20)">
     <use style="fill-opacity:0.4;stroke:#000000;stroke-opacity:0.4;" x="0" xlink:href="#m22650a593a" y="375.755312"/>
    </g>
   </g>
   <g id="PolyCollection_17">
    <defs>
     <path d="M 426.130907 -58.120801 
L 426.130907 -66.36441 
L 426.130907 -58.120801 
L 426.130907 -58.120801 
z
" id="mbbdc0fdf79" style="stroke:#000000;stroke-opacity:0.4;"/>
    </defs>
    <g clip-path="url(#p7c20f09a20)">
     <use style="fill-opacity:0.4;stroke:#000000;stroke-opacity:0.4;" x="0" xlink:href="#mbbdc0fdf79" y="375.755312"/>
    </g>
   </g>
   <g id="PolyCollection_18">
    <defs>
     <path d="M 430.089631 -58.120801 
L 430.089631 -179.714034 
L 430.089631 -58.120801 
L 430.089631 -58.120801 
z
" id="ma974a55c50" style="stroke:#000000;stroke-opacity:0.4;"/>
    </defs>
    <g clip-path="url(#p7c20f09a20)">
     <use style="fill-opacity:0.4;stroke:#000000;stroke-opacity:0.4;" x="0" xlink:href="#ma974a55c50" y="375.755312"/>
    </g>
   </g>
   <g id="PolyCollection_19">
    <defs>
     <path d="M 431.716945 -58.120801 
L 431.716945 -60.181703 
L 431.716945 -58.120801 
L 431.716945 -58.120801 
z
" id="m1a65c617cc" style="stroke:#000000;stroke-opacity:0.4;"/>
    </defs>
    <g clip-path="url(#p7c20f09a20)">
     <use style="fill-opacity:0.4;stroke:#000000;stroke-opacity:0.4;" x="0" xlink:href="#m1a65c617cc" y="375.755312"/>
    </g>
   </g>
   <g id="PolyCollection_20">
    <defs>
     <path d="M 461.970759 -58.120801 
L 461.970759 -72.547116 
L 461.970759 -58.120801 
L 461.970759 -58.120801 
z
" id="me46ca808de" style="stroke:#000000;stroke-opacity:0.4;"/>
    </defs>
    <g clip-path="url(#p7c20f09a20)">
     <use style="fill-opacity:0.4;stroke:#000000;stroke-opacity:0.4;" x="0" xlink:href="#me46ca808de" y="375.755312"/>
    </g>
   </g>
   <g id="PolyCollection_21">
    <defs>
     <path d="M 462.062191 -58.120801 
L 462.062191 -66.36441 
L 462.062191 -58.120801 
L 462.062191 -58.120801 
z
" id="m38e112ba5c" style="stroke:#000000;stroke-opacity:0.4;"/>
    </defs>
    <g clip-path="url(#p7c20f09a20)">
     <use style="fill-opacity:0.4;stroke:#000000;stroke-opacity:0.4;" x="0" xlink:href="#m38e112ba5c" y="375.755312"/>
    </g>
   </g>
   <g id="PolyCollection_22">
    <defs>
     <path d="M 462.584311 -58.120801 
L 462.584311 -70.486214 
L 462.584311 -58.120801 
L 462.584311 -58.120801 
z
" id="mc374bc482f" style="stroke:#000000;stroke-opacity:0.4;"/>
    </defs>
    <g clip-path="url(#p7c20f09a20)">
     <use style="fill-opacity:0.4;stroke:#000000;stroke-opacity:0.4;" x="0" xlink:href="#mc374bc482f" y="375.755312"/>
    </g>
   </g>
   <g id="PolyCollection_23">
    <defs>
     <path d="M 462.992308 -58.120801 
L 462.992308 -60.181703 
L 462.992308 -58.120801 
L 462.992308 -58.120801 
z
" id="m6fb261e542" style="stroke:#000000;stroke-opacity:0.4;"/>
    </defs>
    <g clip-path="url(#p7c20f09a20)">
     <use style="fill-opacity:0.4;stroke:#000000;stroke-opacity:0.4;" x="0" xlink:href="#m6fb261e542" y="375.755312"/>
    </g>
   </g>
   <g id="PolyCollection_24">
    <defs>
     <path d="M 463.080403 -58.120801 
L 463.080403 -60.181703 
L 463.080403 -58.120801 
L 463.080403 -58.120801 
z
" id="m4e1d60c229" style="stroke:#000000;stroke-opacity:0.4;"/>
    </defs>
    <g clip-path="url(#p7c20f09a20)">
     <use style="fill-opacity:0.4;stroke:#000000;stroke-opacity:0.4;" x="0" xlink:href="#m4e1d60c229" y="375.755312"/>
    </g>
   </g>
   <g id="PolyCollection_25">
    <defs>
     <path d="M 463.588063 -58.120801 
L 463.588063 -68.425312 
L 463.588063 -58.120801 
L 463.588063 -58.120801 
z
" id="m970a89d103" style="stroke:#000000;stroke-opacity:0.4;"/>
    </defs>
    <g clip-path="url(#p7c20f09a20)">
     <use style="fill-opacity:0.4;stroke:#000000;stroke-opacity:0.4;" x="0" xlink:href="#m970a89d103" y="375.755312"/>
    </g>
   </g>
   <g id="PolyCollection_26">
    <defs>
     <path d="M 463.939109 -58.120801 
L 463.939109 -60.181703 
L 463.939109 -58.120801 
L 463.939109 -58.120801 
z
" id="mc10b38ed45" style="stroke:#000000;stroke-opacity:0.4;"/>
    </defs>
    <g clip-path="url(#p7c20f09a20)">
     <use style="fill-opacity:0.4;stroke:#000000;stroke-opacity:0.4;" x="0" xlink:href="#mc10b38ed45" y="375.755312"/>
    </g>
   </g>
   <g id="PolyCollection_27">
    <defs>
     <path d="M 480.442504 -58.120801 
L 480.442504 -60.181703 
L 480.442504 -58.120801 
L 480.442504 -58.120801 
z
" id="m4a2bb77b91" style="stroke:#000000;stroke-opacity:0.4;"/>
    </defs>
    <g clip-path="url(#p7c20f09a20)">
     <use style="fill-opacity:0.4;stroke:#000000;stroke-opacity:0.4;" x="0" xlink:href="#m4a2bb77b91" y="375.755312"/>
    </g>
   </g>
   <g id="PolyCollection_28">
    <defs>
     <path d="M 506.974962 -58.120801 
L 506.974962 -107.582455 
L 506.974962 -58.120801 
L 506.974962 -58.120801 
z
" id="m72390a1bca" style="stroke:#000000;stroke-opacity:0.4;"/>
    </defs>
    <g clip-path="url(#p7c20f09a20)">
     <use style="fill-opacity:0.4;stroke:#000000;stroke-opacity:0.4;" x="0" xlink:href="#m72390a1bca" y="375.755312"/>
    </g>
   </g>
   <g id="PolyCollection_29">
    <defs>
     <path d="M 508.803383 -58.120801 
L 508.803383 -60.181703 
L 508.803383 -58.120801 
L 508.803383 -58.120801 
z
" id="m0b229c7375" style="stroke:#000000;stroke-opacity:0.4;"/>
    </defs>
    <g clip-path="url(#p7c20f09a20)">
     <use style="fill-opacity:0.4;stroke:#000000;stroke-opacity:0.4;" x="0" xlink:href="#m0b229c7375" y="375.755312"/>
    </g>
   </g>
   <g id="PolyCollection_30">
    <defs>
     <path d="M 527.624839 -58.120801 
L 527.624839 -84.91253 
L 527.624839 -58.120801 
L 527.624839 -58.120801 
z
" id="m53f53c7c83" style="stroke:#000000;stroke-opacity:0.4;"/>
    </defs>
    <g clip-path="url(#p7c20f09a20)">
     <use style="fill-opacity:0.4;stroke:#000000;stroke-opacity:0.4;" x="0" xlink:href="#m53f53c7c83" y="375.755312"/>
    </g>
   </g>
   <g id="PolyCollection_31">
    <defs>
     <path d="M 547.311452 -58.120801 
L 547.311452 -130.25238 
L 547.311452 -58.120801 
L 547.311452 -58.120801 
z
" id="mcbce6ae43f" style="stroke:#000000;stroke-opacity:0.4;"/>
    </defs>
    <g clip-path="url(#p7c20f09a20)">
     <use style="fill-opacity:0.4;stroke:#000000;stroke-opacity:0.4;" x="0" xlink:href="#mcbce6ae43f" y="375.755312"/>
    </g>
   </g>
   <g id="PolyCollection_32">
    <defs>
     <path d="M 548.360809 -58.120801 
L 548.360809 -64.303507 
L 548.360809 -58.120801 
L 548.360809 -58.120801 
z
" id="m0b976e0bbc" style="stroke:#000000;stroke-opacity:0.4;"/>
    </defs>
    <g clip-path="url(#p7c20f09a20)">
     <use style="fill-opacity:0.4;stroke:#000000;stroke-opacity:0.4;" x="0" xlink:href="#m0b976e0bbc" y="375.755312"/>
    </g>
   </g>
   <g id="PolyCollection_33">
    <defs>
     <path d="M 593.577686 -58.120801 
L 593.577686 -62.242605 
L 593.577686 -58.120801 
L 593.577686 -58.120801 
z
" id="m1bd9a63171" style="stroke:#000000;stroke-opacity:0.4;"/>
    </defs>
    <g clip-path="url(#p7c20f09a20)">
     <use style="fill-opacity:0.4;stroke:#000000;stroke-opacity:0.4;" x="0" xlink:href="#m1bd9a63171" y="375.755312"/>
    </g>
   </g>
   <g id="PolyCollection_34">
    <defs>
     <path d="M 629.392622 -58.120801 
L 629.392622 -78.729823 
L 629.392622 -58.120801 
L 629.392622 -58.120801 
z
" id="md221a431a9" style="stroke:#000000;stroke-opacity:0.4;"/>
    </defs>
    <g clip-path="url(#p7c20f09a20)">
     <use style="fill-opacity:0.4;stroke:#000000;stroke-opacity:0.4;" x="0" xlink:href="#md221a431a9" y="375.755312"/>
    </g>
   </g>
   <g id="PolyCollection_35">
    <defs>
     <path d="M 652.926951 -58.120801 
L 652.926951 -62.242605 
L 652.926951 -58.120801 
L 652.926951 -58.120801 
z
" id="m1356a7e2c7" style="stroke:#000000;stroke-opacity:0.4;"/>
    </defs>
    <g clip-path="url(#p7c20f09a20)">
     <use style="fill-opacity:0.4;stroke:#000000;stroke-opacity:0.4;" x="0" xlink:href="#m1356a7e2c7" y="375.755312"/>
    </g>
   </g>
   <g id="PolyCollection_36">
    <defs>
     <path d="M 667.64308 -58.120801 
L 667.64308 -60.181703 
L 667.64308 -58.120801 
L 667.64308 -58.120801 
z
" id="mdee584f965" style="stroke:#000000;stroke-opacity:0.4;"/>
    </defs>
    <g clip-path="url(#p7c20f09a20)">
     <use style="fill-opacity:0.4;stroke:#000000;stroke-opacity:0.4;" x="0" xlink:href="#mdee584f965" y="375.755312"/>
    </g>
   </g>
   <g id="PolyCollection_37">
    <defs>
     <path d="M 686.124169 -58.120801 
L 686.124169 -62.242605 
L 686.124169 -58.120801 
L 686.124169 -58.120801 
z
" id="m5986011616" style="stroke:#000000;stroke-opacity:0.4;"/>
    </defs>
    <g clip-path="url(#p7c20f09a20)">
     <use style="fill-opacity:0.4;stroke:#000000;stroke-opacity:0.4;" x="0" xlink:href="#m5986011616" y="375.755312"/>
    </g>
   </g>
   <g id="PolyCollection_38">
    <defs>
     <path d="M 689.314284 -58.120801 
L 689.314284 -62.242605 
L 689.314284 -58.120801 
L 689.314284 -58.120801 
z
" id="m8688a5a107" style="stroke:#000000;stroke-opacity:0.4;"/>
    </defs>
    <g clip-path="url(#p7c20f09a20)">
     <use style="fill-opacity:0.4;stroke:#000000;stroke-opacity:0.4;" x="0" xlink:href="#m8688a5a107" y="375.755312"/>
    </g>
   </g>
   <g id="PolyCollection_39">
    <defs>
     <path d="M 703.967901 -58.120801 
L 703.967901 -86.973432 
L 703.967901 -58.120801 
L 703.967901 -58.120801 
z
" id="m66621803e3" style="stroke:#000000;stroke-opacity:0.4;"/>
    </defs>
    <g clip-path="url(#p7c20f09a20)">
     <use style="fill-opacity:0.4;stroke:#000000;stroke-opacity:0.4;" x="0" xlink:href="#m66621803e3" y="375.755312"/>
    </g>
   </g>
   <g id="PolyCollection_40">
    <defs>
     <path d="M 735.099108 -58.120801 
L 735.099108 -60.181703 
L 735.099108 -58.120801 
L 735.099108 -58.120801 
z
" id="m5898109593" style="stroke:#000000;stroke-opacity:0.4;"/>
    </defs>
    <g clip-path="url(#p7c20f09a20)">
     <use style="fill-opacity:0.4;stroke:#000000;stroke-opacity:0.4;" x="0" xlink:href="#m5898109593" y="375.755312"/>
    </g>
   </g>
   <g id="PolyCollection_41">
    <defs>
     <path d="M 760.630039 -58.120801 
L 760.630039 -60.181703 
L 760.630039 -58.120801 
L 760.630039 -58.120801 
z
" id="m25afb2186e" style="stroke:#000000;stroke-opacity:0.4;"/>
    </defs>
    <g clip-path="url(#p7c20f09a20)">
     <use style="fill-opacity:0.4;stroke:#000000;stroke-opacity:0.4;" x="0" xlink:href="#m25afb2186e" y="375.755312"/>
    </g>
   </g>
   <g id="PolyCollection_42">
    <defs>
     <path d="M 762.302068 -58.120801 
L 762.302068 -60.181703 
L 762.302068 -58.120801 
L 762.302068 -58.120801 
z
" id="m4fe11d24a8" style="stroke:#000000;stroke-opacity:0.4;"/>
    </defs>
    <g clip-path="url(#p7c20f09a20)">
     <use style="fill-opacity:0.4;stroke:#000000;stroke-opacity:0.4;" x="0" xlink:href="#m4fe11d24a8" y="375.755312"/>
    </g>
   </g>
   <g id="PolyCollection_43">
    <defs>
     <path d="M 785.251987 -58.120801 
L 785.251987 -91.095237 
L 785.251987 -58.120801 
L 785.251987 -58.120801 
z
" id="mf1f8e86c70" style="stroke:#000000;stroke-opacity:0.4;"/>
    </defs>
    <g clip-path="url(#p7c20f09a20)">
     <use style="fill-opacity:0.4;stroke:#000000;stroke-opacity:0.4;" x="0" xlink:href="#mf1f8e86c70" y="375.755312"/>
    </g>
   </g>
   <g id="PolyCollection_44">
    <defs>
     <path d="M 808.387885 -58.120801 
L 808.387885 -64.303507 
L 808.387885 -58.120801 
L 808.387885 -58.120801 
z
" id="mbb899398a0" style="stroke:#000000;stroke-opacity:0.4;"/>
    </defs>
    <g clip-path="url(#p7c20f09a20)">
     <use style="fill-opacity:0.4;stroke:#000000;stroke-opacity:0.4;" x="0" xlink:href="#mbb899398a0" y="375.755312"/>
    </g>
   </g>
   <g id="PolyCollection_45">
    <defs>
     <path d="M 817.924861 -58.120801 
L 817.924861 -86.973432 
L 817.924861 -58.120801 
L 817.924861 -58.120801 
z
" id="mcfe2cfd8fb" style="stroke:#000000;stroke-opacity:0.4;"/>
    </defs>
    <g clip-path="url(#p7c20f09a20)">
     <use style="fill-opacity:0.4;stroke:#000000;stroke-opacity:0.4;" x="0" xlink:href="#mcfe2cfd8fb" y="375.755312"/>
    </g>
   </g>
   <g id="PolyCollection_46">
    <defs>
     <path d="M 856.77797 -58.120801 
L 856.77797 -60.181703 
L 856.77797 -58.120801 
L 856.77797 -58.120801 
z
" id="me2fa23a5ea" style="stroke:#000000;stroke-opacity:0.4;"/>
    </defs>
    <g clip-path="url(#p7c20f09a20)">
     <use style="fill-opacity:0.4;stroke:#000000;stroke-opacity:0.4;" x="0" xlink:href="#me2fa23a5ea" y="375.755312"/>
    </g>
   </g>
   <g id="PolyCollection_47">
    <defs>
     <path d="M 881.173896 -58.120801 
L 881.173896 -60.181703 
L 881.173896 -58.120801 
L 881.173896 -58.120801 
z
" id="m02db6ea951" style="stroke:#000000;stroke-opacity:0.4;"/>
    </defs>
    <g clip-path="url(#p7c20f09a20)">
     <use style="fill-opacity:0.4;stroke:#000000;stroke-opacity:0.4;" x="0" xlink:href="#m02db6ea951" y="375.755312"/>
    </g>
   </g>
   <g id="PolyCollection_48">
    <defs>
     <path d="M 887.236005 -58.120801 
L 887.236005 -62.242605 
L 887.236005 -58.120801 
L 887.236005 -58.120801 
z
" id="m29e4aacbb3" style="stroke:#000000;stroke-opacity:0.4;"/>
    </defs>
    <g clip-path="url(#p7c20f09a20)">
     <use style="fill-opacity:0.4;stroke:#000000;stroke-opacity:0.4;" x="0" xlink:href="#m29e4aacbb3" y="375.755312"/>
    </g>
   </g>
   <g id="PolyCollection_49">
    <defs>
     <path d="M 895.784134 -58.120801 
L 895.784134 -64.303507 
L 895.784134 -58.120801 
L 895.784134 -58.120801 
z
" id="m45afc1e092" style="stroke:#000000;stroke-opacity:0.4;"/>
    </defs>
    <g clip-path="url(#p7c20f09a20)">
     <use style="fill-opacity:0.4;stroke:#000000;stroke-opacity:0.4;" x="0" xlink:href="#m45afc1e092" y="375.755312"/>
    </g>
   </g>
   <g id="PolyCollection_50">
    <defs>
     <path d="M 897.74047 -58.120801 
L 897.74047 -62.242605 
L 897.74047 -58.120801 
L 897.74047 -58.120801 
z
" id="mfe90a3bcde" style="stroke:#000000;stroke-opacity:0.4;"/>
    </defs>
    <g clip-path="url(#p7c20f09a20)">
     <use style="fill-opacity:0.4;stroke:#000000;stroke-opacity:0.4;" x="0" xlink:href="#mfe90a3bcde" y="375.755312"/>
    </g>
   </g>
   <g id="PolyCollection_51">
    <defs>
     <path d="M 898.975806 -58.120801 
L 898.975806 -74.608019 
L 898.975806 -58.120801 
L 898.975806 -58.120801 
z
" id="m67be89361e" style="stroke:#000000;stroke-opacity:0.4;"/>
    </defs>
    <g clip-path="url(#p7c20f09a20)">
     <use style="fill-opacity:0.4;stroke:#000000;stroke-opacity:0.4;" x="0" xlink:href="#m67be89361e" y="375.755312"/>
    </g>
   </g>
   <g id="PolyCollection_52">
    <defs>
     <path d="M 911.865739 -58.120801 
L 911.865739 -60.181703 
L 911.865739 -58.120801 
L 911.865739 -58.120801 
z
" id="mb8620c9482" style="stroke:#000000;stroke-opacity:0.4;"/>
    </defs>
    <g clip-path="url(#p7c20f09a20)">
     <use style="fill-opacity:0.4;stroke:#000000;stroke-opacity:0.4;" x="0" xlink:href="#mb8620c9482" y="375.755312"/>
    </g>
   </g>
   <g id="PolyCollection_53">
    <defs>
     <path d="M 916.036915 -58.120801 
L 916.036915 -60.181703 
L 916.036915 -58.120801 
L 916.036915 -58.120801 
z
" id="mf2caec5f03" style="stroke:#000000;stroke-opacity:0.4;"/>
    </defs>
    <g clip-path="url(#p7c20f09a20)">
     <use style="fill-opacity:0.4;stroke:#000000;stroke-opacity:0.4;" x="0" xlink:href="#mf2caec5f03" y="375.755312"/>
    </g>
   </g>
   <g id="PolyCollection_54">
    <defs>
     <path d="M 921.724841 -58.120801 
L 921.724841 -350.768922 
L 921.724841 -58.120801 
L 921.724841 -58.120801 
z
" id="mc9c2fe30b7" style="stroke:#000000;stroke-opacity:0.4;"/>
    </defs>
    <g clip-path="url(#p7c20f09a20)">
     <use style="fill-opacity:0.4;stroke:#000000;stroke-opacity:0.4;" x="0" xlink:href="#mc9c2fe30b7" y="375.755312"/>
    </g>
   </g>
   <g id="PolyCollection_55">
    <defs>
     <path d="M 939.654889 -58.120801 
L 939.654889 -68.425312 
L 939.654889 -58.120801 
L 939.654889 -58.120801 
z
" id="m5b63ebd5f0" style="stroke:#000000;stroke-opacity:0.4;"/>
    </defs>
    <g clip-path="url(#p7c20f09a20)">
     <use style="fill-opacity:0.4;stroke:#000000;stroke-opacity:0.4;" x="0" xlink:href="#m5b63ebd5f0" y="375.755312"/>
    </g>
   </g>
   <g id="PolyCollection_56">
    <defs>
     <path d="M 940.641733 -58.120801 
L 940.641733 -91.095237 
L 940.641733 -58.120801 
L 940.641733 -58.120801 
z
" id="mbcdf00d910" style="stroke:#000000;stroke-opacity:0.4;"/>
    </defs>
    <g clip-path="url(#p7c20f09a20)">
     <use style="fill-opacity:0.4;stroke:#000000;stroke-opacity:0.4;" x="0" xlink:href="#mbcdf00d910" y="375.755312"/>
    </g>
   </g>
   <g id="PolyCollection_57">
    <defs>
     <path d="M 942.557582 -58.120801 
L 942.557582 -82.851628 
L 942.557582 -58.120801 
L 942.557582 -58.120801 
z
" id="mb62774e856" style="stroke:#000000;stroke-opacity:0.4;"/>
    </defs>
    <g clip-path="url(#p7c20f09a20)">
     <use style="fill-opacity:0.4;stroke:#000000;stroke-opacity:0.4;" x="0" xlink:href="#mb62774e856" y="375.755312"/>
    </g>
   </g>
   <g id="PolyCollection_58">
    <defs>
     <path d="M 943.026311 -58.120801 
L 943.026311 -91.095237 
L 943.026311 -58.120801 
L 943.026311 -58.120801 
z
" id="m18b6128c61" style="stroke:#000000;stroke-opacity:0.4;"/>
    </defs>
    <g clip-path="url(#p7c20f09a20)">
     <use style="fill-opacity:0.4;stroke:#000000;stroke-opacity:0.4;" x="0" xlink:href="#m18b6128c61" y="375.755312"/>
    </g>
   </g>
   <g id="PolyCollection_59">
    <defs>
     <path d="M 943.931734 -58.120801 
L 943.931734 -86.973432 
L 943.931734 -58.120801 
L 943.931734 -58.120801 
z
" id="mb31ac40f3c" style="stroke:#000000;stroke-opacity:0.4;"/>
    </defs>
    <g clip-path="url(#p7c20f09a20)">
     <use style="fill-opacity:0.4;stroke:#000000;stroke-opacity:0.4;" x="0" xlink:href="#mb31ac40f3c" y="375.755312"/>
    </g>
   </g>
   <g id="PolyCollection_60">
    <defs>
     <path d="M 955.541172 -58.120801 
L 955.541172 -62.242605 
L 955.541172 -58.120801 
L 955.541172 -58.120801 
z
" id="m98c5f35f7c" style="stroke:#000000;stroke-opacity:0.4;"/>
    </defs>
    <g clip-path="url(#p7c20f09a20)">
     <use style="fill-opacity:0.4;stroke:#000000;stroke-opacity:0.4;" x="0" xlink:href="#m98c5f35f7c" y="375.755312"/>
    </g>
   </g>
   <g id="PolyCollection_61">
    <defs>
     <path d="M 967.769947 -58.120801 
L 967.769947 -72.547116 
L 967.769947 -58.120801 
L 967.769947 -58.120801 
z
" id="ma94935515a" style="stroke:#000000;stroke-opacity:0.4;"/>
    </defs>
    <g clip-path="url(#p7c20f09a20)">
     <use style="fill-opacity:0.4;stroke:#000000;stroke-opacity:0.4;" x="0" xlink:href="#ma94935515a" y="375.755312"/>
    </g>
   </g>
   <g id="PolyCollection_62">
    <defs>
     <path d="M 975.402197 -58.120801 
L 975.402197 -62.242605 
L 975.402197 -58.120801 
L 975.402197 -58.120801 
z
" id="m534b1f5131" style="stroke:#000000;stroke-opacity:0.4;"/>
    </defs>
    <g clip-path="url(#p7c20f09a20)">
     <use style="fill-opacity:0.4;stroke:#000000;stroke-opacity:0.4;" x="0" xlink:href="#m534b1f5131" y="375.755312"/>
    </g>
   </g>
   <g id="PolyCollection_63">
    <defs>
     <path d="M 982.898744 -58.120801 
L 982.898744 -74.608019 
L 982.898744 -58.120801 
L 982.898744 -58.120801 
z
" id="m379de20bfb" style="stroke:#000000;stroke-opacity:0.4;"/>
    </defs>
    <g clip-path="url(#p7c20f09a20)">
     <use style="fill-opacity:0.4;stroke:#000000;stroke-opacity:0.4;" x="0" xlink:href="#m379de20bfb" y="375.755312"/>
    </g>
   </g>
   <g id="PolyCollection_64">
    <defs>
     <path d="M 1007.450617 -58.120801 
L 1007.450617 -76.668921 
L 1007.450617 -58.120801 
L 1007.450617 -58.120801 
z
" id="m207128ed25" style="stroke:#000000;stroke-opacity:0.4;"/>
    </defs>
    <g clip-path="url(#p7c20f09a20)">
     <use style="fill-opacity:0.4;stroke:#000000;stroke-opacity:0.4;" x="0" xlink:href="#m207128ed25" y="375.755312"/>
    </g>
   </g>
   <g id="PathCollection_1">
    <defs>
     <path d="M 0 3 
C 0.795609 3 1.55874 2.683901 2.12132 2.12132 
C 2.683901 1.55874 3 0.795609 3 0 
C 3 -0.795609 2.683901 -1.55874 2.12132 -2.12132 
C 1.55874 -2.683901 0.795609 -3 0 -3 
C -0.795609 -3 -1.55874 -2.683901 -2.12132 -2.12132 
C -2.683901 -1.55874 -3 -0.795609 -3 0 
C -3 0.795609 -2.683901 1.55874 -2.12132 2.12132 
C -1.55874 2.683901 -0.795609 3 0 3 
z
" id="C0_0_3253f508db"/>
    </defs>
    <g clip-path="url(#p7c20f09a20)">
     <use style="fill:#1f77b4;stroke:#ffffff;stroke-width:0.48;" x="100.439295" xlink:href="#C0_0_3253f508db" y="315.57361"/>
    </g>
    <g clip-path="url(#p7c20f09a20)">
     <use style="fill:#ff7f0e;stroke:#ffffff;stroke-width:0.48;" x="140.636747" xlink:href="#C0_0_3253f508db" y="309.390903"/>
    </g>
    <g clip-path="url(#p7c20f09a20)">
     <use style="fill:#ff7f0e;stroke:#ffffff;stroke-width:0.48;" x="141.291455" xlink:href="#C0_0_3253f508db" y="309.390903"/>
    </g>
    <g clip-path="url(#p7c20f09a20)">
     <use style="fill:#ff7f0e;stroke:#ffffff;stroke-width:0.48;" x="146.720657" xlink:href="#C0_0_3253f508db" y="315.57361"/>
    </g>
    <g clip-path="url(#p7c20f09a20)">
     <use style="fill:#ff7f0e;stroke:#ffffff;stroke-width:0.48;" x="148.330285" xlink:href="#C0_0_3253f508db" y="305.269098"/>
    </g>
    <g clip-path="url(#p7c20f09a20)">
     <use style="fill:#ff7f0e;stroke:#ffffff;stroke-width:0.48;" x="161.738334" xlink:href="#C0_0_3253f508db" y="311.451805"/>
    </g>
    <g clip-path="url(#p7c20f09a20)">
     <use style="fill:#1f77b4;stroke:#ffffff;stroke-width:0.48;" x="192.920708" xlink:href="#C0_0_3253f508db" y="311.451805"/>
    </g>
    <g clip-path="url(#p7c20f09a20)">
     <use style="fill:#1f77b4;stroke:#ffffff;stroke-width:0.48;" x="195.32286" xlink:href="#C0_0_3253f508db" y="303.208196"/>
    </g>
    <g clip-path="url(#p7c20f09a20)">
     <use style="fill:#ff7f0e;stroke:#ffffff;stroke-width:0.48;" x="251.505702" xlink:href="#C0_0_3253f508db" y="301.147294"/>
    </g>
    <g clip-path="url(#p7c20f09a20)">
     <use style="fill:#ff7f0e;stroke:#ffffff;stroke-width:0.48;" x="252.313686" xlink:href="#C0_0_3253f508db" y="307.330001"/>
    </g>
    <g clip-path="url(#p7c20f09a20)">
     <use style="fill:#ff7f0e;stroke:#ffffff;stroke-width:0.48;" x="252.931465" xlink:href="#C0_0_3253f508db" y="305.269098"/>
    </g>
    <g clip-path="url(#p7c20f09a20)">
     <use style="fill:#2ca02c;stroke:#ffffff;stroke-width:0.48;" x="280.799367" xlink:href="#C0_0_3253f508db" y="315.57361"/>
    </g>
    <g clip-path="url(#p7c20f09a20)">
     <use style="fill:#ff7f0e;stroke:#ffffff;stroke-width:0.48;" x="309.015422" xlink:href="#C0_0_3253f508db" y="315.57361"/>
    </g>
    <g clip-path="url(#p7c20f09a20)">
     <use style="fill:#ff7f0e;stroke:#ffffff;stroke-width:0.48;" x="330.742019" xlink:href="#C0_0_3253f508db" y="311.451805"/>
    </g>
    <g clip-path="url(#p7c20f09a20)">
     <use style="fill:#ff7f0e;stroke:#ffffff;stroke-width:0.48;" x="335.922952" xlink:href="#C0_0_3253f508db" y="305.269098"/>
    </g>
    <g clip-path="url(#p7c20f09a20)">
     <use style="fill:#d62728;stroke:#ffffff;stroke-width:0.48;" x="424.893458" xlink:href="#C0_0_3253f508db" y="313.512707"/>
    </g>
    <g clip-path="url(#p7c20f09a20)">
     <use style="fill:#ff7f0e;stroke:#ffffff;stroke-width:0.48;" x="426.295084" xlink:href="#C0_0_3253f508db" y="309.390903"/>
    </g>
    <g clip-path="url(#p7c20f09a20)">
     <use style="fill:#ff7f0e;stroke:#ffffff;stroke-width:0.48;" x="430.337232" xlink:href="#C0_0_3253f508db" y="196.041278"/>
    </g>
    <g clip-path="url(#p7c20f09a20)">
     <use style="fill:#2ca02c;stroke:#ffffff;stroke-width:0.48;" x="431.821725" xlink:href="#C0_0_3253f508db" y="315.57361"/>
    </g>
    <g clip-path="url(#p7c20f09a20)">
     <use style="fill:#9467bd;stroke:#ffffff;stroke-width:0.48;" x="462.016475" xlink:href="#C0_0_3253f508db" y="303.208196"/>
    </g>
    <g clip-path="url(#p7c20f09a20)">
     <use style="fill:#1f77b4;stroke:#ffffff;stroke-width:0.48;" x="462.084994" xlink:href="#C0_0_3253f508db" y="309.390903"/>
    </g>
    <g clip-path="url(#p7c20f09a20)">
     <use style="fill:#9467bd;stroke:#ffffff;stroke-width:0.48;" x="462.641373" xlink:href="#C0_0_3253f508db" y="305.269098"/>
    </g>
    <g clip-path="url(#p7c20f09a20)">
     <use style="fill:#9467bd;stroke:#ffffff;stroke-width:0.48;" x="463.036355" xlink:href="#C0_0_3253f508db" y="315.57361"/>
    </g>
    <g clip-path="url(#p7c20f09a20)">
     <use style="fill:#1f77b4;stroke:#ffffff;stroke-width:0.48;" x="463.102093" xlink:href="#C0_0_3253f508db" y="315.57361"/>
    </g>
    <g clip-path="url(#p7c20f09a20)">
     <use style="fill:#9467bd;stroke:#ffffff;stroke-width:0.48;" x="463.645458" xlink:href="#C0_0_3253f508db" y="307.330001"/>
    </g>
    <g clip-path="url(#p7c20f09a20)">
     <use style="fill:#9467bd;stroke:#ffffff;stroke-width:0.48;" x="464.050563" xlink:href="#C0_0_3253f508db" y="315.57361"/>
    </g>
    <g clip-path="url(#p7c20f09a20)">
     <use style="fill:#ff7f0e;stroke:#ffffff;stroke-width:0.48;" x="480.780202" xlink:href="#C0_0_3253f508db" y="315.57361"/>
    </g>
    <g clip-path="url(#p7c20f09a20)">
     <use style="fill:#ff7f0e;stroke:#ffffff;stroke-width:0.48;" x="507.326675" xlink:href="#C0_0_3253f508db" y="268.172858"/>
    </g>
    <g clip-path="url(#p7c20f09a20)">
     <use style="fill:#ff7f0e;stroke:#ffffff;stroke-width:0.48;" x="509.108713" xlink:href="#C0_0_3253f508db" y="315.57361"/>
    </g>
    <g clip-path="url(#p7c20f09a20)">
     <use style="fill:#1f77b4;stroke:#ffffff;stroke-width:0.48;" x="527.669665" xlink:href="#C0_0_3253f508db" y="290.842783"/>
    </g>
    <g clip-path="url(#p7c20f09a20)">
     <use style="fill:#ff7f0e;stroke:#ffffff;stroke-width:0.48;" x="547.798646" xlink:href="#C0_0_3253f508db" y="245.502933"/>
    </g>
    <g clip-path="url(#p7c20f09a20)">
     <use style="fill:#ff7f0e;stroke:#ffffff;stroke-width:0.48;" x="548.690499" xlink:href="#C0_0_3253f508db" y="311.451805"/>
    </g>
    <g clip-path="url(#p7c20f09a20)">
     <use style="fill:#2ca02c;stroke:#ffffff;stroke-width:0.48;" x="593.762886" xlink:href="#C0_0_3253f508db" y="313.512707"/>
    </g>
    <g clip-path="url(#p7c20f09a20)">
     <use style="fill:#1f77b4;stroke:#ffffff;stroke-width:0.48;" x="629.43122" xlink:href="#C0_0_3253f508db" y="297.025489"/>
    </g>
    <g clip-path="url(#p7c20f09a20)">
     <use style="fill:#ff7f0e;stroke:#ffffff;stroke-width:0.48;" x="653.132506" xlink:href="#C0_0_3253f508db" y="313.512707"/>
    </g>
    <g clip-path="url(#p7c20f09a20)">
     <use style="fill:#1f77b4;stroke:#ffffff;stroke-width:0.48;" x="667.66199" xlink:href="#C0_0_3253f508db" y="315.57361"/>
    </g>
    <g clip-path="url(#p7c20f09a20)">
     <use style="fill:#d62728;stroke:#ffffff;stroke-width:0.48;" x="686.387787" xlink:href="#C0_0_3253f508db" y="313.512707"/>
    </g>
    <g clip-path="url(#p7c20f09a20)">
     <use style="fill:#ff7f0e;stroke:#ffffff;stroke-width:0.48;" x="689.868549" xlink:href="#C0_0_3253f508db" y="313.512707"/>
    </g>
    <g clip-path="url(#p7c20f09a20)">
     <use style="fill:#2ca02c;stroke:#ffffff;stroke-width:0.48;" x="704.041648" xlink:href="#C0_0_3253f508db" y="288.78188"/>
    </g>
    <g clip-path="url(#p7c20f09a20)">
     <use style="fill:#1f77b4;stroke:#ffffff;stroke-width:0.48;" x="735.118351" xlink:href="#C0_0_3253f508db" y="315.57361"/>
    </g>
    <g clip-path="url(#p7c20f09a20)">
     <use style="fill:#1f77b4;stroke:#ffffff;stroke-width:0.48;" x="760.829922" xlink:href="#C0_0_3253f508db" y="315.57361"/>
    </g>
    <g clip-path="url(#p7c20f09a20)">
     <use style="fill:#d62728;stroke:#ffffff;stroke-width:0.48;" x="762.572361" xlink:href="#C0_0_3253f508db" y="315.57361"/>
    </g>
    <g clip-path="url(#p7c20f09a20)">
     <use style="fill:#1f77b4;stroke:#ffffff;stroke-width:0.48;" x="785.292476" xlink:href="#C0_0_3253f508db" y="284.660076"/>
    </g>
    <g clip-path="url(#p7c20f09a20)">
     <use style="fill:#1f77b4;stroke:#ffffff;stroke-width:0.48;" x="808.420142" xlink:href="#C0_0_3253f508db" y="311.451805"/>
    </g>
    <g clip-path="url(#p7c20f09a20)">
     <use style="fill:#ff7f0e;stroke:#ffffff;stroke-width:0.48;" x="818.044657" xlink:href="#C0_0_3253f508db" y="288.78188"/>
    </g>
    <g clip-path="url(#p7c20f09a20)">
     <use style="fill:#1f77b4;stroke:#ffffff;stroke-width:0.48;" x="856.808225" xlink:href="#C0_0_3253f508db" y="315.57361"/>
    </g>
    <g clip-path="url(#p7c20f09a20)">
     <use style="fill:#2ca02c;stroke:#ffffff;stroke-width:0.48;" x="881.233294" xlink:href="#C0_0_3253f508db" y="315.57361"/>
    </g>
    <g clip-path="url(#p7c20f09a20)">
     <use style="fill:#1f77b4;stroke:#ffffff;stroke-width:0.48;" x="887.258473" xlink:href="#C0_0_3253f508db" y="313.512707"/>
    </g>
    <g clip-path="url(#p7c20f09a20)">
     <use style="fill:#ff7f0e;stroke:#ffffff;stroke-width:0.48;" x="896.626377" xlink:href="#C0_0_3253f508db" y="311.451805"/>
    </g>
    <g clip-path="url(#p7c20f09a20)">
     <use style="fill:#ff7f0e;stroke:#ffffff;stroke-width:0.48;" x="898.254026" xlink:href="#C0_0_3253f508db" y="313.512707"/>
    </g>
    <g clip-path="url(#p7c20f09a20)">
     <use style="fill:#ff7f0e;stroke:#ffffff;stroke-width:0.48;" x="900.029612" xlink:href="#C0_0_3253f508db" y="301.147294"/>
    </g>
    <g clip-path="url(#p7c20f09a20)">
     <use style="fill:#ff7f0e;stroke:#ffffff;stroke-width:0.48;" x="912.110003" xlink:href="#C0_0_3253f508db" y="315.57361"/>
    </g>
    <g clip-path="url(#p7c20f09a20)">
     <use style="fill:#1f77b4;stroke:#ffffff;stroke-width:0.48;" x="916.064722" xlink:href="#C0_0_3253f508db" y="315.57361"/>
    </g>
    <g clip-path="url(#p7c20f09a20)">
     <use style="fill:#1f77b4;stroke:#ffffff;stroke-width:0.48;" x="921.857651" xlink:href="#C0_0_3253f508db" y="24.98639"/>
    </g>
    <g clip-path="url(#p7c20f09a20)">
     <use style="fill:#ff7f0e;stroke:#ffffff;stroke-width:0.48;" x="940.116054" xlink:href="#C0_0_3253f508db" y="307.330001"/>
    </g>
    <g clip-path="url(#p7c20f09a20)">
     <use style="fill:#ff7f0e;stroke:#ffffff;stroke-width:0.48;" x="941.276419" xlink:href="#C0_0_3253f508db" y="284.660076"/>
    </g>
    <g clip-path="url(#p7c20f09a20)">
     <use style="fill:#ff7f0e;stroke:#ffffff;stroke-width:0.48;" x="942.796173" xlink:href="#C0_0_3253f508db" y="292.903685"/>
    </g>
    <g clip-path="url(#p7c20f09a20)">
     <use style="fill:#ff7f0e;stroke:#ffffff;stroke-width:0.48;" x="943.386701" xlink:href="#C0_0_3253f508db" y="284.660076"/>
    </g>
    <g clip-path="url(#p7c20f09a20)">
     <use style="fill:#ff7f0e;stroke:#ffffff;stroke-width:0.48;" x="944.428938" xlink:href="#C0_0_3253f508db" y="288.78188"/>
    </g>
    <g clip-path="url(#p7c20f09a20)">
     <use style="fill:#ff7f0e;stroke:#ffffff;stroke-width:0.48;" x="955.725705" xlink:href="#C0_0_3253f508db" y="313.512707"/>
    </g>
    <g clip-path="url(#p7c20f09a20)">
     <use style="fill:#2ca02c;stroke:#ffffff;stroke-width:0.48;" x="967.842692" xlink:href="#C0_0_3253f508db" y="303.208196"/>
    </g>
    <g clip-path="url(#p7c20f09a20)">
     <use style="fill:#1f77b4;stroke:#ffffff;stroke-width:0.48;" x="975.44135" xlink:href="#C0_0_3253f508db" y="313.512707"/>
    </g>
    <g clip-path="url(#p7c20f09a20)">
     <use style="fill:#1f77b4;stroke:#ffffff;stroke-width:0.48;" x="982.925662" xlink:href="#C0_0_3253f508db" y="301.147294"/>
    </g>
    <g clip-path="url(#p7c20f09a20)">
     <use style="fill:#d62728;stroke:#ffffff;stroke-width:0.48;" x="1007.57008" xlink:href="#C0_0_3253f508db" y="299.086392"/>
    </g>
   </g>
   <g id="PathCollection_2"/>
   <g id="PathCollection_3"/>
   <g id="PathCollection_4"/>
   <g id="PathCollection_5"/>
   <g id="PathCollection_6"/>
   <g id="matplotlib.axis_1">
    <g id="xtick_1">
     <g id="line2d_1">
      <defs>
       <path d="M 0 0 
L 0 3.5 
" id="m9d8c966e3f" style="stroke:#000000;stroke-width:0.8;"/>
      </defs>
      <g>
       <use style="stroke:#000000;stroke-width:0.8;" x="66.139997" xlink:href="#m9d8c966e3f" y="333.36"/>
      </g>
     </g>
     <g id="text_1">
      <!-- 0 -->
      <defs>
       <path d="M 31.78125 66.40625 
Q 24.171875 66.40625 20.328125 58.90625 
Q 16.5 51.421875 16.5 36.375 
Q 16.5 21.390625 20.328125 13.890625 
Q 24.171875 6.390625 31.78125 6.390625 
Q 39.453125 6.390625 43.28125 13.890625 
Q 47.125 21.390625 47.125 36.375 
Q 47.125 51.421875 43.28125 58.90625 
Q 39.453125 66.40625 31.78125 66.40625 
z
M 31.78125 74.21875 
Q 44.046875 74.21875 50.515625 64.515625 
Q 56.984375 54.828125 56.984375 36.375 
Q 56.984375 17.96875 50.515625 8.265625 
Q 44.046875 -1.421875 31.78125 -1.421875 
Q 19.53125 -1.421875 13.0625 8.265625 
Q 6.59375 17.96875 6.59375 36.375 
Q 6.59375 54.828125 13.0625 64.515625 
Q 19.53125 74.21875 31.78125 74.21875 
z
" id="DejaVuSans-48"/>
      </defs>
      <g transform="translate(62.958747 347.958437)scale(0.1 -0.1)">
       <use xlink:href="#DejaVuSans-48"/>
      </g>
     </g>
    </g>
    <g id="xtick_2">
     <g id="line2d_2">
      <g>
       <use style="stroke:#000000;stroke-width:0.8;" x="288.60269" xlink:href="#m9d8c966e3f" y="333.36"/>
      </g>
     </g>
     <g id="text_2">
      <!-- 1000000 -->
      <defs>
       <path d="M 12.40625 8.296875 
L 28.515625 8.296875 
L 28.515625 63.921875 
L 10.984375 60.40625 
L 10.984375 69.390625 
L 28.421875 72.90625 
L 38.28125 72.90625 
L 38.28125 8.296875 
L 54.390625 8.296875 
L 54.390625 0 
L 12.40625 0 
z
" id="DejaVuSans-49"/>
      </defs>
      <g transform="translate(266.33394 347.958437)scale(0.1 -0.1)">
       <use xlink:href="#DejaVuSans-49"/>
       <use x="63.623047" xlink:href="#DejaVuSans-48"/>
       <use x="127.246094" xlink:href="#DejaVuSans-48"/>
       <use x="190.869141" xlink:href="#DejaVuSans-48"/>
       <use x="254.492188" xlink:href="#DejaVuSans-48"/>
       <use x="318.115234" xlink:href="#DejaVuSans-48"/>
       <use x="381.738281" xlink:href="#DejaVuSans-48"/>
      </g>
     </g>
    </g>
    <g id="xtick_3">
     <g id="line2d_3">
      <g>
       <use style="stroke:#000000;stroke-width:0.8;" x="511.065383" xlink:href="#m9d8c966e3f" y="333.36"/>
      </g>
     </g>
     <g id="text_3">
      <!-- 2000000 -->
      <defs>
       <path d="M 19.1875 8.296875 
L 53.609375 8.296875 
L 53.609375 0 
L 7.328125 0 
L 7.328125 8.296875 
Q 12.9375 14.109375 22.625 23.890625 
Q 32.328125 33.6875 34.8125 36.53125 
Q 39.546875 41.84375 41.421875 45.53125 
Q 43.3125 49.21875 43.3125 52.78125 
Q 43.3125 58.59375 39.234375 62.25 
Q 35.15625 65.921875 28.609375 65.921875 
Q 23.96875 65.921875 18.8125 64.3125 
Q 13.671875 62.703125 7.8125 59.421875 
L 7.8125 69.390625 
Q 13.765625 71.78125 18.9375 73 
Q 24.125 74.21875 28.421875 74.21875 
Q 39.75 74.21875 46.484375 68.546875 
Q 53.21875 62.890625 53.21875 53.421875 
Q 53.21875 48.921875 51.53125 44.890625 
Q 49.859375 40.875 45.40625 35.40625 
Q 44.1875 33.984375 37.640625 27.21875 
Q 31.109375 20.453125 19.1875 8.296875 
z
" id="DejaVuSans-50"/>
      </defs>
      <g transform="translate(488.796633 347.958437)scale(0.1 -0.1)">
       <use xlink:href="#DejaVuSans-50"/>
       <use x="63.623047" xlink:href="#DejaVuSans-48"/>
       <use x="127.246094" xlink:href="#DejaVuSans-48"/>
       <use x="190.869141" xlink:href="#DejaVuSans-48"/>
       <use x="254.492188" xlink:href="#DejaVuSans-48"/>
       <use x="318.115234" xlink:href="#DejaVuSans-48"/>
       <use x="381.738281" xlink:href="#DejaVuSans-48"/>
      </g>
     </g>
    </g>
    <g id="xtick_4">
     <g id="line2d_4">
      <g>
       <use style="stroke:#000000;stroke-width:0.8;" x="733.528076" xlink:href="#m9d8c966e3f" y="333.36"/>
      </g>
     </g>
     <g id="text_4">
      <!-- 3000000 -->
      <defs>
       <path d="M 40.578125 39.3125 
Q 47.65625 37.796875 51.625 33 
Q 55.609375 28.21875 55.609375 21.1875 
Q 55.609375 10.40625 48.1875 4.484375 
Q 40.765625 -1.421875 27.09375 -1.421875 
Q 22.515625 -1.421875 17.65625 -0.515625 
Q 12.796875 0.390625 7.625 2.203125 
L 7.625 11.71875 
Q 11.71875 9.328125 16.59375 8.109375 
Q 21.484375 6.890625 26.8125 6.890625 
Q 36.078125 6.890625 40.9375 10.546875 
Q 45.796875 14.203125 45.796875 21.1875 
Q 45.796875 27.640625 41.28125 31.265625 
Q 36.765625 34.90625 28.71875 34.90625 
L 20.21875 34.90625 
L 20.21875 43.015625 
L 29.109375 43.015625 
Q 36.375 43.015625 40.234375 45.921875 
Q 44.09375 48.828125 44.09375 54.296875 
Q 44.09375 59.90625 40.109375 62.90625 
Q 36.140625 65.921875 28.71875 65.921875 
Q 24.65625 65.921875 20.015625 65.03125 
Q 15.375 64.15625 9.8125 62.3125 
L 9.8125 71.09375 
Q 15.4375 72.65625 20.34375 73.4375 
Q 25.25 74.21875 29.59375 74.21875 
Q 40.828125 74.21875 47.359375 69.109375 
Q 53.90625 64.015625 53.90625 55.328125 
Q 53.90625 49.265625 50.4375 45.09375 
Q 46.96875 40.921875 40.578125 39.3125 
z
" id="DejaVuSans-51"/>
      </defs>
      <g transform="translate(711.259326 347.958437)scale(0.1 -0.1)">
       <use xlink:href="#DejaVuSans-51"/>
       <use x="63.623047" xlink:href="#DejaVuSans-48"/>
       <use x="127.246094" xlink:href="#DejaVuSans-48"/>
       <use x="190.869141" xlink:href="#DejaVuSans-48"/>
       <use x="254.492188" xlink:href="#DejaVuSans-48"/>
       <use x="318.115234" xlink:href="#DejaVuSans-48"/>
       <use x="381.738281" xlink:href="#DejaVuSans-48"/>
      </g>
     </g>
    </g>
    <g id="xtick_5">
     <g id="line2d_5">
      <g>
       <use style="stroke:#000000;stroke-width:0.8;" x="955.990769" xlink:href="#m9d8c966e3f" y="333.36"/>
      </g>
     </g>
     <g id="text_5">
      <!-- 4000000 -->
      <defs>
       <path d="M 37.796875 64.3125 
L 12.890625 25.390625 
L 37.796875 25.390625 
z
M 35.203125 72.90625 
L 47.609375 72.90625 
L 47.609375 25.390625 
L 58.015625 25.390625 
L 58.015625 17.1875 
L 47.609375 17.1875 
L 47.609375 0 
L 37.796875 0 
L 37.796875 17.1875 
L 4.890625 17.1875 
L 4.890625 26.703125 
z
" id="DejaVuSans-52"/>
      </defs>
      <g transform="translate(933.722019 347.958437)scale(0.1 -0.1)">
       <use xlink:href="#DejaVuSans-52"/>
       <use x="63.623047" xlink:href="#DejaVuSans-48"/>
       <use x="127.246094" xlink:href="#DejaVuSans-48"/>
       <use x="190.869141" xlink:href="#DejaVuSans-48"/>
       <use x="254.492188" xlink:href="#DejaVuSans-48"/>
       <use x="318.115234" xlink:href="#DejaVuSans-48"/>
       <use x="381.738281" xlink:href="#DejaVuSans-48"/>
      </g>
     </g>
    </g>
    <g id="text_6">
     <!-- H37Rv Genomic Position (bp) -->
     <defs>
      <path d="M 9.8125 72.90625 
L 19.671875 72.90625 
L 19.671875 43.015625 
L 55.515625 43.015625 
L 55.515625 72.90625 
L 65.375 72.90625 
L 65.375 0 
L 55.515625 0 
L 55.515625 34.71875 
L 19.671875 34.71875 
L 19.671875 0 
L 9.8125 0 
z
" id="DejaVuSans-72"/>
      <path d="M 8.203125 72.90625 
L 55.078125 72.90625 
L 55.078125 68.703125 
L 28.609375 0 
L 18.3125 0 
L 43.21875 64.59375 
L 8.203125 64.59375 
z
" id="DejaVuSans-55"/>
      <path d="M 44.390625 34.1875 
Q 47.5625 33.109375 50.5625 29.59375 
Q 53.5625 26.078125 56.59375 19.921875 
L 66.609375 0 
L 56 0 
L 46.6875 18.703125 
Q 43.0625 26.03125 39.671875 28.421875 
Q 36.28125 30.8125 30.421875 30.8125 
L 19.671875 30.8125 
L 19.671875 0 
L 9.8125 0 
L 9.8125 72.90625 
L 32.078125 72.90625 
Q 44.578125 72.90625 50.734375 67.671875 
Q 56.890625 62.453125 56.890625 51.90625 
Q 56.890625 45.015625 53.6875 40.46875 
Q 50.484375 35.9375 44.390625 34.1875 
z
M 19.671875 64.796875 
L 19.671875 38.921875 
L 32.078125 38.921875 
Q 39.203125 38.921875 42.84375 42.21875 
Q 46.484375 45.515625 46.484375 51.90625 
Q 46.484375 58.296875 42.84375 61.546875 
Q 39.203125 64.796875 32.078125 64.796875 
z
" id="DejaVuSans-82"/>
      <path d="M 2.984375 54.6875 
L 12.5 54.6875 
L 29.59375 8.796875 
L 46.6875 54.6875 
L 56.203125 54.6875 
L 35.6875 0 
L 23.484375 0 
z
" id="DejaVuSans-118"/>
      <path id="DejaVuSans-32"/>
      <path d="M 59.515625 10.40625 
L 59.515625 29.984375 
L 43.40625 29.984375 
L 43.40625 38.09375 
L 69.28125 38.09375 
L 69.28125 6.78125 
Q 63.578125 2.734375 56.6875 0.65625 
Q 49.8125 -1.421875 42 -1.421875 
Q 24.90625 -1.421875 15.25 8.5625 
Q 5.609375 18.5625 5.609375 36.375 
Q 5.609375 54.25 15.25 64.234375 
Q 24.90625 74.21875 42 74.21875 
Q 49.125 74.21875 55.546875 72.453125 
Q 61.96875 70.703125 67.390625 67.28125 
L 67.390625 56.78125 
Q 61.921875 61.421875 55.765625 63.765625 
Q 49.609375 66.109375 42.828125 66.109375 
Q 29.4375 66.109375 22.71875 58.640625 
Q 16.015625 51.171875 16.015625 36.375 
Q 16.015625 21.625 22.71875 14.15625 
Q 29.4375 6.6875 42.828125 6.6875 
Q 48.046875 6.6875 52.140625 7.59375 
Q 56.25 8.5 59.515625 10.40625 
z
" id="DejaVuSans-71"/>
      <path d="M 56.203125 29.59375 
L 56.203125 25.203125 
L 14.890625 25.203125 
Q 15.484375 15.921875 20.484375 11.0625 
Q 25.484375 6.203125 34.421875 6.203125 
Q 39.59375 6.203125 44.453125 7.46875 
Q 49.3125 8.734375 54.109375 11.28125 
L 54.109375 2.78125 
Q 49.265625 0.734375 44.1875 -0.34375 
Q 39.109375 -1.421875 33.890625 -1.421875 
Q 20.796875 -1.421875 13.15625 6.1875 
Q 5.515625 13.8125 5.515625 26.8125 
Q 5.515625 40.234375 12.765625 48.109375 
Q 20.015625 56 32.328125 56 
Q 43.359375 56 49.78125 48.890625 
Q 56.203125 41.796875 56.203125 29.59375 
z
M 47.21875 32.234375 
Q 47.125 39.59375 43.09375 43.984375 
Q 39.0625 48.390625 32.421875 48.390625 
Q 24.90625 48.390625 20.390625 44.140625 
Q 15.875 39.890625 15.1875 32.171875 
z
" id="DejaVuSans-101"/>
      <path d="M 54.890625 33.015625 
L 54.890625 0 
L 45.90625 0 
L 45.90625 32.71875 
Q 45.90625 40.484375 42.875 44.328125 
Q 39.84375 48.1875 33.796875 48.1875 
Q 26.515625 48.1875 22.3125 43.546875 
Q 18.109375 38.921875 18.109375 30.90625 
L 18.109375 0 
L 9.078125 0 
L 9.078125 54.6875 
L 18.109375 54.6875 
L 18.109375 46.1875 
Q 21.34375 51.125 25.703125 53.5625 
Q 30.078125 56 35.796875 56 
Q 45.21875 56 50.046875 50.171875 
Q 54.890625 44.34375 54.890625 33.015625 
z
" id="DejaVuSans-110"/>
      <path d="M 30.609375 48.390625 
Q 23.390625 48.390625 19.1875 42.75 
Q 14.984375 37.109375 14.984375 27.296875 
Q 14.984375 17.484375 19.15625 11.84375 
Q 23.34375 6.203125 30.609375 6.203125 
Q 37.796875 6.203125 41.984375 11.859375 
Q 46.1875 17.53125 46.1875 27.296875 
Q 46.1875 37.015625 41.984375 42.703125 
Q 37.796875 48.390625 30.609375 48.390625 
z
M 30.609375 56 
Q 42.328125 56 49.015625 48.375 
Q 55.71875 40.765625 55.71875 27.296875 
Q 55.71875 13.875 49.015625 6.21875 
Q 42.328125 -1.421875 30.609375 -1.421875 
Q 18.84375 -1.421875 12.171875 6.21875 
Q 5.515625 13.875 5.515625 27.296875 
Q 5.515625 40.765625 12.171875 48.375 
Q 18.84375 56 30.609375 56 
z
" id="DejaVuSans-111"/>
      <path d="M 52 44.1875 
Q 55.375 50.25 60.0625 53.125 
Q 64.75 56 71.09375 56 
Q 79.640625 56 84.28125 50.015625 
Q 88.921875 44.046875 88.921875 33.015625 
L 88.921875 0 
L 79.890625 0 
L 79.890625 32.71875 
Q 79.890625 40.578125 77.09375 44.375 
Q 74.3125 48.1875 68.609375 48.1875 
Q 61.625 48.1875 57.5625 43.546875 
Q 53.515625 38.921875 53.515625 30.90625 
L 53.515625 0 
L 44.484375 0 
L 44.484375 32.71875 
Q 44.484375 40.625 41.703125 44.40625 
Q 38.921875 48.1875 33.109375 48.1875 
Q 26.21875 48.1875 22.15625 43.53125 
Q 18.109375 38.875 18.109375 30.90625 
L 18.109375 0 
L 9.078125 0 
L 9.078125 54.6875 
L 18.109375 54.6875 
L 18.109375 46.1875 
Q 21.1875 51.21875 25.484375 53.609375 
Q 29.78125 56 35.6875 56 
Q 41.65625 56 45.828125 52.96875 
Q 50 49.953125 52 44.1875 
z
" id="DejaVuSans-109"/>
      <path d="M 9.421875 54.6875 
L 18.40625 54.6875 
L 18.40625 0 
L 9.421875 0 
z
M 9.421875 75.984375 
L 18.40625 75.984375 
L 18.40625 64.59375 
L 9.421875 64.59375 
z
" id="DejaVuSans-105"/>
      <path d="M 48.78125 52.59375 
L 48.78125 44.1875 
Q 44.96875 46.296875 41.140625 47.34375 
Q 37.3125 48.390625 33.40625 48.390625 
Q 24.65625 48.390625 19.8125 42.84375 
Q 14.984375 37.3125 14.984375 27.296875 
Q 14.984375 17.28125 19.8125 11.734375 
Q 24.65625 6.203125 33.40625 6.203125 
Q 37.3125 6.203125 41.140625 7.25 
Q 44.96875 8.296875 48.78125 10.40625 
L 48.78125 2.09375 
Q 45.015625 0.34375 40.984375 -0.53125 
Q 36.96875 -1.421875 32.421875 -1.421875 
Q 20.0625 -1.421875 12.78125 6.34375 
Q 5.515625 14.109375 5.515625 27.296875 
Q 5.515625 40.671875 12.859375 48.328125 
Q 20.21875 56 33.015625 56 
Q 37.15625 56 41.109375 55.140625 
Q 45.0625 54.296875 48.78125 52.59375 
z
" id="DejaVuSans-99"/>
      <path d="M 19.671875 64.796875 
L 19.671875 37.40625 
L 32.078125 37.40625 
Q 38.96875 37.40625 42.71875 40.96875 
Q 46.484375 44.53125 46.484375 51.125 
Q 46.484375 57.671875 42.71875 61.234375 
Q 38.96875 64.796875 32.078125 64.796875 
z
M 9.8125 72.90625 
L 32.078125 72.90625 
Q 44.34375 72.90625 50.609375 67.359375 
Q 56.890625 61.8125 56.890625 51.125 
Q 56.890625 40.328125 50.609375 34.8125 
Q 44.34375 29.296875 32.078125 29.296875 
L 19.671875 29.296875 
L 19.671875 0 
L 9.8125 0 
z
" id="DejaVuSans-80"/>
      <path d="M 44.28125 53.078125 
L 44.28125 44.578125 
Q 40.484375 46.53125 36.375 47.5 
Q 32.28125 48.484375 27.875 48.484375 
Q 21.1875 48.484375 17.84375 46.4375 
Q 14.5 44.390625 14.5 40.28125 
Q 14.5 37.15625 16.890625 35.375 
Q 19.28125 33.59375 26.515625 31.984375 
L 29.59375 31.296875 
Q 39.15625 29.25 43.1875 25.515625 
Q 47.21875 21.78125 47.21875 15.09375 
Q 47.21875 7.46875 41.1875 3.015625 
Q 35.15625 -1.421875 24.609375 -1.421875 
Q 20.21875 -1.421875 15.453125 -0.5625 
Q 10.6875 0.296875 5.421875 2 
L 5.421875 11.28125 
Q 10.40625 8.6875 15.234375 7.390625 
Q 20.0625 6.109375 24.8125 6.109375 
Q 31.15625 6.109375 34.5625 8.28125 
Q 37.984375 10.453125 37.984375 14.40625 
Q 37.984375 18.0625 35.515625 20.015625 
Q 33.0625 21.96875 24.703125 23.78125 
L 21.578125 24.515625 
Q 13.234375 26.265625 9.515625 29.90625 
Q 5.8125 33.546875 5.8125 39.890625 
Q 5.8125 47.609375 11.28125 51.796875 
Q 16.75 56 26.8125 56 
Q 31.78125 56 36.171875 55.265625 
Q 40.578125 54.546875 44.28125 53.078125 
z
" id="DejaVuSans-115"/>
      <path d="M 18.3125 70.21875 
L 18.3125 54.6875 
L 36.8125 54.6875 
L 36.8125 47.703125 
L 18.3125 47.703125 
L 18.3125 18.015625 
Q 18.3125 11.328125 20.140625 9.421875 
Q 21.96875 7.515625 27.59375 7.515625 
L 36.8125 7.515625 
L 36.8125 0 
L 27.59375 0 
Q 17.1875 0 13.234375 3.875 
Q 9.28125 7.765625 9.28125 18.015625 
L 9.28125 47.703125 
L 2.6875 47.703125 
L 2.6875 54.6875 
L 9.28125 54.6875 
L 9.28125 70.21875 
z
" id="DejaVuSans-116"/>
      <path d="M 31 75.875 
Q 24.46875 64.65625 21.28125 53.65625 
Q 18.109375 42.671875 18.109375 31.390625 
Q 18.109375 20.125 21.3125 9.0625 
Q 24.515625 -2 31 -13.1875 
L 23.1875 -13.1875 
Q 15.875 -1.703125 12.234375 9.375 
Q 8.59375 20.453125 8.59375 31.390625 
Q 8.59375 42.28125 12.203125 53.3125 
Q 15.828125 64.359375 23.1875 75.875 
z
" id="DejaVuSans-40"/>
      <path d="M 48.6875 27.296875 
Q 48.6875 37.203125 44.609375 42.84375 
Q 40.53125 48.484375 33.40625 48.484375 
Q 26.265625 48.484375 22.1875 42.84375 
Q 18.109375 37.203125 18.109375 27.296875 
Q 18.109375 17.390625 22.1875 11.75 
Q 26.265625 6.109375 33.40625 6.109375 
Q 40.53125 6.109375 44.609375 11.75 
Q 48.6875 17.390625 48.6875 27.296875 
z
M 18.109375 46.390625 
Q 20.953125 51.265625 25.265625 53.625 
Q 29.59375 56 35.59375 56 
Q 45.5625 56 51.78125 48.09375 
Q 58.015625 40.1875 58.015625 27.296875 
Q 58.015625 14.40625 51.78125 6.484375 
Q 45.5625 -1.421875 35.59375 -1.421875 
Q 29.59375 -1.421875 25.265625 0.953125 
Q 20.953125 3.328125 18.109375 8.203125 
L 18.109375 0 
L 9.078125 0 
L 9.078125 75.984375 
L 18.109375 75.984375 
z
" id="DejaVuSans-98"/>
      <path d="M 18.109375 8.203125 
L 18.109375 -20.796875 
L 9.078125 -20.796875 
L 9.078125 54.6875 
L 18.109375 54.6875 
L 18.109375 46.390625 
Q 20.953125 51.265625 25.265625 53.625 
Q 29.59375 56 35.59375 56 
Q 45.5625 56 51.78125 48.09375 
Q 58.015625 40.1875 58.015625 27.296875 
Q 58.015625 14.40625 51.78125 6.484375 
Q 45.5625 -1.421875 35.59375 -1.421875 
Q 29.59375 -1.421875 25.265625 0.953125 
Q 20.953125 3.328125 18.109375 8.203125 
z
M 48.6875 27.296875 
Q 48.6875 37.203125 44.609375 42.84375 
Q 40.53125 48.484375 33.40625 48.484375 
Q 26.265625 48.484375 22.1875 42.84375 
Q 18.109375 37.203125 18.109375 27.296875 
Q 18.109375 17.390625 22.1875 11.75 
Q 26.265625 6.109375 33.40625 6.109375 
Q 40.53125 6.109375 44.609375 11.75 
Q 48.6875 17.390625 48.6875 27.296875 
z
" id="DejaVuSans-112"/>
      <path d="M 8.015625 75.875 
L 15.828125 75.875 
Q 23.140625 64.359375 26.78125 53.3125 
Q 30.421875 42.28125 30.421875 31.390625 
Q 30.421875 20.453125 26.78125 9.375 
Q 23.140625 -1.703125 15.828125 -13.1875 
L 8.015625 -13.1875 
Q 14.5 -2 17.703125 9.0625 
Q 20.90625 20.125 20.90625 31.390625 
Q 20.90625 42.671875 17.703125 53.65625 
Q 14.5 64.65625 8.015625 75.875 
z
" id="DejaVuSans-41"/>
     </defs>
     <g transform="translate(443.898828 365.435781)scale(0.15 -0.15)">
      <use xlink:href="#DejaVuSans-72"/>
      <use x="75.195312" xlink:href="#DejaVuSans-51"/>
      <use x="138.818359" xlink:href="#DejaVuSans-55"/>
      <use x="202.441406" xlink:href="#DejaVuSans-82"/>
      <use x="271.923828" xlink:href="#DejaVuSans-118"/>
      <use x="331.103516" xlink:href="#DejaVuSans-32"/>
      <use x="362.890625" xlink:href="#DejaVuSans-71"/>
      <use x="440.380859" xlink:href="#DejaVuSans-101"/>
      <use x="501.904297" xlink:href="#DejaVuSans-110"/>
      <use x="565.283203" xlink:href="#DejaVuSans-111"/>
      <use x="626.464844" xlink:href="#DejaVuSans-109"/>
      <use x="723.876953" xlink:href="#DejaVuSans-105"/>
      <use x="751.660156" xlink:href="#DejaVuSans-99"/>
      <use x="806.640625" xlink:href="#DejaVuSans-32"/>
      <use x="838.427734" xlink:href="#DejaVuSans-80"/>
      <use x="898.683594" xlink:href="#DejaVuSans-111"/>
      <use x="959.865234" xlink:href="#DejaVuSans-115"/>
      <use x="1011.964844" xlink:href="#DejaVuSans-105"/>
      <use x="1039.748047" xlink:href="#DejaVuSans-116"/>
      <use x="1078.957031" xlink:href="#DejaVuSans-105"/>
      <use x="1106.740234" xlink:href="#DejaVuSans-111"/>
      <use x="1167.921875" xlink:href="#DejaVuSans-110"/>
      <use x="1231.300781" xlink:href="#DejaVuSans-32"/>
      <use x="1263.087891" xlink:href="#DejaVuSans-40"/>
      <use x="1302.101562" xlink:href="#DejaVuSans-98"/>
      <use x="1365.578125" xlink:href="#DejaVuSans-112"/>
      <use x="1429.054688" xlink:href="#DejaVuSans-41"/>
     </g>
    </g>
   </g>
   <g id="matplotlib.axis_2">
    <g id="ytick_1">
     <g id="line2d_6">
      <defs>
       <path d="M 0 0 
L -3.5 0 
" id="m77ab2ac427" style="stroke:#000000;stroke-width:0.8;"/>
      </defs>
      <g>
       <use style="stroke:#000000;stroke-width:0.8;" x="51.804688" xlink:href="#m77ab2ac427" y="317.634512"/>
      </g>
     </g>
     <g id="text_7">
      <!-- 0 -->
      <g transform="translate(38.442188 321.433731)scale(0.1 -0.1)">
       <use xlink:href="#DejaVuSans-48"/>
      </g>
     </g>
    </g>
    <g id="ytick_2">
     <g id="line2d_7">
      <g>
       <use style="stroke:#000000;stroke-width:0.8;" x="51.804688" xlink:href="#m77ab2ac427" y="276.416467"/>
      </g>
     </g>
     <g id="text_8">
      <!-- 20 -->
      <g transform="translate(32.079688 280.215685)scale(0.1 -0.1)">
       <use xlink:href="#DejaVuSans-50"/>
       <use x="63.623047" xlink:href="#DejaVuSans-48"/>
      </g>
     </g>
    </g>
    <g id="ytick_3">
     <g id="line2d_8">
      <g>
       <use style="stroke:#000000;stroke-width:0.8;" x="51.804688" xlink:href="#m77ab2ac427" y="235.198421"/>
      </g>
     </g>
     <g id="text_9">
      <!-- 40 -->
      <g transform="translate(32.079688 238.99764)scale(0.1 -0.1)">
       <use xlink:href="#DejaVuSans-52"/>
       <use x="63.623047" xlink:href="#DejaVuSans-48"/>
      </g>
     </g>
    </g>
    <g id="ytick_4">
     <g id="line2d_9">
      <g>
       <use style="stroke:#000000;stroke-width:0.8;" x="51.804688" xlink:href="#m77ab2ac427" y="193.980376"/>
      </g>
     </g>
     <g id="text_10">
      <!-- 60 -->
      <defs>
       <path d="M 33.015625 40.375 
Q 26.375 40.375 22.484375 35.828125 
Q 18.609375 31.296875 18.609375 23.390625 
Q 18.609375 15.53125 22.484375 10.953125 
Q 26.375 6.390625 33.015625 6.390625 
Q 39.65625 6.390625 43.53125 10.953125 
Q 47.40625 15.53125 47.40625 23.390625 
Q 47.40625 31.296875 43.53125 35.828125 
Q 39.65625 40.375 33.015625 40.375 
z
M 52.59375 71.296875 
L 52.59375 62.3125 
Q 48.875 64.0625 45.09375 64.984375 
Q 41.3125 65.921875 37.59375 65.921875 
Q 27.828125 65.921875 22.671875 59.328125 
Q 17.53125 52.734375 16.796875 39.40625 
Q 19.671875 43.65625 24.015625 45.921875 
Q 28.375 48.1875 33.59375 48.1875 
Q 44.578125 48.1875 50.953125 41.515625 
Q 57.328125 34.859375 57.328125 23.390625 
Q 57.328125 12.15625 50.6875 5.359375 
Q 44.046875 -1.421875 33.015625 -1.421875 
Q 20.359375 -1.421875 13.671875 8.265625 
Q 6.984375 17.96875 6.984375 36.375 
Q 6.984375 53.65625 15.1875 63.9375 
Q 23.390625 74.21875 37.203125 74.21875 
Q 40.921875 74.21875 44.703125 73.484375 
Q 48.484375 72.75 52.59375 71.296875 
z
" id="DejaVuSans-54"/>
      </defs>
      <g transform="translate(32.079688 197.779595)scale(0.1 -0.1)">
       <use xlink:href="#DejaVuSans-54"/>
       <use x="63.623047" xlink:href="#DejaVuSans-48"/>
      </g>
     </g>
    </g>
    <g id="ytick_5">
     <g id="line2d_10">
      <g>
       <use style="stroke:#000000;stroke-width:0.8;" x="51.804688" xlink:href="#m77ab2ac427" y="152.762331"/>
      </g>
     </g>
     <g id="text_11">
      <!-- 80 -->
      <defs>
       <path d="M 31.78125 34.625 
Q 24.75 34.625 20.71875 30.859375 
Q 16.703125 27.09375 16.703125 20.515625 
Q 16.703125 13.921875 20.71875 10.15625 
Q 24.75 6.390625 31.78125 6.390625 
Q 38.8125 6.390625 42.859375 10.171875 
Q 46.921875 13.96875 46.921875 20.515625 
Q 46.921875 27.09375 42.890625 30.859375 
Q 38.875 34.625 31.78125 34.625 
z
M 21.921875 38.8125 
Q 15.578125 40.375 12.03125 44.71875 
Q 8.5 49.078125 8.5 55.328125 
Q 8.5 64.0625 14.71875 69.140625 
Q 20.953125 74.21875 31.78125 74.21875 
Q 42.671875 74.21875 48.875 69.140625 
Q 55.078125 64.0625 55.078125 55.328125 
Q 55.078125 49.078125 51.53125 44.71875 
Q 48 40.375 41.703125 38.8125 
Q 48.828125 37.15625 52.796875 32.3125 
Q 56.78125 27.484375 56.78125 20.515625 
Q 56.78125 9.90625 50.3125 4.234375 
Q 43.84375 -1.421875 31.78125 -1.421875 
Q 19.734375 -1.421875 13.25 4.234375 
Q 6.78125 9.90625 6.78125 20.515625 
Q 6.78125 27.484375 10.78125 32.3125 
Q 14.796875 37.15625 21.921875 38.8125 
z
M 18.3125 54.390625 
Q 18.3125 48.734375 21.84375 45.5625 
Q 25.390625 42.390625 31.78125 42.390625 
Q 38.140625 42.390625 41.71875 45.5625 
Q 45.3125 48.734375 45.3125 54.390625 
Q 45.3125 60.0625 41.71875 63.234375 
Q 38.140625 66.40625 31.78125 66.40625 
Q 25.390625 66.40625 21.84375 63.234375 
Q 18.3125 60.0625 18.3125 54.390625 
z
" id="DejaVuSans-56"/>
      </defs>
      <g transform="translate(32.079688 156.561549)scale(0.1 -0.1)">
       <use xlink:href="#DejaVuSans-56"/>
       <use x="63.623047" xlink:href="#DejaVuSans-48"/>
      </g>
     </g>
    </g>
    <g id="ytick_6">
     <g id="line2d_11">
      <g>
       <use style="stroke:#000000;stroke-width:0.8;" x="51.804688" xlink:href="#m77ab2ac427" y="111.544285"/>
      </g>
     </g>
     <g id="text_12">
      <!-- 100 -->
      <g transform="translate(25.717188 115.343504)scale(0.1 -0.1)">
       <use xlink:href="#DejaVuSans-49"/>
       <use x="63.623047" xlink:href="#DejaVuSans-48"/>
       <use x="127.246094" xlink:href="#DejaVuSans-48"/>
      </g>
     </g>
    </g>
    <g id="ytick_7">
     <g id="line2d_12">
      <g>
       <use style="stroke:#000000;stroke-width:0.8;" x="51.804688" xlink:href="#m77ab2ac427" y="70.32624"/>
      </g>
     </g>
     <g id="text_13">
      <!-- 120 -->
      <g transform="translate(25.717188 74.125459)scale(0.1 -0.1)">
       <use xlink:href="#DejaVuSans-49"/>
       <use x="63.623047" xlink:href="#DejaVuSans-50"/>
       <use x="127.246094" xlink:href="#DejaVuSans-48"/>
      </g>
     </g>
    </g>
    <g id="ytick_8">
     <g id="line2d_13">
      <g>
       <use style="stroke:#000000;stroke-width:0.8;" x="51.804688" xlink:href="#m77ab2ac427" y="29.108195"/>
      </g>
     </g>
     <g id="text_14">
      <!-- 140 -->
      <g transform="translate(25.717188 32.907414)scale(0.1 -0.1)">
       <use xlink:href="#DejaVuSans-49"/>
       <use x="63.623047" xlink:href="#DejaVuSans-52"/>
       <use x="127.246094" xlink:href="#DejaVuSans-48"/>
      </g>
     </g>
    </g>
    <g id="text_15">
     <!-- # of FPs (across 36 isolates) -->
     <defs>
      <path d="M 51.125 44 
L 36.921875 44 
L 32.8125 27.6875 
L 47.125 27.6875 
z
M 43.796875 71.78125 
L 38.71875 51.515625 
L 52.984375 51.515625 
L 58.109375 71.78125 
L 65.921875 71.78125 
L 60.890625 51.515625 
L 76.125 51.515625 
L 76.125 44 
L 58.984375 44 
L 54.984375 27.6875 
L 70.515625 27.6875 
L 70.515625 20.21875 
L 53.078125 20.21875 
L 48 0 
L 40.1875 0 
L 45.21875 20.21875 
L 30.90625 20.21875 
L 25.875 0 
L 18.015625 0 
L 23.09375 20.21875 
L 7.71875 20.21875 
L 7.71875 27.6875 
L 24.90625 27.6875 
L 29 44 
L 13.28125 44 
L 13.28125 51.515625 
L 30.90625 51.515625 
L 35.890625 71.78125 
z
" id="DejaVuSans-35"/>
      <path d="M 37.109375 75.984375 
L 37.109375 68.5 
L 28.515625 68.5 
Q 23.6875 68.5 21.796875 66.546875 
Q 19.921875 64.59375 19.921875 59.515625 
L 19.921875 54.6875 
L 34.71875 54.6875 
L 34.71875 47.703125 
L 19.921875 47.703125 
L 19.921875 0 
L 10.890625 0 
L 10.890625 47.703125 
L 2.296875 47.703125 
L 2.296875 54.6875 
L 10.890625 54.6875 
L 10.890625 58.5 
Q 10.890625 67.625 15.140625 71.796875 
Q 19.390625 75.984375 28.609375 75.984375 
z
" id="DejaVuSans-102"/>
      <path d="M 9.8125 72.90625 
L 51.703125 72.90625 
L 51.703125 64.59375 
L 19.671875 64.59375 
L 19.671875 43.109375 
L 48.578125 43.109375 
L 48.578125 34.8125 
L 19.671875 34.8125 
L 19.671875 0 
L 9.8125 0 
z
" id="DejaVuSans-70"/>
      <path d="M 34.28125 27.484375 
Q 23.390625 27.484375 19.1875 25 
Q 14.984375 22.515625 14.984375 16.5 
Q 14.984375 11.71875 18.140625 8.90625 
Q 21.296875 6.109375 26.703125 6.109375 
Q 34.1875 6.109375 38.703125 11.40625 
Q 43.21875 16.703125 43.21875 25.484375 
L 43.21875 27.484375 
z
M 52.203125 31.203125 
L 52.203125 0 
L 43.21875 0 
L 43.21875 8.296875 
Q 40.140625 3.328125 35.546875 0.953125 
Q 30.953125 -1.421875 24.3125 -1.421875 
Q 15.921875 -1.421875 10.953125 3.296875 
Q 6 8.015625 6 15.921875 
Q 6 25.140625 12.171875 29.828125 
Q 18.359375 34.515625 30.609375 34.515625 
L 43.21875 34.515625 
L 43.21875 35.40625 
Q 43.21875 41.609375 39.140625 45 
Q 35.0625 48.390625 27.6875 48.390625 
Q 23 48.390625 18.546875 47.265625 
Q 14.109375 46.140625 10.015625 43.890625 
L 10.015625 52.203125 
Q 14.9375 54.109375 19.578125 55.046875 
Q 24.21875 56 28.609375 56 
Q 40.484375 56 46.34375 49.84375 
Q 52.203125 43.703125 52.203125 31.203125 
z
" id="DejaVuSans-97"/>
      <path d="M 41.109375 46.296875 
Q 39.59375 47.171875 37.8125 47.578125 
Q 36.03125 48 33.890625 48 
Q 26.265625 48 22.1875 43.046875 
Q 18.109375 38.09375 18.109375 28.8125 
L 18.109375 0 
L 9.078125 0 
L 9.078125 54.6875 
L 18.109375 54.6875 
L 18.109375 46.1875 
Q 20.953125 51.171875 25.484375 53.578125 
Q 30.03125 56 36.53125 56 
Q 37.453125 56 38.578125 55.875 
Q 39.703125 55.765625 41.0625 55.515625 
z
" id="DejaVuSans-114"/>
      <path d="M 9.421875 75.984375 
L 18.40625 75.984375 
L 18.40625 0 
L 9.421875 0 
z
" id="DejaVuSans-108"/>
     </defs>
     <g transform="translate(18.597656 276.775312)rotate(-90)scale(0.15 -0.15)">
      <use xlink:href="#DejaVuSans-35"/>
      <use x="83.789062" xlink:href="#DejaVuSans-32"/>
      <use x="115.576172" xlink:href="#DejaVuSans-111"/>
      <use x="176.757812" xlink:href="#DejaVuSans-102"/>
      <use x="211.962891" xlink:href="#DejaVuSans-32"/>
      <use x="243.75" xlink:href="#DejaVuSans-70"/>
      <use x="301.269531" xlink:href="#DejaVuSans-80"/>
      <use x="361.556641" xlink:href="#DejaVuSans-115"/>
      <use x="413.65625" xlink:href="#DejaVuSans-32"/>
      <use x="445.443359" xlink:href="#DejaVuSans-40"/>
      <use x="484.457031" xlink:href="#DejaVuSans-97"/>
      <use x="545.736328" xlink:href="#DejaVuSans-99"/>
      <use x="600.716797" xlink:href="#DejaVuSans-114"/>
      <use x="641.798828" xlink:href="#DejaVuSans-111"/>
      <use x="702.980469" xlink:href="#DejaVuSans-115"/>
      <use x="755.080078" xlink:href="#DejaVuSans-115"/>
      <use x="807.179688" xlink:href="#DejaVuSans-32"/>
      <use x="838.966797" xlink:href="#DejaVuSans-51"/>
      <use x="902.589844" xlink:href="#DejaVuSans-54"/>
      <use x="966.212891" xlink:href="#DejaVuSans-32"/>
      <use x="998" xlink:href="#DejaVuSans-105"/>
      <use x="1025.783203" xlink:href="#DejaVuSans-115"/>
      <use x="1077.882812" xlink:href="#DejaVuSans-111"/>
      <use x="1139.064453" xlink:href="#DejaVuSans-108"/>
      <use x="1166.847656" xlink:href="#DejaVuSans-97"/>
      <use x="1228.126953" xlink:href="#DejaVuSans-116"/>
      <use x="1267.335938" xlink:href="#DejaVuSans-101"/>
      <use x="1328.859375" xlink:href="#DejaVuSans-115"/>
      <use x="1380.958984" xlink:href="#DejaVuSans-41"/>
     </g>
    </g>
   </g>
   <g id="patch_3">
    <path d="M 51.804688 333.36 
L 51.804688 7.2 
" style="fill:none;stroke:#000000;stroke-linecap:square;stroke-linejoin:miter;stroke-width:0.8;"/>
   </g>
   <g id="patch_4">
    <path d="M 1056.204688 333.36 
L 1056.204688 7.2 
" style="fill:none;stroke:#000000;stroke-linecap:square;stroke-linejoin:miter;stroke-width:0.8;"/>
   </g>
   <g id="patch_5">
    <path d="M 51.804688 333.36 
L 1056.204688 333.36 
" style="fill:none;stroke:#000000;stroke-linecap:square;stroke-linejoin:miter;stroke-width:0.8;"/>
   </g>
   <g id="patch_6">
    <path d="M 51.804688 7.2 
L 1056.204688 7.2 
" style="fill:none;stroke:#000000;stroke-linecap:square;stroke-linejoin:miter;stroke-width:0.8;"/>
   </g>
   <g id="legend_1">
    <g id="patch_7">
     <path d="M 58.804688 103.26875 
L 339.942188 103.26875 
Q 341.942188 103.26875 341.942188 101.26875 
L 341.942188 14.2 
Q 341.942188 12.2 339.942188 12.2 
L 58.804688 12.2 
Q 56.804688 12.2 56.804688 14.2 
L 56.804688 101.26875 
Q 56.804688 103.26875 58.804688 103.26875 
z
" style="fill:#ffffff;opacity:0.8;stroke:#cccccc;stroke-linejoin:miter;"/>
    </g>
    <g id="text_16">
     <!-- Region Category -->
     <defs>
      <path d="M 45.40625 27.984375 
Q 45.40625 37.75 41.375 43.109375 
Q 37.359375 48.484375 30.078125 48.484375 
Q 22.859375 48.484375 18.828125 43.109375 
Q 14.796875 37.75 14.796875 27.984375 
Q 14.796875 18.265625 18.828125 12.890625 
Q 22.859375 7.515625 30.078125 7.515625 
Q 37.359375 7.515625 41.375 12.890625 
Q 45.40625 18.265625 45.40625 27.984375 
z
M 54.390625 6.78125 
Q 54.390625 -7.171875 48.1875 -13.984375 
Q 42 -20.796875 29.203125 -20.796875 
Q 24.46875 -20.796875 20.265625 -20.09375 
Q 16.0625 -19.390625 12.109375 -17.921875 
L 12.109375 -9.1875 
Q 16.0625 -11.328125 19.921875 -12.34375 
Q 23.78125 -13.375 27.78125 -13.375 
Q 36.625 -13.375 41.015625 -8.765625 
Q 45.40625 -4.15625 45.40625 5.171875 
L 45.40625 9.625 
Q 42.625 4.78125 38.28125 2.390625 
Q 33.9375 0 27.875 0 
Q 17.828125 0 11.671875 7.65625 
Q 5.515625 15.328125 5.515625 27.984375 
Q 5.515625 40.671875 11.671875 48.328125 
Q 17.828125 56 27.875 56 
Q 33.9375 56 38.28125 53.609375 
Q 42.625 51.21875 45.40625 46.390625 
L 45.40625 54.6875 
L 54.390625 54.6875 
z
" id="DejaVuSans-103"/>
      <path d="M 64.40625 67.28125 
L 64.40625 56.890625 
Q 59.421875 61.53125 53.78125 63.8125 
Q 48.140625 66.109375 41.796875 66.109375 
Q 29.296875 66.109375 22.65625 58.46875 
Q 16.015625 50.828125 16.015625 36.375 
Q 16.015625 21.96875 22.65625 14.328125 
Q 29.296875 6.6875 41.796875 6.6875 
Q 48.140625 6.6875 53.78125 8.984375 
Q 59.421875 11.28125 64.40625 15.921875 
L 64.40625 5.609375 
Q 59.234375 2.09375 53.4375 0.328125 
Q 47.65625 -1.421875 41.21875 -1.421875 
Q 24.65625 -1.421875 15.125 8.703125 
Q 5.609375 18.84375 5.609375 36.375 
Q 5.609375 53.953125 15.125 64.078125 
Q 24.65625 74.21875 41.21875 74.21875 
Q 47.75 74.21875 53.53125 72.484375 
Q 59.328125 70.75 64.40625 67.28125 
z
" id="DejaVuSans-67"/>
      <path d="M 32.171875 -5.078125 
Q 28.375 -14.84375 24.75 -17.8125 
Q 21.140625 -20.796875 15.09375 -20.796875 
L 7.90625 -20.796875 
L 7.90625 -13.28125 
L 13.1875 -13.28125 
Q 16.890625 -13.28125 18.9375 -11.515625 
Q 21 -9.765625 23.484375 -3.21875 
L 25.09375 0.875 
L 2.984375 54.6875 
L 12.5 54.6875 
L 29.59375 11.921875 
L 46.6875 54.6875 
L 56.203125 54.6875 
z
" id="DejaVuSans-121"/>
     </defs>
     <g transform="translate(157.604688 23.798437)scale(0.1 -0.1)">
      <use xlink:href="#DejaVuSans-82"/>
      <use x="69.419922" xlink:href="#DejaVuSans-101"/>
      <use x="130.943359" xlink:href="#DejaVuSans-103"/>
      <use x="194.419922" xlink:href="#DejaVuSans-105"/>
      <use x="222.203125" xlink:href="#DejaVuSans-111"/>
      <use x="283.384766" xlink:href="#DejaVuSans-110"/>
      <use x="346.763672" xlink:href="#DejaVuSans-32"/>
      <use x="378.550781" xlink:href="#DejaVuSans-67"/>
      <use x="448.375" xlink:href="#DejaVuSans-97"/>
      <use x="509.654297" xlink:href="#DejaVuSans-116"/>
      <use x="548.863281" xlink:href="#DejaVuSans-101"/>
      <use x="610.386719" xlink:href="#DejaVuSans-103"/>
      <use x="673.863281" xlink:href="#DejaVuSans-111"/>
      <use x="735.044922" xlink:href="#DejaVuSans-114"/>
      <use x="776.158203" xlink:href="#DejaVuSans-121"/>
     </g>
    </g>
    <g id="patch_8">
     <path d="M 60.804688 38.476562 
L 80.804688 38.476562 
L 80.804688 31.476562 
L 60.804688 31.476562 
z
" style="fill:#1f77b4;opacity:0.4;stroke:#1f77b4;stroke-linejoin:miter;"/>
    </g>
    <g id="text_17">
     <!-- Integenic Region -->
     <defs>
      <path d="M 9.8125 72.90625 
L 19.671875 72.90625 
L 19.671875 0 
L 9.8125 0 
z
" id="DejaVuSans-73"/>
     </defs>
     <g transform="translate(88.804688 38.476562)scale(0.1 -0.1)">
      <use xlink:href="#DejaVuSans-73"/>
      <use x="29.492188" xlink:href="#DejaVuSans-110"/>
      <use x="92.871094" xlink:href="#DejaVuSans-116"/>
      <use x="132.080078" xlink:href="#DejaVuSans-101"/>
      <use x="193.603516" xlink:href="#DejaVuSans-103"/>
      <use x="257.080078" xlink:href="#DejaVuSans-101"/>
      <use x="318.603516" xlink:href="#DejaVuSans-110"/>
      <use x="381.982422" xlink:href="#DejaVuSans-105"/>
      <use x="409.765625" xlink:href="#DejaVuSans-99"/>
      <use x="464.746094" xlink:href="#DejaVuSans-32"/>
      <use x="496.533203" xlink:href="#DejaVuSans-82"/>
      <use x="565.953125" xlink:href="#DejaVuSans-101"/>
      <use x="627.476562" xlink:href="#DejaVuSans-103"/>
      <use x="690.953125" xlink:href="#DejaVuSans-105"/>
      <use x="718.736328" xlink:href="#DejaVuSans-111"/>
      <use x="779.917969" xlink:href="#DejaVuSans-110"/>
     </g>
    </g>
    <g id="patch_9">
     <path d="M 60.804688 53.154687 
L 80.804688 53.154687 
L 80.804688 46.154687 
L 60.804688 46.154687 
z
" style="fill:#ff7f0e;opacity:0.4;stroke:#ff7f0e;stroke-linejoin:miter;"/>
    </g>
    <g id="text_18">
     <!-- PE/PPEs -->
     <defs>
      <path d="M 9.8125 72.90625 
L 55.90625 72.90625 
L 55.90625 64.59375 
L 19.671875 64.59375 
L 19.671875 43.015625 
L 54.390625 43.015625 
L 54.390625 34.71875 
L 19.671875 34.71875 
L 19.671875 8.296875 
L 56.78125 8.296875 
L 56.78125 0 
L 9.8125 0 
z
" id="DejaVuSans-69"/>
      <path d="M 25.390625 72.90625 
L 33.6875 72.90625 
L 8.296875 -9.28125 
L 0 -9.28125 
z
" id="DejaVuSans-47"/>
     </defs>
     <g transform="translate(88.804688 53.154687)scale(0.1 -0.1)">
      <use xlink:href="#DejaVuSans-80"/>
      <use x="60.302734" xlink:href="#DejaVuSans-69"/>
      <use x="123.486328" xlink:href="#DejaVuSans-47"/>
      <use x="157.177734" xlink:href="#DejaVuSans-80"/>
      <use x="217.480469" xlink:href="#DejaVuSans-80"/>
      <use x="277.783203" xlink:href="#DejaVuSans-69"/>
      <use x="340.966797" xlink:href="#DejaVuSans-115"/>
     </g>
    </g>
    <g id="patch_10">
     <path d="M 60.804688 67.832812 
L 80.804688 67.832812 
L 80.804688 60.832812 
L 60.804688 60.832812 
z
" style="fill:#2ca02c;opacity:0.4;stroke:#2ca02c;stroke-linejoin:miter;"/>
    </g>
    <g id="text_19">
     <!-- Repetative genes identified in Coscolla et al 2015 -->
     <defs>
      <path d="M 45.40625 46.390625 
L 45.40625 75.984375 
L 54.390625 75.984375 
L 54.390625 0 
L 45.40625 0 
L 45.40625 8.203125 
Q 42.578125 3.328125 38.25 0.953125 
Q 33.9375 -1.421875 27.875 -1.421875 
Q 17.96875 -1.421875 11.734375 6.484375 
Q 5.515625 14.40625 5.515625 27.296875 
Q 5.515625 40.1875 11.734375 48.09375 
Q 17.96875 56 27.875 56 
Q 33.9375 56 38.25 53.625 
Q 42.578125 51.265625 45.40625 46.390625 
z
M 14.796875 27.296875 
Q 14.796875 17.390625 18.875 11.75 
Q 22.953125 6.109375 30.078125 6.109375 
Q 37.203125 6.109375 41.296875 11.75 
Q 45.40625 17.390625 45.40625 27.296875 
Q 45.40625 37.203125 41.296875 42.84375 
Q 37.203125 48.484375 30.078125 48.484375 
Q 22.953125 48.484375 18.875 42.84375 
Q 14.796875 37.203125 14.796875 27.296875 
z
" id="DejaVuSans-100"/>
      <path d="M 10.796875 72.90625 
L 49.515625 72.90625 
L 49.515625 64.59375 
L 19.828125 64.59375 
L 19.828125 46.734375 
Q 21.96875 47.46875 24.109375 47.828125 
Q 26.265625 48.1875 28.421875 48.1875 
Q 40.625 48.1875 47.75 41.5 
Q 54.890625 34.8125 54.890625 23.390625 
Q 54.890625 11.625 47.5625 5.09375 
Q 40.234375 -1.421875 26.90625 -1.421875 
Q 22.3125 -1.421875 17.546875 -0.640625 
Q 12.796875 0.140625 7.71875 1.703125 
L 7.71875 11.625 
Q 12.109375 9.234375 16.796875 8.0625 
Q 21.484375 6.890625 26.703125 6.890625 
Q 35.15625 6.890625 40.078125 11.328125 
Q 45.015625 15.765625 45.015625 23.390625 
Q 45.015625 31 40.078125 35.4375 
Q 35.15625 39.890625 26.703125 39.890625 
Q 22.75 39.890625 18.8125 39.015625 
Q 14.890625 38.140625 10.796875 36.28125 
z
" id="DejaVuSans-53"/>
     </defs>
     <g transform="translate(88.804688 67.832812)scale(0.1 -0.1)">
      <use xlink:href="#DejaVuSans-82"/>
      <use x="69.419922" xlink:href="#DejaVuSans-101"/>
      <use x="130.943359" xlink:href="#DejaVuSans-112"/>
      <use x="194.419922" xlink:href="#DejaVuSans-101"/>
      <use x="255.943359" xlink:href="#DejaVuSans-116"/>
      <use x="295.152344" xlink:href="#DejaVuSans-97"/>
      <use x="356.431641" xlink:href="#DejaVuSans-116"/>
      <use x="395.640625" xlink:href="#DejaVuSans-105"/>
      <use x="423.423828" xlink:href="#DejaVuSans-118"/>
      <use x="482.603516" xlink:href="#DejaVuSans-101"/>
      <use x="544.126953" xlink:href="#DejaVuSans-32"/>
      <use x="575.914062" xlink:href="#DejaVuSans-103"/>
      <use x="639.390625" xlink:href="#DejaVuSans-101"/>
      <use x="700.914062" xlink:href="#DejaVuSans-110"/>
      <use x="764.292969" xlink:href="#DejaVuSans-101"/>
      <use x="825.816406" xlink:href="#DejaVuSans-115"/>
      <use x="877.916016" xlink:href="#DejaVuSans-32"/>
      <use x="909.703125" xlink:href="#DejaVuSans-105"/>
      <use x="937.486328" xlink:href="#DejaVuSans-100"/>
      <use x="1000.962891" xlink:href="#DejaVuSans-101"/>
      <use x="1062.486328" xlink:href="#DejaVuSans-110"/>
      <use x="1125.865234" xlink:href="#DejaVuSans-116"/>
      <use x="1165.074219" xlink:href="#DejaVuSans-105"/>
      <use x="1192.857422" xlink:href="#DejaVuSans-102"/>
      <use x="1228.0625" xlink:href="#DejaVuSans-105"/>
      <use x="1255.845703" xlink:href="#DejaVuSans-101"/>
      <use x="1317.369141" xlink:href="#DejaVuSans-100"/>
      <use x="1380.845703" xlink:href="#DejaVuSans-32"/>
      <use x="1412.632812" xlink:href="#DejaVuSans-105"/>
      <use x="1440.416016" xlink:href="#DejaVuSans-110"/>
      <use x="1503.794922" xlink:href="#DejaVuSans-32"/>
      <use x="1535.582031" xlink:href="#DejaVuSans-67"/>
      <use x="1605.40625" xlink:href="#DejaVuSans-111"/>
      <use x="1666.587891" xlink:href="#DejaVuSans-115"/>
      <use x="1718.6875" xlink:href="#DejaVuSans-99"/>
      <use x="1773.667969" xlink:href="#DejaVuSans-111"/>
      <use x="1834.849609" xlink:href="#DejaVuSans-108"/>
      <use x="1862.632812" xlink:href="#DejaVuSans-108"/>
      <use x="1890.416016" xlink:href="#DejaVuSans-97"/>
      <use x="1951.695312" xlink:href="#DejaVuSans-32"/>
      <use x="1983.482422" xlink:href="#DejaVuSans-101"/>
      <use x="2045.005859" xlink:href="#DejaVuSans-116"/>
      <use x="2084.214844" xlink:href="#DejaVuSans-32"/>
      <use x="2116.001953" xlink:href="#DejaVuSans-97"/>
      <use x="2177.28125" xlink:href="#DejaVuSans-108"/>
      <use x="2205.064453" xlink:href="#DejaVuSans-32"/>
      <use x="2236.851562" xlink:href="#DejaVuSans-50"/>
      <use x="2300.474609" xlink:href="#DejaVuSans-48"/>
      <use x="2364.097656" xlink:href="#DejaVuSans-49"/>
      <use x="2427.720703" xlink:href="#DejaVuSans-53"/>
     </g>
    </g>
    <g id="patch_11">
     <path d="M 60.804688 82.510937 
L 80.804688 82.510937 
L 80.804688 75.510937 
L 60.804688 75.510937 
z
" style="fill:#d62728;opacity:0.4;stroke:#d62728;stroke-linejoin:miter;"/>
    </g>
    <g id="text_20">
     <!-- Non-PLC gene -->
     <defs>
      <path d="M 9.8125 72.90625 
L 23.09375 72.90625 
L 55.421875 11.921875 
L 55.421875 72.90625 
L 64.984375 72.90625 
L 64.984375 0 
L 51.703125 0 
L 19.390625 60.984375 
L 19.390625 0 
L 9.8125 0 
z
" id="DejaVuSans-78"/>
      <path d="M 4.890625 31.390625 
L 31.203125 31.390625 
L 31.203125 23.390625 
L 4.890625 23.390625 
z
" id="DejaVuSans-45"/>
      <path d="M 9.8125 72.90625 
L 19.671875 72.90625 
L 19.671875 8.296875 
L 55.171875 8.296875 
L 55.171875 0 
L 9.8125 0 
z
" id="DejaVuSans-76"/>
     </defs>
     <g transform="translate(88.804688 82.510937)scale(0.1 -0.1)">
      <use xlink:href="#DejaVuSans-78"/>
      <use x="74.804688" xlink:href="#DejaVuSans-111"/>
      <use x="135.986328" xlink:href="#DejaVuSans-110"/>
      <use x="199.365234" xlink:href="#DejaVuSans-45"/>
      <use x="235.449219" xlink:href="#DejaVuSans-80"/>
      <use x="295.751953" xlink:href="#DejaVuSans-76"/>
      <use x="351.464844" xlink:href="#DejaVuSans-67"/>
      <use x="421.289062" xlink:href="#DejaVuSans-32"/>
      <use x="453.076172" xlink:href="#DejaVuSans-103"/>
      <use x="516.552734" xlink:href="#DejaVuSans-101"/>
      <use x="578.076172" xlink:href="#DejaVuSans-110"/>
      <use x="641.455078" xlink:href="#DejaVuSans-101"/>
     </g>
    </g>
    <g id="patch_12">
     <path d="M 60.804688 97.189062 
L 80.804688 97.189062 
L 80.804688 90.189062 
L 60.804688 90.189062 
z
" style="fill:#9467bd;opacity:0.4;stroke:#9467bd;stroke-linejoin:miter;"/>
    </g>
    <g id="text_21">
     <!-- Mobile Genetic Element -->
     <defs>
      <path d="M 9.8125 72.90625 
L 24.515625 72.90625 
L 43.109375 23.296875 
L 61.8125 72.90625 
L 76.515625 72.90625 
L 76.515625 0 
L 66.890625 0 
L 66.890625 64.015625 
L 48.09375 14.015625 
L 38.1875 14.015625 
L 19.390625 64.015625 
L 19.390625 0 
L 9.8125 0 
z
" id="DejaVuSans-77"/>
     </defs>
     <g transform="translate(88.804688 97.189062)scale(0.1 -0.1)">
      <use xlink:href="#DejaVuSans-77"/>
      <use x="86.279297" xlink:href="#DejaVuSans-111"/>
      <use x="147.460938" xlink:href="#DejaVuSans-98"/>
      <use x="210.9375" xlink:href="#DejaVuSans-105"/>
      <use x="238.720703" xlink:href="#DejaVuSans-108"/>
      <use x="266.503906" xlink:href="#DejaVuSans-101"/>
      <use x="328.027344" xlink:href="#DejaVuSans-32"/>
      <use x="359.814453" xlink:href="#DejaVuSans-71"/>
      <use x="437.304688" xlink:href="#DejaVuSans-101"/>
      <use x="498.828125" xlink:href="#DejaVuSans-110"/>
      <use x="562.207031" xlink:href="#DejaVuSans-101"/>
      <use x="623.730469" xlink:href="#DejaVuSans-116"/>
      <use x="662.939453" xlink:href="#DejaVuSans-105"/>
      <use x="690.722656" xlink:href="#DejaVuSans-99"/>
      <use x="745.703125" xlink:href="#DejaVuSans-32"/>
      <use x="777.490234" xlink:href="#DejaVuSans-69"/>
      <use x="840.673828" xlink:href="#DejaVuSans-108"/>
      <use x="868.457031" xlink:href="#DejaVuSans-101"/>
      <use x="929.980469" xlink:href="#DejaVuSans-109"/>
      <use x="1027.392578" xlink:href="#DejaVuSans-101"/>
      <use x="1088.916016" xlink:href="#DejaVuSans-110"/>
      <use x="1152.294922" xlink:href="#DejaVuSans-116"/>
     </g>
    </g>
   </g>
  </g>
 </g>
 <defs>
  <clipPath id="p7c20f09a20">
   <rect height="326.16" width="1004.4" x="51.804688" y="7.2"/>
  </clipPath>
 </defs>
</svg>
