<?xml version="1.0" encoding="utf-8" standalone="no"?>
<!DOCTYPE svg PUBLIC "-//W3C//DTD SVG 1.1//EN"
  "http://www.w3.org/Graphics/SVG/1.1/DTD/svg11.dtd">
<!-- Created with matplotlib (https://matplotlib.org/) -->
<svg height="523.720625pt" version="1.1" viewBox="0 0 818.4225 523.720625" width="818.4225pt" xmlns="http://www.w3.org/2000/svg" xmlns:xlink="http://www.w3.org/1999/xlink">
 <defs>
  <style type="text/css">
*{stroke-linecap:butt;stroke-linejoin:round;}
  </style>
 </defs>
 <g id="figure_1">
  <g id="patch_1">
   <path d="M 0 523.720625 
L 818.4225 523.720625 
L 818.4225 0 
L 0 0 
z
" style="fill:#ffffff;"/>
  </g>
  <g id="axes_1">
   <g id="patch_2">
    <path d="M 78.2225 222.8575 
L 811.2225 222.8575 
L 811.2225 25.3575 
L 78.2225 25.3575 
z
" style="fill:#ffffff;"/>
   </g>
   <g id="patch_3">
    <path clip-path="url(#p23b3aecd4d)" d="M 79.967738 222.8575 
L 86.94869 222.8575 
L 86.94869 221.3881 
L 79.967738 221.3881 
z
" style="fill:#1f77b4;"/>
   </g>
   <g id="patch_4">
    <path clip-path="url(#p23b3aecd4d)" d="M 97.420119 222.8575 
L 104.401071 222.8575 
L 104.401071 221.013979 
L 97.420119 221.013979 
z
" style="fill:#1f77b4;"/>
   </g>
   <g id="patch_5">
    <path clip-path="url(#p23b3aecd4d)" d="M 114.8725 222.8575 
L 121.853452 222.8575 
L 121.853452 221.920786 
L 114.8725 221.920786 
z
" style="fill:#1f77b4;"/>
   </g>
   <g id="patch_6">
    <path clip-path="url(#p23b3aecd4d)" d="M 132.324881 222.8575 
L 139.305833 222.8575 
L 139.305833 222.100229 
L 132.324881 222.100229 
z
" style="fill:#1f77b4;"/>
   </g>
   <g id="patch_7">
    <path clip-path="url(#p23b3aecd4d)" d="M 149.777262 222.8575 
L 156.758214 222.8575 
L 156.758214 222.434286 
L 149.777262 222.434286 
z
" style="fill:#1f77b4;"/>
   </g>
   <g id="patch_8">
    <path clip-path="url(#p23b3aecd4d)" d="M 167.229643 222.8575 
L 174.210595 222.8575 
L 174.210595 222.281929 
L 167.229643 222.281929 
z
" style="fill:#1f77b4;"/>
   </g>
   <g id="patch_9">
    <path clip-path="url(#p23b3aecd4d)" d="M 184.682024 222.8575 
L 191.662976 222.8575 
L 191.662976 222.464193 
L 184.682024 222.464193 
z
" style="fill:#1f77b4;"/>
   </g>
   <g id="patch_10">
    <path clip-path="url(#p23b3aecd4d)" d="M 202.134405 222.8575 
L 209.115357 222.8575 
L 209.115357 221.89765 
L 202.134405 221.89765 
z
" style="fill:#1f77b4;"/>
   </g>
   <g id="patch_11">
    <path clip-path="url(#p23b3aecd4d)" d="M 219.586786 222.8575 
L 226.567738 222.8575 
L 226.567738 222.227757 
L 219.586786 222.227757 
z
" style="fill:#1f77b4;"/>
   </g>
   <g id="patch_12">
    <path clip-path="url(#p23b3aecd4d)" d="M 237.039167 222.8575 
L 244.020119 222.8575 
L 244.020119 222.72715 
L 237.039167 222.72715 
z
" style="fill:#1f77b4;"/>
   </g>
   <g id="patch_13">
    <path clip-path="url(#p23b3aecd4d)" d="M 254.491548 222.8575 
L 261.4725 222.8575 
L 261.4725 222.350207 
L 254.491548 222.350207 
z
" style="fill:#1f77b4;"/>
   </g>
   <g id="patch_14">
    <path clip-path="url(#p23b3aecd4d)" d="M 271.943929 222.8575 
L 278.924881 222.8575 
L 278.924881 222.402121 
L 271.943929 222.402121 
z
" style="fill:#1f77b4;"/>
   </g>
   <g id="patch_15">
    <path clip-path="url(#p23b3aecd4d)" d="M 289.39631 222.8575 
L 296.377262 222.8575 
L 296.377262 222.477736 
L 289.39631 222.477736 
z
" style="fill:#1f77b4;"/>
   </g>
   <g id="patch_16">
    <path clip-path="url(#p23b3aecd4d)" d="M 306.84869 222.8575 
L 313.829643 222.8575 
L 313.829643 222.432593 
L 306.84869 222.432593 
z
" style="fill:#1f77b4;"/>
   </g>
   <g id="patch_17">
    <path clip-path="url(#p23b3aecd4d)" d="M 324.301071 222.8575 
L 331.282024 222.8575 
L 331.282024 222.325379 
L 324.301071 222.325379 
z
" style="fill:#1f77b4;"/>
   </g>
   <g id="patch_18">
    <path clip-path="url(#p23b3aecd4d)" d="M 341.753452 222.8575 
L 348.734405 222.8575 
L 348.734405 222.256536 
L 341.753452 222.256536 
z
" style="fill:#1f77b4;"/>
   </g>
   <g id="patch_19">
    <path clip-path="url(#p23b3aecd4d)" d="M 359.205833 222.8575 
L 366.186786 222.8575 
L 366.186786 222.116593 
L 359.205833 222.116593 
z
" style="fill:#1f77b4;"/>
   </g>
   <g id="patch_20">
    <path clip-path="url(#p23b3aecd4d)" d="M 376.658214 222.8575 
L 383.639167 222.8575 
L 383.639167 221.701843 
L 376.658214 221.701843 
z
" style="fill:#1f77b4;"/>
   </g>
   <g id="patch_21">
    <path clip-path="url(#p23b3aecd4d)" d="M 394.110595 222.8575 
L 401.091548 222.8575 
L 401.091548 221.681529 
L 394.110595 221.681529 
z
" style="fill:#1f77b4;"/>
   </g>
   <g id="patch_22">
    <path clip-path="url(#p23b3aecd4d)" d="M 411.562976 222.8575 
L 418.543929 222.8575 
L 418.543929 222.733921 
L 411.562976 222.733921 
z
" style="fill:#1f77b4;"/>
   </g>
   <g id="patch_23">
    <path clip-path="url(#p23b3aecd4d)" d="M 429.015357 222.8575 
L 435.99631 222.8575 
L 435.99631 221.003257 
L 429.015357 221.003257 
z
" style="fill:#1f77b4;"/>
   </g>
   <g id="patch_24">
    <path clip-path="url(#p23b3aecd4d)" d="M 446.467738 222.8575 
L 453.44869 222.8575 
L 453.44869 221.857586 
L 446.467738 221.857586 
z
" style="fill:#1f77b4;"/>
   </g>
   <g id="patch_25">
    <path clip-path="url(#p23b3aecd4d)" d="M 463.920119 222.8575 
L 470.901071 222.8575 
L 470.901071 221.867743 
L 463.920119 221.867743 
z
" style="fill:#1f77b4;"/>
   </g>
   <g id="patch_26">
    <path clip-path="url(#p23b3aecd4d)" d="M 481.3725 222.8575 
L 488.353452 222.8575 
L 488.353452 221.679836 
L 481.3725 221.679836 
z
" style="fill:#1f77b4;"/>
   </g>
   <g id="patch_27">
    <path clip-path="url(#p23b3aecd4d)" d="M 498.824881 222.8575 
L 505.805833 222.8575 
L 505.805833 221.047836 
L 498.824881 221.047836 
z
" style="fill:#1f77b4;"/>
   </g>
   <g id="patch_28">
    <path clip-path="url(#p23b3aecd4d)" d="M 516.277262 222.8575 
L 523.258214 222.8575 
L 523.258214 221.280321 
L 516.277262 221.280321 
z
" style="fill:#1f77b4;"/>
   </g>
   <g id="patch_29">
    <path clip-path="url(#p23b3aecd4d)" d="M 533.729643 222.8575 
L 540.710595 222.8575 
L 540.710595 220.881371 
L 533.729643 220.881371 
z
" style="fill:#1f77b4;"/>
   </g>
   <g id="patch_30">
    <path clip-path="url(#p23b3aecd4d)" d="M 551.182024 222.8575 
L 558.162976 222.8575 
L 558.162976 220.837357 
L 551.182024 220.837357 
z
" style="fill:#1f77b4;"/>
   </g>
   <g id="patch_31">
    <path clip-path="url(#p23b3aecd4d)" d="M 568.634405 222.8575 
L 575.615357 222.8575 
L 575.615357 220.3453 
L 568.634405 220.3453 
z
" style="fill:#1f77b4;"/>
   </g>
   <g id="patch_32">
    <path clip-path="url(#p23b3aecd4d)" d="M 586.086786 222.8575 
L 593.067738 222.8575 
L 593.067738 220.846386 
L 586.086786 220.846386 
z
" style="fill:#1f77b4;"/>
   </g>
   <g id="patch_33">
    <path clip-path="url(#p23b3aecd4d)" d="M 603.539167 222.8575 
L 610.520119 222.8575 
L 610.520119 215.327671 
L 603.539167 215.327671 
z
" style="fill:#1f77b4;"/>
   </g>
   <g id="patch_34">
    <path clip-path="url(#p23b3aecd4d)" d="M 620.991548 222.8575 
L 627.9725 222.8575 
L 627.9725 219.95425 
L 620.991548 219.95425 
z
" style="fill:#1f77b4;"/>
   </g>
   <g id="patch_35">
    <path clip-path="url(#p23b3aecd4d)" d="M 638.443929 222.8575 
L 645.424881 222.8575 
L 645.424881 219.295729 
L 638.443929 219.295729 
z
" style="fill:#1f77b4;"/>
   </g>
   <g id="patch_36">
    <path clip-path="url(#p23b3aecd4d)" d="M 655.89631 222.8575 
L 662.877262 222.8575 
L 662.877262 217.528386 
L 655.89631 217.528386 
z
" style="fill:#1f77b4;"/>
   </g>
   <g id="patch_37">
    <path clip-path="url(#p23b3aecd4d)" d="M 673.34869 222.8575 
L 680.329643 222.8575 
L 680.329643 217.370386 
L 673.34869 217.370386 
z
" style="fill:#1f77b4;"/>
   </g>
   <g id="patch_38">
    <path clip-path="url(#p23b3aecd4d)" d="M 690.801071 222.8575 
L 697.782024 222.8575 
L 697.782024 216.696629 
L 690.801071 216.696629 
z
" style="fill:#1f77b4;"/>
   </g>
   <g id="patch_39">
    <path clip-path="url(#p23b3aecd4d)" d="M 708.253452 222.8575 
L 715.234405 222.8575 
L 715.234405 215.513321 
L 708.253452 215.513321 
z
" style="fill:#1f77b4;"/>
   </g>
   <g id="patch_40">
    <path clip-path="url(#p23b3aecd4d)" d="M 725.705833 222.8575 
L 732.686786 222.8575 
L 732.686786 214.018529 
L 725.705833 214.018529 
z
" style="fill:#1f77b4;"/>
   </g>
   <g id="patch_41">
    <path clip-path="url(#p23b3aecd4d)" d="M 743.158214 222.8575 
L 750.139167 222.8575 
L 750.139167 202.674129 
L 743.158214 202.674129 
z
" style="fill:#1f77b4;"/>
   </g>
   <g id="patch_42">
    <path clip-path="url(#p23b3aecd4d)" d="M 760.610595 222.8575 
L 767.591548 222.8575 
L 767.591548 64.358107 
L 760.610595 64.358107 
z
" style="fill:#1f77b4;"/>
   </g>
   <g id="patch_43">
    <path clip-path="url(#p23b3aecd4d)" d="M 86.94869 222.8575 
L 93.929643 222.8575 
L 93.929643 222.8575 
L 86.94869 222.8575 
z
" style="fill:#d58540;"/>
   </g>
   <g id="patch_44">
    <path clip-path="url(#p23b3aecd4d)" d="M 104.401071 222.8575 
L 111.382024 222.8575 
L 111.382024 222.8575 
L 104.401071 222.8575 
z
" style="fill:#d58540;"/>
   </g>
   <g id="patch_45">
    <path clip-path="url(#p23b3aecd4d)" d="M 121.853452 222.8575 
L 128.834405 222.8575 
L 128.834405 211.463443 
L 121.853452 211.463443 
z
" style="fill:#d58540;"/>
   </g>
   <g id="patch_46">
    <path clip-path="url(#p23b3aecd4d)" d="M 139.305833 222.8575 
L 146.286786 222.8575 
L 146.286786 222.8575 
L 139.305833 222.8575 
z
" style="fill:#d58540;"/>
   </g>
   <g id="patch_47">
    <path clip-path="url(#p23b3aecd4d)" d="M 156.758214 222.8575 
L 163.739167 222.8575 
L 163.739167 222.856936 
L 156.758214 222.856936 
z
" style="fill:#d58540;"/>
   </g>
   <g id="patch_48">
    <path clip-path="url(#p23b3aecd4d)" d="M 174.210595 222.8575 
L 181.191548 222.8575 
L 181.191548 222.85355 
L 174.210595 222.85355 
z
" style="fill:#d58540;"/>
   </g>
   <g id="patch_49">
    <path clip-path="url(#p23b3aecd4d)" d="M 191.662976 222.8575 
L 198.643929 222.8575 
L 198.643929 220.285486 
L 191.662976 220.285486 
z
" style="fill:#d58540;"/>
   </g>
   <g id="patch_50">
    <path clip-path="url(#p23b3aecd4d)" d="M 209.115357 222.8575 
L 216.09631 222.8575 
L 216.09631 220.315393 
L 209.115357 220.315393 
z
" style="fill:#d58540;"/>
   </g>
   <g id="patch_51">
    <path clip-path="url(#p23b3aecd4d)" d="M 226.567738 222.8575 
L 233.54869 222.8575 
L 233.54869 222.1939 
L 226.567738 222.1939 
z
" style="fill:#d58540;"/>
   </g>
   <g id="patch_52">
    <path clip-path="url(#p23b3aecd4d)" d="M 244.020119 222.8575 
L 251.001071 222.8575 
L 251.001071 222.321429 
L 244.020119 222.321429 
z
" style="fill:#d58540;"/>
   </g>
   <g id="patch_53">
    <path clip-path="url(#p23b3aecd4d)" d="M 261.4725 222.8575 
L 268.453452 222.8575 
L 268.453452 222.364314 
L 261.4725 222.364314 
z
" style="fill:#d58540;"/>
   </g>
   <g id="patch_54">
    <path clip-path="url(#p23b3aecd4d)" d="M 278.924881 222.8575 
L 285.905833 222.8575 
L 285.905833 222.41115 
L 278.924881 222.41115 
z
" style="fill:#d58540;"/>
   </g>
   <g id="patch_55">
    <path clip-path="url(#p23b3aecd4d)" d="M 296.377262 222.8575 
L 303.358214 222.8575 
L 303.358214 222.285314 
L 296.377262 222.285314 
z
" style="fill:#d58540;"/>
   </g>
   <g id="patch_56">
    <path clip-path="url(#p23b3aecd4d)" d="M 313.829643 222.8575 
L 320.810595 222.8575 
L 320.810595 218.053171 
L 313.829643 218.053171 
z
" style="fill:#d58540;"/>
   </g>
   <g id="patch_57">
    <path clip-path="url(#p23b3aecd4d)" d="M 331.282024 222.8575 
L 338.262976 222.8575 
L 338.262976 222.2176 
L 331.282024 222.2176 
z
" style="fill:#d58540;"/>
   </g>
   <g id="patch_58">
    <path clip-path="url(#p23b3aecd4d)" d="M 348.734405 222.8575 
L 355.715357 222.8575 
L 355.715357 222.213086 
L 348.734405 222.213086 
z
" style="fill:#d58540;"/>
   </g>
   <g id="patch_59">
    <path clip-path="url(#p23b3aecd4d)" d="M 366.186786 222.8575 
L 373.167738 222.8575 
L 373.167738 222.095714 
L 366.186786 222.095714 
z
" style="fill:#d58540;"/>
   </g>
   <g id="patch_60">
    <path clip-path="url(#p23b3aecd4d)" d="M 383.639167 222.8575 
L 390.620119 222.8575 
L 390.620119 221.903293 
L 383.639167 221.903293 
z
" style="fill:#d58540;"/>
   </g>
   <g id="patch_61">
    <path clip-path="url(#p23b3aecd4d)" d="M 401.091548 222.8575 
L 408.0725 222.8575 
L 408.0725 221.746986 
L 401.091548 221.746986 
z
" style="fill:#d58540;"/>
   </g>
   <g id="patch_62">
    <path clip-path="url(#p23b3aecd4d)" d="M 418.543929 222.8575 
L 425.524881 222.8575 
L 425.524881 221.133043 
L 418.543929 221.133043 
z
" style="fill:#d58540;"/>
   </g>
   <g id="patch_63">
    <path clip-path="url(#p23b3aecd4d)" d="M 435.99631 222.8575 
L 442.977262 222.8575 
L 442.977262 203.761507 
L 435.99631 203.761507 
z
" style="fill:#d58540;"/>
   </g>
   <g id="patch_64">
    <path clip-path="url(#p23b3aecd4d)" d="M 453.44869 222.8575 
L 460.429643 222.8575 
L 460.429643 222.149886 
L 453.44869 222.149886 
z
" style="fill:#d58540;"/>
   </g>
   <g id="patch_65">
    <path clip-path="url(#p23b3aecd4d)" d="M 470.901071 222.8575 
L 477.882024 222.8575 
L 477.882024 222.009379 
L 470.901071 222.009379 
z
" style="fill:#d58540;"/>
   </g>
   <g id="patch_66">
    <path clip-path="url(#p23b3aecd4d)" d="M 488.353452 222.8575 
L 495.334405 222.8575 
L 495.334405 221.958029 
L 488.353452 221.958029 
z
" style="fill:#d58540;"/>
   </g>
   <g id="patch_67">
    <path clip-path="url(#p23b3aecd4d)" d="M 505.805833 222.8575 
L 512.786786 222.8575 
L 512.786786 222.143114 
L 505.805833 222.143114 
z
" style="fill:#d58540;"/>
   </g>
   <g id="patch_68">
    <path clip-path="url(#p23b3aecd4d)" d="M 523.258214 222.8575 
L 530.239167 222.8575 
L 530.239167 222.095714 
L 523.258214 222.095714 
z
" style="fill:#d58540;"/>
   </g>
   <g id="patch_69">
    <path clip-path="url(#p23b3aecd4d)" d="M 540.710595 222.8575 
L 547.691548 222.8575 
L 547.691548 221.924171 
L 540.710595 221.924171 
z
" style="fill:#d58540;"/>
   </g>
   <g id="patch_70">
    <path clip-path="url(#p23b3aecd4d)" d="M 558.162976 222.8575 
L 565.143929 222.8575 
L 565.143929 221.770121 
L 558.162976 221.770121 
z
" style="fill:#d58540;"/>
   </g>
   <g id="patch_71">
    <path clip-path="url(#p23b3aecd4d)" d="M 575.615357 222.8575 
L 582.59631 222.8575 
L 582.59631 221.880157 
L 575.615357 221.880157 
z
" style="fill:#d58540;"/>
   </g>
   <g id="patch_72">
    <path clip-path="url(#p23b3aecd4d)" d="M 593.067738 222.8575 
L 600.04869 222.8575 
L 600.04869 221.780843 
L 593.067738 221.780843 
z
" style="fill:#d58540;"/>
   </g>
   <g id="patch_73">
    <path clip-path="url(#p23b3aecd4d)" d="M 610.520119 222.8575 
L 617.501071 222.8575 
L 617.501071 221.430986 
L 610.520119 221.430986 
z
" style="fill:#d58540;"/>
   </g>
   <g id="patch_74">
    <path clip-path="url(#p23b3aecd4d)" d="M 627.9725 222.8575 
L 634.953452 222.8575 
L 634.953452 221.630743 
L 627.9725 221.630743 
z
" style="fill:#d58540;"/>
   </g>
   <g id="patch_75">
    <path clip-path="url(#p23b3aecd4d)" d="M 645.424881 222.8575 
L 652.405833 222.8575 
L 652.405833 221.158436 
L 645.424881 221.158436 
z
" style="fill:#d58540;"/>
   </g>
   <g id="patch_76">
    <path clip-path="url(#p23b3aecd4d)" d="M 662.877262 222.8575 
L 669.858214 222.8575 
L 669.858214 220.743121 
L 662.877262 220.743121 
z
" style="fill:#d58540;"/>
   </g>
   <g id="patch_77">
    <path clip-path="url(#p23b3aecd4d)" d="M 680.329643 222.8575 
L 687.310595 222.8575 
L 687.310595 221.193986 
L 680.329643 221.193986 
z
" style="fill:#d58540;"/>
   </g>
   <g id="patch_78">
    <path clip-path="url(#p23b3aecd4d)" d="M 697.782024 222.8575 
L 704.762976 222.8575 
L 704.762976 220.801807 
L 697.782024 220.801807 
z
" style="fill:#d58540;"/>
   </g>
   <g id="patch_79">
    <path clip-path="url(#p23b3aecd4d)" d="M 715.234405 222.8575 
L 722.215357 222.8575 
L 722.215357 220.053564 
L 715.234405 220.053564 
z
" style="fill:#d58540;"/>
   </g>
   <g id="patch_80">
    <path clip-path="url(#p23b3aecd4d)" d="M 732.686786 222.8575 
L 739.667738 222.8575 
L 739.667738 219.336357 
L 732.686786 219.336357 
z
" style="fill:#d58540;"/>
   </g>
   <g id="patch_81">
    <path clip-path="url(#p23b3aecd4d)" d="M 750.139167 222.8575 
L 757.120119 222.8575 
L 757.120119 219.782143 
L 750.139167 219.782143 
z
" style="fill:#d58540;"/>
   </g>
   <g id="patch_82">
    <path clip-path="url(#p23b3aecd4d)" d="M 767.591548 222.8575 
L 774.5725 222.8575 
L 774.5725 34.476921 
L 767.591548 34.476921 
z
" style="fill:#d58540;"/>
   </g>
   <g id="matplotlib.axis_1">
    <g id="xtick_1">
     <g id="line2d_1">
      <defs>
       <path d="M 0 0 
L 0 3.5 
" id="me3e0cd7e96" style="stroke:#000000;stroke-width:0.8;"/>
      </defs>
      <g>
       <use style="stroke:#000000;stroke-width:0.8;" x="78.2225" xlink:href="#me3e0cd7e96" y="222.8575"/>
      </g>
     </g>
    </g>
    <g id="xtick_2">
     <g id="line2d_2">
      <g>
       <use style="stroke:#000000;stroke-width:0.8;" x="217.841548" xlink:href="#me3e0cd7e96" y="222.8575"/>
      </g>
     </g>
    </g>
    <g id="xtick_3">
     <g id="line2d_3">
      <g>
       <use style="stroke:#000000;stroke-width:0.8;" x="357.460595" xlink:href="#me3e0cd7e96" y="222.8575"/>
      </g>
     </g>
    </g>
    <g id="xtick_4">
     <g id="line2d_4">
      <g>
       <use style="stroke:#000000;stroke-width:0.8;" x="497.079643" xlink:href="#me3e0cd7e96" y="222.8575"/>
      </g>
     </g>
    </g>
    <g id="xtick_5">
     <g id="line2d_5">
      <g>
       <use style="stroke:#000000;stroke-width:0.8;" x="636.69869" xlink:href="#me3e0cd7e96" y="222.8575"/>
      </g>
     </g>
    </g>
    <g id="xtick_6">
     <g id="line2d_6">
      <g>
       <use style="stroke:#000000;stroke-width:0.8;" x="776.317738" xlink:href="#me3e0cd7e96" y="222.8575"/>
      </g>
     </g>
    </g>
    <g id="text_1">
     <!-- Score -->
     <defs>
      <path d="M 53.515625 70.515625 
L 53.515625 60.890625 
Q 47.90625 63.578125 42.921875 64.890625 
Q 37.9375 66.21875 33.296875 66.21875 
Q 25.25 66.21875 20.875 63.09375 
Q 16.5 59.96875 16.5 54.203125 
Q 16.5 49.359375 19.40625 46.890625 
Q 22.3125 44.4375 30.421875 42.921875 
L 36.375 41.703125 
Q 47.40625 39.59375 52.65625 34.296875 
Q 57.90625 29 57.90625 20.125 
Q 57.90625 9.515625 50.796875 4.046875 
Q 43.703125 -1.421875 29.984375 -1.421875 
Q 24.8125 -1.421875 18.96875 -0.25 
Q 13.140625 0.921875 6.890625 3.21875 
L 6.890625 13.375 
Q 12.890625 10.015625 18.65625 8.296875 
Q 24.421875 6.59375 29.984375 6.59375 
Q 38.421875 6.59375 43.015625 9.90625 
Q 47.609375 13.234375 47.609375 19.390625 
Q 47.609375 24.75 44.3125 27.78125 
Q 41.015625 30.8125 33.5 32.328125 
L 27.484375 33.5 
Q 16.453125 35.6875 11.515625 40.375 
Q 6.59375 45.0625 6.59375 53.421875 
Q 6.59375 63.09375 13.40625 68.65625 
Q 20.21875 74.21875 32.171875 74.21875 
Q 37.3125 74.21875 42.625 73.28125 
Q 47.953125 72.359375 53.515625 70.515625 
z
" id="DejaVuSans-83"/>
      <path d="M 48.78125 52.59375 
L 48.78125 44.1875 
Q 44.96875 46.296875 41.140625 47.34375 
Q 37.3125 48.390625 33.40625 48.390625 
Q 24.65625 48.390625 19.8125 42.84375 
Q 14.984375 37.3125 14.984375 27.296875 
Q 14.984375 17.28125 19.8125 11.734375 
Q 24.65625 6.203125 33.40625 6.203125 
Q 37.3125 6.203125 41.140625 7.25 
Q 44.96875 8.296875 48.78125 10.40625 
L 48.78125 2.09375 
Q 45.015625 0.34375 40.984375 -0.53125 
Q 36.96875 -1.421875 32.421875 -1.421875 
Q 20.0625 -1.421875 12.78125 6.34375 
Q 5.515625 14.109375 5.515625 27.296875 
Q 5.515625 40.671875 12.859375 48.328125 
Q 20.21875 56 33.015625 56 
Q 37.15625 56 41.109375 55.140625 
Q 45.0625 54.296875 48.78125 52.59375 
z
" id="DejaVuSans-99"/>
      <path d="M 30.609375 48.390625 
Q 23.390625 48.390625 19.1875 42.75 
Q 14.984375 37.109375 14.984375 27.296875 
Q 14.984375 17.484375 19.15625 11.84375 
Q 23.34375 6.203125 30.609375 6.203125 
Q 37.796875 6.203125 41.984375 11.859375 
Q 46.1875 17.53125 46.1875 27.296875 
Q 46.1875 37.015625 41.984375 42.703125 
Q 37.796875 48.390625 30.609375 48.390625 
z
M 30.609375 56 
Q 42.328125 56 49.015625 48.375 
Q 55.71875 40.765625 55.71875 27.296875 
Q 55.71875 13.875 49.015625 6.21875 
Q 42.328125 -1.421875 30.609375 -1.421875 
Q 18.84375 -1.421875 12.171875 6.21875 
Q 5.515625 13.875 5.515625 27.296875 
Q 5.515625 40.765625 12.171875 48.375 
Q 18.84375 56 30.609375 56 
z
" id="DejaVuSans-111"/>
      <path d="M 41.109375 46.296875 
Q 39.59375 47.171875 37.8125 47.578125 
Q 36.03125 48 33.890625 48 
Q 26.265625 48 22.1875 43.046875 
Q 18.109375 38.09375 18.109375 28.8125 
L 18.109375 0 
L 9.078125 0 
L 9.078125 54.6875 
L 18.109375 54.6875 
L 18.109375 46.1875 
Q 20.953125 51.171875 25.484375 53.578125 
Q 30.03125 56 36.53125 56 
Q 37.453125 56 38.578125 55.875 
Q 39.703125 55.765625 41.0625 55.515625 
z
" id="DejaVuSans-114"/>
      <path d="M 56.203125 29.59375 
L 56.203125 25.203125 
L 14.890625 25.203125 
Q 15.484375 15.921875 20.484375 11.0625 
Q 25.484375 6.203125 34.421875 6.203125 
Q 39.59375 6.203125 44.453125 7.46875 
Q 49.3125 8.734375 54.109375 11.28125 
L 54.109375 2.78125 
Q 49.265625 0.734375 44.1875 -0.34375 
Q 39.109375 -1.421875 33.890625 -1.421875 
Q 20.796875 -1.421875 13.15625 6.1875 
Q 5.515625 13.8125 5.515625 26.8125 
Q 5.515625 40.234375 12.765625 48.109375 
Q 20.015625 56 32.328125 56 
Q 43.359375 56 49.78125 48.890625 
Q 56.203125 41.796875 56.203125 29.59375 
z
M 47.21875 32.234375 
Q 47.125 39.59375 43.09375 43.984375 
Q 39.0625 48.390625 32.421875 48.390625 
Q 24.90625 48.390625 20.390625 44.140625 
Q 15.875 39.890625 15.1875 32.171875 
z
" id="DejaVuSans-101"/>
     </defs>
     <g transform="translate(422.14125 239.015)scale(0.16 -0.16)">
      <use xlink:href="#DejaVuSans-83"/>
      <use x="63.476562" xlink:href="#DejaVuSans-99"/>
      <use x="118.457031" xlink:href="#DejaVuSans-111"/>
      <use x="179.638672" xlink:href="#DejaVuSans-114"/>
      <use x="220.720703" xlink:href="#DejaVuSans-101"/>
     </g>
    </g>
   </g>
   <g id="matplotlib.axis_2">
    <g id="ytick_1">
     <g id="line2d_7">
      <defs>
       <path d="M 0 0 
L -3.5 0 
" id="m0da455b47a" style="stroke:#000000;stroke-width:0.8;"/>
      </defs>
      <g>
       <use style="stroke:#000000;stroke-width:0.8;" x="78.2225" xlink:href="#m0da455b47a" y="222.8575"/>
      </g>
     </g>
     <g id="text_2">
      <!-- 0 -->
      <defs>
       <path d="M 31.78125 66.40625 
Q 24.171875 66.40625 20.328125 58.90625 
Q 16.5 51.421875 16.5 36.375 
Q 16.5 21.390625 20.328125 13.890625 
Q 24.171875 6.390625 31.78125 6.390625 
Q 39.453125 6.390625 43.28125 13.890625 
Q 47.125 21.390625 47.125 36.375 
Q 47.125 51.421875 43.28125 58.90625 
Q 39.453125 66.40625 31.78125 66.40625 
z
M 31.78125 74.21875 
Q 44.046875 74.21875 50.515625 64.515625 
Q 56.984375 54.828125 56.984375 36.375 
Q 56.984375 17.96875 50.515625 8.265625 
Q 44.046875 -1.421875 31.78125 -1.421875 
Q 19.53125 -1.421875 13.0625 8.265625 
Q 6.59375 17.96875 6.59375 36.375 
Q 6.59375 54.828125 13.0625 64.515625 
Q 19.53125 74.21875 31.78125 74.21875 
z
" id="DejaVuSans-48"/>
      </defs>
      <g transform="translate(64.86 226.656719)scale(0.1 -0.1)">
       <use xlink:href="#DejaVuSans-48"/>
      </g>
     </g>
    </g>
    <g id="ytick_2">
     <g id="line2d_8">
      <g>
       <use style="stroke:#000000;stroke-width:0.8;" x="78.2225" xlink:href="#m0da455b47a" y="194.643214"/>
      </g>
     </g>
     <g id="text_3">
      <!-- 50000 -->
      <defs>
       <path d="M 10.796875 72.90625 
L 49.515625 72.90625 
L 49.515625 64.59375 
L 19.828125 64.59375 
L 19.828125 46.734375 
Q 21.96875 47.46875 24.109375 47.828125 
Q 26.265625 48.1875 28.421875 48.1875 
Q 40.625 48.1875 47.75 41.5 
Q 54.890625 34.8125 54.890625 23.390625 
Q 54.890625 11.625 47.5625 5.09375 
Q 40.234375 -1.421875 26.90625 -1.421875 
Q 22.3125 -1.421875 17.546875 -0.640625 
Q 12.796875 0.140625 7.71875 1.703125 
L 7.71875 11.625 
Q 12.109375 9.234375 16.796875 8.0625 
Q 21.484375 6.890625 26.703125 6.890625 
Q 35.15625 6.890625 40.078125 11.328125 
Q 45.015625 15.765625 45.015625 23.390625 
Q 45.015625 31 40.078125 35.4375 
Q 35.15625 39.890625 26.703125 39.890625 
Q 22.75 39.890625 18.8125 39.015625 
Q 14.890625 38.140625 10.796875 36.28125 
z
" id="DejaVuSans-53"/>
      </defs>
      <g transform="translate(39.41 198.442433)scale(0.1 -0.1)">
       <use xlink:href="#DejaVuSans-53"/>
       <use x="63.623047" xlink:href="#DejaVuSans-48"/>
       <use x="127.246094" xlink:href="#DejaVuSans-48"/>
       <use x="190.869141" xlink:href="#DejaVuSans-48"/>
       <use x="254.492188" xlink:href="#DejaVuSans-48"/>
      </g>
     </g>
    </g>
    <g id="ytick_3">
     <g id="line2d_9">
      <g>
       <use style="stroke:#000000;stroke-width:0.8;" x="78.2225" xlink:href="#m0da455b47a" y="166.428929"/>
      </g>
     </g>
     <g id="text_4">
      <!-- 100000 -->
      <defs>
       <path d="M 12.40625 8.296875 
L 28.515625 8.296875 
L 28.515625 63.921875 
L 10.984375 60.40625 
L 10.984375 69.390625 
L 28.421875 72.90625 
L 38.28125 72.90625 
L 38.28125 8.296875 
L 54.390625 8.296875 
L 54.390625 0 
L 12.40625 0 
z
" id="DejaVuSans-49"/>
      </defs>
      <g transform="translate(33.0475 170.228147)scale(0.1 -0.1)">
       <use xlink:href="#DejaVuSans-49"/>
       <use x="63.623047" xlink:href="#DejaVuSans-48"/>
       <use x="127.246094" xlink:href="#DejaVuSans-48"/>
       <use x="190.869141" xlink:href="#DejaVuSans-48"/>
       <use x="254.492188" xlink:href="#DejaVuSans-48"/>
       <use x="318.115234" xlink:href="#DejaVuSans-48"/>
      </g>
     </g>
    </g>
    <g id="ytick_4">
     <g id="line2d_10">
      <g>
       <use style="stroke:#000000;stroke-width:0.8;" x="78.2225" xlink:href="#m0da455b47a" y="138.214643"/>
      </g>
     </g>
     <g id="text_5">
      <!-- 150000 -->
      <g transform="translate(33.0475 142.013862)scale(0.1 -0.1)">
       <use xlink:href="#DejaVuSans-49"/>
       <use x="63.623047" xlink:href="#DejaVuSans-53"/>
       <use x="127.246094" xlink:href="#DejaVuSans-48"/>
       <use x="190.869141" xlink:href="#DejaVuSans-48"/>
       <use x="254.492188" xlink:href="#DejaVuSans-48"/>
       <use x="318.115234" xlink:href="#DejaVuSans-48"/>
      </g>
     </g>
    </g>
    <g id="ytick_5">
     <g id="line2d_11">
      <g>
       <use style="stroke:#000000;stroke-width:0.8;" x="78.2225" xlink:href="#m0da455b47a" y="110.000357"/>
      </g>
     </g>
     <g id="text_6">
      <!-- 200000 -->
      <defs>
       <path d="M 19.1875 8.296875 
L 53.609375 8.296875 
L 53.609375 0 
L 7.328125 0 
L 7.328125 8.296875 
Q 12.9375 14.109375 22.625 23.890625 
Q 32.328125 33.6875 34.8125 36.53125 
Q 39.546875 41.84375 41.421875 45.53125 
Q 43.3125 49.21875 43.3125 52.78125 
Q 43.3125 58.59375 39.234375 62.25 
Q 35.15625 65.921875 28.609375 65.921875 
Q 23.96875 65.921875 18.8125 64.3125 
Q 13.671875 62.703125 7.8125 59.421875 
L 7.8125 69.390625 
Q 13.765625 71.78125 18.9375 73 
Q 24.125 74.21875 28.421875 74.21875 
Q 39.75 74.21875 46.484375 68.546875 
Q 53.21875 62.890625 53.21875 53.421875 
Q 53.21875 48.921875 51.53125 44.890625 
Q 49.859375 40.875 45.40625 35.40625 
Q 44.1875 33.984375 37.640625 27.21875 
Q 31.109375 20.453125 19.1875 8.296875 
z
" id="DejaVuSans-50"/>
      </defs>
      <g transform="translate(33.0475 113.799576)scale(0.1 -0.1)">
       <use xlink:href="#DejaVuSans-50"/>
       <use x="63.623047" xlink:href="#DejaVuSans-48"/>
       <use x="127.246094" xlink:href="#DejaVuSans-48"/>
       <use x="190.869141" xlink:href="#DejaVuSans-48"/>
       <use x="254.492188" xlink:href="#DejaVuSans-48"/>
       <use x="318.115234" xlink:href="#DejaVuSans-48"/>
      </g>
     </g>
    </g>
    <g id="ytick_6">
     <g id="line2d_12">
      <g>
       <use style="stroke:#000000;stroke-width:0.8;" x="78.2225" xlink:href="#m0da455b47a" y="81.786071"/>
      </g>
     </g>
     <g id="text_7">
      <!-- 250000 -->
      <g transform="translate(33.0475 85.58529)scale(0.1 -0.1)">
       <use xlink:href="#DejaVuSans-50"/>
       <use x="63.623047" xlink:href="#DejaVuSans-53"/>
       <use x="127.246094" xlink:href="#DejaVuSans-48"/>
       <use x="190.869141" xlink:href="#DejaVuSans-48"/>
       <use x="254.492188" xlink:href="#DejaVuSans-48"/>
       <use x="318.115234" xlink:href="#DejaVuSans-48"/>
      </g>
     </g>
    </g>
    <g id="ytick_7">
     <g id="line2d_13">
      <g>
       <use style="stroke:#000000;stroke-width:0.8;" x="78.2225" xlink:href="#m0da455b47a" y="53.571786"/>
      </g>
     </g>
     <g id="text_8">
      <!-- 300000 -->
      <defs>
       <path d="M 40.578125 39.3125 
Q 47.65625 37.796875 51.625 33 
Q 55.609375 28.21875 55.609375 21.1875 
Q 55.609375 10.40625 48.1875 4.484375 
Q 40.765625 -1.421875 27.09375 -1.421875 
Q 22.515625 -1.421875 17.65625 -0.515625 
Q 12.796875 0.390625 7.625 2.203125 
L 7.625 11.71875 
Q 11.71875 9.328125 16.59375 8.109375 
Q 21.484375 6.890625 26.8125 6.890625 
Q 36.078125 6.890625 40.9375 10.546875 
Q 45.796875 14.203125 45.796875 21.1875 
Q 45.796875 27.640625 41.28125 31.265625 
Q 36.765625 34.90625 28.71875 34.90625 
L 20.21875 34.90625 
L 20.21875 43.015625 
L 29.109375 43.015625 
Q 36.375 43.015625 40.234375 45.921875 
Q 44.09375 48.828125 44.09375 54.296875 
Q 44.09375 59.90625 40.109375 62.90625 
Q 36.140625 65.921875 28.71875 65.921875 
Q 24.65625 65.921875 20.015625 65.03125 
Q 15.375 64.15625 9.8125 62.3125 
L 9.8125 71.09375 
Q 15.4375 72.65625 20.34375 73.4375 
Q 25.25 74.21875 29.59375 74.21875 
Q 40.828125 74.21875 47.359375 69.109375 
Q 53.90625 64.015625 53.90625 55.328125 
Q 53.90625 49.265625 50.4375 45.09375 
Q 46.96875 40.921875 40.578125 39.3125 
z
" id="DejaVuSans-51"/>
      </defs>
      <g transform="translate(33.0475 57.371004)scale(0.1 -0.1)">
       <use xlink:href="#DejaVuSans-51"/>
       <use x="63.623047" xlink:href="#DejaVuSans-48"/>
       <use x="127.246094" xlink:href="#DejaVuSans-48"/>
       <use x="190.869141" xlink:href="#DejaVuSans-48"/>
       <use x="254.492188" xlink:href="#DejaVuSans-48"/>
       <use x="318.115234" xlink:href="#DejaVuSans-48"/>
      </g>
     </g>
    </g>
    <g id="ytick_8">
     <g id="line2d_14">
      <g>
       <use style="stroke:#000000;stroke-width:0.8;" x="78.2225" xlink:href="#m0da455b47a" y="25.3575"/>
      </g>
     </g>
     <g id="text_9">
      <!-- 350000 -->
      <g transform="translate(33.0475 29.156719)scale(0.1 -0.1)">
       <use xlink:href="#DejaVuSans-51"/>
       <use x="63.623047" xlink:href="#DejaVuSans-53"/>
       <use x="127.246094" xlink:href="#DejaVuSans-48"/>
       <use x="190.869141" xlink:href="#DejaVuSans-48"/>
       <use x="254.492188" xlink:href="#DejaVuSans-48"/>
       <use x="318.115234" xlink:href="#DejaVuSans-48"/>
      </g>
     </g>
    </g>
    <g id="text_10">
     <!-- # of bp -->
     <defs>
      <path d="M 51.125 44 
L 36.921875 44 
L 32.8125 27.6875 
L 47.125 27.6875 
z
M 43.796875 71.78125 
L 38.71875 51.515625 
L 52.984375 51.515625 
L 58.109375 71.78125 
L 65.921875 71.78125 
L 60.890625 51.515625 
L 76.125 51.515625 
L 76.125 44 
L 58.984375 44 
L 54.984375 27.6875 
L 70.515625 27.6875 
L 70.515625 20.21875 
L 53.078125 20.21875 
L 48 0 
L 40.1875 0 
L 45.21875 20.21875 
L 30.90625 20.21875 
L 25.875 0 
L 18.015625 0 
L 23.09375 20.21875 
L 7.71875 20.21875 
L 7.71875 27.6875 
L 24.90625 27.6875 
L 29 44 
L 13.28125 44 
L 13.28125 51.515625 
L 30.90625 51.515625 
L 35.890625 71.78125 
z
" id="DejaVuSans-35"/>
      <path id="DejaVuSans-32"/>
      <path d="M 37.109375 75.984375 
L 37.109375 68.5 
L 28.515625 68.5 
Q 23.6875 68.5 21.796875 66.546875 
Q 19.921875 64.59375 19.921875 59.515625 
L 19.921875 54.6875 
L 34.71875 54.6875 
L 34.71875 47.703125 
L 19.921875 47.703125 
L 19.921875 0 
L 10.890625 0 
L 10.890625 47.703125 
L 2.296875 47.703125 
L 2.296875 54.6875 
L 10.890625 54.6875 
L 10.890625 58.5 
Q 10.890625 67.625 15.140625 71.796875 
Q 19.390625 75.984375 28.609375 75.984375 
z
" id="DejaVuSans-102"/>
      <path d="M 48.6875 27.296875 
Q 48.6875 37.203125 44.609375 42.84375 
Q 40.53125 48.484375 33.40625 48.484375 
Q 26.265625 48.484375 22.1875 42.84375 
Q 18.109375 37.203125 18.109375 27.296875 
Q 18.109375 17.390625 22.1875 11.75 
Q 26.265625 6.109375 33.40625 6.109375 
Q 40.53125 6.109375 44.609375 11.75 
Q 48.6875 17.390625 48.6875 27.296875 
z
M 18.109375 46.390625 
Q 20.953125 51.265625 25.265625 53.625 
Q 29.59375 56 35.59375 56 
Q 45.5625 56 51.78125 48.09375 
Q 58.015625 40.1875 58.015625 27.296875 
Q 58.015625 14.40625 51.78125 6.484375 
Q 45.5625 -1.421875 35.59375 -1.421875 
Q 29.59375 -1.421875 25.265625 0.953125 
Q 20.953125 3.328125 18.109375 8.203125 
L 18.109375 0 
L 9.078125 0 
L 9.078125 75.984375 
L 18.109375 75.984375 
z
" id="DejaVuSans-98"/>
      <path d="M 18.109375 8.203125 
L 18.109375 -20.796875 
L 9.078125 -20.796875 
L 9.078125 54.6875 
L 18.109375 54.6875 
L 18.109375 46.390625 
Q 20.953125 51.265625 25.265625 53.625 
Q 29.59375 56 35.59375 56 
Q 45.5625 56 51.78125 48.09375 
Q 58.015625 40.1875 58.015625 27.296875 
Q 58.015625 14.40625 51.78125 6.484375 
Q 45.5625 -1.421875 35.59375 -1.421875 
Q 29.59375 -1.421875 25.265625 0.953125 
Q 20.953125 3.328125 18.109375 8.203125 
z
M 48.6875 27.296875 
Q 48.6875 37.203125 44.609375 42.84375 
Q 40.53125 48.484375 33.40625 48.484375 
Q 26.265625 48.484375 22.1875 42.84375 
Q 18.109375 37.203125 18.109375 27.296875 
Q 18.109375 17.390625 22.1875 11.75 
Q 26.265625 6.109375 33.40625 6.109375 
Q 40.53125 6.109375 44.609375 11.75 
Q 48.6875 17.390625 48.6875 27.296875 
z
" id="DejaVuSans-112"/>
     </defs>
     <g transform="translate(25.72 153.765)rotate(-90)scale(0.16 -0.16)">
      <use xlink:href="#DejaVuSans-35"/>
      <use x="83.789062" xlink:href="#DejaVuSans-32"/>
      <use x="115.576172" xlink:href="#DejaVuSans-111"/>
      <use x="176.757812" xlink:href="#DejaVuSans-102"/>
      <use x="211.962891" xlink:href="#DejaVuSans-32"/>
      <use x="243.75" xlink:href="#DejaVuSans-98"/>
      <use x="307.226562" xlink:href="#DejaVuSans-112"/>
     </g>
    </g>
   </g>
   <g id="patch_83">
    <path d="M 78.2225 222.8575 
L 78.2225 25.3575 
" style="fill:none;stroke:#000000;stroke-linecap:square;stroke-linejoin:miter;stroke-width:0.8;"/>
   </g>
   <g id="patch_84">
    <path d="M 811.2225 222.8575 
L 811.2225 25.3575 
" style="fill:none;stroke:#000000;stroke-linecap:square;stroke-linejoin:miter;stroke-width:0.8;"/>
   </g>
   <g id="patch_85">
    <path d="M 78.2225 222.8575 
L 811.2225 222.8575 
" style="fill:none;stroke:#000000;stroke-linecap:square;stroke-linejoin:miter;stroke-width:0.8;"/>
   </g>
   <g id="patch_86">
    <path d="M 78.2225 25.3575 
L 811.2225 25.3575 
" style="fill:none;stroke:#000000;stroke-linecap:square;stroke-linejoin:miter;stroke-width:0.8;"/>
   </g>
   <g id="text_11">
    <!-- PLC Regions (469,501 bp) -->
    <defs>
     <path d="M 19.671875 64.796875 
L 19.671875 37.40625 
L 32.078125 37.40625 
Q 38.96875 37.40625 42.71875 40.96875 
Q 46.484375 44.53125 46.484375 51.125 
Q 46.484375 57.671875 42.71875 61.234375 
Q 38.96875 64.796875 32.078125 64.796875 
z
M 9.8125 72.90625 
L 32.078125 72.90625 
Q 44.34375 72.90625 50.609375 67.359375 
Q 56.890625 61.8125 56.890625 51.125 
Q 56.890625 40.328125 50.609375 34.8125 
Q 44.34375 29.296875 32.078125 29.296875 
L 19.671875 29.296875 
L 19.671875 0 
L 9.8125 0 
z
" id="DejaVuSans-80"/>
     <path d="M 9.8125 72.90625 
L 19.671875 72.90625 
L 19.671875 8.296875 
L 55.171875 8.296875 
L 55.171875 0 
L 9.8125 0 
z
" id="DejaVuSans-76"/>
     <path d="M 64.40625 67.28125 
L 64.40625 56.890625 
Q 59.421875 61.53125 53.78125 63.8125 
Q 48.140625 66.109375 41.796875 66.109375 
Q 29.296875 66.109375 22.65625 58.46875 
Q 16.015625 50.828125 16.015625 36.375 
Q 16.015625 21.96875 22.65625 14.328125 
Q 29.296875 6.6875 41.796875 6.6875 
Q 48.140625 6.6875 53.78125 8.984375 
Q 59.421875 11.28125 64.40625 15.921875 
L 64.40625 5.609375 
Q 59.234375 2.09375 53.4375 0.328125 
Q 47.65625 -1.421875 41.21875 -1.421875 
Q 24.65625 -1.421875 15.125 8.703125 
Q 5.609375 18.84375 5.609375 36.375 
Q 5.609375 53.953125 15.125 64.078125 
Q 24.65625 74.21875 41.21875 74.21875 
Q 47.75 74.21875 53.53125 72.484375 
Q 59.328125 70.75 64.40625 67.28125 
z
" id="DejaVuSans-67"/>
     <path d="M 44.390625 34.1875 
Q 47.5625 33.109375 50.5625 29.59375 
Q 53.5625 26.078125 56.59375 19.921875 
L 66.609375 0 
L 56 0 
L 46.6875 18.703125 
Q 43.0625 26.03125 39.671875 28.421875 
Q 36.28125 30.8125 30.421875 30.8125 
L 19.671875 30.8125 
L 19.671875 0 
L 9.8125 0 
L 9.8125 72.90625 
L 32.078125 72.90625 
Q 44.578125 72.90625 50.734375 67.671875 
Q 56.890625 62.453125 56.890625 51.90625 
Q 56.890625 45.015625 53.6875 40.46875 
Q 50.484375 35.9375 44.390625 34.1875 
z
M 19.671875 64.796875 
L 19.671875 38.921875 
L 32.078125 38.921875 
Q 39.203125 38.921875 42.84375 42.21875 
Q 46.484375 45.515625 46.484375 51.90625 
Q 46.484375 58.296875 42.84375 61.546875 
Q 39.203125 64.796875 32.078125 64.796875 
z
" id="DejaVuSans-82"/>
     <path d="M 45.40625 27.984375 
Q 45.40625 37.75 41.375 43.109375 
Q 37.359375 48.484375 30.078125 48.484375 
Q 22.859375 48.484375 18.828125 43.109375 
Q 14.796875 37.75 14.796875 27.984375 
Q 14.796875 18.265625 18.828125 12.890625 
Q 22.859375 7.515625 30.078125 7.515625 
Q 37.359375 7.515625 41.375 12.890625 
Q 45.40625 18.265625 45.40625 27.984375 
z
M 54.390625 6.78125 
Q 54.390625 -7.171875 48.1875 -13.984375 
Q 42 -20.796875 29.203125 -20.796875 
Q 24.46875 -20.796875 20.265625 -20.09375 
Q 16.0625 -19.390625 12.109375 -17.921875 
L 12.109375 -9.1875 
Q 16.0625 -11.328125 19.921875 -12.34375 
Q 23.78125 -13.375 27.78125 -13.375 
Q 36.625 -13.375 41.015625 -8.765625 
Q 45.40625 -4.15625 45.40625 5.171875 
L 45.40625 9.625 
Q 42.625 4.78125 38.28125 2.390625 
Q 33.9375 0 27.875 0 
Q 17.828125 0 11.671875 7.65625 
Q 5.515625 15.328125 5.515625 27.984375 
Q 5.515625 40.671875 11.671875 48.328125 
Q 17.828125 56 27.875 56 
Q 33.9375 56 38.28125 53.609375 
Q 42.625 51.21875 45.40625 46.390625 
L 45.40625 54.6875 
L 54.390625 54.6875 
z
" id="DejaVuSans-103"/>
     <path d="M 9.421875 54.6875 
L 18.40625 54.6875 
L 18.40625 0 
L 9.421875 0 
z
M 9.421875 75.984375 
L 18.40625 75.984375 
L 18.40625 64.59375 
L 9.421875 64.59375 
z
" id="DejaVuSans-105"/>
     <path d="M 54.890625 33.015625 
L 54.890625 0 
L 45.90625 0 
L 45.90625 32.71875 
Q 45.90625 40.484375 42.875 44.328125 
Q 39.84375 48.1875 33.796875 48.1875 
Q 26.515625 48.1875 22.3125 43.546875 
Q 18.109375 38.921875 18.109375 30.90625 
L 18.109375 0 
L 9.078125 0 
L 9.078125 54.6875 
L 18.109375 54.6875 
L 18.109375 46.1875 
Q 21.34375 51.125 25.703125 53.5625 
Q 30.078125 56 35.796875 56 
Q 45.21875 56 50.046875 50.171875 
Q 54.890625 44.34375 54.890625 33.015625 
z
" id="DejaVuSans-110"/>
     <path d="M 44.28125 53.078125 
L 44.28125 44.578125 
Q 40.484375 46.53125 36.375 47.5 
Q 32.28125 48.484375 27.875 48.484375 
Q 21.1875 48.484375 17.84375 46.4375 
Q 14.5 44.390625 14.5 40.28125 
Q 14.5 37.15625 16.890625 35.375 
Q 19.28125 33.59375 26.515625 31.984375 
L 29.59375 31.296875 
Q 39.15625 29.25 43.1875 25.515625 
Q 47.21875 21.78125 47.21875 15.09375 
Q 47.21875 7.46875 41.1875 3.015625 
Q 35.15625 -1.421875 24.609375 -1.421875 
Q 20.21875 -1.421875 15.453125 -0.5625 
Q 10.6875 0.296875 5.421875 2 
L 5.421875 11.28125 
Q 10.40625 8.6875 15.234375 7.390625 
Q 20.0625 6.109375 24.8125 6.109375 
Q 31.15625 6.109375 34.5625 8.28125 
Q 37.984375 10.453125 37.984375 14.40625 
Q 37.984375 18.0625 35.515625 20.015625 
Q 33.0625 21.96875 24.703125 23.78125 
L 21.578125 24.515625 
Q 13.234375 26.265625 9.515625 29.90625 
Q 5.8125 33.546875 5.8125 39.890625 
Q 5.8125 47.609375 11.28125 51.796875 
Q 16.75 56 26.8125 56 
Q 31.78125 56 36.171875 55.265625 
Q 40.578125 54.546875 44.28125 53.078125 
z
" id="DejaVuSans-115"/>
     <path d="M 31 75.875 
Q 24.46875 64.65625 21.28125 53.65625 
Q 18.109375 42.671875 18.109375 31.390625 
Q 18.109375 20.125 21.3125 9.0625 
Q 24.515625 -2 31 -13.1875 
L 23.1875 -13.1875 
Q 15.875 -1.703125 12.234375 9.375 
Q 8.59375 20.453125 8.59375 31.390625 
Q 8.59375 42.28125 12.203125 53.3125 
Q 15.828125 64.359375 23.1875 75.875 
z
" id="DejaVuSans-40"/>
     <path d="M 37.796875 64.3125 
L 12.890625 25.390625 
L 37.796875 25.390625 
z
M 35.203125 72.90625 
L 47.609375 72.90625 
L 47.609375 25.390625 
L 58.015625 25.390625 
L 58.015625 17.1875 
L 47.609375 17.1875 
L 47.609375 0 
L 37.796875 0 
L 37.796875 17.1875 
L 4.890625 17.1875 
L 4.890625 26.703125 
z
" id="DejaVuSans-52"/>
     <path d="M 33.015625 40.375 
Q 26.375 40.375 22.484375 35.828125 
Q 18.609375 31.296875 18.609375 23.390625 
Q 18.609375 15.53125 22.484375 10.953125 
Q 26.375 6.390625 33.015625 6.390625 
Q 39.65625 6.390625 43.53125 10.953125 
Q 47.40625 15.53125 47.40625 23.390625 
Q 47.40625 31.296875 43.53125 35.828125 
Q 39.65625 40.375 33.015625 40.375 
z
M 52.59375 71.296875 
L 52.59375 62.3125 
Q 48.875 64.0625 45.09375 64.984375 
Q 41.3125 65.921875 37.59375 65.921875 
Q 27.828125 65.921875 22.671875 59.328125 
Q 17.53125 52.734375 16.796875 39.40625 
Q 19.671875 43.65625 24.015625 45.921875 
Q 28.375 48.1875 33.59375 48.1875 
Q 44.578125 48.1875 50.953125 41.515625 
Q 57.328125 34.859375 57.328125 23.390625 
Q 57.328125 12.15625 50.6875 5.359375 
Q 44.046875 -1.421875 33.015625 -1.421875 
Q 20.359375 -1.421875 13.671875 8.265625 
Q 6.984375 17.96875 6.984375 36.375 
Q 6.984375 53.65625 15.1875 63.9375 
Q 23.390625 74.21875 37.203125 74.21875 
Q 40.921875 74.21875 44.703125 73.484375 
Q 48.484375 72.75 52.59375 71.296875 
z
" id="DejaVuSans-54"/>
     <path d="M 10.984375 1.515625 
L 10.984375 10.5 
Q 14.703125 8.734375 18.5 7.8125 
Q 22.3125 6.890625 25.984375 6.890625 
Q 35.75 6.890625 40.890625 13.453125 
Q 46.046875 20.015625 46.78125 33.40625 
Q 43.953125 29.203125 39.59375 26.953125 
Q 35.25 24.703125 29.984375 24.703125 
Q 19.046875 24.703125 12.671875 31.3125 
Q 6.296875 37.9375 6.296875 49.421875 
Q 6.296875 60.640625 12.9375 67.421875 
Q 19.578125 74.21875 30.609375 74.21875 
Q 43.265625 74.21875 49.921875 64.515625 
Q 56.59375 54.828125 56.59375 36.375 
Q 56.59375 19.140625 48.40625 8.859375 
Q 40.234375 -1.421875 26.421875 -1.421875 
Q 22.703125 -1.421875 18.890625 -0.6875 
Q 15.09375 0.046875 10.984375 1.515625 
z
M 30.609375 32.421875 
Q 37.25 32.421875 41.125 36.953125 
Q 45.015625 41.5 45.015625 49.421875 
Q 45.015625 57.28125 41.125 61.84375 
Q 37.25 66.40625 30.609375 66.40625 
Q 23.96875 66.40625 20.09375 61.84375 
Q 16.21875 57.28125 16.21875 49.421875 
Q 16.21875 41.5 20.09375 36.953125 
Q 23.96875 32.421875 30.609375 32.421875 
z
" id="DejaVuSans-57"/>
     <path d="M 11.71875 12.40625 
L 22.015625 12.40625 
L 22.015625 4 
L 14.015625 -11.625 
L 7.71875 -11.625 
L 11.71875 4 
z
" id="DejaVuSans-44"/>
     <path d="M 8.015625 75.875 
L 15.828125 75.875 
Q 23.140625 64.359375 26.78125 53.3125 
Q 30.421875 42.28125 30.421875 31.390625 
Q 30.421875 20.453125 26.78125 9.375 
Q 23.140625 -1.703125 15.828125 -13.1875 
L 8.015625 -13.1875 
Q 14.5 -2 17.703125 9.0625 
Q 20.90625 20.125 20.90625 31.390625 
Q 20.90625 42.671875 17.703125 53.65625 
Q 14.5 64.65625 8.015625 75.875 
z
" id="DejaVuSans-41"/>
    </defs>
    <g transform="translate(340.835 19.3575)scale(0.16 -0.16)">
     <use xlink:href="#DejaVuSans-80"/>
     <use x="60.302734" xlink:href="#DejaVuSans-76"/>
     <use x="116.015625" xlink:href="#DejaVuSans-67"/>
     <use x="185.839844" xlink:href="#DejaVuSans-32"/>
     <use x="217.626953" xlink:href="#DejaVuSans-82"/>
     <use x="287.046875" xlink:href="#DejaVuSans-101"/>
     <use x="348.570312" xlink:href="#DejaVuSans-103"/>
     <use x="412.046875" xlink:href="#DejaVuSans-105"/>
     <use x="439.830078" xlink:href="#DejaVuSans-111"/>
     <use x="501.011719" xlink:href="#DejaVuSans-110"/>
     <use x="564.390625" xlink:href="#DejaVuSans-115"/>
     <use x="616.490234" xlink:href="#DejaVuSans-32"/>
     <use x="648.277344" xlink:href="#DejaVuSans-40"/>
     <use x="687.291016" xlink:href="#DejaVuSans-52"/>
     <use x="750.914062" xlink:href="#DejaVuSans-54"/>
     <use x="814.537109" xlink:href="#DejaVuSans-57"/>
     <use x="878.160156" xlink:href="#DejaVuSans-44"/>
     <use x="909.947266" xlink:href="#DejaVuSans-53"/>
     <use x="973.570312" xlink:href="#DejaVuSans-48"/>
     <use x="1037.193359" xlink:href="#DejaVuSans-49"/>
     <use x="1100.816406" xlink:href="#DejaVuSans-32"/>
     <use x="1132.603516" xlink:href="#DejaVuSans-98"/>
     <use x="1196.080078" xlink:href="#DejaVuSans-112"/>
     <use x="1259.556641" xlink:href="#DejaVuSans-41"/>
    </g>
   </g>
   <g id="legend_1">
    <g id="patch_87">
     <path d="M 85.2225 62.71375 
L 145.469375 62.71375 
Q 147.469375 62.71375 147.469375 60.71375 
L 147.469375 32.3575 
Q 147.469375 30.3575 145.469375 30.3575 
L 85.2225 30.3575 
Q 83.2225 30.3575 83.2225 32.3575 
L 83.2225 60.71375 
Q 83.2225 62.71375 85.2225 62.71375 
z
" style="fill:#ffffff;opacity:0.8;stroke:#cccccc;stroke-linejoin:miter;"/>
    </g>
    <g id="patch_88">
     <path d="M 87.2225 41.955938 
L 107.2225 41.955938 
L 107.2225 34.955938 
L 87.2225 34.955938 
z
" style="fill:#1f77b4;"/>
    </g>
    <g id="text_12">
     <!-- EBR -->
     <defs>
      <path d="M 9.8125 72.90625 
L 55.90625 72.90625 
L 55.90625 64.59375 
L 19.671875 64.59375 
L 19.671875 43.015625 
L 54.390625 43.015625 
L 54.390625 34.71875 
L 19.671875 34.71875 
L 19.671875 8.296875 
L 56.78125 8.296875 
L 56.78125 0 
L 9.8125 0 
z
" id="DejaVuSans-69"/>
      <path d="M 19.671875 34.8125 
L 19.671875 8.109375 
L 35.5 8.109375 
Q 43.453125 8.109375 47.28125 11.40625 
Q 51.125 14.703125 51.125 21.484375 
Q 51.125 28.328125 47.28125 31.5625 
Q 43.453125 34.8125 35.5 34.8125 
z
M 19.671875 64.796875 
L 19.671875 42.828125 
L 34.28125 42.828125 
Q 41.5 42.828125 45.03125 45.53125 
Q 48.578125 48.25 48.578125 53.8125 
Q 48.578125 59.328125 45.03125 62.0625 
Q 41.5 64.796875 34.28125 64.796875 
z
M 9.8125 72.90625 
L 35.015625 72.90625 
Q 46.296875 72.90625 52.390625 68.21875 
Q 58.5 63.53125 58.5 54.890625 
Q 58.5 48.1875 55.375 44.234375 
Q 52.25 40.28125 46.1875 39.3125 
Q 53.46875 37.75 57.5 32.78125 
Q 61.53125 27.828125 61.53125 20.40625 
Q 61.53125 10.640625 54.890625 5.3125 
Q 48.25 0 35.984375 0 
L 9.8125 0 
z
" id="DejaVuSans-66"/>
     </defs>
     <g transform="translate(115.2225 41.955938)scale(0.1 -0.1)">
      <use xlink:href="#DejaVuSans-69"/>
      <use x="63.183594" xlink:href="#DejaVuSans-66"/>
      <use x="131.787109" xlink:href="#DejaVuSans-82"/>
     </g>
    </g>
    <g id="patch_89">
     <path d="M 87.2225 56.634063 
L 107.2225 56.634063 
L 107.2225 49.634063 
L 87.2225 49.634063 
z
" style="fill:#d58540;"/>
    </g>
    <g id="text_13">
     <!-- Pmap -->
     <defs>
      <path d="M 52 44.1875 
Q 55.375 50.25 60.0625 53.125 
Q 64.75 56 71.09375 56 
Q 79.640625 56 84.28125 50.015625 
Q 88.921875 44.046875 88.921875 33.015625 
L 88.921875 0 
L 79.890625 0 
L 79.890625 32.71875 
Q 79.890625 40.578125 77.09375 44.375 
Q 74.3125 48.1875 68.609375 48.1875 
Q 61.625 48.1875 57.5625 43.546875 
Q 53.515625 38.921875 53.515625 30.90625 
L 53.515625 0 
L 44.484375 0 
L 44.484375 32.71875 
Q 44.484375 40.625 41.703125 44.40625 
Q 38.921875 48.1875 33.109375 48.1875 
Q 26.21875 48.1875 22.15625 43.53125 
Q 18.109375 38.875 18.109375 30.90625 
L 18.109375 0 
L 9.078125 0 
L 9.078125 54.6875 
L 18.109375 54.6875 
L 18.109375 46.1875 
Q 21.1875 51.21875 25.484375 53.609375 
Q 29.78125 56 35.6875 56 
Q 41.65625 56 45.828125 52.96875 
Q 50 49.953125 52 44.1875 
z
" id="DejaVuSans-109"/>
      <path d="M 34.28125 27.484375 
Q 23.390625 27.484375 19.1875 25 
Q 14.984375 22.515625 14.984375 16.5 
Q 14.984375 11.71875 18.140625 8.90625 
Q 21.296875 6.109375 26.703125 6.109375 
Q 34.1875 6.109375 38.703125 11.40625 
Q 43.21875 16.703125 43.21875 25.484375 
L 43.21875 27.484375 
z
M 52.203125 31.203125 
L 52.203125 0 
L 43.21875 0 
L 43.21875 8.296875 
Q 40.140625 3.328125 35.546875 0.953125 
Q 30.953125 -1.421875 24.3125 -1.421875 
Q 15.921875 -1.421875 10.953125 3.296875 
Q 6 8.015625 6 15.921875 
Q 6 25.140625 12.171875 29.828125 
Q 18.359375 34.515625 30.609375 34.515625 
L 43.21875 34.515625 
L 43.21875 35.40625 
Q 43.21875 41.609375 39.140625 45 
Q 35.0625 48.390625 27.6875 48.390625 
Q 23 48.390625 18.546875 47.265625 
Q 14.109375 46.140625 10.015625 43.890625 
L 10.015625 52.203125 
Q 14.9375 54.109375 19.578125 55.046875 
Q 24.21875 56 28.609375 56 
Q 40.484375 56 46.34375 49.84375 
Q 52.203125 43.703125 52.203125 31.203125 
z
" id="DejaVuSans-97"/>
     </defs>
     <g transform="translate(115.2225 56.634063)scale(0.1 -0.1)">
      <use xlink:href="#DejaVuSans-80"/>
      <use x="60.302734" xlink:href="#DejaVuSans-109"/>
      <use x="157.714844" xlink:href="#DejaVuSans-97"/>
      <use x="218.994141" xlink:href="#DejaVuSans-112"/>
     </g>
    </g>
   </g>
  </g>
  <g id="axes_2">
   <g id="patch_90">
    <path d="M 78.2225 480.3575 
L 811.2225 480.3575 
L 811.2225 282.8575 
L 78.2225 282.8575 
z
" style="fill:#ffffff;"/>
   </g>
   <g id="patch_91">
    <path clip-path="url(#pfe0dd2b73b)" d="M 79.967738 480.3575 
L 86.94869 480.3575 
L 86.94869 480.356759 
L 79.967738 480.356759 
z
" style="fill:#1f77b4;"/>
   </g>
   <g id="patch_92">
    <path clip-path="url(#pfe0dd2b73b)" d="M 97.420119 480.3575 
L 104.401071 480.3575 
L 104.401071 480.353747 
L 97.420119 480.353747 
z
" style="fill:#1f77b4;"/>
   </g>
   <g id="patch_93">
    <path clip-path="url(#pfe0dd2b73b)" d="M 114.8725 480.3575 
L 121.853452 480.3575 
L 121.853452 480.33775 
L 114.8725 480.33775 
z
" style="fill:#1f77b4;"/>
   </g>
   <g id="patch_94">
    <path clip-path="url(#pfe0dd2b73b)" d="M 132.324881 480.3575 
L 139.305833 480.3575 
L 139.305833 480.351624 
L 132.324881 480.351624 
z
" style="fill:#1f77b4;"/>
   </g>
   <g id="patch_95">
    <path clip-path="url(#pfe0dd2b73b)" d="M 149.777262 480.3575 
L 156.758214 480.3575 
L 156.758214 480.35276 
L 149.777262 480.35276 
z
" style="fill:#1f77b4;"/>
   </g>
   <g id="patch_96">
    <path clip-path="url(#pfe0dd2b73b)" d="M 167.229643 480.3575 
L 174.210595 480.3575 
L 174.210595 480.351822 
L 167.229643 480.351822 
z
" style="fill:#1f77b4;"/>
   </g>
   <g id="patch_97">
    <path clip-path="url(#pfe0dd2b73b)" d="M 184.682024 480.3575 
L 191.662976 480.3575 
L 191.662976 480.354883 
L 184.682024 480.354883 
z
" style="fill:#1f77b4;"/>
   </g>
   <g id="patch_98">
    <path clip-path="url(#pfe0dd2b73b)" d="M 202.134405 480.3575 
L 209.115357 480.3575 
L 209.115357 480.353056 
L 202.134405 480.353056 
z
" style="fill:#1f77b4;"/>
   </g>
   <g id="patch_99">
    <path clip-path="url(#pfe0dd2b73b)" d="M 219.586786 480.3575 
L 226.567738 480.3575 
L 226.567738 480.354834 
L 219.586786 480.354834 
z
" style="fill:#1f77b4;"/>
   </g>
   <g id="patch_100">
    <path clip-path="url(#pfe0dd2b73b)" d="M 237.039167 480.3575 
L 244.020119 480.3575 
L 244.020119 480.356611 
L 237.039167 480.356611 
z
" style="fill:#1f77b4;"/>
   </g>
   <g id="patch_101">
    <path clip-path="url(#pfe0dd2b73b)" d="M 254.491548 480.3575 
L 261.4725 480.3575 
L 261.4725 480.354044 
L 254.491548 480.354044 
z
" style="fill:#1f77b4;"/>
   </g>
   <g id="patch_102">
    <path clip-path="url(#pfe0dd2b73b)" d="M 271.943929 480.3575 
L 278.924881 480.3575 
L 278.924881 480.356118 
L 271.943929 480.356118 
z
" style="fill:#1f77b4;"/>
   </g>
   <g id="patch_103">
    <path clip-path="url(#pfe0dd2b73b)" d="M 289.39631 480.3575 
L 296.377262 480.3575 
L 296.377262 480.355723 
L 289.39631 480.355723 
z
" style="fill:#1f77b4;"/>
   </g>
   <g id="patch_104">
    <path clip-path="url(#pfe0dd2b73b)" d="M 306.84869 480.3575 
L 313.829643 480.3575 
L 313.829643 480.355031 
L 306.84869 480.355031 
z
" style="fill:#1f77b4;"/>
   </g>
   <g id="patch_105">
    <path clip-path="url(#pfe0dd2b73b)" d="M 324.301071 480.3575 
L 331.282024 480.3575 
L 331.282024 480.353599 
L 324.301071 480.353599 
z
" style="fill:#1f77b4;"/>
   </g>
   <g id="patch_106">
    <path clip-path="url(#pfe0dd2b73b)" d="M 341.753452 480.3575 
L 348.734405 480.3575 
L 348.734405 480.355328 
L 341.753452 480.355328 
z
" style="fill:#1f77b4;"/>
   </g>
   <g id="patch_107">
    <path clip-path="url(#pfe0dd2b73b)" d="M 359.205833 480.3575 
L 366.186786 480.3575 
L 366.186786 480.355525 
L 359.205833 480.355525 
z
" style="fill:#1f77b4;"/>
   </g>
   <g id="patch_108">
    <path clip-path="url(#pfe0dd2b73b)" d="M 376.658214 480.3575 
L 383.639167 480.3575 
L 383.639167 480.355229 
L 376.658214 480.355229 
z
" style="fill:#1f77b4;"/>
   </g>
   <g id="patch_109">
    <path clip-path="url(#pfe0dd2b73b)" d="M 394.110595 480.3575 
L 401.091548 480.3575 
L 401.091548 480.354587 
L 394.110595 480.354587 
z
" style="fill:#1f77b4;"/>
   </g>
   <g id="patch_110">
    <path clip-path="url(#pfe0dd2b73b)" d="M 411.562976 480.3575 
L 418.543929 480.3575 
L 418.543929 480.357451 
L 411.562976 480.357451 
z
" style="fill:#1f77b4;"/>
   </g>
   <g id="patch_111">
    <path clip-path="url(#pfe0dd2b73b)" d="M 429.015357 480.3575 
L 435.99631 480.3575 
L 435.99631 480.342638 
L 429.015357 480.342638 
z
" style="fill:#1f77b4;"/>
   </g>
   <g id="patch_112">
    <path clip-path="url(#pfe0dd2b73b)" d="M 446.467738 480.3575 
L 453.44869 480.3575 
L 453.44869 480.356216 
L 446.467738 480.356216 
z
" style="fill:#1f77b4;"/>
   </g>
   <g id="patch_113">
    <path clip-path="url(#pfe0dd2b73b)" d="M 463.920119 480.3575 
L 470.901071 480.3575 
L 470.901071 480.3496 
L 463.920119 480.3496 
z
" style="fill:#1f77b4;"/>
   </g>
   <g id="patch_114">
    <path clip-path="url(#pfe0dd2b73b)" d="M 481.3725 480.3575 
L 488.353452 480.3575 
L 488.353452 480.353747 
L 481.3725 480.353747 
z
" style="fill:#1f77b4;"/>
   </g>
   <g id="patch_115">
    <path clip-path="url(#pfe0dd2b73b)" d="M 498.824881 480.3575 
L 505.805833 480.3575 
L 505.805833 480.348119 
L 498.824881 480.348119 
z
" style="fill:#1f77b4;"/>
   </g>
   <g id="patch_116">
    <path clip-path="url(#pfe0dd2b73b)" d="M 516.277262 480.3575 
L 523.258214 480.3575 
L 523.258214 480.342441 
L 516.277262 480.342441 
z
" style="fill:#1f77b4;"/>
   </g>
   <g id="patch_117">
    <path clip-path="url(#pfe0dd2b73b)" d="M 533.729643 480.3575 
L 540.710595 480.3575 
L 540.710595 480.327826 
L 533.729643 480.327826 
z
" style="fill:#1f77b4;"/>
   </g>
   <g id="patch_118">
    <path clip-path="url(#pfe0dd2b73b)" d="M 551.182024 480.3575 
L 558.162976 480.3575 
L 558.162976 480.334639 
L 551.182024 480.334639 
z
" style="fill:#1f77b4;"/>
   </g>
   <g id="patch_119">
    <path clip-path="url(#pfe0dd2b73b)" d="M 568.634405 480.3575 
L 575.615357 480.3575 
L 575.615357 480.336664 
L 568.634405 480.336664 
z
" style="fill:#1f77b4;"/>
   </g>
   <g id="patch_120">
    <path clip-path="url(#pfe0dd2b73b)" d="M 586.086786 480.3575 
L 593.067738 480.3575 
L 593.067738 480.338343 
L 586.086786 480.338343 
z
" style="fill:#1f77b4;"/>
   </g>
   <g id="patch_121">
    <path clip-path="url(#pfe0dd2b73b)" d="M 603.539167 480.3575 
L 610.520119 480.3575 
L 610.520119 480.28482 
L 603.539167 480.28482 
z
" style="fill:#1f77b4;"/>
   </g>
   <g id="patch_122">
    <path clip-path="url(#pfe0dd2b73b)" d="M 620.991548 480.3575 
L 627.9725 480.3575 
L 627.9725 480.316272 
L 620.991548 480.316272 
z
" style="fill:#1f77b4;"/>
   </g>
   <g id="patch_123">
    <path clip-path="url(#pfe0dd2b73b)" d="M 638.443929 480.3575 
L 645.424881 480.3575 
L 645.424881 480.294399 
L 638.443929 480.294399 
z
" style="fill:#1f77b4;"/>
   </g>
   <g id="patch_124">
    <path clip-path="url(#pfe0dd2b73b)" d="M 655.89631 480.3575 
L 662.877262 480.3575 
L 662.877262 480.146619 
L 655.89631 480.146619 
z
" style="fill:#1f77b4;"/>
   </g>
   <g id="patch_125">
    <path clip-path="url(#pfe0dd2b73b)" d="M 673.34869 480.3575 
L 680.329643 480.3575 
L 680.329643 480.265811 
L 673.34869 480.265811 
z
" style="fill:#1f77b4;"/>
   </g>
   <g id="patch_126">
    <path clip-path="url(#pfe0dd2b73b)" d="M 690.801071 480.3575 
L 697.782024 480.3575 
L 697.782024 480.261959 
L 690.801071 480.261959 
z
" style="fill:#1f77b4;"/>
   </g>
   <g id="patch_127">
    <path clip-path="url(#pfe0dd2b73b)" d="M 708.253452 480.3575 
L 715.234405 480.3575 
L 715.234405 480.172887 
L 708.253452 480.172887 
z
" style="fill:#1f77b4;"/>
   </g>
   <g id="patch_128">
    <path clip-path="url(#pfe0dd2b73b)" d="M 725.705833 480.3575 
L 732.686786 480.3575 
L 732.686786 480.012764 
L 725.705833 480.012764 
z
" style="fill:#1f77b4;"/>
   </g>
   <g id="patch_129">
    <path clip-path="url(#pfe0dd2b73b)" d="M 743.158214 480.3575 
L 750.139167 480.3575 
L 750.139167 477.091048 
L 743.158214 477.091048 
z
" style="fill:#1f77b4;"/>
   </g>
   <g id="patch_130">
    <path clip-path="url(#pfe0dd2b73b)" d="M 760.610595 480.3575 
L 767.591548 480.3575 
L 767.591548 290.393952 
L 760.610595 290.393952 
z
" style="fill:#1f77b4;"/>
   </g>
   <g id="patch_131">
    <path clip-path="url(#pfe0dd2b73b)" d="M 86.94869 480.3575 
L 93.929643 480.3575 
L 93.929643 480.3575 
L 86.94869 480.3575 
z
" style="fill:#d58540;"/>
   </g>
   <g id="patch_132">
    <path clip-path="url(#pfe0dd2b73b)" d="M 104.401071 480.3575 
L 111.382024 480.3575 
L 111.382024 480.3575 
L 104.401071 480.3575 
z
" style="fill:#d58540;"/>
   </g>
   <g id="patch_133">
    <path clip-path="url(#pfe0dd2b73b)" d="M 121.853452 480.3575 
L 128.834405 480.3575 
L 128.834405 480.348958 
L 121.853452 480.348958 
z
" style="fill:#d58540;"/>
   </g>
   <g id="patch_134">
    <path clip-path="url(#pfe0dd2b73b)" d="M 139.305833 480.3575 
L 146.286786 480.3575 
L 146.286786 480.354587 
L 139.305833 480.354587 
z
" style="fill:#d58540;"/>
   </g>
   <g id="patch_135">
    <path clip-path="url(#pfe0dd2b73b)" d="M 156.758214 480.3575 
L 163.739167 480.3575 
L 163.739167 480.355377 
L 156.758214 480.355377 
z
" style="fill:#d58540;"/>
   </g>
   <g id="patch_136">
    <path clip-path="url(#pfe0dd2b73b)" d="M 174.210595 480.3575 
L 181.191548 480.3575 
L 181.191548 480.355278 
L 174.210595 480.355278 
z
" style="fill:#d58540;"/>
   </g>
   <g id="patch_137">
    <path clip-path="url(#pfe0dd2b73b)" d="M 191.662976 480.3575 
L 198.643929 480.3575 
L 198.643929 480.327085 
L 191.662976 480.327085 
z
" style="fill:#d58540;"/>
   </g>
   <g id="patch_138">
    <path clip-path="url(#pfe0dd2b73b)" d="M 209.115357 480.3575 
L 216.09631 480.3575 
L 216.09631 480.332269 
L 209.115357 480.332269 
z
" style="fill:#d58540;"/>
   </g>
   <g id="patch_139">
    <path clip-path="url(#pfe0dd2b73b)" d="M 226.567738 480.3575 
L 233.54869 480.3575 
L 233.54869 480.353106 
L 226.567738 480.353106 
z
" style="fill:#d58540;"/>
   </g>
   <g id="patch_140">
    <path clip-path="url(#pfe0dd2b73b)" d="M 244.020119 480.3575 
L 251.001071 480.3575 
L 251.001071 480.341996 
L 244.020119 480.341996 
z
" style="fill:#d58540;"/>
   </g>
   <g id="patch_141">
    <path clip-path="url(#pfe0dd2b73b)" d="M 261.4725 480.3575 
L 268.453452 480.3575 
L 268.453452 480.351921 
L 261.4725 480.351921 
z
" style="fill:#d58540;"/>
   </g>
   <g id="patch_142">
    <path clip-path="url(#pfe0dd2b73b)" d="M 278.924881 480.3575 
L 285.905833 480.3575 
L 285.905833 480.342194 
L 278.924881 480.342194 
z
" style="fill:#d58540;"/>
   </g>
   <g id="patch_143">
    <path clip-path="url(#pfe0dd2b73b)" d="M 296.377262 480.3575 
L 303.358214 480.3575 
L 303.358214 480.334541 
L 296.377262 480.334541 
z
" style="fill:#d58540;"/>
   </g>
   <g id="patch_144">
    <path clip-path="url(#pfe0dd2b73b)" d="M 313.829643 480.3575 
L 320.810595 480.3575 
L 320.810595 480.304422 
L 313.829643 480.304422 
z
" style="fill:#d58540;"/>
   </g>
   <g id="patch_145">
    <path clip-path="url(#pfe0dd2b73b)" d="M 331.282024 480.3575 
L 338.262976 480.3575 
L 338.262976 480.336713 
L 331.282024 480.336713 
z
" style="fill:#d58540;"/>
   </g>
   <g id="patch_146">
    <path clip-path="url(#pfe0dd2b73b)" d="M 348.734405 480.3575 
L 355.715357 480.3575 
L 355.715357 480.331628 
L 348.734405 480.331628 
z
" style="fill:#d58540;"/>
   </g>
   <g id="patch_147">
    <path clip-path="url(#pfe0dd2b73b)" d="M 366.186786 480.3575 
L 373.167738 480.3575 
L 373.167738 480.337701 
L 366.186786 480.337701 
z
" style="fill:#d58540;"/>
   </g>
   <g id="patch_148">
    <path clip-path="url(#pfe0dd2b73b)" d="M 383.639167 480.3575 
L 390.620119 480.3575 
L 390.620119 480.338194 
L 383.639167 480.338194 
z
" style="fill:#d58540;"/>
   </g>
   <g id="patch_149">
    <path clip-path="url(#pfe0dd2b73b)" d="M 401.091548 480.3575 
L 408.0725 480.3575 
L 408.0725 480.338145 
L 401.091548 480.338145 
z
" style="fill:#d58540;"/>
   </g>
   <g id="patch_150">
    <path clip-path="url(#pfe0dd2b73b)" d="M 418.543929 480.3575 
L 425.524881 480.3575 
L 425.524881 480.33696 
L 418.543929 480.33696 
z
" style="fill:#d58540;"/>
   </g>
   <g id="patch_151">
    <path clip-path="url(#pfe0dd2b73b)" d="M 435.99631 480.3575 
L 442.977262 480.3575 
L 442.977262 480.082827 
L 435.99631 480.082827 
z
" style="fill:#d58540;"/>
   </g>
   <g id="patch_152">
    <path clip-path="url(#pfe0dd2b73b)" d="M 453.44869 480.3575 
L 460.429643 480.3575 
L 460.429643 480.335429 
L 453.44869 480.335429 
z
" style="fill:#d58540;"/>
   </g>
   <g id="patch_153">
    <path clip-path="url(#pfe0dd2b73b)" d="M 470.901071 480.3575 
L 477.882024 480.3575 
L 477.882024 480.323974 
L 470.901071 480.323974 
z
" style="fill:#d58540;"/>
   </g>
   <g id="patch_154">
    <path clip-path="url(#pfe0dd2b73b)" d="M 488.353452 480.3575 
L 495.334405 480.3575 
L 495.334405 480.320271 
L 488.353452 480.320271 
z
" style="fill:#d58540;"/>
   </g>
   <g id="patch_155">
    <path clip-path="url(#pfe0dd2b73b)" d="M 505.805833 480.3575 
L 512.786786 480.3575 
L 512.786786 480.325604 
L 505.805833 480.325604 
z
" style="fill:#d58540;"/>
   </g>
   <g id="patch_156">
    <path clip-path="url(#pfe0dd2b73b)" d="M 523.258214 480.3575 
L 530.239167 480.3575 
L 530.239167 480.322197 
L 523.258214 480.322197 
z
" style="fill:#d58540;"/>
   </g>
   <g id="patch_157">
    <path clip-path="url(#pfe0dd2b73b)" d="M 540.710595 480.3575 
L 547.691548 480.3575 
L 547.691548 480.304817 
L 540.710595 480.304817 
z
" style="fill:#d58540;"/>
   </g>
   <g id="patch_158">
    <path clip-path="url(#pfe0dd2b73b)" d="M 558.162976 480.3575 
L 565.143929 480.3575 
L 565.143929 480.290449 
L 558.162976 480.290449 
z
" style="fill:#d58540;"/>
   </g>
   <g id="patch_159">
    <path clip-path="url(#pfe0dd2b73b)" d="M 575.615357 480.3575 
L 582.59631 480.3575 
L 582.59631 480.307384 
L 575.615357 480.307384 
z
" style="fill:#d58540;"/>
   </g>
   <g id="patch_160">
    <path clip-path="url(#pfe0dd2b73b)" d="M 593.067738 480.3575 
L 600.04869 480.3575 
L 600.04869 480.296571 
L 593.067738 480.296571 
z
" style="fill:#d58540;"/>
   </g>
   <g id="patch_161">
    <path clip-path="url(#pfe0dd2b73b)" d="M 610.520119 480.3575 
L 617.501071 480.3575 
L 617.501071 480.273118 
L 610.520119 480.273118 
z
" style="fill:#d58540;"/>
   </g>
   <g id="patch_162">
    <path clip-path="url(#pfe0dd2b73b)" d="M 627.9725 480.3575 
L 634.953452 480.3575 
L 634.953452 480.298991 
L 627.9725 480.298991 
z
" style="fill:#d58540;"/>
   </g>
   <g id="patch_163">
    <path clip-path="url(#pfe0dd2b73b)" d="M 645.424881 480.3575 
L 652.405833 480.3575 
L 652.405833 480.252232 
L 645.424881 480.252232 
z
" style="fill:#d58540;"/>
   </g>
   <g id="patch_164">
    <path clip-path="url(#pfe0dd2b73b)" d="M 662.877262 480.3575 
L 669.858214 480.3575 
L 669.858214 480.241617 
L 662.877262 480.241617 
z
" style="fill:#d58540;"/>
   </g>
   <g id="patch_165">
    <path clip-path="url(#pfe0dd2b73b)" d="M 680.329643 480.3575 
L 687.310595 480.3575 
L 687.310595 480.260774 
L 680.329643 480.260774 
z
" style="fill:#d58540;"/>
   </g>
   <g id="patch_166">
    <path clip-path="url(#pfe0dd2b73b)" d="M 697.782024 480.3575 
L 704.762976 480.3575 
L 704.762976 480.257368 
L 697.782024 480.257368 
z
" style="fill:#d58540;"/>
   </g>
   <g id="patch_167">
    <path clip-path="url(#pfe0dd2b73b)" d="M 715.234405 480.3575 
L 722.215357 480.3575 
L 722.215357 480.194612 
L 715.234405 480.194612 
z
" style="fill:#d58540;"/>
   </g>
   <g id="patch_168">
    <path clip-path="url(#pfe0dd2b73b)" d="M 732.686786 480.3575 
L 739.667738 480.3575 
L 739.667738 480.176886 
L 732.686786 480.176886 
z
" style="fill:#d58540;"/>
   </g>
   <g id="patch_169">
    <path clip-path="url(#pfe0dd2b73b)" d="M 750.139167 480.3575 
L 757.120119 480.3575 
L 757.120119 480.167258 
L 750.139167 480.167258 
z
" style="fill:#d58540;"/>
   </g>
   <g id="patch_170">
    <path clip-path="url(#pfe0dd2b73b)" d="M 767.591548 480.3575 
L 774.5725 480.3575 
L 774.5725 287.798703 
L 767.591548 287.798703 
z
" style="fill:#d58540;"/>
   </g>
   <g id="matplotlib.axis_3">
    <g id="xtick_7">
     <g id="line2d_15">
      <g>
       <use style="stroke:#000000;stroke-width:0.8;" x="78.2225" xlink:href="#me3e0cd7e96" y="480.3575"/>
      </g>
     </g>
     <g id="text_14">
      <!-- 0.0 -->
      <defs>
       <path d="M 10.6875 12.40625 
L 21 12.40625 
L 21 0 
L 10.6875 0 
z
" id="DejaVuSans-46"/>
      </defs>
      <g transform="translate(70.270938 494.955938)scale(0.1 -0.1)">
       <use xlink:href="#DejaVuSans-48"/>
       <use x="63.623047" xlink:href="#DejaVuSans-46"/>
       <use x="95.410156" xlink:href="#DejaVuSans-48"/>
      </g>
     </g>
    </g>
    <g id="xtick_8">
     <g id="line2d_16">
      <g>
       <use style="stroke:#000000;stroke-width:0.8;" x="217.841548" xlink:href="#me3e0cd7e96" y="480.3575"/>
      </g>
     </g>
     <g id="text_15">
      <!-- 0.2 -->
      <g transform="translate(209.889985 494.955938)scale(0.1 -0.1)">
       <use xlink:href="#DejaVuSans-48"/>
       <use x="63.623047" xlink:href="#DejaVuSans-46"/>
       <use x="95.410156" xlink:href="#DejaVuSans-50"/>
      </g>
     </g>
    </g>
    <g id="xtick_9">
     <g id="line2d_17">
      <g>
       <use style="stroke:#000000;stroke-width:0.8;" x="357.460595" xlink:href="#me3e0cd7e96" y="480.3575"/>
      </g>
     </g>
     <g id="text_16">
      <!-- 0.4 -->
      <g transform="translate(349.509033 494.955938)scale(0.1 -0.1)">
       <use xlink:href="#DejaVuSans-48"/>
       <use x="63.623047" xlink:href="#DejaVuSans-46"/>
       <use x="95.410156" xlink:href="#DejaVuSans-52"/>
      </g>
     </g>
    </g>
    <g id="xtick_10">
     <g id="line2d_18">
      <g>
       <use style="stroke:#000000;stroke-width:0.8;" x="497.079643" xlink:href="#me3e0cd7e96" y="480.3575"/>
      </g>
     </g>
     <g id="text_17">
      <!-- 0.6 -->
      <g transform="translate(489.12808 494.955938)scale(0.1 -0.1)">
       <use xlink:href="#DejaVuSans-48"/>
       <use x="63.623047" xlink:href="#DejaVuSans-46"/>
       <use x="95.410156" xlink:href="#DejaVuSans-54"/>
      </g>
     </g>
    </g>
    <g id="xtick_11">
     <g id="line2d_19">
      <g>
       <use style="stroke:#000000;stroke-width:0.8;" x="636.69869" xlink:href="#me3e0cd7e96" y="480.3575"/>
      </g>
     </g>
     <g id="text_18">
      <!-- 0.8 -->
      <defs>
       <path d="M 31.78125 34.625 
Q 24.75 34.625 20.71875 30.859375 
Q 16.703125 27.09375 16.703125 20.515625 
Q 16.703125 13.921875 20.71875 10.15625 
Q 24.75 6.390625 31.78125 6.390625 
Q 38.8125 6.390625 42.859375 10.171875 
Q 46.921875 13.96875 46.921875 20.515625 
Q 46.921875 27.09375 42.890625 30.859375 
Q 38.875 34.625 31.78125 34.625 
z
M 21.921875 38.8125 
Q 15.578125 40.375 12.03125 44.71875 
Q 8.5 49.078125 8.5 55.328125 
Q 8.5 64.0625 14.71875 69.140625 
Q 20.953125 74.21875 31.78125 74.21875 
Q 42.671875 74.21875 48.875 69.140625 
Q 55.078125 64.0625 55.078125 55.328125 
Q 55.078125 49.078125 51.53125 44.71875 
Q 48 40.375 41.703125 38.8125 
Q 48.828125 37.15625 52.796875 32.3125 
Q 56.78125 27.484375 56.78125 20.515625 
Q 56.78125 9.90625 50.3125 4.234375 
Q 43.84375 -1.421875 31.78125 -1.421875 
Q 19.734375 -1.421875 13.25 4.234375 
Q 6.78125 9.90625 6.78125 20.515625 
Q 6.78125 27.484375 10.78125 32.3125 
Q 14.796875 37.15625 21.921875 38.8125 
z
M 18.3125 54.390625 
Q 18.3125 48.734375 21.84375 45.5625 
Q 25.390625 42.390625 31.78125 42.390625 
Q 38.140625 42.390625 41.71875 45.5625 
Q 45.3125 48.734375 45.3125 54.390625 
Q 45.3125 60.0625 41.71875 63.234375 
Q 38.140625 66.40625 31.78125 66.40625 
Q 25.390625 66.40625 21.84375 63.234375 
Q 18.3125 60.0625 18.3125 54.390625 
z
" id="DejaVuSans-56"/>
      </defs>
      <g transform="translate(628.747128 494.955938)scale(0.1 -0.1)">
       <use xlink:href="#DejaVuSans-48"/>
       <use x="63.623047" xlink:href="#DejaVuSans-46"/>
       <use x="95.410156" xlink:href="#DejaVuSans-56"/>
      </g>
     </g>
    </g>
    <g id="xtick_12">
     <g id="line2d_20">
      <g>
       <use style="stroke:#000000;stroke-width:0.8;" x="776.317738" xlink:href="#me3e0cd7e96" y="480.3575"/>
      </g>
     </g>
     <g id="text_19">
      <!-- 1.0 -->
      <g transform="translate(768.366176 494.955938)scale(0.1 -0.1)">
       <use xlink:href="#DejaVuSans-49"/>
       <use x="63.623047" xlink:href="#DejaVuSans-46"/>
       <use x="95.410156" xlink:href="#DejaVuSans-48"/>
      </g>
     </g>
    </g>
    <g id="text_20">
     <!-- Score -->
     <g transform="translate(422.14125 513.193125)scale(0.16 -0.16)">
      <use xlink:href="#DejaVuSans-83"/>
      <use x="63.476562" xlink:href="#DejaVuSans-99"/>
      <use x="118.457031" xlink:href="#DejaVuSans-111"/>
      <use x="179.638672" xlink:href="#DejaVuSans-114"/>
      <use x="220.720703" xlink:href="#DejaVuSans-101"/>
     </g>
    </g>
   </g>
   <g id="matplotlib.axis_4">
    <g id="ytick_9">
     <g id="line2d_21">
      <g>
       <use style="stroke:#000000;stroke-width:0.8;" x="78.2225" xlink:href="#m0da455b47a" y="480.3575"/>
      </g>
     </g>
     <g id="text_21">
      <!-- 0 -->
      <g transform="translate(64.86 484.156719)scale(0.1 -0.1)">
       <use xlink:href="#DejaVuSans-48"/>
      </g>
     </g>
    </g>
    <g id="ytick_10">
     <g id="line2d_22">
      <g>
       <use style="stroke:#000000;stroke-width:0.8;" x="78.2225" xlink:href="#m0da455b47a" y="455.67"/>
      </g>
     </g>
     <g id="text_22">
      <!-- 500000 -->
      <g transform="translate(33.0475 459.469219)scale(0.1 -0.1)">
       <use xlink:href="#DejaVuSans-53"/>
       <use x="63.623047" xlink:href="#DejaVuSans-48"/>
       <use x="127.246094" xlink:href="#DejaVuSans-48"/>
       <use x="190.869141" xlink:href="#DejaVuSans-48"/>
       <use x="254.492188" xlink:href="#DejaVuSans-48"/>
       <use x="318.115234" xlink:href="#DejaVuSans-48"/>
      </g>
     </g>
    </g>
    <g id="ytick_11">
     <g id="line2d_23">
      <g>
       <use style="stroke:#000000;stroke-width:0.8;" x="78.2225" xlink:href="#m0da455b47a" y="430.9825"/>
      </g>
     </g>
     <g id="text_23">
      <!-- 1000000 -->
      <g transform="translate(26.685 434.781719)scale(0.1 -0.1)">
       <use xlink:href="#DejaVuSans-49"/>
       <use x="63.623047" xlink:href="#DejaVuSans-48"/>
       <use x="127.246094" xlink:href="#DejaVuSans-48"/>
       <use x="190.869141" xlink:href="#DejaVuSans-48"/>
       <use x="254.492188" xlink:href="#DejaVuSans-48"/>
       <use x="318.115234" xlink:href="#DejaVuSans-48"/>
       <use x="381.738281" xlink:href="#DejaVuSans-48"/>
      </g>
     </g>
    </g>
    <g id="ytick_12">
     <g id="line2d_24">
      <g>
       <use style="stroke:#000000;stroke-width:0.8;" x="78.2225" xlink:href="#m0da455b47a" y="406.295"/>
      </g>
     </g>
     <g id="text_24">
      <!-- 1500000 -->
      <g transform="translate(26.685 410.094219)scale(0.1 -0.1)">
       <use xlink:href="#DejaVuSans-49"/>
       <use x="63.623047" xlink:href="#DejaVuSans-53"/>
       <use x="127.246094" xlink:href="#DejaVuSans-48"/>
       <use x="190.869141" xlink:href="#DejaVuSans-48"/>
       <use x="254.492188" xlink:href="#DejaVuSans-48"/>
       <use x="318.115234" xlink:href="#DejaVuSans-48"/>
       <use x="381.738281" xlink:href="#DejaVuSans-48"/>
      </g>
     </g>
    </g>
    <g id="ytick_13">
     <g id="line2d_25">
      <g>
       <use style="stroke:#000000;stroke-width:0.8;" x="78.2225" xlink:href="#m0da455b47a" y="381.6075"/>
      </g>
     </g>
     <g id="text_25">
      <!-- 2000000 -->
      <g transform="translate(26.685 385.406719)scale(0.1 -0.1)">
       <use xlink:href="#DejaVuSans-50"/>
       <use x="63.623047" xlink:href="#DejaVuSans-48"/>
       <use x="127.246094" xlink:href="#DejaVuSans-48"/>
       <use x="190.869141" xlink:href="#DejaVuSans-48"/>
       <use x="254.492188" xlink:href="#DejaVuSans-48"/>
       <use x="318.115234" xlink:href="#DejaVuSans-48"/>
       <use x="381.738281" xlink:href="#DejaVuSans-48"/>
      </g>
     </g>
    </g>
    <g id="ytick_14">
     <g id="line2d_26">
      <g>
       <use style="stroke:#000000;stroke-width:0.8;" x="78.2225" xlink:href="#m0da455b47a" y="356.92"/>
      </g>
     </g>
     <g id="text_26">
      <!-- 2500000 -->
      <g transform="translate(26.685 360.719219)scale(0.1 -0.1)">
       <use xlink:href="#DejaVuSans-50"/>
       <use x="63.623047" xlink:href="#DejaVuSans-53"/>
       <use x="127.246094" xlink:href="#DejaVuSans-48"/>
       <use x="190.869141" xlink:href="#DejaVuSans-48"/>
       <use x="254.492188" xlink:href="#DejaVuSans-48"/>
       <use x="318.115234" xlink:href="#DejaVuSans-48"/>
       <use x="381.738281" xlink:href="#DejaVuSans-48"/>
      </g>
     </g>
    </g>
    <g id="ytick_15">
     <g id="line2d_27">
      <g>
       <use style="stroke:#000000;stroke-width:0.8;" x="78.2225" xlink:href="#m0da455b47a" y="332.2325"/>
      </g>
     </g>
     <g id="text_27">
      <!-- 3000000 -->
      <g transform="translate(26.685 336.031719)scale(0.1 -0.1)">
       <use xlink:href="#DejaVuSans-51"/>
       <use x="63.623047" xlink:href="#DejaVuSans-48"/>
       <use x="127.246094" xlink:href="#DejaVuSans-48"/>
       <use x="190.869141" xlink:href="#DejaVuSans-48"/>
       <use x="254.492188" xlink:href="#DejaVuSans-48"/>
       <use x="318.115234" xlink:href="#DejaVuSans-48"/>
       <use x="381.738281" xlink:href="#DejaVuSans-48"/>
      </g>
     </g>
    </g>
    <g id="ytick_16">
     <g id="line2d_28">
      <g>
       <use style="stroke:#000000;stroke-width:0.8;" x="78.2225" xlink:href="#m0da455b47a" y="307.545"/>
      </g>
     </g>
     <g id="text_28">
      <!-- 3500000 -->
      <g transform="translate(26.685 311.344219)scale(0.1 -0.1)">
       <use xlink:href="#DejaVuSans-51"/>
       <use x="63.623047" xlink:href="#DejaVuSans-53"/>
       <use x="127.246094" xlink:href="#DejaVuSans-48"/>
       <use x="190.869141" xlink:href="#DejaVuSans-48"/>
       <use x="254.492188" xlink:href="#DejaVuSans-48"/>
       <use x="318.115234" xlink:href="#DejaVuSans-48"/>
       <use x="381.738281" xlink:href="#DejaVuSans-48"/>
      </g>
     </g>
    </g>
    <g id="ytick_17">
     <g id="line2d_29">
      <g>
       <use style="stroke:#000000;stroke-width:0.8;" x="78.2225" xlink:href="#m0da455b47a" y="282.8575"/>
      </g>
     </g>
     <g id="text_29">
      <!-- 4000000 -->
      <g transform="translate(26.685 286.656719)scale(0.1 -0.1)">
       <use xlink:href="#DejaVuSans-52"/>
       <use x="63.623047" xlink:href="#DejaVuSans-48"/>
       <use x="127.246094" xlink:href="#DejaVuSans-48"/>
       <use x="190.869141" xlink:href="#DejaVuSans-48"/>
       <use x="254.492188" xlink:href="#DejaVuSans-48"/>
       <use x="318.115234" xlink:href="#DejaVuSans-48"/>
       <use x="381.738281" xlink:href="#DejaVuSans-48"/>
      </g>
     </g>
    </g>
    <g id="text_30">
     <!-- # of bp -->
     <g transform="translate(19.3575 411.265)rotate(-90)scale(0.16 -0.16)">
      <use xlink:href="#DejaVuSans-35"/>
      <use x="83.789062" xlink:href="#DejaVuSans-32"/>
      <use x="115.576172" xlink:href="#DejaVuSans-111"/>
      <use x="176.757812" xlink:href="#DejaVuSans-102"/>
      <use x="211.962891" xlink:href="#DejaVuSans-32"/>
      <use x="243.75" xlink:href="#DejaVuSans-98"/>
      <use x="307.226562" xlink:href="#DejaVuSans-112"/>
     </g>
    </g>
   </g>
   <g id="patch_171">
    <path d="M 78.2225 480.3575 
L 78.2225 282.8575 
" style="fill:none;stroke:#000000;stroke-linecap:square;stroke-linejoin:miter;stroke-width:0.8;"/>
   </g>
   <g id="patch_172">
    <path d="M 811.2225 480.3575 
L 811.2225 282.8575 
" style="fill:none;stroke:#000000;stroke-linecap:square;stroke-linejoin:miter;stroke-width:0.8;"/>
   </g>
   <g id="patch_173">
    <path d="M 78.2225 480.3575 
L 811.2225 480.3575 
" style="fill:none;stroke:#000000;stroke-linecap:square;stroke-linejoin:miter;stroke-width:0.8;"/>
   </g>
   <g id="patch_174">
    <path d="M 78.2225 282.8575 
L 811.2225 282.8575 
" style="fill:none;stroke:#000000;stroke-linecap:square;stroke-linejoin:miter;stroke-width:0.8;"/>
   </g>
   <g id="text_31">
    <!-- Non-PLC Regions (3,942,031 bp) -->
    <defs>
     <path d="M 9.8125 72.90625 
L 23.09375 72.90625 
L 55.421875 11.921875 
L 55.421875 72.90625 
L 64.984375 72.90625 
L 64.984375 0 
L 51.703125 0 
L 19.390625 60.984375 
L 19.390625 0 
L 9.8125 0 
z
" id="DejaVuSans-78"/>
     <path d="M 4.890625 31.390625 
L 31.203125 31.390625 
L 31.203125 23.390625 
L 4.890625 23.390625 
z
" id="DejaVuSans-45"/>
    </defs>
    <g transform="translate(314.36625 276.8575)scale(0.16 -0.16)">
     <use xlink:href="#DejaVuSans-78"/>
     <use x="74.804688" xlink:href="#DejaVuSans-111"/>
     <use x="135.986328" xlink:href="#DejaVuSans-110"/>
     <use x="199.365234" xlink:href="#DejaVuSans-45"/>
     <use x="235.449219" xlink:href="#DejaVuSans-80"/>
     <use x="295.751953" xlink:href="#DejaVuSans-76"/>
     <use x="351.464844" xlink:href="#DejaVuSans-67"/>
     <use x="421.289062" xlink:href="#DejaVuSans-32"/>
     <use x="453.076172" xlink:href="#DejaVuSans-82"/>
     <use x="522.496094" xlink:href="#DejaVuSans-101"/>
     <use x="584.019531" xlink:href="#DejaVuSans-103"/>
     <use x="647.496094" xlink:href="#DejaVuSans-105"/>
     <use x="675.279297" xlink:href="#DejaVuSans-111"/>
     <use x="736.460938" xlink:href="#DejaVuSans-110"/>
     <use x="799.839844" xlink:href="#DejaVuSans-115"/>
     <use x="851.939453" xlink:href="#DejaVuSans-32"/>
     <use x="883.726562" xlink:href="#DejaVuSans-40"/>
     <use x="922.740234" xlink:href="#DejaVuSans-51"/>
     <use x="986.363281" xlink:href="#DejaVuSans-44"/>
     <use x="1018.150391" xlink:href="#DejaVuSans-57"/>
     <use x="1081.773438" xlink:href="#DejaVuSans-52"/>
     <use x="1145.396484" xlink:href="#DejaVuSans-50"/>
     <use x="1209.019531" xlink:href="#DejaVuSans-44"/>
     <use x="1240.806641" xlink:href="#DejaVuSans-48"/>
     <use x="1304.429688" xlink:href="#DejaVuSans-51"/>
     <use x="1368.052734" xlink:href="#DejaVuSans-49"/>
     <use x="1431.675781" xlink:href="#DejaVuSans-32"/>
     <use x="1463.462891" xlink:href="#DejaVuSans-98"/>
     <use x="1526.939453" xlink:href="#DejaVuSans-112"/>
     <use x="1590.416016" xlink:href="#DejaVuSans-41"/>
    </g>
   </g>
   <g id="legend_2">
    <g id="patch_175">
     <path d="M 85.2225 320.21375 
L 145.469375 320.21375 
Q 147.469375 320.21375 147.469375 318.21375 
L 147.469375 289.8575 
Q 147.469375 287.8575 145.469375 287.8575 
L 85.2225 287.8575 
Q 83.2225 287.8575 83.2225 289.8575 
L 83.2225 318.21375 
Q 83.2225 320.21375 85.2225 320.21375 
z
" style="fill:#ffffff;opacity:0.8;stroke:#cccccc;stroke-linejoin:miter;"/>
    </g>
    <g id="patch_176">
     <path d="M 87.2225 299.455938 
L 107.2225 299.455938 
L 107.2225 292.455938 
L 87.2225 292.455938 
z
" style="fill:#1f77b4;"/>
    </g>
    <g id="text_32">
     <!-- EBR -->
     <g transform="translate(115.2225 299.455938)scale(0.1 -0.1)">
      <use xlink:href="#DejaVuSans-69"/>
      <use x="63.183594" xlink:href="#DejaVuSans-66"/>
      <use x="131.787109" xlink:href="#DejaVuSans-82"/>
     </g>
    </g>
    <g id="patch_177">
     <path d="M 87.2225 314.134063 
L 107.2225 314.134063 
L 107.2225 307.134063 
L 87.2225 307.134063 
z
" style="fill:#d58540;"/>
    </g>
    <g id="text_33">
     <!-- Pmap -->
     <g transform="translate(115.2225 314.134063)scale(0.1 -0.1)">
      <use xlink:href="#DejaVuSans-80"/>
      <use x="60.302734" xlink:href="#DejaVuSans-109"/>
      <use x="157.714844" xlink:href="#DejaVuSans-97"/>
      <use x="218.994141" xlink:href="#DejaVuSans-112"/>
     </g>
    </g>
   </g>
  </g>
 </g>
 <defs>
  <clipPath id="p23b3aecd4d">
   <rect height="197.5" width="733" x="78.2225" y="25.3575"/>
  </clipPath>
  <clipPath id="pfe0dd2b73b">
   <rect height="197.5" width="733" x="78.2225" y="282.8575"/>
  </clipPath>
 </defs>
</svg>
