<?xml version="1.0" encoding="utf-8" standalone="no"?>
<!DOCTYPE svg PUBLIC "-//W3C//DTD SVG 1.1//EN"
  "http://www.w3.org/Graphics/SVG/1.1/DTD/svg11.dtd">
<!-- Created with matplotlib (https://matplotlib.org/) -->
<svg height="479.63625pt" version="1.1" viewBox="0 0 914.309375 479.63625" width="914.309375pt" xmlns="http://www.w3.org/2000/svg" xmlns:xlink="http://www.w3.org/1999/xlink">
 <defs>
  <style type="text/css">
*{stroke-linecap:butt;stroke-linejoin:round;}
  </style>
 </defs>
 <g id="figure_1">
  <g id="patch_1">
   <path d="M 0 479.63625 
L 914.309375 479.63625 
L 914.309375 0 
L 0 0 
z
" style="fill:#ffffff;"/>
  </g>
  <g id="axes_1">
   <g id="patch_2">
    <path d="M 70.109375 442.08 
L 907.109375 442.08 
L 907.109375 7.2 
L 70.109375 7.2 
z
" style="fill:#ffffff;"/>
   </g>
   <g id="PolyCollection_1">
    <defs>
     <path d="M 68.458687 -418.076038 
L 68.458687 -418.076462 
L 76.543982 -418.07625 
L 84.629277 -418.07625 
L 92.714573 -418.083058 
L 100.799868 -418.07625 
L 108.885163 -418.07625 
L 116.970459 -418.076632 
L 125.055754 -418.07625 
L 133.141049 -418.076253 
L 141.226344 -418.07625 
L 149.31164 -418.07625 
L 157.396935 -418.079239 
L 165.48223 -418.07625 
L 173.567526 -418.07625 
L 181.652821 -418.083435 
L 189.738116 -418.076466 
L 197.823411 -418.07625 
L 205.908707 -418.076259 
L 213.994002 -418.07639 
L 222.079297 -418.076258 
L 230.164593 -418.07625 
L 238.249888 -418.07625 
L 246.335183 -418.078052 
L 254.420478 -418.076267 
L 262.505774 -418.07625 
L 270.591069 -418.078333 
L 278.676364 -418.076264 
L 286.76166 -418.07626 
L 294.846955 -418.076251 
L 302.93225 -418.076265 
L 311.017545 -418.076262 
L 319.102841 -418.07625 
L 327.188136 -418.076314 
L 335.273431 -418.08043 
L 343.358727 -418.07625 
L 351.444022 -418.076876 
L 359.529317 -418.077519 
L 367.614612 -418.076274 
L 375.699908 -418.077996 
L 383.785203 -418.07625 
L 391.870498 -418.07625 
L 399.955794 -418.076359 
L 408.041089 -418.07625 
L 416.126384 -418.076331 
L 424.211679 -418.079828 
L 432.296975 -418.076253 
L 440.38227 -418.07625 
L 448.467565 -418.076482 
L 456.552861 -418.07632 
L 464.638156 -418.07625 
L 472.723451 -418.07625 
L 480.808747 -418.076422 
L 488.894042 -418.076332 
L 496.979337 -418.07625 
L 505.064632 -418.076253 
L 513.149928 -418.091538 
L 521.235223 -418.07625 
L 529.320518 -418.076948 
L 537.405814 -418.076387 
L 545.491109 -418.076277 
L 553.576404 -418.076441 
L 561.661699 -418.08107 
L 569.746995 -418.07685 
L 577.83229 -418.081966 
L 585.917585 -418.076877 
L 594.002881 -418.077199 
L 602.088176 -418.122062 
L 610.173471 -418.078525 
L 618.258766 -418.076427 
L 626.344062 -418.079224 
L 634.429357 -418.077023 
L 642.514652 -418.07972 
L 650.599948 -418.079576 
L 658.685243 -418.076576 
L 666.770538 -418.095907 
L 674.855833 -418.076373 
L 682.941129 -418.080016 
L 691.026424 -418.114874 
L 699.111719 -418.079855 
L 707.197015 -418.089789 
L 715.28231 -418.07701 
L 723.367605 -418.076453 
L 731.4529 -418.082622 
L 739.538196 -418.078443 
L 747.623491 -418.077768 
L 755.708786 -418.173321 
L 763.794082 -418.078348 
L 771.879377 -418.078801 
L 779.964672 -418.120978 
L 788.049967 -418.089345 
L 796.135263 -418.08023 
L 804.220558 -418.076326 
L 812.305853 -418.076535 
L 820.391149 -418.115355 
L 828.476444 -418.07625 
L 836.561739 -418.078702 
L 844.647034 -423.986819 
L 852.73233 -418.07625 
L 860.817625 -418.07625 
L 868.90292 -472.43625 
L 868.90292 -363.71625 
L 868.90292 -363.71625 
L 860.817625 -418.07625 
L 852.73233 -418.07625 
L 844.647034 -412.165681 
L 836.561739 -418.073798 
L 828.476444 -418.07625 
L 820.391149 -418.037145 
L 812.305853 -418.075965 
L 804.220558 -418.076174 
L 796.135263 -418.07227 
L 788.049967 -418.063155 
L 779.964672 -418.031522 
L 771.879377 -418.073699 
L 763.794082 -418.074152 
L 755.708786 -417.979179 
L 747.623491 -418.074732 
L 739.538196 -418.074057 
L 731.4529 -418.069878 
L 723.367605 -418.076047 
L 715.28231 -418.07549 
L 707.197015 -418.062711 
L 699.111719 -418.072645 
L 691.026424 -418.037626 
L 682.941129 -418.072484 
L 674.855833 -418.076127 
L 666.770538 -418.056593 
L 658.685243 -418.075924 
L 650.599948 -418.072924 
L 642.514652 -418.07278 
L 634.429357 -418.075477 
L 626.344062 -418.073276 
L 618.258766 -418.076073 
L 610.173471 -418.073975 
L 602.088176 -418.030438 
L 594.002881 -418.075301 
L 585.917585 -418.075623 
L 577.83229 -418.070534 
L 569.746995 -418.07565 
L 561.661699 -418.07143 
L 553.576404 -418.076059 
L 545.491109 -418.076223 
L 537.405814 -418.076113 
L 529.320518 -418.075552 
L 521.235223 -418.07625 
L 513.149928 -418.060962 
L 505.064632 -418.076247 
L 496.979337 -418.07625 
L 488.894042 -418.076168 
L 480.808747 -418.076078 
L 472.723451 -418.07625 
L 464.638156 -418.07625 
L 456.552861 -418.07618 
L 448.467565 -418.076018 
L 440.38227 -418.07625 
L 432.296975 -418.076247 
L 424.211679 -418.072672 
L 416.126384 -418.076169 
L 408.041089 -418.07625 
L 399.955794 -418.076141 
L 391.870498 -418.07625 
L 383.785203 -418.07625 
L 375.699908 -418.074504 
L 367.614612 -418.076226 
L 359.529317 -418.074981 
L 351.444022 -418.075624 
L 343.358727 -418.07625 
L 335.273431 -418.07207 
L 327.188136 -418.076186 
L 319.102841 -418.07625 
L 311.017545 -418.076238 
L 302.93225 -418.076235 
L 294.846955 -418.076249 
L 286.76166 -418.07624 
L 278.676364 -418.076236 
L 270.591069 -418.074167 
L 262.505774 -418.07625 
L 254.420478 -418.076233 
L 246.335183 -418.074448 
L 238.249888 -418.07625 
L 230.164593 -418.07625 
L 222.079297 -418.076242 
L 213.994002 -418.07611 
L 205.908707 -418.076241 
L 197.823411 -418.07625 
L 189.738116 -418.076034 
L 181.652821 -418.069065 
L 173.567526 -418.07625 
L 165.48223 -418.07625 
L 157.396935 -418.073261 
L 149.31164 -418.07625 
L 141.226344 -418.07625 
L 133.141049 -418.076247 
L 125.055754 -418.07625 
L 116.970459 -418.075868 
L 108.885163 -418.07625 
L 100.799868 -418.07625 
L 92.714573 -418.069442 
L 84.629277 -418.07625 
L 76.543982 -418.07625 
L 68.458687 -418.076038 
z
" id="m0b0a49177b" style="stroke:#3d3d3d;stroke-width:0.2;"/>
    </defs>
    <g clip-path="url(#p34c3a73cfc)">
     <use style="fill:#455387;stroke:#3d3d3d;stroke-width:0.2;" x="0" xlink:href="#m0b0a49177b" y="479.63625"/>
    </g>
   </g>
   <g id="PolyCollection_2">
    <defs>
     <path d="M 117.013128 -309.355381 
L 117.013128 -309.357119 
L 124.620772 -309.357594 
L 132.228416 -309.357198 
L 139.83606 -309.356742 
L 147.443705 -309.356936 
L 155.051349 -309.356655 
L 162.658993 -309.356875 
L 170.266637 -309.356615 
L 177.874282 -309.356914 
L 185.481926 -309.356681 
L 193.08957 -309.356972 
L 200.697214 -309.366517 
L 208.304859 -309.35853 
L 215.912503 -309.360644 
L 223.520147 -309.357119 
L 231.127791 -309.366891 
L 238.735436 -309.357214 
L 246.34308 -309.357435 
L 253.950724 -309.360067 
L 261.558368 -309.360788 
L 269.166013 -309.357442 
L 276.773657 -309.357872 
L 284.381301 -309.357582 
L 291.988945 -309.359095 
L 299.59659 -309.359081 
L 307.204234 -309.359351 
L 314.811878 -309.359512 
L 322.419522 -309.36057 
L 330.027167 -309.360224 
L 337.634811 -309.380703 
L 345.242455 -309.362632 
L 352.850099 -309.35937 
L 360.457744 -309.359909 
L 368.065388 -309.360435 
L 375.673032 -309.366005 
L 383.280676 -309.361605 
L 390.888321 -309.361298 
L 398.495965 -309.359725 
L 406.103609 -309.359031 
L 413.711253 -309.359213 
L 421.318897 -309.361431 
L 428.926542 -309.361975 
L 436.534186 -309.361456 
L 444.14183 -309.3602 
L 451.749474 -309.360716 
L 459.357119 -309.359997 
L 466.964763 -309.513261 
L 474.572407 -309.361252 
L 482.180051 -309.359559 
L 489.787696 -309.359784 
L 497.39534 -309.359264 
L 505.002984 -309.360016 
L 512.610628 -309.359483 
L 520.218273 -309.359245 
L 527.825917 -309.35988 
L 535.433561 -309.360695 
L 543.041205 -309.360707 
L 550.64885 -309.363615 
L 558.256494 -309.36452 
L 565.864138 -309.363728 
L 573.471782 -309.367755 
L 581.079427 -309.36877 
L 588.687071 -309.372364 
L 596.294715 -309.372293 
L 603.902359 -309.374019 
L 611.510004 -309.375032 
L 619.117648 -309.378532 
L 626.725292 -309.369227 
L 634.332936 -309.370695 
L 641.940581 -309.366756 
L 649.548225 -309.367098 
L 657.155869 -309.365752 
L 664.763513 -309.362737 
L 672.371158 -309.362007 
L 679.978802 -309.363019 
L 687.586446 -309.364727 
L 695.19409 -309.363202 
L 702.801735 -309.363168 
L 710.409379 -309.365583 
L 718.017023 -309.374706 
L 725.624667 -309.378514 
L 733.232312 -309.374563 
L 740.839956 -309.395822 
L 748.4476 -309.3897 
L 756.055244 -309.39688 
L 763.662889 -309.404291 
L 771.270533 -309.403527 
L 778.878177 -309.40378 
L 786.485821 -309.399867 
L 794.093466 -309.391547 
L 801.70111 -309.394496 
L 809.308754 -309.385349 
L 816.916398 -309.376195 
L 824.524043 -309.372096 
L 832.131687 -309.37223 
L 839.739331 -309.364373 
L 847.346975 -309.366181 
L 854.95462 -309.366733 
L 862.562264 -310.679938 
L 870.169908 -340.479592 
L 870.169908 -278.232908 
L 870.169908 -278.232908 
L 862.562264 -308.032562 
L 854.95462 -309.345767 
L 847.346975 -309.346319 
L 839.739331 -309.348127 
L 832.131687 -309.34027 
L 824.524043 -309.340404 
L 816.916398 -309.336305 
L 809.308754 -309.327151 
L 801.70111 -309.318004 
L 794.093466 -309.320953 
L 786.485821 -309.312633 
L 778.878177 -309.30872 
L 771.270533 -309.308973 
L 763.662889 -309.308209 
L 756.055244 -309.31562 
L 748.4476 -309.3228 
L 740.839956 -309.316678 
L 733.232312 -309.337937 
L 725.624667 -309.333986 
L 718.017023 -309.337794 
L 710.409379 -309.346917 
L 702.801735 -309.349332 
L 695.19409 -309.349298 
L 687.586446 -309.347773 
L 679.978802 -309.349481 
L 672.371158 -309.350493 
L 664.763513 -309.349763 
L 657.155869 -309.346748 
L 649.548225 -309.345402 
L 641.940581 -309.345744 
L 634.332936 -309.341805 
L 626.725292 -309.343273 
L 619.117648 -309.333968 
L 611.510004 -309.337468 
L 603.902359 -309.338481 
L 596.294715 -309.340207 
L 588.687071 -309.340136 
L 581.079427 -309.34373 
L 573.471782 -309.344745 
L 565.864138 -309.348772 
L 558.256494 -309.34798 
L 550.64885 -309.348885 
L 543.041205 -309.351793 
L 535.433561 -309.351805 
L 527.825917 -309.35262 
L 520.218273 -309.353255 
L 512.610628 -309.353017 
L 505.002984 -309.352484 
L 497.39534 -309.353236 
L 489.787696 -309.352716 
L 482.180051 -309.352941 
L 474.572407 -309.351248 
L 466.964763 -309.199239 
L 459.357119 -309.352503 
L 451.749474 -309.351784 
L 444.14183 -309.3523 
L 436.534186 -309.351044 
L 428.926542 -309.350525 
L 421.318897 -309.351069 
L 413.711253 -309.353287 
L 406.103609 -309.353469 
L 398.495965 -309.352775 
L 390.888321 -309.351202 
L 383.280676 -309.350895 
L 375.673032 -309.346495 
L 368.065388 -309.352065 
L 360.457744 -309.352591 
L 352.850099 -309.35313 
L 345.242455 -309.349868 
L 337.634811 -309.331797 
L 330.027167 -309.352276 
L 322.419522 -309.35193 
L 314.811878 -309.352988 
L 307.204234 -309.353149 
L 299.59659 -309.353419 
L 291.988945 -309.353405 
L 284.381301 -309.354918 
L 276.773657 -309.354628 
L 269.166013 -309.355058 
L 261.558368 -309.351712 
L 253.950724 -309.352433 
L 246.34308 -309.355065 
L 238.735436 -309.355286 
L 231.127791 -309.345609 
L 223.520147 -309.355381 
L 215.912503 -309.351856 
L 208.304859 -309.35397 
L 200.697214 -309.345983 
L 193.08957 -309.355528 
L 185.481926 -309.355819 
L 177.874282 -309.355586 
L 170.266637 -309.355885 
L 162.658993 -309.355625 
L 155.051349 -309.355845 
L 147.443705 -309.355564 
L 139.83606 -309.355758 
L 132.228416 -309.355302 
L 124.620772 -309.354906 
L 117.013128 -309.355381 
z
" id="m76ae659c64" style="stroke:#3d3d3d;stroke-width:0.2;"/>
    </defs>
    <g clip-path="url(#p34c3a73cfc)">
     <use style="fill:#d57566;stroke:#3d3d3d;stroke-width:0.2;" x="0" xlink:href="#m76ae659c64" y="479.63625"/>
    </g>
   </g>
   <g id="PolyCollection_3">
    <defs>
     <path d="M 46.604857 -200.568574 
L 46.604857 -200.703926 
L 55.131643 -200.861397 
L 63.65843 -201.096582 
L 72.185217 -201.271689 
L 80.712004 -201.357608 
L 89.238791 -201.403845 
L 97.765577 -201.342404 
L 106.292364 -201.202352 
L 114.819151 -201.094398 
L 123.345938 -201.024561 
L 131.872725 -200.985439 
L 140.399511 -200.952189 
L 148.926298 -200.908323 
L 157.453085 -200.882922 
L 165.979872 -200.87635 
L 174.506659 -200.876154 
L 183.033446 -200.876466 
L 191.560232 -200.887304 
L 200.087019 -200.937555 
L 208.613806 -201.002913 
L 217.140593 -201.01725 
L 225.66738 -200.972966 
L 234.194166 -200.924969 
L 242.720953 -200.901668 
L 251.24774 -200.879559 
L 259.774527 -200.857211 
L 268.301314 -200.855966 
L 276.8281 -200.86373 
L 285.354887 -200.863792 
L 293.881674 -200.85002 
L 302.408461 -200.827884 
L 310.935248 -200.816636 
L 319.462034 -200.819815 
L 327.988821 -200.834204 
L 336.515608 -200.849365 
L 345.042395 -200.859049 
L 353.569182 -200.873525 
L 362.095968 -200.886261 
L 370.622755 -200.899308 
L 379.149542 -200.919485 
L 387.676329 -200.939475 
L 396.203116 -200.975975 
L 404.729903 -201.036124 
L 413.256689 -201.104896 
L 421.783476 -201.154663 
L 430.310263 -201.159753 
L 438.83705 -201.149278 
L 447.363837 -201.138084 
L 455.890623 -201.134669 
L 464.41741 -201.188029 
L 472.944197 -201.282121 
L 481.470984 -201.342115 
L 489.997771 -201.307511 
L 498.524557 -201.209809 
L 507.051344 -201.148663 
L 515.578131 -201.127867 
L 524.104918 -201.124753 
L 532.631705 -201.156712 
L 541.158491 -201.218703 
L 549.685278 -201.328352 
L 558.212065 -201.434452 
L 566.738852 -201.456276 
L 575.265639 -201.442955 
L 583.792425 -201.441775 
L 592.319212 -201.468951 
L 600.845999 -201.503039 
L 609.372786 -201.511632 
L 617.899573 -201.557913 
L 626.42636 -201.65902 
L 634.953146 -201.846202 
L 643.479933 -202.13133 
L 652.00672 -202.396171 
L 660.533507 -202.737477 
L 669.060294 -203.264216 
L 677.58708 -203.61794 
L 686.113867 -203.379536 
L 694.640654 -202.767463 
L 703.167441 -202.38439 
L 711.694228 -202.365999 
L 720.221014 -202.524825 
L 728.747801 -202.812642 
L 737.274588 -203.035163 
L 745.801375 -203.12265 
L 754.328162 -203.186096 
L 762.854948 -203.176149 
L 771.381735 -203.255343 
L 779.908522 -203.47219 
L 788.435309 -203.704014 
L 796.962096 -203.9708 
L 805.488882 -204.154802 
L 814.015669 -204.463799 
L 822.542456 -205.258362 
L 831.069243 -206.997334 
L 839.59603 -211.255553 
L 848.122817 -221.696944 
L 856.649603 -240.478944 
L 865.17639 -254.99625 
L 873.703177 -247.138944 
L 882.229964 -224.507721 
L 890.756751 -207.903994 
L 890.756751 -193.368506 
L 890.756751 -193.368506 
L 882.229964 -176.764779 
L 873.703177 -154.133556 
L 865.17639 -146.27625 
L 856.649603 -160.793556 
L 848.122817 -179.575556 
L 839.59603 -190.016947 
L 831.069243 -194.275166 
L 822.542456 -196.014138 
L 814.015669 -196.808701 
L 805.488882 -197.117698 
L 796.962096 -197.3017 
L 788.435309 -197.568486 
L 779.908522 -197.80031 
L 771.381735 -198.017157 
L 762.854948 -198.096351 
L 754.328162 -198.086404 
L 745.801375 -198.14985 
L 737.274588 -198.237337 
L 728.747801 -198.459858 
L 720.221014 -198.747675 
L 711.694228 -198.906501 
L 703.167441 -198.88811 
L 694.640654 -198.505037 
L 686.113867 -197.892964 
L 677.58708 -197.65456 
L 669.060294 -198.008284 
L 660.533507 -198.535023 
L 652.00672 -198.876329 
L 643.479933 -199.14117 
L 634.953146 -199.426298 
L 626.42636 -199.61348 
L 617.899573 -199.714587 
L 609.372786 -199.760868 
L 600.845999 -199.769461 
L 592.319212 -199.803549 
L 583.792425 -199.830725 
L 575.265639 -199.829545 
L 566.738852 -199.816224 
L 558.212065 -199.838048 
L 549.685278 -199.944148 
L 541.158491 -200.053797 
L 532.631705 -200.115788 
L 524.104918 -200.147747 
L 515.578131 -200.144633 
L 507.051344 -200.123837 
L 498.524557 -200.062691 
L 489.997771 -199.964989 
L 481.470984 -199.930385 
L 472.944197 -199.990379 
L 464.41741 -200.084471 
L 455.890623 -200.137831 
L 447.363837 -200.134416 
L 438.83705 -200.123222 
L 430.310263 -200.112747 
L 421.783476 -200.117837 
L 413.256689 -200.167604 
L 404.729903 -200.236376 
L 396.203116 -200.296525 
L 387.676329 -200.333025 
L 379.149542 -200.353015 
L 370.622755 -200.373192 
L 362.095968 -200.386239 
L 353.569182 -200.398975 
L 345.042395 -200.413451 
L 336.515608 -200.423135 
L 327.988821 -200.438296 
L 319.462034 -200.452685 
L 310.935248 -200.455864 
L 302.408461 -200.444616 
L 293.881674 -200.42248 
L 285.354887 -200.408708 
L 276.8281 -200.40877 
L 268.301314 -200.416534 
L 259.774527 -200.415289 
L 251.24774 -200.392941 
L 242.720953 -200.370832 
L 234.194166 -200.347531 
L 225.66738 -200.299534 
L 217.140593 -200.25525 
L 208.613806 -200.269587 
L 200.087019 -200.334945 
L 191.560232 -200.385196 
L 183.033446 -200.396034 
L 174.506659 -200.396346 
L 165.979872 -200.39615 
L 157.453085 -200.389578 
L 148.926298 -200.364177 
L 140.399511 -200.320311 
L 131.872725 -200.287061 
L 123.345938 -200.247939 
L 114.819151 -200.178102 
L 106.292364 -200.070148 
L 97.765577 -199.930096 
L 89.238791 -199.868655 
L 80.712004 -199.914892 
L 72.185217 -200.000811 
L 63.65843 -200.175918 
L 55.131643 -200.411103 
L 46.604857 -200.568574 
z
" id="m80fe226922" style="stroke:#3d3d3d;stroke-width:0.2;"/>
    </defs>
    <g clip-path="url(#p34c3a73cfc)">
     <use style="fill:#455387;stroke:#3d3d3d;stroke-width:0.2;" x="0" xlink:href="#m80fe226922" y="479.63625"/>
    </g>
   </g>
   <g id="PolyCollection_4">
    <defs>
     <path d="M 88.121703 -91.542098 
L 88.121703 -92.290402 
L 96.313013 -92.834228 
L 104.504322 -93.643761 
L 112.695632 -94.409782 
L 120.886941 -94.67693 
L 129.07825 -94.260634 
L 137.26956 -93.443437 
L 145.460869 -92.680223 
L 153.652179 -92.214094 
L 161.843488 -92.025064 
L 170.034797 -92.010802 
L 178.226107 -92.112381 
L 186.417416 -92.303735 
L 194.608725 -92.534382 
L 202.800035 -92.727954 
L 210.991344 -92.839875 
L 219.182654 -92.876348 
L 227.373963 -92.844566 
L 235.565272 -92.734554 
L 243.756582 -92.564813 
L 251.947891 -92.394608 
L 260.1392 -92.273279 
L 268.33051 -92.206226 
L 276.521819 -92.173706 
L 284.713129 -92.162069 
L 292.904438 -92.177471 
L 301.095747 -92.248614 
L 309.287057 -92.418343 
L 317.478366 -92.701207 
L 325.669676 -93.019508 
L 333.860985 -93.209864 
L 342.052294 -93.152949 
L 350.243604 -92.894358 
L 358.434913 -92.595694 
L 366.626222 -92.384117 
L 374.817532 -92.283942 
L 383.008841 -92.259876 
L 391.200151 -92.274258 
L 399.39146 -92.304691 
L 407.582769 -92.340587 
L 415.774079 -92.387575 
L 423.965388 -92.490624 
L 432.156697 -92.768937 
L 440.348007 -93.413469 
L 448.539316 -94.540678 
L 456.730626 -95.908483 
L 464.921935 -96.845592 
L 473.113244 -96.735608 
L 481.304554 -95.637557 
L 489.495863 -94.231624 
L 497.687173 -93.157905 
L 505.878482 -92.59078 
L 514.069791 -92.373508 
L 522.261101 -92.312733 
L 530.45241 -92.302241 
L 538.643719 -92.304419 
L 546.835029 -92.309323 
L 555.026338 -92.314349 
L 563.217648 -92.318443 
L 571.408957 -92.321464 
L 579.600266 -92.324558 
L 587.791576 -92.329692 
L 595.982885 -92.33866 
L 604.174195 -92.3528 
L 612.365504 -92.372766 
L 620.556813 -92.397383 
L 628.748123 -92.423282 
L 636.939432 -92.447112 
L 645.130741 -92.468116 
L 653.322051 -92.487516 
L 661.51336 -92.505828 
L 669.70467 -92.522713 
L 677.895979 -92.539848 
L 686.087288 -92.561552 
L 694.278598 -92.590595 
L 702.469907 -92.624731 
L 710.661216 -92.659518 
L 718.852526 -92.693576 
L 727.043835 -92.7288 
L 735.235145 -92.766444 
L 743.426454 -92.806118 
L 751.617763 -92.848762 
L 759.809073 -92.897615 
L 768.000382 -92.954603 
L 776.191692 -93.017305 
L 784.383001 -93.081526 
L 792.57431 -93.146791 
L 800.76562 -93.22164 
L 808.956929 -93.345708 
L 817.148238 -93.693829 
L 825.339548 -94.86902 
L 833.530857 -98.29921 
L 841.722167 -105.950307 
L 849.913476 -118.23253 
L 858.104785 -131.214802 
L 866.296095 -137.581001 
L 874.487404 -132.868266 
L 882.678713 -120.169216 
L 890.870023 -106.890328 
L 899.061332 -98.008981 
L 899.061332 -85.823519 
L 899.061332 -85.823519 
L 890.870023 -76.942172 
L 882.678713 -63.663284 
L 874.487404 -50.964234 
L 866.296095 -46.251499 
L 858.104785 -52.617698 
L 849.913476 -65.59997 
L 841.722167 -77.882193 
L 833.530857 -85.53329 
L 825.339548 -88.96348 
L 817.148238 -90.138671 
L 808.956929 -90.486792 
L 800.76562 -90.61086 
L 792.57431 -90.685709 
L 784.383001 -90.750974 
L 776.191692 -90.815195 
L 768.000382 -90.877897 
L 759.809073 -90.934885 
L 751.617763 -90.983738 
L 743.426454 -91.026382 
L 735.235145 -91.066056 
L 727.043835 -91.1037 
L 718.852526 -91.138924 
L 710.661216 -91.172982 
L 702.469907 -91.207769 
L 694.278598 -91.241905 
L 686.087288 -91.270948 
L 677.895979 -91.292652 
L 669.70467 -91.309787 
L 661.51336 -91.326672 
L 653.322051 -91.344984 
L 645.130741 -91.364384 
L 636.939432 -91.385388 
L 628.748123 -91.409218 
L 620.556813 -91.435117 
L 612.365504 -91.459734 
L 604.174195 -91.4797 
L 595.982885 -91.49384 
L 587.791576 -91.502808 
L 579.600266 -91.507942 
L 571.408957 -91.511036 
L 563.217648 -91.514057 
L 555.026338 -91.518151 
L 546.835029 -91.523177 
L 538.643719 -91.528081 
L 530.45241 -91.530259 
L 522.261101 -91.519767 
L 514.069791 -91.458992 
L 505.878482 -91.24172 
L 497.687173 -90.674595 
L 489.495863 -89.600876 
L 481.304554 -88.194943 
L 473.113244 -87.096892 
L 464.921935 -86.986908 
L 456.730626 -87.924017 
L 448.539316 -89.291822 
L 440.348007 -90.419031 
L 432.156697 -91.063563 
L 423.965388 -91.341876 
L 415.774079 -91.444925 
L 407.582769 -91.491913 
L 399.39146 -91.527809 
L 391.200151 -91.558242 
L 383.008841 -91.572624 
L 374.817532 -91.548558 
L 366.626222 -91.448383 
L 358.434913 -91.236806 
L 350.243604 -90.938142 
L 342.052294 -90.679551 
L 333.860985 -90.622636 
L 325.669676 -90.812992 
L 317.478366 -91.131293 
L 309.287057 -91.414157 
L 301.095747 -91.583886 
L 292.904438 -91.655029 
L 284.713129 -91.670431 
L 276.521819 -91.658794 
L 268.33051 -91.626274 
L 260.1392 -91.559221 
L 251.947891 -91.437892 
L 243.756582 -91.267687 
L 235.565272 -91.097946 
L 227.373963 -90.987934 
L 219.182654 -90.956152 
L 210.991344 -90.992625 
L 202.800035 -91.104546 
L 194.608725 -91.298118 
L 186.417416 -91.528765 
L 178.226107 -91.720119 
L 170.034797 -91.821698 
L 161.843488 -91.807436 
L 153.652179 -91.618406 
L 145.460869 -91.152277 
L 137.26956 -90.389063 
L 129.07825 -89.571866 
L 120.886941 -89.15557 
L 112.695632 -89.422718 
L 104.504322 -90.188739 
L 96.313013 -90.998272 
L 88.121703 -91.542098 
z
" id="ma3958f76c7" style="stroke:#3d3d3d;stroke-width:0.2;"/>
    </defs>
    <g clip-path="url(#p34c3a73cfc)">
     <use style="fill:#d57566;stroke:#3d3d3d;stroke-width:0.2;" x="0" xlink:href="#ma3958f76c7" y="479.63625"/>
    </g>
   </g>
   <g id="patch_3">
    <path clip-path="url(#p34c3a73cfc)" d="M 70.109375 115.92 
L 70.109375 115.92 
L 70.109375 115.92 
L 70.109375 115.92 
z
" style="fill:#455387;stroke:#3d3d3d;stroke-linejoin:miter;stroke-width:0.1;"/>
   </g>
   <g id="patch_4">
    <path clip-path="url(#p34c3a73cfc)" d="M 70.109375 115.92 
L 70.109375 115.92 
L 70.109375 115.92 
L 70.109375 115.92 
z
" style="fill:#d57566;stroke:#3d3d3d;stroke-linejoin:miter;stroke-width:0.1;"/>
   </g>
   <g id="matplotlib.axis_1">
    <g id="xtick_1">
     <g id="line2d_1">
      <defs>
       <path d="M 0 0 
L 0 3.5 
" id="m69b81e17f3" style="stroke:#000000;stroke-width:0.8;"/>
      </defs>
      <g>
       <use style="stroke:#000000;stroke-width:0.8;" x="70.109375" xlink:href="#m69b81e17f3" y="442.08"/>
      </g>
     </g>
     <g id="text_1">
      <!-- 0.0 -->
      <defs>
       <path d="M 31.78125 66.40625 
Q 24.171875 66.40625 20.328125 58.90625 
Q 16.5 51.421875 16.5 36.375 
Q 16.5 21.390625 20.328125 13.890625 
Q 24.171875 6.390625 31.78125 6.390625 
Q 39.453125 6.390625 43.28125 13.890625 
Q 47.125 21.390625 47.125 36.375 
Q 47.125 51.421875 43.28125 58.90625 
Q 39.453125 66.40625 31.78125 66.40625 
z
M 31.78125 74.21875 
Q 44.046875 74.21875 50.515625 64.515625 
Q 56.984375 54.828125 56.984375 36.375 
Q 56.984375 17.96875 50.515625 8.265625 
Q 44.046875 -1.421875 31.78125 -1.421875 
Q 19.53125 -1.421875 13.0625 8.265625 
Q 6.59375 17.96875 6.59375 36.375 
Q 6.59375 54.828125 13.0625 64.515625 
Q 19.53125 74.21875 31.78125 74.21875 
z
" id="DejaVuSans-48"/>
       <path d="M 10.6875 12.40625 
L 21 12.40625 
L 21 0 
L 10.6875 0 
z
" id="DejaVuSans-46"/>
      </defs>
      <g transform="translate(62.157812 456.678437)scale(0.1 -0.1)">
       <use xlink:href="#DejaVuSans-48"/>
       <use x="63.623047" xlink:href="#DejaVuSans-46"/>
       <use x="95.410156" xlink:href="#DejaVuSans-48"/>
      </g>
     </g>
    </g>
    <g id="xtick_2">
     <g id="line2d_2">
      <g>
       <use style="stroke:#000000;stroke-width:0.8;" x="229.537946" xlink:href="#m69b81e17f3" y="442.08"/>
      </g>
     </g>
     <g id="text_2">
      <!-- 0.2 -->
      <defs>
       <path d="M 19.1875 8.296875 
L 53.609375 8.296875 
L 53.609375 0 
L 7.328125 0 
L 7.328125 8.296875 
Q 12.9375 14.109375 22.625 23.890625 
Q 32.328125 33.6875 34.8125 36.53125 
Q 39.546875 41.84375 41.421875 45.53125 
Q 43.3125 49.21875 43.3125 52.78125 
Q 43.3125 58.59375 39.234375 62.25 
Q 35.15625 65.921875 28.609375 65.921875 
Q 23.96875 65.921875 18.8125 64.3125 
Q 13.671875 62.703125 7.8125 59.421875 
L 7.8125 69.390625 
Q 13.765625 71.78125 18.9375 73 
Q 24.125 74.21875 28.421875 74.21875 
Q 39.75 74.21875 46.484375 68.546875 
Q 53.21875 62.890625 53.21875 53.421875 
Q 53.21875 48.921875 51.53125 44.890625 
Q 49.859375 40.875 45.40625 35.40625 
Q 44.1875 33.984375 37.640625 27.21875 
Q 31.109375 20.453125 19.1875 8.296875 
z
" id="DejaVuSans-50"/>
      </defs>
      <g transform="translate(221.586384 456.678437)scale(0.1 -0.1)">
       <use xlink:href="#DejaVuSans-48"/>
       <use x="63.623047" xlink:href="#DejaVuSans-46"/>
       <use x="95.410156" xlink:href="#DejaVuSans-50"/>
      </g>
     </g>
    </g>
    <g id="xtick_3">
     <g id="line2d_3">
      <g>
       <use style="stroke:#000000;stroke-width:0.8;" x="388.966518" xlink:href="#m69b81e17f3" y="442.08"/>
      </g>
     </g>
     <g id="text_3">
      <!-- 0.4 -->
      <defs>
       <path d="M 37.796875 64.3125 
L 12.890625 25.390625 
L 37.796875 25.390625 
z
M 35.203125 72.90625 
L 47.609375 72.90625 
L 47.609375 25.390625 
L 58.015625 25.390625 
L 58.015625 17.1875 
L 47.609375 17.1875 
L 47.609375 0 
L 37.796875 0 
L 37.796875 17.1875 
L 4.890625 17.1875 
L 4.890625 26.703125 
z
" id="DejaVuSans-52"/>
      </defs>
      <g transform="translate(381.014955 456.678437)scale(0.1 -0.1)">
       <use xlink:href="#DejaVuSans-48"/>
       <use x="63.623047" xlink:href="#DejaVuSans-46"/>
       <use x="95.410156" xlink:href="#DejaVuSans-52"/>
      </g>
     </g>
    </g>
    <g id="xtick_4">
     <g id="line2d_4">
      <g>
       <use style="stroke:#000000;stroke-width:0.8;" x="548.395089" xlink:href="#m69b81e17f3" y="442.08"/>
      </g>
     </g>
     <g id="text_4">
      <!-- 0.6 -->
      <defs>
       <path d="M 33.015625 40.375 
Q 26.375 40.375 22.484375 35.828125 
Q 18.609375 31.296875 18.609375 23.390625 
Q 18.609375 15.53125 22.484375 10.953125 
Q 26.375 6.390625 33.015625 6.390625 
Q 39.65625 6.390625 43.53125 10.953125 
Q 47.40625 15.53125 47.40625 23.390625 
Q 47.40625 31.296875 43.53125 35.828125 
Q 39.65625 40.375 33.015625 40.375 
z
M 52.59375 71.296875 
L 52.59375 62.3125 
Q 48.875 64.0625 45.09375 64.984375 
Q 41.3125 65.921875 37.59375 65.921875 
Q 27.828125 65.921875 22.671875 59.328125 
Q 17.53125 52.734375 16.796875 39.40625 
Q 19.671875 43.65625 24.015625 45.921875 
Q 28.375 48.1875 33.59375 48.1875 
Q 44.578125 48.1875 50.953125 41.515625 
Q 57.328125 34.859375 57.328125 23.390625 
Q 57.328125 12.15625 50.6875 5.359375 
Q 44.046875 -1.421875 33.015625 -1.421875 
Q 20.359375 -1.421875 13.671875 8.265625 
Q 6.984375 17.96875 6.984375 36.375 
Q 6.984375 53.65625 15.1875 63.9375 
Q 23.390625 74.21875 37.203125 74.21875 
Q 40.921875 74.21875 44.703125 73.484375 
Q 48.484375 72.75 52.59375 71.296875 
z
" id="DejaVuSans-54"/>
      </defs>
      <g transform="translate(540.443527 456.678437)scale(0.1 -0.1)">
       <use xlink:href="#DejaVuSans-48"/>
       <use x="63.623047" xlink:href="#DejaVuSans-46"/>
       <use x="95.410156" xlink:href="#DejaVuSans-54"/>
      </g>
     </g>
    </g>
    <g id="xtick_5">
     <g id="line2d_5">
      <g>
       <use style="stroke:#000000;stroke-width:0.8;" x="707.823661" xlink:href="#m69b81e17f3" y="442.08"/>
      </g>
     </g>
     <g id="text_5">
      <!-- 0.8 -->
      <defs>
       <path d="M 31.78125 34.625 
Q 24.75 34.625 20.71875 30.859375 
Q 16.703125 27.09375 16.703125 20.515625 
Q 16.703125 13.921875 20.71875 10.15625 
Q 24.75 6.390625 31.78125 6.390625 
Q 38.8125 6.390625 42.859375 10.171875 
Q 46.921875 13.96875 46.921875 20.515625 
Q 46.921875 27.09375 42.890625 30.859375 
Q 38.875 34.625 31.78125 34.625 
z
M 21.921875 38.8125 
Q 15.578125 40.375 12.03125 44.71875 
Q 8.5 49.078125 8.5 55.328125 
Q 8.5 64.0625 14.71875 69.140625 
Q 20.953125 74.21875 31.78125 74.21875 
Q 42.671875 74.21875 48.875 69.140625 
Q 55.078125 64.0625 55.078125 55.328125 
Q 55.078125 49.078125 51.53125 44.71875 
Q 48 40.375 41.703125 38.8125 
Q 48.828125 37.15625 52.796875 32.3125 
Q 56.78125 27.484375 56.78125 20.515625 
Q 56.78125 9.90625 50.3125 4.234375 
Q 43.84375 -1.421875 31.78125 -1.421875 
Q 19.734375 -1.421875 13.25 4.234375 
Q 6.78125 9.90625 6.78125 20.515625 
Q 6.78125 27.484375 10.78125 32.3125 
Q 14.796875 37.15625 21.921875 38.8125 
z
M 18.3125 54.390625 
Q 18.3125 48.734375 21.84375 45.5625 
Q 25.390625 42.390625 31.78125 42.390625 
Q 38.140625 42.390625 41.71875 45.5625 
Q 45.3125 48.734375 45.3125 54.390625 
Q 45.3125 60.0625 41.71875 63.234375 
Q 38.140625 66.40625 31.78125 66.40625 
Q 25.390625 66.40625 21.84375 63.234375 
Q 18.3125 60.0625 18.3125 54.390625 
z
" id="DejaVuSans-56"/>
      </defs>
      <g transform="translate(699.872098 456.678437)scale(0.1 -0.1)">
       <use xlink:href="#DejaVuSans-48"/>
       <use x="63.623047" xlink:href="#DejaVuSans-46"/>
       <use x="95.410156" xlink:href="#DejaVuSans-56"/>
      </g>
     </g>
    </g>
    <g id="xtick_6">
     <g id="line2d_6">
      <g>
       <use style="stroke:#000000;stroke-width:0.8;" x="867.252232" xlink:href="#m69b81e17f3" y="442.08"/>
      </g>
     </g>
     <g id="text_6">
      <!-- 1.0 -->
      <defs>
       <path d="M 12.40625 8.296875 
L 28.515625 8.296875 
L 28.515625 63.921875 
L 10.984375 60.40625 
L 10.984375 69.390625 
L 28.421875 72.90625 
L 38.28125 72.90625 
L 38.28125 8.296875 
L 54.390625 8.296875 
L 54.390625 0 
L 12.40625 0 
z
" id="DejaVuSans-49"/>
      </defs>
      <g transform="translate(859.30067 456.678437)scale(0.1 -0.1)">
       <use xlink:href="#DejaVuSans-49"/>
       <use x="63.623047" xlink:href="#DejaVuSans-46"/>
       <use x="95.410156" xlink:href="#DejaVuSans-48"/>
      </g>
     </g>
    </g>
    <g id="text_7">
     <!-- Score -->
     <defs>
      <path d="M 53.515625 70.515625 
L 53.515625 60.890625 
Q 47.90625 63.578125 42.921875 64.890625 
Q 37.9375 66.21875 33.296875 66.21875 
Q 25.25 66.21875 20.875 63.09375 
Q 16.5 59.96875 16.5 54.203125 
Q 16.5 49.359375 19.40625 46.890625 
Q 22.3125 44.4375 30.421875 42.921875 
L 36.375 41.703125 
Q 47.40625 39.59375 52.65625 34.296875 
Q 57.90625 29 57.90625 20.125 
Q 57.90625 9.515625 50.796875 4.046875 
Q 43.703125 -1.421875 29.984375 -1.421875 
Q 24.8125 -1.421875 18.96875 -0.25 
Q 13.140625 0.921875 6.890625 3.21875 
L 6.890625 13.375 
Q 12.890625 10.015625 18.65625 8.296875 
Q 24.421875 6.59375 29.984375 6.59375 
Q 38.421875 6.59375 43.015625 9.90625 
Q 47.609375 13.234375 47.609375 19.390625 
Q 47.609375 24.75 44.3125 27.78125 
Q 41.015625 30.8125 33.5 32.328125 
L 27.484375 33.5 
Q 16.453125 35.6875 11.515625 40.375 
Q 6.59375 45.0625 6.59375 53.421875 
Q 6.59375 63.09375 13.40625 68.65625 
Q 20.21875 74.21875 32.171875 74.21875 
Q 37.3125 74.21875 42.625 73.28125 
Q 47.953125 72.359375 53.515625 70.515625 
z
" id="DejaVuSans-83"/>
      <path d="M 48.78125 52.59375 
L 48.78125 44.1875 
Q 44.96875 46.296875 41.140625 47.34375 
Q 37.3125 48.390625 33.40625 48.390625 
Q 24.65625 48.390625 19.8125 42.84375 
Q 14.984375 37.3125 14.984375 27.296875 
Q 14.984375 17.28125 19.8125 11.734375 
Q 24.65625 6.203125 33.40625 6.203125 
Q 37.3125 6.203125 41.140625 7.25 
Q 44.96875 8.296875 48.78125 10.40625 
L 48.78125 2.09375 
Q 45.015625 0.34375 40.984375 -0.53125 
Q 36.96875 -1.421875 32.421875 -1.421875 
Q 20.0625 -1.421875 12.78125 6.34375 
Q 5.515625 14.109375 5.515625 27.296875 
Q 5.515625 40.671875 12.859375 48.328125 
Q 20.21875 56 33.015625 56 
Q 37.15625 56 41.109375 55.140625 
Q 45.0625 54.296875 48.78125 52.59375 
z
" id="DejaVuSans-99"/>
      <path d="M 30.609375 48.390625 
Q 23.390625 48.390625 19.1875 42.75 
Q 14.984375 37.109375 14.984375 27.296875 
Q 14.984375 17.484375 19.15625 11.84375 
Q 23.34375 6.203125 30.609375 6.203125 
Q 37.796875 6.203125 41.984375 11.859375 
Q 46.1875 17.53125 46.1875 27.296875 
Q 46.1875 37.015625 41.984375 42.703125 
Q 37.796875 48.390625 30.609375 48.390625 
z
M 30.609375 56 
Q 42.328125 56 49.015625 48.375 
Q 55.71875 40.765625 55.71875 27.296875 
Q 55.71875 13.875 49.015625 6.21875 
Q 42.328125 -1.421875 30.609375 -1.421875 
Q 18.84375 -1.421875 12.171875 6.21875 
Q 5.515625 13.875 5.515625 27.296875 
Q 5.515625 40.765625 12.171875 48.375 
Q 18.84375 56 30.609375 56 
z
" id="DejaVuSans-111"/>
      <path d="M 41.109375 46.296875 
Q 39.59375 47.171875 37.8125 47.578125 
Q 36.03125 48 33.890625 48 
Q 26.265625 48 22.1875 43.046875 
Q 18.109375 38.09375 18.109375 28.8125 
L 18.109375 0 
L 9.078125 0 
L 9.078125 54.6875 
L 18.109375 54.6875 
L 18.109375 46.1875 
Q 20.953125 51.171875 25.484375 53.578125 
Q 30.03125 56 36.53125 56 
Q 37.453125 56 38.578125 55.875 
Q 39.703125 55.765625 41.0625 55.515625 
z
" id="DejaVuSans-114"/>
      <path d="M 56.203125 29.59375 
L 56.203125 25.203125 
L 14.890625 25.203125 
Q 15.484375 15.921875 20.484375 11.0625 
Q 25.484375 6.203125 34.421875 6.203125 
Q 39.59375 6.203125 44.453125 7.46875 
Q 49.3125 8.734375 54.109375 11.28125 
L 54.109375 2.78125 
Q 49.265625 0.734375 44.1875 -0.34375 
Q 39.109375 -1.421875 33.890625 -1.421875 
Q 20.796875 -1.421875 13.15625 6.1875 
Q 5.515625 13.8125 5.515625 26.8125 
Q 5.515625 40.234375 12.765625 48.109375 
Q 20.015625 56 32.328125 56 
Q 43.359375 56 49.78125 48.890625 
Q 56.203125 41.796875 56.203125 29.59375 
z
M 47.21875 32.234375 
Q 47.125 39.59375 43.09375 43.984375 
Q 39.0625 48.390625 32.421875 48.390625 
Q 24.90625 48.390625 20.390625 44.140625 
Q 15.875 39.890625 15.1875 32.171875 
z
" id="DejaVuSans-101"/>
     </defs>
     <g transform="translate(474.496094 470.356562)scale(0.1 -0.1)">
      <use xlink:href="#DejaVuSans-83"/>
      <use x="63.476562" xlink:href="#DejaVuSans-99"/>
      <use x="118.457031" xlink:href="#DejaVuSans-111"/>
      <use x="179.638672" xlink:href="#DejaVuSans-114"/>
      <use x="220.720703" xlink:href="#DejaVuSans-101"/>
     </g>
    </g>
   </g>
   <g id="matplotlib.axis_2">
    <g id="ytick_1">
     <g id="line2d_7">
      <defs>
       <path d="M 0 0 
L -3.5 0 
" id="m41a1791403" style="stroke:#000000;stroke-width:0.8;"/>
      </defs>
      <g>
       <use style="stroke:#000000;stroke-width:0.8;" x="70.109375" xlink:href="#m41a1791403" y="115.92"/>
      </g>
     </g>
     <g id="text_8">
      <!-- Non-PLC -->
      <defs>
       <path d="M 9.8125 72.90625 
L 23.09375 72.90625 
L 55.421875 11.921875 
L 55.421875 72.90625 
L 64.984375 72.90625 
L 64.984375 0 
L 51.703125 0 
L 19.390625 60.984375 
L 19.390625 0 
L 9.8125 0 
z
" id="DejaVuSans-78"/>
       <path d="M 54.890625 33.015625 
L 54.890625 0 
L 45.90625 0 
L 45.90625 32.71875 
Q 45.90625 40.484375 42.875 44.328125 
Q 39.84375 48.1875 33.796875 48.1875 
Q 26.515625 48.1875 22.3125 43.546875 
Q 18.109375 38.921875 18.109375 30.90625 
L 18.109375 0 
L 9.078125 0 
L 9.078125 54.6875 
L 18.109375 54.6875 
L 18.109375 46.1875 
Q 21.34375 51.125 25.703125 53.5625 
Q 30.078125 56 35.796875 56 
Q 45.21875 56 50.046875 50.171875 
Q 54.890625 44.34375 54.890625 33.015625 
z
" id="DejaVuSans-110"/>
       <path d="M 4.890625 31.390625 
L 31.203125 31.390625 
L 31.203125 23.390625 
L 4.890625 23.390625 
z
" id="DejaVuSans-45"/>
       <path d="M 19.671875 64.796875 
L 19.671875 37.40625 
L 32.078125 37.40625 
Q 38.96875 37.40625 42.71875 40.96875 
Q 46.484375 44.53125 46.484375 51.125 
Q 46.484375 57.671875 42.71875 61.234375 
Q 38.96875 64.796875 32.078125 64.796875 
z
M 9.8125 72.90625 
L 32.078125 72.90625 
Q 44.34375 72.90625 50.609375 67.359375 
Q 56.890625 61.8125 56.890625 51.125 
Q 56.890625 40.328125 50.609375 34.8125 
Q 44.34375 29.296875 32.078125 29.296875 
L 19.671875 29.296875 
L 19.671875 0 
L 9.8125 0 
z
" id="DejaVuSans-80"/>
       <path d="M 9.8125 72.90625 
L 19.671875 72.90625 
L 19.671875 8.296875 
L 55.171875 8.296875 
L 55.171875 0 
L 9.8125 0 
z
" id="DejaVuSans-76"/>
       <path d="M 64.40625 67.28125 
L 64.40625 56.890625 
Q 59.421875 61.53125 53.78125 63.8125 
Q 48.140625 66.109375 41.796875 66.109375 
Q 29.296875 66.109375 22.65625 58.46875 
Q 16.015625 50.828125 16.015625 36.375 
Q 16.015625 21.96875 22.65625 14.328125 
Q 29.296875 6.6875 41.796875 6.6875 
Q 48.140625 6.6875 53.78125 8.984375 
Q 59.421875 11.28125 64.40625 15.921875 
L 64.40625 5.609375 
Q 59.234375 2.09375 53.4375 0.328125 
Q 47.65625 -1.421875 41.21875 -1.421875 
Q 24.65625 -1.421875 15.125 8.703125 
Q 5.609375 18.84375 5.609375 36.375 
Q 5.609375 53.953125 15.125 64.078125 
Q 24.65625 74.21875 41.21875 74.21875 
Q 47.75 74.21875 53.53125 72.484375 
Q 59.328125 70.75 64.40625 67.28125 
z
" id="DejaVuSans-67"/>
      </defs>
      <g transform="translate(20.979687 119.719219)scale(0.1 -0.1)">
       <use xlink:href="#DejaVuSans-78"/>
       <use x="74.804688" xlink:href="#DejaVuSans-111"/>
       <use x="135.986328" xlink:href="#DejaVuSans-110"/>
       <use x="199.365234" xlink:href="#DejaVuSans-45"/>
       <use x="235.449219" xlink:href="#DejaVuSans-80"/>
       <use x="295.751953" xlink:href="#DejaVuSans-76"/>
       <use x="351.464844" xlink:href="#DejaVuSans-67"/>
      </g>
     </g>
    </g>
    <g id="ytick_2">
     <g id="line2d_8">
      <g>
       <use style="stroke:#000000;stroke-width:0.8;" x="70.109375" xlink:href="#m41a1791403" y="333.36"/>
      </g>
     </g>
     <g id="text_9">
      <!-- PLC -->
      <g transform="translate(44.525 337.159219)scale(0.1 -0.1)">
       <use xlink:href="#DejaVuSans-80"/>
       <use x="60.302734" xlink:href="#DejaVuSans-76"/>
       <use x="116.015625" xlink:href="#DejaVuSans-67"/>
      </g>
     </g>
    </g>
    <g id="text_10">
     <!-- PLC_Tag -->
     <defs>
      <path d="M 50.984375 -16.609375 
L 50.984375 -23.578125 
L -0.984375 -23.578125 
L -0.984375 -16.609375 
z
" id="DejaVuSans-95"/>
      <path d="M -0.296875 72.90625 
L 61.375 72.90625 
L 61.375 64.59375 
L 35.5 64.59375 
L 35.5 0 
L 25.59375 0 
L 25.59375 64.59375 
L -0.296875 64.59375 
z
" id="DejaVuSans-84"/>
      <path d="M 34.28125 27.484375 
Q 23.390625 27.484375 19.1875 25 
Q 14.984375 22.515625 14.984375 16.5 
Q 14.984375 11.71875 18.140625 8.90625 
Q 21.296875 6.109375 26.703125 6.109375 
Q 34.1875 6.109375 38.703125 11.40625 
Q 43.21875 16.703125 43.21875 25.484375 
L 43.21875 27.484375 
z
M 52.203125 31.203125 
L 52.203125 0 
L 43.21875 0 
L 43.21875 8.296875 
Q 40.140625 3.328125 35.546875 0.953125 
Q 30.953125 -1.421875 24.3125 -1.421875 
Q 15.921875 -1.421875 10.953125 3.296875 
Q 6 8.015625 6 15.921875 
Q 6 25.140625 12.171875 29.828125 
Q 18.359375 34.515625 30.609375 34.515625 
L 43.21875 34.515625 
L 43.21875 35.40625 
Q 43.21875 41.609375 39.140625 45 
Q 35.0625 48.390625 27.6875 48.390625 
Q 23 48.390625 18.546875 47.265625 
Q 14.109375 46.140625 10.015625 43.890625 
L 10.015625 52.203125 
Q 14.9375 54.109375 19.578125 55.046875 
Q 24.21875 56 28.609375 56 
Q 40.484375 56 46.34375 49.84375 
Q 52.203125 43.703125 52.203125 31.203125 
z
" id="DejaVuSans-97"/>
      <path d="M 45.40625 27.984375 
Q 45.40625 37.75 41.375 43.109375 
Q 37.359375 48.484375 30.078125 48.484375 
Q 22.859375 48.484375 18.828125 43.109375 
Q 14.796875 37.75 14.796875 27.984375 
Q 14.796875 18.265625 18.828125 12.890625 
Q 22.859375 7.515625 30.078125 7.515625 
Q 37.359375 7.515625 41.375 12.890625 
Q 45.40625 18.265625 45.40625 27.984375 
z
M 54.390625 6.78125 
Q 54.390625 -7.171875 48.1875 -13.984375 
Q 42 -20.796875 29.203125 -20.796875 
Q 24.46875 -20.796875 20.265625 -20.09375 
Q 16.0625 -19.390625 12.109375 -17.921875 
L 12.109375 -9.1875 
Q 16.0625 -11.328125 19.921875 -12.34375 
Q 23.78125 -13.375 27.78125 -13.375 
Q 36.625 -13.375 41.015625 -8.765625 
Q 45.40625 -4.15625 45.40625 5.171875 
L 45.40625 9.625 
Q 42.625 4.78125 38.28125 2.390625 
Q 33.9375 0 27.875 0 
Q 17.828125 0 11.671875 7.65625 
Q 5.515625 15.328125 5.515625 27.984375 
Q 5.515625 40.671875 11.671875 48.328125 
Q 17.828125 56 27.875 56 
Q 33.9375 56 38.28125 53.609375 
Q 42.625 51.21875 45.40625 46.390625 
L 45.40625 54.6875 
L 54.390625 54.6875 
z
" id="DejaVuSans-103"/>
     </defs>
     <g transform="translate(14.621875 245.711875)rotate(-90)scale(0.1 -0.1)">
      <use xlink:href="#DejaVuSans-80"/>
      <use x="60.302734" xlink:href="#DejaVuSans-76"/>
      <use x="116.015625" xlink:href="#DejaVuSans-67"/>
      <use x="185.839844" xlink:href="#DejaVuSans-95"/>
      <use x="235.839844" xlink:href="#DejaVuSans-84"/>
      <use x="296.673828" xlink:href="#DejaVuSans-97"/>
      <use x="357.953125" xlink:href="#DejaVuSans-103"/>
     </g>
    </g>
   </g>
   <g id="line2d_9">
    <path clip-path="url(#p34c3a73cfc)" d="M 867.252232 61.56 
L 867.252232 61.56 
" style="fill:none;stroke:#3d3d3d;stroke-linecap:square;stroke-width:0.2;"/>
   </g>
   <g id="line2d_10">
    <path clip-path="url(#p34c3a73cfc)" d="M 867.252232 61.56 
L 867.252232 61.56 
" style="fill:none;stroke:#3d3d3d;stroke-linecap:square;stroke-width:0.6;"/>
   </g>
   <g id="line2d_11">
    <path clip-path="url(#p34c3a73cfc)" d="M 867.252232 170.28 
L 867.252232 170.28 
" style="fill:none;stroke:#3d3d3d;stroke-linecap:square;stroke-width:0.2;"/>
   </g>
   <g id="line2d_12">
    <path clip-path="url(#p34c3a73cfc)" d="M 867.252232 170.28 
L 867.252232 170.28 
" style="fill:none;stroke:#3d3d3d;stroke-linecap:square;stroke-width:0.6;"/>
   </g>
   <g id="line2d_13">
    <path clip-path="url(#p34c3a73cfc)" d="M 702.326124 279 
L 867.252232 279 
" style="fill:none;stroke:#3d3d3d;stroke-linecap:square;stroke-width:0.2;"/>
   </g>
   <g id="line2d_14">
    <path clip-path="url(#p34c3a73cfc)" d="M 800.823661 279 
L 867.252232 279 
" style="fill:none;stroke:#3d3d3d;stroke-linecap:square;stroke-width:0.6;"/>
   </g>
   <g id="line2d_15">
    <path clip-path="url(#p34c3a73cfc)" d="M 648.303634 387.72 
L 867.252232 387.72 
" style="fill:none;stroke:#3d3d3d;stroke-linecap:square;stroke-width:0.2;"/>
   </g>
   <g id="line2d_16">
    <path clip-path="url(#p34c3a73cfc)" d="M 779.566518 387.72 
L 867.252232 387.72 
" style="fill:none;stroke:#3d3d3d;stroke-linecap:square;stroke-width:0.6;"/>
   </g>
   <g id="patch_5">
    <path d="M 70.109375 442.08 
L 70.109375 7.2 
" style="fill:none;stroke:#000000;stroke-linecap:square;stroke-linejoin:miter;stroke-width:0.8;"/>
   </g>
   <g id="patch_6">
    <path d="M 907.109375 442.08 
L 907.109375 7.2 
" style="fill:none;stroke:#000000;stroke-linecap:square;stroke-linejoin:miter;stroke-width:0.8;"/>
   </g>
   <g id="patch_7">
    <path d="M 70.109375 442.08 
L 907.109375 442.08 
" style="fill:none;stroke:#000000;stroke-linecap:square;stroke-linejoin:miter;stroke-width:0.8;"/>
   </g>
   <g id="patch_8">
    <path d="M 70.109375 7.2 
L 907.109375 7.2 
" style="fill:none;stroke:#000000;stroke-linecap:square;stroke-linejoin:miter;stroke-width:0.8;"/>
   </g>
   <g id="PathCollection_1">
    <defs>
     <path d="M 0 0.2 
C 0.053041 0.2 0.103916 0.178927 0.141421 0.141421 
C 0.178927 0.103916 0.2 0.053041 0.2 0 
C 0.2 -0.053041 0.178927 -0.103916 0.141421 -0.141421 
C 0.103916 -0.178927 0.053041 -0.2 0 -0.2 
C -0.053041 -0.2 -0.103916 -0.178927 -0.141421 -0.141421 
C -0.178927 -0.103916 -0.2 -0.053041 -0.2 0 
C -0.2 0.053041 -0.178927 0.103916 -0.141421 0.141421 
C -0.103916 0.178927 -0.053041 0.2 0 0.2 
z
" id="m359a0ceb35" style="stroke:#3d3d3d;"/>
    </defs>
    <g clip-path="url(#p34c3a73cfc)">
     <use style="fill:#ffffff;stroke:#3d3d3d;" x="867.252232" xlink:href="#m359a0ceb35" y="61.56"/>
    </g>
   </g>
   <g id="PathCollection_2">
    <g clip-path="url(#p34c3a73cfc)">
     <use style="fill:#ffffff;stroke:#3d3d3d;" x="867.252232" xlink:href="#m359a0ceb35" y="170.28"/>
    </g>
   </g>
   <g id="PathCollection_3">
    <g clip-path="url(#p34c3a73cfc)">
     <use style="fill:#ffffff;stroke:#3d3d3d;" x="867.252232" xlink:href="#m359a0ceb35" y="279"/>
    </g>
   </g>
   <g id="PathCollection_4">
    <g clip-path="url(#p34c3a73cfc)">
     <use style="fill:#ffffff;stroke:#3d3d3d;" x="867.252232" xlink:href="#m359a0ceb35" y="387.72"/>
    </g>
   </g>
   <g id="legend_1">
    <g id="patch_9">
     <path d="M 79.109375 23.798437 
L 99.109375 23.798437 
L 99.109375 16.798437 
L 79.109375 16.798437 
z
" style="fill:#455387;stroke:#3d3d3d;stroke-linejoin:miter;stroke-width:0.1;"/>
    </g>
    <g id="text_11">
     <!-- EBR_36CI -->
     <defs>
      <path d="M 9.8125 72.90625 
L 55.90625 72.90625 
L 55.90625 64.59375 
L 19.671875 64.59375 
L 19.671875 43.015625 
L 54.390625 43.015625 
L 54.390625 34.71875 
L 19.671875 34.71875 
L 19.671875 8.296875 
L 56.78125 8.296875 
L 56.78125 0 
L 9.8125 0 
z
" id="DejaVuSans-69"/>
      <path d="M 19.671875 34.8125 
L 19.671875 8.109375 
L 35.5 8.109375 
Q 43.453125 8.109375 47.28125 11.40625 
Q 51.125 14.703125 51.125 21.484375 
Q 51.125 28.328125 47.28125 31.5625 
Q 43.453125 34.8125 35.5 34.8125 
z
M 19.671875 64.796875 
L 19.671875 42.828125 
L 34.28125 42.828125 
Q 41.5 42.828125 45.03125 45.53125 
Q 48.578125 48.25 48.578125 53.8125 
Q 48.578125 59.328125 45.03125 62.0625 
Q 41.5 64.796875 34.28125 64.796875 
z
M 9.8125 72.90625 
L 35.015625 72.90625 
Q 46.296875 72.90625 52.390625 68.21875 
Q 58.5 63.53125 58.5 54.890625 
Q 58.5 48.1875 55.375 44.234375 
Q 52.25 40.28125 46.1875 39.3125 
Q 53.46875 37.75 57.5 32.78125 
Q 61.53125 27.828125 61.53125 20.40625 
Q 61.53125 10.640625 54.890625 5.3125 
Q 48.25 0 35.984375 0 
L 9.8125 0 
z
" id="DejaVuSans-66"/>
      <path d="M 44.390625 34.1875 
Q 47.5625 33.109375 50.5625 29.59375 
Q 53.5625 26.078125 56.59375 19.921875 
L 66.609375 0 
L 56 0 
L 46.6875 18.703125 
Q 43.0625 26.03125 39.671875 28.421875 
Q 36.28125 30.8125 30.421875 30.8125 
L 19.671875 30.8125 
L 19.671875 0 
L 9.8125 0 
L 9.8125 72.90625 
L 32.078125 72.90625 
Q 44.578125 72.90625 50.734375 67.671875 
Q 56.890625 62.453125 56.890625 51.90625 
Q 56.890625 45.015625 53.6875 40.46875 
Q 50.484375 35.9375 44.390625 34.1875 
z
M 19.671875 64.796875 
L 19.671875 38.921875 
L 32.078125 38.921875 
Q 39.203125 38.921875 42.84375 42.21875 
Q 46.484375 45.515625 46.484375 51.90625 
Q 46.484375 58.296875 42.84375 61.546875 
Q 39.203125 64.796875 32.078125 64.796875 
z
" id="DejaVuSans-82"/>
      <path d="M 40.578125 39.3125 
Q 47.65625 37.796875 51.625 33 
Q 55.609375 28.21875 55.609375 21.1875 
Q 55.609375 10.40625 48.1875 4.484375 
Q 40.765625 -1.421875 27.09375 -1.421875 
Q 22.515625 -1.421875 17.65625 -0.515625 
Q 12.796875 0.390625 7.625 2.203125 
L 7.625 11.71875 
Q 11.71875 9.328125 16.59375 8.109375 
Q 21.484375 6.890625 26.8125 6.890625 
Q 36.078125 6.890625 40.9375 10.546875 
Q 45.796875 14.203125 45.796875 21.1875 
Q 45.796875 27.640625 41.28125 31.265625 
Q 36.765625 34.90625 28.71875 34.90625 
L 20.21875 34.90625 
L 20.21875 43.015625 
L 29.109375 43.015625 
Q 36.375 43.015625 40.234375 45.921875 
Q 44.09375 48.828125 44.09375 54.296875 
Q 44.09375 59.90625 40.109375 62.90625 
Q 36.140625 65.921875 28.71875 65.921875 
Q 24.65625 65.921875 20.015625 65.03125 
Q 15.375 64.15625 9.8125 62.3125 
L 9.8125 71.09375 
Q 15.4375 72.65625 20.34375 73.4375 
Q 25.25 74.21875 29.59375 74.21875 
Q 40.828125 74.21875 47.359375 69.109375 
Q 53.90625 64.015625 53.90625 55.328125 
Q 53.90625 49.265625 50.4375 45.09375 
Q 46.96875 40.921875 40.578125 39.3125 
z
" id="DejaVuSans-51"/>
      <path d="M 9.8125 72.90625 
L 19.671875 72.90625 
L 19.671875 0 
L 9.8125 0 
z
" id="DejaVuSans-73"/>
     </defs>
     <g transform="translate(107.109375 23.798437)scale(0.1 -0.1)">
      <use xlink:href="#DejaVuSans-69"/>
      <use x="63.183594" xlink:href="#DejaVuSans-66"/>
      <use x="131.787109" xlink:href="#DejaVuSans-82"/>
      <use x="201.269531" xlink:href="#DejaVuSans-95"/>
      <use x="251.269531" xlink:href="#DejaVuSans-51"/>
      <use x="314.892578" xlink:href="#DejaVuSans-54"/>
      <use x="378.515625" xlink:href="#DejaVuSans-67"/>
      <use x="448.339844" xlink:href="#DejaVuSans-73"/>
     </g>
    </g>
    <g id="patch_10">
     <path d="M 79.109375 38.754687 
L 99.109375 38.754687 
L 99.109375 31.754687 
L 79.109375 31.754687 
z
" style="fill:#d57566;stroke:#3d3d3d;stroke-linejoin:miter;stroke-width:0.1;"/>
    </g>
    <g id="text_12">
     <!-- Pmap_K50_E4 -->
     <defs>
      <path d="M 52 44.1875 
Q 55.375 50.25 60.0625 53.125 
Q 64.75 56 71.09375 56 
Q 79.640625 56 84.28125 50.015625 
Q 88.921875 44.046875 88.921875 33.015625 
L 88.921875 0 
L 79.890625 0 
L 79.890625 32.71875 
Q 79.890625 40.578125 77.09375 44.375 
Q 74.3125 48.1875 68.609375 48.1875 
Q 61.625 48.1875 57.5625 43.546875 
Q 53.515625 38.921875 53.515625 30.90625 
L 53.515625 0 
L 44.484375 0 
L 44.484375 32.71875 
Q 44.484375 40.625 41.703125 44.40625 
Q 38.921875 48.1875 33.109375 48.1875 
Q 26.21875 48.1875 22.15625 43.53125 
Q 18.109375 38.875 18.109375 30.90625 
L 18.109375 0 
L 9.078125 0 
L 9.078125 54.6875 
L 18.109375 54.6875 
L 18.109375 46.1875 
Q 21.1875 51.21875 25.484375 53.609375 
Q 29.78125 56 35.6875 56 
Q 41.65625 56 45.828125 52.96875 
Q 50 49.953125 52 44.1875 
z
" id="DejaVuSans-109"/>
      <path d="M 18.109375 8.203125 
L 18.109375 -20.796875 
L 9.078125 -20.796875 
L 9.078125 54.6875 
L 18.109375 54.6875 
L 18.109375 46.390625 
Q 20.953125 51.265625 25.265625 53.625 
Q 29.59375 56 35.59375 56 
Q 45.5625 56 51.78125 48.09375 
Q 58.015625 40.1875 58.015625 27.296875 
Q 58.015625 14.40625 51.78125 6.484375 
Q 45.5625 -1.421875 35.59375 -1.421875 
Q 29.59375 -1.421875 25.265625 0.953125 
Q 20.953125 3.328125 18.109375 8.203125 
z
M 48.6875 27.296875 
Q 48.6875 37.203125 44.609375 42.84375 
Q 40.53125 48.484375 33.40625 48.484375 
Q 26.265625 48.484375 22.1875 42.84375 
Q 18.109375 37.203125 18.109375 27.296875 
Q 18.109375 17.390625 22.1875 11.75 
Q 26.265625 6.109375 33.40625 6.109375 
Q 40.53125 6.109375 44.609375 11.75 
Q 48.6875 17.390625 48.6875 27.296875 
z
" id="DejaVuSans-112"/>
      <path d="M 9.8125 72.90625 
L 19.671875 72.90625 
L 19.671875 42.09375 
L 52.390625 72.90625 
L 65.09375 72.90625 
L 28.90625 38.921875 
L 67.671875 0 
L 54.6875 0 
L 19.671875 35.109375 
L 19.671875 0 
L 9.8125 0 
z
" id="DejaVuSans-75"/>
      <path d="M 10.796875 72.90625 
L 49.515625 72.90625 
L 49.515625 64.59375 
L 19.828125 64.59375 
L 19.828125 46.734375 
Q 21.96875 47.46875 24.109375 47.828125 
Q 26.265625 48.1875 28.421875 48.1875 
Q 40.625 48.1875 47.75 41.5 
Q 54.890625 34.8125 54.890625 23.390625 
Q 54.890625 11.625 47.5625 5.09375 
Q 40.234375 -1.421875 26.90625 -1.421875 
Q 22.3125 -1.421875 17.546875 -0.640625 
Q 12.796875 0.140625 7.71875 1.703125 
L 7.71875 11.625 
Q 12.109375 9.234375 16.796875 8.0625 
Q 21.484375 6.890625 26.703125 6.890625 
Q 35.15625 6.890625 40.078125 11.328125 
Q 45.015625 15.765625 45.015625 23.390625 
Q 45.015625 31 40.078125 35.4375 
Q 35.15625 39.890625 26.703125 39.890625 
Q 22.75 39.890625 18.8125 39.015625 
Q 14.890625 38.140625 10.796875 36.28125 
z
" id="DejaVuSans-53"/>
     </defs>
     <g transform="translate(107.109375 38.754687)scale(0.1 -0.1)">
      <use xlink:href="#DejaVuSans-80"/>
      <use x="60.302734" xlink:href="#DejaVuSans-109"/>
      <use x="157.714844" xlink:href="#DejaVuSans-97"/>
      <use x="218.994141" xlink:href="#DejaVuSans-112"/>
      <use x="282.470703" xlink:href="#DejaVuSans-95"/>
      <use x="332.470703" xlink:href="#DejaVuSans-75"/>
      <use x="398.046875" xlink:href="#DejaVuSans-53"/>
      <use x="461.669922" xlink:href="#DejaVuSans-48"/>
      <use x="525.292969" xlink:href="#DejaVuSans-95"/>
      <use x="575.292969" xlink:href="#DejaVuSans-69"/>
      <use x="638.476562" xlink:href="#DejaVuSans-52"/>
     </g>
    </g>
   </g>
  </g>
 </g>
 <defs>
  <clipPath id="p34c3a73cfc">
   <rect height="434.88" width="837" x="70.109375" y="7.2"/>
  </clipPath>
 </defs>
</svg>
